ISO-10303-21;
HEADER;
  FILE_DESCRIPTION(('Benchmark plate with 100 triangular holes (10x10 grid)'),'2;1');
  FILE_NAME('benchmark_plate_10x10.stp','2026-01-04',(''),(''),'','','');
  FILE_SCHEMA(('AUTOMOTIVE_DESIGN'));
ENDSEC;
DATA;

#1 = CARTESIAN_POINT('', (0.0, 0.0, 0.0));
#2 = DIRECTION('', (0.0, 0.0, 1.0));
#3 = DIRECTION('', (1.0, 0.0, 0.0));
#4 = AXIS2_PLACEMENT_3D('', #1, #2, #3);
#5 = PLANE('', #4);
#6 = VECTOR('', #3, 1.0);

/* ==== Outer rectangular boundary (CCW) ==== */
#7 = CARTESIAN_POINT('', (0.0, 0.0, 0.0));
#8 = CARTESIAN_POINT('', (100.0, 0.0, 0.0));
#9 = CARTESIAN_POINT('', (100.0, 100.0, 0.0));
#10 = CARTESIAN_POINT('', (0.0, 100.0, 0.0));
#11 = VERTEX_POINT('', #7);
#12 = VERTEX_POINT('', #8);
#13 = VERTEX_POINT('', #9);
#14 = VERTEX_POINT('', #10);
#15 = LINE('', #7, #6);
#16 = LINE('', #8, #6);
#17 = LINE('', #9, #6);
#18 = LINE('', #10, #6);
#19 = EDGE_CURVE('', #11, #12, #15, .T.);
#20 = EDGE_CURVE('', #12, #13, #16, .T.);
#21 = EDGE_CURVE('', #13, #14, #17, .T.);
#22 = EDGE_CURVE('', #14, #11, #18, .T.);
#23 = ORIENTED_EDGE('', *, *, #19, .T.);
#24 = ORIENTED_EDGE('', *, *, #20, .T.);
#25 = ORIENTED_EDGE('', *, *, #21, .T.);
#26 = ORIENTED_EDGE('', *, *, #22, .T.);
#27 = EDGE_LOOP('', (#23, #24, #25, #26));
#28 = FACE_OUTER_BOUND('', #27, .T.);

/* ==== Hole 1 (row 0, col 0) CW ==== */
#29 = CARTESIAN_POINT('', (8.000, 8.000, 0.0));
#30 = CARTESIAN_POINT('', (8.000, 11.000, 0.0));
#31 = CARTESIAN_POINT('', (11.000, 9.500, 0.0));
#32 = VERTEX_POINT('', #29);
#33 = VERTEX_POINT('', #30);
#34 = VERTEX_POINT('', #31);
#35 = LINE('', #29, #6);
#36 = LINE('', #30, #6);
#37 = LINE('', #31, #6);
#38 = EDGE_CURVE('', #32, #33, #35, .T.);
#39 = EDGE_CURVE('', #33, #34, #36, .T.);
#40 = EDGE_CURVE('', #34, #32, #37, .T.);
#41 = ORIENTED_EDGE('', *, *, #38, .T.);
#42 = ORIENTED_EDGE('', *, *, #39, .T.);
#43 = ORIENTED_EDGE('', *, *, #40, .T.);
#44 = EDGE_LOOP('', (#41, #42, #43));
#45 = FACE_BOUND('', #44, .T.);

/* ==== Hole 2 (row 0, col 1) CW ==== */
#46 = CARTESIAN_POINT('', (17.000, 8.000, 0.0));
#47 = CARTESIAN_POINT('', (17.000, 11.000, 0.0));
#48 = CARTESIAN_POINT('', (20.000, 9.500, 0.0));
#49 = VERTEX_POINT('', #46);
#50 = VERTEX_POINT('', #47);
#51 = VERTEX_POINT('', #48);
#52 = LINE('', #46, #6);
#53 = LINE('', #47, #6);
#54 = LINE('', #48, #6);
#55 = EDGE_CURVE('', #49, #50, #52, .T.);
#56 = EDGE_CURVE('', #50, #51, #53, .T.);
#57 = EDGE_CURVE('', #51, #49, #54, .T.);
#58 = ORIENTED_EDGE('', *, *, #55, .T.);
#59 = ORIENTED_EDGE('', *, *, #56, .T.);
#60 = ORIENTED_EDGE('', *, *, #57, .T.);
#61 = EDGE_LOOP('', (#58, #59, #60));
#62 = FACE_BOUND('', #61, .T.);

/* ==== Hole 3 (row 0, col 2) CW ==== */
#63 = CARTESIAN_POINT('', (26.000, 8.000, 0.0));
#64 = CARTESIAN_POINT('', (26.000, 11.000, 0.0));
#65 = CARTESIAN_POINT('', (29.000, 9.500, 0.0));
#66 = VERTEX_POINT('', #63);
#67 = VERTEX_POINT('', #64);
#68 = VERTEX_POINT('', #65);
#69 = LINE('', #63, #6);
#70 = LINE('', #64, #6);
#71 = LINE('', #65, #6);
#72 = EDGE_CURVE('', #66, #67, #69, .T.);
#73 = EDGE_CURVE('', #67, #68, #70, .T.);
#74 = EDGE_CURVE('', #68, #66, #71, .T.);
#75 = ORIENTED_EDGE('', *, *, #72, .T.);
#76 = ORIENTED_EDGE('', *, *, #73, .T.);
#77 = ORIENTED_EDGE('', *, *, #74, .T.);
#78 = EDGE_LOOP('', (#75, #76, #77));
#79 = FACE_BOUND('', #78, .T.);

/* ==== Hole 4 (row 0, col 3) CW ==== */
#80 = CARTESIAN_POINT('', (35.000, 8.000, 0.0));
#81 = CARTESIAN_POINT('', (35.000, 11.000, 0.0));
#82 = CARTESIAN_POINT('', (38.000, 9.500, 0.0));
#83 = VERTEX_POINT('', #80);
#84 = VERTEX_POINT('', #81);
#85 = VERTEX_POINT('', #82);
#86 = LINE('', #80, #6);
#87 = LINE('', #81, #6);
#88 = LINE('', #82, #6);
#89 = EDGE_CURVE('', #83, #84, #86, .T.);
#90 = EDGE_CURVE('', #84, #85, #87, .T.);
#91 = EDGE_CURVE('', #85, #83, #88, .T.);
#92 = ORIENTED_EDGE('', *, *, #89, .T.);
#93 = ORIENTED_EDGE('', *, *, #90, .T.);
#94 = ORIENTED_EDGE('', *, *, #91, .T.);
#95 = EDGE_LOOP('', (#92, #93, #94));
#96 = FACE_BOUND('', #95, .T.);

/* ==== Hole 5 (row 0, col 4) CW ==== */
#97 = CARTESIAN_POINT('', (44.000, 8.000, 0.0));
#98 = CARTESIAN_POINT('', (44.000, 11.000, 0.0));
#99 = CARTESIAN_POINT('', (47.000, 9.500, 0.0));
#100 = VERTEX_POINT('', #97);
#101 = VERTEX_POINT('', #98);
#102 = VERTEX_POINT('', #99);
#103 = LINE('', #97, #6);
#104 = LINE('', #98, #6);
#105 = LINE('', #99, #6);
#106 = EDGE_CURVE('', #100, #101, #103, .T.);
#107 = EDGE_CURVE('', #101, #102, #104, .T.);
#108 = EDGE_CURVE('', #102, #100, #105, .T.);
#109 = ORIENTED_EDGE('', *, *, #106, .T.);
#110 = ORIENTED_EDGE('', *, *, #107, .T.);
#111 = ORIENTED_EDGE('', *, *, #108, .T.);
#112 = EDGE_LOOP('', (#109, #110, #111));
#113 = FACE_BOUND('', #112, .T.);

/* ==== Hole 6 (row 0, col 5) CW ==== */
#114 = CARTESIAN_POINT('', (53.000, 8.000, 0.0));
#115 = CARTESIAN_POINT('', (53.000, 11.000, 0.0));
#116 = CARTESIAN_POINT('', (56.000, 9.500, 0.0));
#117 = VERTEX_POINT('', #114);
#118 = VERTEX_POINT('', #115);
#119 = VERTEX_POINT('', #116);
#120 = LINE('', #114, #6);
#121 = LINE('', #115, #6);
#122 = LINE('', #116, #6);
#123 = EDGE_CURVE('', #117, #118, #120, .T.);
#124 = EDGE_CURVE('', #118, #119, #121, .T.);
#125 = EDGE_CURVE('', #119, #117, #122, .T.);
#126 = ORIENTED_EDGE('', *, *, #123, .T.);
#127 = ORIENTED_EDGE('', *, *, #124, .T.);
#128 = ORIENTED_EDGE('', *, *, #125, .T.);
#129 = EDGE_LOOP('', (#126, #127, #128));
#130 = FACE_BOUND('', #129, .T.);

/* ==== Hole 7 (row 0, col 6) CW ==== */
#131 = CARTESIAN_POINT('', (62.000, 8.000, 0.0));
#132 = CARTESIAN_POINT('', (62.000, 11.000, 0.0));
#133 = CARTESIAN_POINT('', (65.000, 9.500, 0.0));
#134 = VERTEX_POINT('', #131);
#135 = VERTEX_POINT('', #132);
#136 = VERTEX_POINT('', #133);
#137 = LINE('', #131, #6);
#138 = LINE('', #132, #6);
#139 = LINE('', #133, #6);
#140 = EDGE_CURVE('', #134, #135, #137, .T.);
#141 = EDGE_CURVE('', #135, #136, #138, .T.);
#142 = EDGE_CURVE('', #136, #134, #139, .T.);
#143 = ORIENTED_EDGE('', *, *, #140, .T.);
#144 = ORIENTED_EDGE('', *, *, #141, .T.);
#145 = ORIENTED_EDGE('', *, *, #142, .T.);
#146 = EDGE_LOOP('', (#143, #144, #145));
#147 = FACE_BOUND('', #146, .T.);

/* ==== Hole 8 (row 0, col 7) CW ==== */
#148 = CARTESIAN_POINT('', (71.000, 8.000, 0.0));
#149 = CARTESIAN_POINT('', (71.000, 11.000, 0.0));
#150 = CARTESIAN_POINT('', (74.000, 9.500, 0.0));
#151 = VERTEX_POINT('', #148);
#152 = VERTEX_POINT('', #149);
#153 = VERTEX_POINT('', #150);
#154 = LINE('', #148, #6);
#155 = LINE('', #149, #6);
#156 = LINE('', #150, #6);
#157 = EDGE_CURVE('', #151, #152, #154, .T.);
#158 = EDGE_CURVE('', #152, #153, #155, .T.);
#159 = EDGE_CURVE('', #153, #151, #156, .T.);
#160 = ORIENTED_EDGE('', *, *, #157, .T.);
#161 = ORIENTED_EDGE('', *, *, #158, .T.);
#162 = ORIENTED_EDGE('', *, *, #159, .T.);
#163 = EDGE_LOOP('', (#160, #161, #162));
#164 = FACE_BOUND('', #163, .T.);

/* ==== Hole 9 (row 0, col 8) CW ==== */
#165 = CARTESIAN_POINT('', (80.000, 8.000, 0.0));
#166 = CARTESIAN_POINT('', (80.000, 11.000, 0.0));
#167 = CARTESIAN_POINT('', (83.000, 9.500, 0.0));
#168 = VERTEX_POINT('', #165);
#169 = VERTEX_POINT('', #166);
#170 = VERTEX_POINT('', #167);
#171 = LINE('', #165, #6);
#172 = LINE('', #166, #6);
#173 = LINE('', #167, #6);
#174 = EDGE_CURVE('', #168, #169, #171, .T.);
#175 = EDGE_CURVE('', #169, #170, #172, .T.);
#176 = EDGE_CURVE('', #170, #168, #173, .T.);
#177 = ORIENTED_EDGE('', *, *, #174, .T.);
#178 = ORIENTED_EDGE('', *, *, #175, .T.);
#179 = ORIENTED_EDGE('', *, *, #176, .T.);
#180 = EDGE_LOOP('', (#177, #178, #179));
#181 = FACE_BOUND('', #180, .T.);

/* ==== Hole 10 (row 0, col 9) CW ==== */
#182 = CARTESIAN_POINT('', (89.000, 8.000, 0.0));
#183 = CARTESIAN_POINT('', (89.000, 11.000, 0.0));
#184 = CARTESIAN_POINT('', (92.000, 9.500, 0.0));
#185 = VERTEX_POINT('', #182);
#186 = VERTEX_POINT('', #183);
#187 = VERTEX_POINT('', #184);
#188 = LINE('', #182, #6);
#189 = LINE('', #183, #6);
#190 = LINE('', #184, #6);
#191 = EDGE_CURVE('', #185, #186, #188, .T.);
#192 = EDGE_CURVE('', #186, #187, #189, .T.);
#193 = EDGE_CURVE('', #187, #185, #190, .T.);
#194 = ORIENTED_EDGE('', *, *, #191, .T.);
#195 = ORIENTED_EDGE('', *, *, #192, .T.);
#196 = ORIENTED_EDGE('', *, *, #193, .T.);
#197 = EDGE_LOOP('', (#194, #195, #196));
#198 = FACE_BOUND('', #197, .T.);

/* ==== Hole 11 (row 1, col 0) CW ==== */
#199 = CARTESIAN_POINT('', (8.000, 17.000, 0.0));
#200 = CARTESIAN_POINT('', (8.000, 20.000, 0.0));
#201 = CARTESIAN_POINT('', (11.000, 18.500, 0.0));
#202 = VERTEX_POINT('', #199);
#203 = VERTEX_POINT('', #200);
#204 = VERTEX_POINT('', #201);
#205 = LINE('', #199, #6);
#206 = LINE('', #200, #6);
#207 = LINE('', #201, #6);
#208 = EDGE_CURVE('', #202, #203, #205, .T.);
#209 = EDGE_CURVE('', #203, #204, #206, .T.);
#210 = EDGE_CURVE('', #204, #202, #207, .T.);
#211 = ORIENTED_EDGE('', *, *, #208, .T.);
#212 = ORIENTED_EDGE('', *, *, #209, .T.);
#213 = ORIENTED_EDGE('', *, *, #210, .T.);
#214 = EDGE_LOOP('', (#211, #212, #213));
#215 = FACE_BOUND('', #214, .T.);

/* ==== Hole 12 (row 1, col 1) CW ==== */
#216 = CARTESIAN_POINT('', (17.000, 17.000, 0.0));
#217 = CARTESIAN_POINT('', (17.000, 20.000, 0.0));
#218 = CARTESIAN_POINT('', (20.000, 18.500, 0.0));
#219 = VERTEX_POINT('', #216);
#220 = VERTEX_POINT('', #217);
#221 = VERTEX_POINT('', #218);
#222 = LINE('', #216, #6);
#223 = LINE('', #217, #6);
#224 = LINE('', #218, #6);
#225 = EDGE_CURVE('', #219, #220, #222, .T.);
#226 = EDGE_CURVE('', #220, #221, #223, .T.);
#227 = EDGE_CURVE('', #221, #219, #224, .T.);
#228 = ORIENTED_EDGE('', *, *, #225, .T.);
#229 = ORIENTED_EDGE('', *, *, #226, .T.);
#230 = ORIENTED_EDGE('', *, *, #227, .T.);
#231 = EDGE_LOOP('', (#228, #229, #230));
#232 = FACE_BOUND('', #231, .T.);

/* ==== Hole 13 (row 1, col 2) CW ==== */
#233 = CARTESIAN_POINT('', (26.000, 17.000, 0.0));
#234 = CARTESIAN_POINT('', (26.000, 20.000, 0.0));
#235 = CARTESIAN_POINT('', (29.000, 18.500, 0.0));
#236 = VERTEX_POINT('', #233);
#237 = VERTEX_POINT('', #234);
#238 = VERTEX_POINT('', #235);
#239 = LINE('', #233, #6);
#240 = LINE('', #234, #6);
#241 = LINE('', #235, #6);
#242 = EDGE_CURVE('', #236, #237, #239, .T.);
#243 = EDGE_CURVE('', #237, #238, #240, .T.);
#244 = EDGE_CURVE('', #238, #236, #241, .T.);
#245 = ORIENTED_EDGE('', *, *, #242, .T.);
#246 = ORIENTED_EDGE('', *, *, #243, .T.);
#247 = ORIENTED_EDGE('', *, *, #244, .T.);
#248 = EDGE_LOOP('', (#245, #246, #247));
#249 = FACE_BOUND('', #248, .T.);

/* ==== Hole 14 (row 1, col 3) CW ==== */
#250 = CARTESIAN_POINT('', (35.000, 17.000, 0.0));
#251 = CARTESIAN_POINT('', (35.000, 20.000, 0.0));
#252 = CARTESIAN_POINT('', (38.000, 18.500, 0.0));
#253 = VERTEX_POINT('', #250);
#254 = VERTEX_POINT('', #251);
#255 = VERTEX_POINT('', #252);
#256 = LINE('', #250, #6);
#257 = LINE('', #251, #6);
#258 = LINE('', #252, #6);
#259 = EDGE_CURVE('', #253, #254, #256, .T.);
#260 = EDGE_CURVE('', #254, #255, #257, .T.);
#261 = EDGE_CURVE('', #255, #253, #258, .T.);
#262 = ORIENTED_EDGE('', *, *, #259, .T.);
#263 = ORIENTED_EDGE('', *, *, #260, .T.);
#264 = ORIENTED_EDGE('', *, *, #261, .T.);
#265 = EDGE_LOOP('', (#262, #263, #264));
#266 = FACE_BOUND('', #265, .T.);

/* ==== Hole 15 (row 1, col 4) CW ==== */
#267 = CARTESIAN_POINT('', (44.000, 17.000, 0.0));
#268 = CARTESIAN_POINT('', (44.000, 20.000, 0.0));
#269 = CARTESIAN_POINT('', (47.000, 18.500, 0.0));
#270 = VERTEX_POINT('', #267);
#271 = VERTEX_POINT('', #268);
#272 = VERTEX_POINT('', #269);
#273 = LINE('', #267, #6);
#274 = LINE('', #268, #6);
#275 = LINE('', #269, #6);
#276 = EDGE_CURVE('', #270, #271, #273, .T.);
#277 = EDGE_CURVE('', #271, #272, #274, .T.);
#278 = EDGE_CURVE('', #272, #270, #275, .T.);
#279 = ORIENTED_EDGE('', *, *, #276, .T.);
#280 = ORIENTED_EDGE('', *, *, #277, .T.);
#281 = ORIENTED_EDGE('', *, *, #278, .T.);
#282 = EDGE_LOOP('', (#279, #280, #281));
#283 = FACE_BOUND('', #282, .T.);

/* ==== Hole 16 (row 1, col 5) CW ==== */
#284 = CARTESIAN_POINT('', (53.000, 17.000, 0.0));
#285 = CARTESIAN_POINT('', (53.000, 20.000, 0.0));
#286 = CARTESIAN_POINT('', (56.000, 18.500, 0.0));
#287 = VERTEX_POINT('', #284);
#288 = VERTEX_POINT('', #285);
#289 = VERTEX_POINT('', #286);
#290 = LINE('', #284, #6);
#291 = LINE('', #285, #6);
#292 = LINE('', #286, #6);
#293 = EDGE_CURVE('', #287, #288, #290, .T.);
#294 = EDGE_CURVE('', #288, #289, #291, .T.);
#295 = EDGE_CURVE('', #289, #287, #292, .T.);
#296 = ORIENTED_EDGE('', *, *, #293, .T.);
#297 = ORIENTED_EDGE('', *, *, #294, .T.);
#298 = ORIENTED_EDGE('', *, *, #295, .T.);
#299 = EDGE_LOOP('', (#296, #297, #298));
#300 = FACE_BOUND('', #299, .T.);

/* ==== Hole 17 (row 1, col 6) CW ==== */
#301 = CARTESIAN_POINT('', (62.000, 17.000, 0.0));
#302 = CARTESIAN_POINT('', (62.000, 20.000, 0.0));
#303 = CARTESIAN_POINT('', (65.000, 18.500, 0.0));
#304 = VERTEX_POINT('', #301);
#305 = VERTEX_POINT('', #302);
#306 = VERTEX_POINT('', #303);
#307 = LINE('', #301, #6);
#308 = LINE('', #302, #6);
#309 = LINE('', #303, #6);
#310 = EDGE_CURVE('', #304, #305, #307, .T.);
#311 = EDGE_CURVE('', #305, #306, #308, .T.);
#312 = EDGE_CURVE('', #306, #304, #309, .T.);
#313 = ORIENTED_EDGE('', *, *, #310, .T.);
#314 = ORIENTED_EDGE('', *, *, #311, .T.);
#315 = ORIENTED_EDGE('', *, *, #312, .T.);
#316 = EDGE_LOOP('', (#313, #314, #315));
#317 = FACE_BOUND('', #316, .T.);

/* ==== Hole 18 (row 1, col 7) CW ==== */
#318 = CARTESIAN_POINT('', (71.000, 17.000, 0.0));
#319 = CARTESIAN_POINT('', (71.000, 20.000, 0.0));
#320 = CARTESIAN_POINT('', (74.000, 18.500, 0.0));
#321 = VERTEX_POINT('', #318);
#322 = VERTEX_POINT('', #319);
#323 = VERTEX_POINT('', #320);
#324 = LINE('', #318, #6);
#325 = LINE('', #319, #6);
#326 = LINE('', #320, #6);
#327 = EDGE_CURVE('', #321, #322, #324, .T.);
#328 = EDGE_CURVE('', #322, #323, #325, .T.);
#329 = EDGE_CURVE('', #323, #321, #326, .T.);
#330 = ORIENTED_EDGE('', *, *, #327, .T.);
#331 = ORIENTED_EDGE('', *, *, #328, .T.);
#332 = ORIENTED_EDGE('', *, *, #329, .T.);
#333 = EDGE_LOOP('', (#330, #331, #332));
#334 = FACE_BOUND('', #333, .T.);

/* ==== Hole 19 (row 1, col 8) CW ==== */
#335 = CARTESIAN_POINT('', (80.000, 17.000, 0.0));
#336 = CARTESIAN_POINT('', (80.000, 20.000, 0.0));
#337 = CARTESIAN_POINT('', (83.000, 18.500, 0.0));
#338 = VERTEX_POINT('', #335);
#339 = VERTEX_POINT('', #336);
#340 = VERTEX_POINT('', #337);
#341 = LINE('', #335, #6);
#342 = LINE('', #336, #6);
#343 = LINE('', #337, #6);
#344 = EDGE_CURVE('', #338, #339, #341, .T.);
#345 = EDGE_CURVE('', #339, #340, #342, .T.);
#346 = EDGE_CURVE('', #340, #338, #343, .T.);
#347 = ORIENTED_EDGE('', *, *, #344, .T.);
#348 = ORIENTED_EDGE('', *, *, #345, .T.);
#349 = ORIENTED_EDGE('', *, *, #346, .T.);
#350 = EDGE_LOOP('', (#347, #348, #349));
#351 = FACE_BOUND('', #350, .T.);

/* ==== Hole 20 (row 1, col 9) CW ==== */
#352 = CARTESIAN_POINT('', (89.000, 17.000, 0.0));
#353 = CARTESIAN_POINT('', (89.000, 20.000, 0.0));
#354 = CARTESIAN_POINT('', (92.000, 18.500, 0.0));
#355 = VERTEX_POINT('', #352);
#356 = VERTEX_POINT('', #353);
#357 = VERTEX_POINT('', #354);
#358 = LINE('', #352, #6);
#359 = LINE('', #353, #6);
#360 = LINE('', #354, #6);
#361 = EDGE_CURVE('', #355, #356, #358, .T.);
#362 = EDGE_CURVE('', #356, #357, #359, .T.);
#363 = EDGE_CURVE('', #357, #355, #360, .T.);
#364 = ORIENTED_EDGE('', *, *, #361, .T.);
#365 = ORIENTED_EDGE('', *, *, #362, .T.);
#366 = ORIENTED_EDGE('', *, *, #363, .T.);
#367 = EDGE_LOOP('', (#364, #365, #366));
#368 = FACE_BOUND('', #367, .T.);

/* ==== Hole 21 (row 2, col 0) CW ==== */
#369 = CARTESIAN_POINT('', (8.000, 26.000, 0.0));
#370 = CARTESIAN_POINT('', (8.000, 29.000, 0.0));
#371 = CARTESIAN_POINT('', (11.000, 27.500, 0.0));
#372 = VERTEX_POINT('', #369);
#373 = VERTEX_POINT('', #370);
#374 = VERTEX_POINT('', #371);
#375 = LINE('', #369, #6);
#376 = LINE('', #370, #6);
#377 = LINE('', #371, #6);
#378 = EDGE_CURVE('', #372, #373, #375, .T.);
#379 = EDGE_CURVE('', #373, #374, #376, .T.);
#380 = EDGE_CURVE('', #374, #372, #377, .T.);
#381 = ORIENTED_EDGE('', *, *, #378, .T.);
#382 = ORIENTED_EDGE('', *, *, #379, .T.);
#383 = ORIENTED_EDGE('', *, *, #380, .T.);
#384 = EDGE_LOOP('', (#381, #382, #383));
#385 = FACE_BOUND('', #384, .T.);

/* ==== Hole 22 (row 2, col 1) CW ==== */
#386 = CARTESIAN_POINT('', (17.000, 26.000, 0.0));
#387 = CARTESIAN_POINT('', (17.000, 29.000, 0.0));
#388 = CARTESIAN_POINT('', (20.000, 27.500, 0.0));
#389 = VERTEX_POINT('', #386);
#390 = VERTEX_POINT('', #387);
#391 = VERTEX_POINT('', #388);
#392 = LINE('', #386, #6);
#393 = LINE('', #387, #6);
#394 = LINE('', #388, #6);
#395 = EDGE_CURVE('', #389, #390, #392, .T.);
#396 = EDGE_CURVE('', #390, #391, #393, .T.);
#397 = EDGE_CURVE('', #391, #389, #394, .T.);
#398 = ORIENTED_EDGE('', *, *, #395, .T.);
#399 = ORIENTED_EDGE('', *, *, #396, .T.);
#400 = ORIENTED_EDGE('', *, *, #397, .T.);
#401 = EDGE_LOOP('', (#398, #399, #400));
#402 = FACE_BOUND('', #401, .T.);

/* ==== Hole 23 (row 2, col 2) CW ==== */
#403 = CARTESIAN_POINT('', (26.000, 26.000, 0.0));
#404 = CARTESIAN_POINT('', (26.000, 29.000, 0.0));
#405 = CARTESIAN_POINT('', (29.000, 27.500, 0.0));
#406 = VERTEX_POINT('', #403);
#407 = VERTEX_POINT('', #404);
#408 = VERTEX_POINT('', #405);
#409 = LINE('', #403, #6);
#410 = LINE('', #404, #6);
#411 = LINE('', #405, #6);
#412 = EDGE_CURVE('', #406, #407, #409, .T.);
#413 = EDGE_CURVE('', #407, #408, #410, .T.);
#414 = EDGE_CURVE('', #408, #406, #411, .T.);
#415 = ORIENTED_EDGE('', *, *, #412, .T.);
#416 = ORIENTED_EDGE('', *, *, #413, .T.);
#417 = ORIENTED_EDGE('', *, *, #414, .T.);
#418 = EDGE_LOOP('', (#415, #416, #417));
#419 = FACE_BOUND('', #418, .T.);

/* ==== Hole 24 (row 2, col 3) CW ==== */
#420 = CARTESIAN_POINT('', (35.000, 26.000, 0.0));
#421 = CARTESIAN_POINT('', (35.000, 29.000, 0.0));
#422 = CARTESIAN_POINT('', (38.000, 27.500, 0.0));
#423 = VERTEX_POINT('', #420);
#424 = VERTEX_POINT('', #421);
#425 = VERTEX_POINT('', #422);
#426 = LINE('', #420, #6);
#427 = LINE('', #421, #6);
#428 = LINE('', #422, #6);
#429 = EDGE_CURVE('', #423, #424, #426, .T.);
#430 = EDGE_CURVE('', #424, #425, #427, .T.);
#431 = EDGE_CURVE('', #425, #423, #428, .T.);
#432 = ORIENTED_EDGE('', *, *, #429, .T.);
#433 = ORIENTED_EDGE('', *, *, #430, .T.);
#434 = ORIENTED_EDGE('', *, *, #431, .T.);
#435 = EDGE_LOOP('', (#432, #433, #434));
#436 = FACE_BOUND('', #435, .T.);

/* ==== Hole 25 (row 2, col 4) CW ==== */
#437 = CARTESIAN_POINT('', (44.000, 26.000, 0.0));
#438 = CARTESIAN_POINT('', (44.000, 29.000, 0.0));
#439 = CARTESIAN_POINT('', (47.000, 27.500, 0.0));
#440 = VERTEX_POINT('', #437);
#441 = VERTEX_POINT('', #438);
#442 = VERTEX_POINT('', #439);
#443 = LINE('', #437, #6);
#444 = LINE('', #438, #6);
#445 = LINE('', #439, #6);
#446 = EDGE_CURVE('', #440, #441, #443, .T.);
#447 = EDGE_CURVE('', #441, #442, #444, .T.);
#448 = EDGE_CURVE('', #442, #440, #445, .T.);
#449 = ORIENTED_EDGE('', *, *, #446, .T.);
#450 = ORIENTED_EDGE('', *, *, #447, .T.);
#451 = ORIENTED_EDGE('', *, *, #448, .T.);
#452 = EDGE_LOOP('', (#449, #450, #451));
#453 = FACE_BOUND('', #452, .T.);

/* ==== Hole 26 (row 2, col 5) CW ==== */
#454 = CARTESIAN_POINT('', (53.000, 26.000, 0.0));
#455 = CARTESIAN_POINT('', (53.000, 29.000, 0.0));
#456 = CARTESIAN_POINT('', (56.000, 27.500, 0.0));
#457 = VERTEX_POINT('', #454);
#458 = VERTEX_POINT('', #455);
#459 = VERTEX_POINT('', #456);
#460 = LINE('', #454, #6);
#461 = LINE('', #455, #6);
#462 = LINE('', #456, #6);
#463 = EDGE_CURVE('', #457, #458, #460, .T.);
#464 = EDGE_CURVE('', #458, #459, #461, .T.);
#465 = EDGE_CURVE('', #459, #457, #462, .T.);
#466 = ORIENTED_EDGE('', *, *, #463, .T.);
#467 = ORIENTED_EDGE('', *, *, #464, .T.);
#468 = ORIENTED_EDGE('', *, *, #465, .T.);
#469 = EDGE_LOOP('', (#466, #467, #468));
#470 = FACE_BOUND('', #469, .T.);

/* ==== Hole 27 (row 2, col 6) CW ==== */
#471 = CARTESIAN_POINT('', (62.000, 26.000, 0.0));
#472 = CARTESIAN_POINT('', (62.000, 29.000, 0.0));
#473 = CARTESIAN_POINT('', (65.000, 27.500, 0.0));
#474 = VERTEX_POINT('', #471);
#475 = VERTEX_POINT('', #472);
#476 = VERTEX_POINT('', #473);
#477 = LINE('', #471, #6);
#478 = LINE('', #472, #6);
#479 = LINE('', #473, #6);
#480 = EDGE_CURVE('', #474, #475, #477, .T.);
#481 = EDGE_CURVE('', #475, #476, #478, .T.);
#482 = EDGE_CURVE('', #476, #474, #479, .T.);
#483 = ORIENTED_EDGE('', *, *, #480, .T.);
#484 = ORIENTED_EDGE('', *, *, #481, .T.);
#485 = ORIENTED_EDGE('', *, *, #482, .T.);
#486 = EDGE_LOOP('', (#483, #484, #485));
#487 = FACE_BOUND('', #486, .T.);

/* ==== Hole 28 (row 2, col 7) CW ==== */
#488 = CARTESIAN_POINT('', (71.000, 26.000, 0.0));
#489 = CARTESIAN_POINT('', (71.000, 29.000, 0.0));
#490 = CARTESIAN_POINT('', (74.000, 27.500, 0.0));
#491 = VERTEX_POINT('', #488);
#492 = VERTEX_POINT('', #489);
#493 = VERTEX_POINT('', #490);
#494 = LINE('', #488, #6);
#495 = LINE('', #489, #6);
#496 = LINE('', #490, #6);
#497 = EDGE_CURVE('', #491, #492, #494, .T.);
#498 = EDGE_CURVE('', #492, #493, #495, .T.);
#499 = EDGE_CURVE('', #493, #491, #496, .T.);
#500 = ORIENTED_EDGE('', *, *, #497, .T.);
#501 = ORIENTED_EDGE('', *, *, #498, .T.);
#502 = ORIENTED_EDGE('', *, *, #499, .T.);
#503 = EDGE_LOOP('', (#500, #501, #502));
#504 = FACE_BOUND('', #503, .T.);

/* ==== Hole 29 (row 2, col 8) CW ==== */
#505 = CARTESIAN_POINT('', (80.000, 26.000, 0.0));
#506 = CARTESIAN_POINT('', (80.000, 29.000, 0.0));
#507 = CARTESIAN_POINT('', (83.000, 27.500, 0.0));
#508 = VERTEX_POINT('', #505);
#509 = VERTEX_POINT('', #506);
#510 = VERTEX_POINT('', #507);
#511 = LINE('', #505, #6);
#512 = LINE('', #506, #6);
#513 = LINE('', #507, #6);
#514 = EDGE_CURVE('', #508, #509, #511, .T.);
#515 = EDGE_CURVE('', #509, #510, #512, .T.);
#516 = EDGE_CURVE('', #510, #508, #513, .T.);
#517 = ORIENTED_EDGE('', *, *, #514, .T.);
#518 = ORIENTED_EDGE('', *, *, #515, .T.);
#519 = ORIENTED_EDGE('', *, *, #516, .T.);
#520 = EDGE_LOOP('', (#517, #518, #519));
#521 = FACE_BOUND('', #520, .T.);

/* ==== Hole 30 (row 2, col 9) CW ==== */
#522 = CARTESIAN_POINT('', (89.000, 26.000, 0.0));
#523 = CARTESIAN_POINT('', (89.000, 29.000, 0.0));
#524 = CARTESIAN_POINT('', (92.000, 27.500, 0.0));
#525 = VERTEX_POINT('', #522);
#526 = VERTEX_POINT('', #523);
#527 = VERTEX_POINT('', #524);
#528 = LINE('', #522, #6);
#529 = LINE('', #523, #6);
#530 = LINE('', #524, #6);
#531 = EDGE_CURVE('', #525, #526, #528, .T.);
#532 = EDGE_CURVE('', #526, #527, #529, .T.);
#533 = EDGE_CURVE('', #527, #525, #530, .T.);
#534 = ORIENTED_EDGE('', *, *, #531, .T.);
#535 = ORIENTED_EDGE('', *, *, #532, .T.);
#536 = ORIENTED_EDGE('', *, *, #533, .T.);
#537 = EDGE_LOOP('', (#534, #535, #536));
#538 = FACE_BOUND('', #537, .T.);

/* ==== Hole 31 (row 3, col 0) CW ==== */
#539 = CARTESIAN_POINT('', (8.000, 35.000, 0.0));
#540 = CARTESIAN_POINT('', (8.000, 38.000, 0.0));
#541 = CARTESIAN_POINT('', (11.000, 36.500, 0.0));
#542 = VERTEX_POINT('', #539);
#543 = VERTEX_POINT('', #540);
#544 = VERTEX_POINT('', #541);
#545 = LINE('', #539, #6);
#546 = LINE('', #540, #6);
#547 = LINE('', #541, #6);
#548 = EDGE_CURVE('', #542, #543, #545, .T.);
#549 = EDGE_CURVE('', #543, #544, #546, .T.);
#550 = EDGE_CURVE('', #544, #542, #547, .T.);
#551 = ORIENTED_EDGE('', *, *, #548, .T.);
#552 = ORIENTED_EDGE('', *, *, #549, .T.);
#553 = ORIENTED_EDGE('', *, *, #550, .T.);
#554 = EDGE_LOOP('', (#551, #552, #553));
#555 = FACE_BOUND('', #554, .T.);

/* ==== Hole 32 (row 3, col 1) CW ==== */
#556 = CARTESIAN_POINT('', (17.000, 35.000, 0.0));
#557 = CARTESIAN_POINT('', (17.000, 38.000, 0.0));
#558 = CARTESIAN_POINT('', (20.000, 36.500, 0.0));
#559 = VERTEX_POINT('', #556);
#560 = VERTEX_POINT('', #557);
#561 = VERTEX_POINT('', #558);
#562 = LINE('', #556, #6);
#563 = LINE('', #557, #6);
#564 = LINE('', #558, #6);
#565 = EDGE_CURVE('', #559, #560, #562, .T.);
#566 = EDGE_CURVE('', #560, #561, #563, .T.);
#567 = EDGE_CURVE('', #561, #559, #564, .T.);
#568 = ORIENTED_EDGE('', *, *, #565, .T.);
#569 = ORIENTED_EDGE('', *, *, #566, .T.);
#570 = ORIENTED_EDGE('', *, *, #567, .T.);
#571 = EDGE_LOOP('', (#568, #569, #570));
#572 = FACE_BOUND('', #571, .T.);

/* ==== Hole 33 (row 3, col 2) CW ==== */
#573 = CARTESIAN_POINT('', (26.000, 35.000, 0.0));
#574 = CARTESIAN_POINT('', (26.000, 38.000, 0.0));
#575 = CARTESIAN_POINT('', (29.000, 36.500, 0.0));
#576 = VERTEX_POINT('', #573);
#577 = VERTEX_POINT('', #574);
#578 = VERTEX_POINT('', #575);
#579 = LINE('', #573, #6);
#580 = LINE('', #574, #6);
#581 = LINE('', #575, #6);
#582 = EDGE_CURVE('', #576, #577, #579, .T.);
#583 = EDGE_CURVE('', #577, #578, #580, .T.);
#584 = EDGE_CURVE('', #578, #576, #581, .T.);
#585 = ORIENTED_EDGE('', *, *, #582, .T.);
#586 = ORIENTED_EDGE('', *, *, #583, .T.);
#587 = ORIENTED_EDGE('', *, *, #584, .T.);
#588 = EDGE_LOOP('', (#585, #586, #587));
#589 = FACE_BOUND('', #588, .T.);

/* ==== Hole 34 (row 3, col 3) CW ==== */
#590 = CARTESIAN_POINT('', (35.000, 35.000, 0.0));
#591 = CARTESIAN_POINT('', (35.000, 38.000, 0.0));
#592 = CARTESIAN_POINT('', (38.000, 36.500, 0.0));
#593 = VERTEX_POINT('', #590);
#594 = VERTEX_POINT('', #591);
#595 = VERTEX_POINT('', #592);
#596 = LINE('', #590, #6);
#597 = LINE('', #591, #6);
#598 = LINE('', #592, #6);
#599 = EDGE_CURVE('', #593, #594, #596, .T.);
#600 = EDGE_CURVE('', #594, #595, #597, .T.);
#601 = EDGE_CURVE('', #595, #593, #598, .T.);
#602 = ORIENTED_EDGE('', *, *, #599, .T.);
#603 = ORIENTED_EDGE('', *, *, #600, .T.);
#604 = ORIENTED_EDGE('', *, *, #601, .T.);
#605 = EDGE_LOOP('', (#602, #603, #604));
#606 = FACE_BOUND('', #605, .T.);

/* ==== Hole 35 (row 3, col 4) CW ==== */
#607 = CARTESIAN_POINT('', (44.000, 35.000, 0.0));
#608 = CARTESIAN_POINT('', (44.000, 38.000, 0.0));
#609 = CARTESIAN_POINT('', (47.000, 36.500, 0.0));
#610 = VERTEX_POINT('', #607);
#611 = VERTEX_POINT('', #608);
#612 = VERTEX_POINT('', #609);
#613 = LINE('', #607, #6);
#614 = LINE('', #608, #6);
#615 = LINE('', #609, #6);
#616 = EDGE_CURVE('', #610, #611, #613, .T.);
#617 = EDGE_CURVE('', #611, #612, #614, .T.);
#618 = EDGE_CURVE('', #612, #610, #615, .T.);
#619 = ORIENTED_EDGE('', *, *, #616, .T.);
#620 = ORIENTED_EDGE('', *, *, #617, .T.);
#621 = ORIENTED_EDGE('', *, *, #618, .T.);
#622 = EDGE_LOOP('', (#619, #620, #621));
#623 = FACE_BOUND('', #622, .T.);

/* ==== Hole 36 (row 3, col 5) CW ==== */
#624 = CARTESIAN_POINT('', (53.000, 35.000, 0.0));
#625 = CARTESIAN_POINT('', (53.000, 38.000, 0.0));
#626 = CARTESIAN_POINT('', (56.000, 36.500, 0.0));
#627 = VERTEX_POINT('', #624);
#628 = VERTEX_POINT('', #625);
#629 = VERTEX_POINT('', #626);
#630 = LINE('', #624, #6);
#631 = LINE('', #625, #6);
#632 = LINE('', #626, #6);
#633 = EDGE_CURVE('', #627, #628, #630, .T.);
#634 = EDGE_CURVE('', #628, #629, #631, .T.);
#635 = EDGE_CURVE('', #629, #627, #632, .T.);
#636 = ORIENTED_EDGE('', *, *, #633, .T.);
#637 = ORIENTED_EDGE('', *, *, #634, .T.);
#638 = ORIENTED_EDGE('', *, *, #635, .T.);
#639 = EDGE_LOOP('', (#636, #637, #638));
#640 = FACE_BOUND('', #639, .T.);

/* ==== Hole 37 (row 3, col 6) CW ==== */
#641 = CARTESIAN_POINT('', (62.000, 35.000, 0.0));
#642 = CARTESIAN_POINT('', (62.000, 38.000, 0.0));
#643 = CARTESIAN_POINT('', (65.000, 36.500, 0.0));
#644 = VERTEX_POINT('', #641);
#645 = VERTEX_POINT('', #642);
#646 = VERTEX_POINT('', #643);
#647 = LINE('', #641, #6);
#648 = LINE('', #642, #6);
#649 = LINE('', #643, #6);
#650 = EDGE_CURVE('', #644, #645, #647, .T.);
#651 = EDGE_CURVE('', #645, #646, #648, .T.);
#652 = EDGE_CURVE('', #646, #644, #649, .T.);
#653 = ORIENTED_EDGE('', *, *, #650, .T.);
#654 = ORIENTED_EDGE('', *, *, #651, .T.);
#655 = ORIENTED_EDGE('', *, *, #652, .T.);
#656 = EDGE_LOOP('', (#653, #654, #655));
#657 = FACE_BOUND('', #656, .T.);

/* ==== Hole 38 (row 3, col 7) CW ==== */
#658 = CARTESIAN_POINT('', (71.000, 35.000, 0.0));
#659 = CARTESIAN_POINT('', (71.000, 38.000, 0.0));
#660 = CARTESIAN_POINT('', (74.000, 36.500, 0.0));
#661 = VERTEX_POINT('', #658);
#662 = VERTEX_POINT('', #659);
#663 = VERTEX_POINT('', #660);
#664 = LINE('', #658, #6);
#665 = LINE('', #659, #6);
#666 = LINE('', #660, #6);
#667 = EDGE_CURVE('', #661, #662, #664, .T.);
#668 = EDGE_CURVE('', #662, #663, #665, .T.);
#669 = EDGE_CURVE('', #663, #661, #666, .T.);
#670 = ORIENTED_EDGE('', *, *, #667, .T.);
#671 = ORIENTED_EDGE('', *, *, #668, .T.);
#672 = ORIENTED_EDGE('', *, *, #669, .T.);
#673 = EDGE_LOOP('', (#670, #671, #672));
#674 = FACE_BOUND('', #673, .T.);

/* ==== Hole 39 (row 3, col 8) CW ==== */
#675 = CARTESIAN_POINT('', (80.000, 35.000, 0.0));
#676 = CARTESIAN_POINT('', (80.000, 38.000, 0.0));
#677 = CARTESIAN_POINT('', (83.000, 36.500, 0.0));
#678 = VERTEX_POINT('', #675);
#679 = VERTEX_POINT('', #676);
#680 = VERTEX_POINT('', #677);
#681 = LINE('', #675, #6);
#682 = LINE('', #676, #6);
#683 = LINE('', #677, #6);
#684 = EDGE_CURVE('', #678, #679, #681, .T.);
#685 = EDGE_CURVE('', #679, #680, #682, .T.);
#686 = EDGE_CURVE('', #680, #678, #683, .T.);
#687 = ORIENTED_EDGE('', *, *, #684, .T.);
#688 = ORIENTED_EDGE('', *, *, #685, .T.);
#689 = ORIENTED_EDGE('', *, *, #686, .T.);
#690 = EDGE_LOOP('', (#687, #688, #689));
#691 = FACE_BOUND('', #690, .T.);

/* ==== Hole 40 (row 3, col 9) CW ==== */
#692 = CARTESIAN_POINT('', (89.000, 35.000, 0.0));
#693 = CARTESIAN_POINT('', (89.000, 38.000, 0.0));
#694 = CARTESIAN_POINT('', (92.000, 36.500, 0.0));
#695 = VERTEX_POINT('', #692);
#696 = VERTEX_POINT('', #693);
#697 = VERTEX_POINT('', #694);
#698 = LINE('', #692, #6);
#699 = LINE('', #693, #6);
#700 = LINE('', #694, #6);
#701 = EDGE_CURVE('', #695, #696, #698, .T.);
#702 = EDGE_CURVE('', #696, #697, #699, .T.);
#703 = EDGE_CURVE('', #697, #695, #700, .T.);
#704 = ORIENTED_EDGE('', *, *, #701, .T.);
#705 = ORIENTED_EDGE('', *, *, #702, .T.);
#706 = ORIENTED_EDGE('', *, *, #703, .T.);
#707 = EDGE_LOOP('', (#704, #705, #706));
#708 = FACE_BOUND('', #707, .T.);

/* ==== Hole 41 (row 4, col 0) CW ==== */
#709 = CARTESIAN_POINT('', (8.000, 44.000, 0.0));
#710 = CARTESIAN_POINT('', (8.000, 47.000, 0.0));
#711 = CARTESIAN_POINT('', (11.000, 45.500, 0.0));
#712 = VERTEX_POINT('', #709);
#713 = VERTEX_POINT('', #710);
#714 = VERTEX_POINT('', #711);
#715 = LINE('', #709, #6);
#716 = LINE('', #710, #6);
#717 = LINE('', #711, #6);
#718 = EDGE_CURVE('', #712, #713, #715, .T.);
#719 = EDGE_CURVE('', #713, #714, #716, .T.);
#720 = EDGE_CURVE('', #714, #712, #717, .T.);
#721 = ORIENTED_EDGE('', *, *, #718, .T.);
#722 = ORIENTED_EDGE('', *, *, #719, .T.);
#723 = ORIENTED_EDGE('', *, *, #720, .T.);
#724 = EDGE_LOOP('', (#721, #722, #723));
#725 = FACE_BOUND('', #724, .T.);

/* ==== Hole 42 (row 4, col 1) CW ==== */
#726 = CARTESIAN_POINT('', (17.000, 44.000, 0.0));
#727 = CARTESIAN_POINT('', (17.000, 47.000, 0.0));
#728 = CARTESIAN_POINT('', (20.000, 45.500, 0.0));
#729 = VERTEX_POINT('', #726);
#730 = VERTEX_POINT('', #727);
#731 = VERTEX_POINT('', #728);
#732 = LINE('', #726, #6);
#733 = LINE('', #727, #6);
#734 = LINE('', #728, #6);
#735 = EDGE_CURVE('', #729, #730, #732, .T.);
#736 = EDGE_CURVE('', #730, #731, #733, .T.);
#737 = EDGE_CURVE('', #731, #729, #734, .T.);
#738 = ORIENTED_EDGE('', *, *, #735, .T.);
#739 = ORIENTED_EDGE('', *, *, #736, .T.);
#740 = ORIENTED_EDGE('', *, *, #737, .T.);
#741 = EDGE_LOOP('', (#738, #739, #740));
#742 = FACE_BOUND('', #741, .T.);

/* ==== Hole 43 (row 4, col 2) CW ==== */
#743 = CARTESIAN_POINT('', (26.000, 44.000, 0.0));
#744 = CARTESIAN_POINT('', (26.000, 47.000, 0.0));
#745 = CARTESIAN_POINT('', (29.000, 45.500, 0.0));
#746 = VERTEX_POINT('', #743);
#747 = VERTEX_POINT('', #744);
#748 = VERTEX_POINT('', #745);
#749 = LINE('', #743, #6);
#750 = LINE('', #744, #6);
#751 = LINE('', #745, #6);
#752 = EDGE_CURVE('', #746, #747, #749, .T.);
#753 = EDGE_CURVE('', #747, #748, #750, .T.);
#754 = EDGE_CURVE('', #748, #746, #751, .T.);
#755 = ORIENTED_EDGE('', *, *, #752, .T.);
#756 = ORIENTED_EDGE('', *, *, #753, .T.);
#757 = ORIENTED_EDGE('', *, *, #754, .T.);
#758 = EDGE_LOOP('', (#755, #756, #757));
#759 = FACE_BOUND('', #758, .T.);

/* ==== Hole 44 (row 4, col 3) CW ==== */
#760 = CARTESIAN_POINT('', (35.000, 44.000, 0.0));
#761 = CARTESIAN_POINT('', (35.000, 47.000, 0.0));
#762 = CARTESIAN_POINT('', (38.000, 45.500, 0.0));
#763 = VERTEX_POINT('', #760);
#764 = VERTEX_POINT('', #761);
#765 = VERTEX_POINT('', #762);
#766 = LINE('', #760, #6);
#767 = LINE('', #761, #6);
#768 = LINE('', #762, #6);
#769 = EDGE_CURVE('', #763, #764, #766, .T.);
#770 = EDGE_CURVE('', #764, #765, #767, .T.);
#771 = EDGE_CURVE('', #765, #763, #768, .T.);
#772 = ORIENTED_EDGE('', *, *, #769, .T.);
#773 = ORIENTED_EDGE('', *, *, #770, .T.);
#774 = ORIENTED_EDGE('', *, *, #771, .T.);
#775 = EDGE_LOOP('', (#772, #773, #774));
#776 = FACE_BOUND('', #775, .T.);

/* ==== Hole 45 (row 4, col 4) CW ==== */
#777 = CARTESIAN_POINT('', (44.000, 44.000, 0.0));
#778 = CARTESIAN_POINT('', (44.000, 47.000, 0.0));
#779 = CARTESIAN_POINT('', (47.000, 45.500, 0.0));
#780 = VERTEX_POINT('', #777);
#781 = VERTEX_POINT('', #778);
#782 = VERTEX_POINT('', #779);
#783 = LINE('', #777, #6);
#784 = LINE('', #778, #6);
#785 = LINE('', #779, #6);
#786 = EDGE_CURVE('', #780, #781, #783, .T.);
#787 = EDGE_CURVE('', #781, #782, #784, .T.);
#788 = EDGE_CURVE('', #782, #780, #785, .T.);
#789 = ORIENTED_EDGE('', *, *, #786, .T.);
#790 = ORIENTED_EDGE('', *, *, #787, .T.);
#791 = ORIENTED_EDGE('', *, *, #788, .T.);
#792 = EDGE_LOOP('', (#789, #790, #791));
#793 = FACE_BOUND('', #792, .T.);

/* ==== Hole 46 (row 4, col 5) CW ==== */
#794 = CARTESIAN_POINT('', (53.000, 44.000, 0.0));
#795 = CARTESIAN_POINT('', (53.000, 47.000, 0.0));
#796 = CARTESIAN_POINT('', (56.000, 45.500, 0.0));
#797 = VERTEX_POINT('', #794);
#798 = VERTEX_POINT('', #795);
#799 = VERTEX_POINT('', #796);
#800 = LINE('', #794, #6);
#801 = LINE('', #795, #6);
#802 = LINE('', #796, #6);
#803 = EDGE_CURVE('', #797, #798, #800, .T.);
#804 = EDGE_CURVE('', #798, #799, #801, .T.);
#805 = EDGE_CURVE('', #799, #797, #802, .T.);
#806 = ORIENTED_EDGE('', *, *, #803, .T.);
#807 = ORIENTED_EDGE('', *, *, #804, .T.);
#808 = ORIENTED_EDGE('', *, *, #805, .T.);
#809 = EDGE_LOOP('', (#806, #807, #808));
#810 = FACE_BOUND('', #809, .T.);

/* ==== Hole 47 (row 4, col 6) CW ==== */
#811 = CARTESIAN_POINT('', (62.000, 44.000, 0.0));
#812 = CARTESIAN_POINT('', (62.000, 47.000, 0.0));
#813 = CARTESIAN_POINT('', (65.000, 45.500, 0.0));
#814 = VERTEX_POINT('', #811);
#815 = VERTEX_POINT('', #812);
#816 = VERTEX_POINT('', #813);
#817 = LINE('', #811, #6);
#818 = LINE('', #812, #6);
#819 = LINE('', #813, #6);
#820 = EDGE_CURVE('', #814, #815, #817, .T.);
#821 = EDGE_CURVE('', #815, #816, #818, .T.);
#822 = EDGE_CURVE('', #816, #814, #819, .T.);
#823 = ORIENTED_EDGE('', *, *, #820, .T.);
#824 = ORIENTED_EDGE('', *, *, #821, .T.);
#825 = ORIENTED_EDGE('', *, *, #822, .T.);
#826 = EDGE_LOOP('', (#823, #824, #825));
#827 = FACE_BOUND('', #826, .T.);

/* ==== Hole 48 (row 4, col 7) CW ==== */
#828 = CARTESIAN_POINT('', (71.000, 44.000, 0.0));
#829 = CARTESIAN_POINT('', (71.000, 47.000, 0.0));
#830 = CARTESIAN_POINT('', (74.000, 45.500, 0.0));
#831 = VERTEX_POINT('', #828);
#832 = VERTEX_POINT('', #829);
#833 = VERTEX_POINT('', #830);
#834 = LINE('', #828, #6);
#835 = LINE('', #829, #6);
#836 = LINE('', #830, #6);
#837 = EDGE_CURVE('', #831, #832, #834, .T.);
#838 = EDGE_CURVE('', #832, #833, #835, .T.);
#839 = EDGE_CURVE('', #833, #831, #836, .T.);
#840 = ORIENTED_EDGE('', *, *, #837, .T.);
#841 = ORIENTED_EDGE('', *, *, #838, .T.);
#842 = ORIENTED_EDGE('', *, *, #839, .T.);
#843 = EDGE_LOOP('', (#840, #841, #842));
#844 = FACE_BOUND('', #843, .T.);

/* ==== Hole 49 (row 4, col 8) CW ==== */
#845 = CARTESIAN_POINT('', (80.000, 44.000, 0.0));
#846 = CARTESIAN_POINT('', (80.000, 47.000, 0.0));
#847 = CARTESIAN_POINT('', (83.000, 45.500, 0.0));
#848 = VERTEX_POINT('', #845);
#849 = VERTEX_POINT('', #846);
#850 = VERTEX_POINT('', #847);
#851 = LINE('', #845, #6);
#852 = LINE('', #846, #6);
#853 = LINE('', #847, #6);
#854 = EDGE_CURVE('', #848, #849, #851, .T.);
#855 = EDGE_CURVE('', #849, #850, #852, .T.);
#856 = EDGE_CURVE('', #850, #848, #853, .T.);
#857 = ORIENTED_EDGE('', *, *, #854, .T.);
#858 = ORIENTED_EDGE('', *, *, #855, .T.);
#859 = ORIENTED_EDGE('', *, *, #856, .T.);
#860 = EDGE_LOOP('', (#857, #858, #859));
#861 = FACE_BOUND('', #860, .T.);

/* ==== Hole 50 (row 4, col 9) CW ==== */
#862 = CARTESIAN_POINT('', (89.000, 44.000, 0.0));
#863 = CARTESIAN_POINT('', (89.000, 47.000, 0.0));
#864 = CARTESIAN_POINT('', (92.000, 45.500, 0.0));
#865 = VERTEX_POINT('', #862);
#866 = VERTEX_POINT('', #863);
#867 = VERTEX_POINT('', #864);
#868 = LINE('', #862, #6);
#869 = LINE('', #863, #6);
#870 = LINE('', #864, #6);
#871 = EDGE_CURVE('', #865, #866, #868, .T.);
#872 = EDGE_CURVE('', #866, #867, #869, .T.);
#873 = EDGE_CURVE('', #867, #865, #870, .T.);
#874 = ORIENTED_EDGE('', *, *, #871, .T.);
#875 = ORIENTED_EDGE('', *, *, #872, .T.);
#876 = ORIENTED_EDGE('', *, *, #873, .T.);
#877 = EDGE_LOOP('', (#874, #875, #876));
#878 = FACE_BOUND('', #877, .T.);

/* ==== Hole 51 (row 5, col 0) CW ==== */
#879 = CARTESIAN_POINT('', (8.000, 53.000, 0.0));
#880 = CARTESIAN_POINT('', (8.000, 56.000, 0.0));
#881 = CARTESIAN_POINT('', (11.000, 54.500, 0.0));
#882 = VERTEX_POINT('', #879);
#883 = VERTEX_POINT('', #880);
#884 = VERTEX_POINT('', #881);
#885 = LINE('', #879, #6);
#886 = LINE('', #880, #6);
#887 = LINE('', #881, #6);
#888 = EDGE_CURVE('', #882, #883, #885, .T.);
#889 = EDGE_CURVE('', #883, #884, #886, .T.);
#890 = EDGE_CURVE('', #884, #882, #887, .T.);
#891 = ORIENTED_EDGE('', *, *, #888, .T.);
#892 = ORIENTED_EDGE('', *, *, #889, .T.);
#893 = ORIENTED_EDGE('', *, *, #890, .T.);
#894 = EDGE_LOOP('', (#891, #892, #893));
#895 = FACE_BOUND('', #894, .T.);

/* ==== Hole 52 (row 5, col 1) CW ==== */
#896 = CARTESIAN_POINT('', (17.000, 53.000, 0.0));
#897 = CARTESIAN_POINT('', (17.000, 56.000, 0.0));
#898 = CARTESIAN_POINT('', (20.000, 54.500, 0.0));
#899 = VERTEX_POINT('', #896);
#900 = VERTEX_POINT('', #897);
#901 = VERTEX_POINT('', #898);
#902 = LINE('', #896, #6);
#903 = LINE('', #897, #6);
#904 = LINE('', #898, #6);
#905 = EDGE_CURVE('', #899, #900, #902, .T.);
#906 = EDGE_CURVE('', #900, #901, #903, .T.);
#907 = EDGE_CURVE('', #901, #899, #904, .T.);
#908 = ORIENTED_EDGE('', *, *, #905, .T.);
#909 = ORIENTED_EDGE('', *, *, #906, .T.);
#910 = ORIENTED_EDGE('', *, *, #907, .T.);
#911 = EDGE_LOOP('', (#908, #909, #910));
#912 = FACE_BOUND('', #911, .T.);

/* ==== Hole 53 (row 5, col 2) CW ==== */
#913 = CARTESIAN_POINT('', (26.000, 53.000, 0.0));
#914 = CARTESIAN_POINT('', (26.000, 56.000, 0.0));
#915 = CARTESIAN_POINT('', (29.000, 54.500, 0.0));
#916 = VERTEX_POINT('', #913);
#917 = VERTEX_POINT('', #914);
#918 = VERTEX_POINT('', #915);
#919 = LINE('', #913, #6);
#920 = LINE('', #914, #6);
#921 = LINE('', #915, #6);
#922 = EDGE_CURVE('', #916, #917, #919, .T.);
#923 = EDGE_CURVE('', #917, #918, #920, .T.);
#924 = EDGE_CURVE('', #918, #916, #921, .T.);
#925 = ORIENTED_EDGE('', *, *, #922, .T.);
#926 = ORIENTED_EDGE('', *, *, #923, .T.);
#927 = ORIENTED_EDGE('', *, *, #924, .T.);
#928 = EDGE_LOOP('', (#925, #926, #927));
#929 = FACE_BOUND('', #928, .T.);

/* ==== Hole 54 (row 5, col 3) CW ==== */
#930 = CARTESIAN_POINT('', (35.000, 53.000, 0.0));
#931 = CARTESIAN_POINT('', (35.000, 56.000, 0.0));
#932 = CARTESIAN_POINT('', (38.000, 54.500, 0.0));
#933 = VERTEX_POINT('', #930);
#934 = VERTEX_POINT('', #931);
#935 = VERTEX_POINT('', #932);
#936 = LINE('', #930, #6);
#937 = LINE('', #931, #6);
#938 = LINE('', #932, #6);
#939 = EDGE_CURVE('', #933, #934, #936, .T.);
#940 = EDGE_CURVE('', #934, #935, #937, .T.);
#941 = EDGE_CURVE('', #935, #933, #938, .T.);
#942 = ORIENTED_EDGE('', *, *, #939, .T.);
#943 = ORIENTED_EDGE('', *, *, #940, .T.);
#944 = ORIENTED_EDGE('', *, *, #941, .T.);
#945 = EDGE_LOOP('', (#942, #943, #944));
#946 = FACE_BOUND('', #945, .T.);

/* ==== Hole 55 (row 5, col 4) CW ==== */
#947 = CARTESIAN_POINT('', (44.000, 53.000, 0.0));
#948 = CARTESIAN_POINT('', (44.000, 56.000, 0.0));
#949 = CARTESIAN_POINT('', (47.000, 54.500, 0.0));
#950 = VERTEX_POINT('', #947);
#951 = VERTEX_POINT('', #948);
#952 = VERTEX_POINT('', #949);
#953 = LINE('', #947, #6);
#954 = LINE('', #948, #6);
#955 = LINE('', #949, #6);
#956 = EDGE_CURVE('', #950, #951, #953, .T.);
#957 = EDGE_CURVE('', #951, #952, #954, .T.);
#958 = EDGE_CURVE('', #952, #950, #955, .T.);
#959 = ORIENTED_EDGE('', *, *, #956, .T.);
#960 = ORIENTED_EDGE('', *, *, #957, .T.);
#961 = ORIENTED_EDGE('', *, *, #958, .T.);
#962 = EDGE_LOOP('', (#959, #960, #961));
#963 = FACE_BOUND('', #962, .T.);

/* ==== Hole 56 (row 5, col 5) CW ==== */
#964 = CARTESIAN_POINT('', (53.000, 53.000, 0.0));
#965 = CARTESIAN_POINT('', (53.000, 56.000, 0.0));
#966 = CARTESIAN_POINT('', (56.000, 54.500, 0.0));
#967 = VERTEX_POINT('', #964);
#968 = VERTEX_POINT('', #965);
#969 = VERTEX_POINT('', #966);
#970 = LINE('', #964, #6);
#971 = LINE('', #965, #6);
#972 = LINE('', #966, #6);
#973 = EDGE_CURVE('', #967, #968, #970, .T.);
#974 = EDGE_CURVE('', #968, #969, #971, .T.);
#975 = EDGE_CURVE('', #969, #967, #972, .T.);
#976 = ORIENTED_EDGE('', *, *, #973, .T.);
#977 = ORIENTED_EDGE('', *, *, #974, .T.);
#978 = ORIENTED_EDGE('', *, *, #975, .T.);
#979 = EDGE_LOOP('', (#976, #977, #978));
#980 = FACE_BOUND('', #979, .T.);

/* ==== Hole 57 (row 5, col 6) CW ==== */
#981 = CARTESIAN_POINT('', (62.000, 53.000, 0.0));
#982 = CARTESIAN_POINT('', (62.000, 56.000, 0.0));
#983 = CARTESIAN_POINT('', (65.000, 54.500, 0.0));
#984 = VERTEX_POINT('', #981);
#985 = VERTEX_POINT('', #982);
#986 = VERTEX_POINT('', #983);
#987 = LINE('', #981, #6);
#988 = LINE('', #982, #6);
#989 = LINE('', #983, #6);
#990 = EDGE_CURVE('', #984, #985, #987, .T.);
#991 = EDGE_CURVE('', #985, #986, #988, .T.);
#992 = EDGE_CURVE('', #986, #984, #989, .T.);
#993 = ORIENTED_EDGE('', *, *, #990, .T.);
#994 = ORIENTED_EDGE('', *, *, #991, .T.);
#995 = ORIENTED_EDGE('', *, *, #992, .T.);
#996 = EDGE_LOOP('', (#993, #994, #995));
#997 = FACE_BOUND('', #996, .T.);

/* ==== Hole 58 (row 5, col 7) CW ==== */
#998 = CARTESIAN_POINT('', (71.000, 53.000, 0.0));
#999 = CARTESIAN_POINT('', (71.000, 56.000, 0.0));
#1000 = CARTESIAN_POINT('', (74.000, 54.500, 0.0));
#1001 = VERTEX_POINT('', #998);
#1002 = VERTEX_POINT('', #999);
#1003 = VERTEX_POINT('', #1000);
#1004 = LINE('', #998, #6);
#1005 = LINE('', #999, #6);
#1006 = LINE('', #1000, #6);
#1007 = EDGE_CURVE('', #1001, #1002, #1004, .T.);
#1008 = EDGE_CURVE('', #1002, #1003, #1005, .T.);
#1009 = EDGE_CURVE('', #1003, #1001, #1006, .T.);
#1010 = ORIENTED_EDGE('', *, *, #1007, .T.);
#1011 = ORIENTED_EDGE('', *, *, #1008, .T.);
#1012 = ORIENTED_EDGE('', *, *, #1009, .T.);
#1013 = EDGE_LOOP('', (#1010, #1011, #1012));
#1014 = FACE_BOUND('', #1013, .T.);

/* ==== Hole 59 (row 5, col 8) CW ==== */
#1015 = CARTESIAN_POINT('', (80.000, 53.000, 0.0));
#1016 = CARTESIAN_POINT('', (80.000, 56.000, 0.0));
#1017 = CARTESIAN_POINT('', (83.000, 54.500, 0.0));
#1018 = VERTEX_POINT('', #1015);
#1019 = VERTEX_POINT('', #1016);
#1020 = VERTEX_POINT('', #1017);
#1021 = LINE('', #1015, #6);
#1022 = LINE('', #1016, #6);
#1023 = LINE('', #1017, #6);
#1024 = EDGE_CURVE('', #1018, #1019, #1021, .T.);
#1025 = EDGE_CURVE('', #1019, #1020, #1022, .T.);
#1026 = EDGE_CURVE('', #1020, #1018, #1023, .T.);
#1027 = ORIENTED_EDGE('', *, *, #1024, .T.);
#1028 = ORIENTED_EDGE('', *, *, #1025, .T.);
#1029 = ORIENTED_EDGE('', *, *, #1026, .T.);
#1030 = EDGE_LOOP('', (#1027, #1028, #1029));
#1031 = FACE_BOUND('', #1030, .T.);

/* ==== Hole 60 (row 5, col 9) CW ==== */
#1032 = CARTESIAN_POINT('', (89.000, 53.000, 0.0));
#1033 = CARTESIAN_POINT('', (89.000, 56.000, 0.0));
#1034 = CARTESIAN_POINT('', (92.000, 54.500, 0.0));
#1035 = VERTEX_POINT('', #1032);
#1036 = VERTEX_POINT('', #1033);
#1037 = VERTEX_POINT('', #1034);
#1038 = LINE('', #1032, #6);
#1039 = LINE('', #1033, #6);
#1040 = LINE('', #1034, #6);
#1041 = EDGE_CURVE('', #1035, #1036, #1038, .T.);
#1042 = EDGE_CURVE('', #1036, #1037, #1039, .T.);
#1043 = EDGE_CURVE('', #1037, #1035, #1040, .T.);
#1044 = ORIENTED_EDGE('', *, *, #1041, .T.);
#1045 = ORIENTED_EDGE('', *, *, #1042, .T.);
#1046 = ORIENTED_EDGE('', *, *, #1043, .T.);
#1047 = EDGE_LOOP('', (#1044, #1045, #1046));
#1048 = FACE_BOUND('', #1047, .T.);

/* ==== Hole 61 (row 6, col 0) CW ==== */
#1049 = CARTESIAN_POINT('', (8.000, 62.000, 0.0));
#1050 = CARTESIAN_POINT('', (8.000, 65.000, 0.0));
#1051 = CARTESIAN_POINT('', (11.000, 63.500, 0.0));
#1052 = VERTEX_POINT('', #1049);
#1053 = VERTEX_POINT('', #1050);
#1054 = VERTEX_POINT('', #1051);
#1055 = LINE('', #1049, #6);
#1056 = LINE('', #1050, #6);
#1057 = LINE('', #1051, #6);
#1058 = EDGE_CURVE('', #1052, #1053, #1055, .T.);
#1059 = EDGE_CURVE('', #1053, #1054, #1056, .T.);
#1060 = EDGE_CURVE('', #1054, #1052, #1057, .T.);
#1061 = ORIENTED_EDGE('', *, *, #1058, .T.);
#1062 = ORIENTED_EDGE('', *, *, #1059, .T.);
#1063 = ORIENTED_EDGE('', *, *, #1060, .T.);
#1064 = EDGE_LOOP('', (#1061, #1062, #1063));
#1065 = FACE_BOUND('', #1064, .T.);

/* ==== Hole 62 (row 6, col 1) CW ==== */
#1066 = CARTESIAN_POINT('', (17.000, 62.000, 0.0));
#1067 = CARTESIAN_POINT('', (17.000, 65.000, 0.0));
#1068 = CARTESIAN_POINT('', (20.000, 63.500, 0.0));
#1069 = VERTEX_POINT('', #1066);
#1070 = VERTEX_POINT('', #1067);
#1071 = VERTEX_POINT('', #1068);
#1072 = LINE('', #1066, #6);
#1073 = LINE('', #1067, #6);
#1074 = LINE('', #1068, #6);
#1075 = EDGE_CURVE('', #1069, #1070, #1072, .T.);
#1076 = EDGE_CURVE('', #1070, #1071, #1073, .T.);
#1077 = EDGE_CURVE('', #1071, #1069, #1074, .T.);
#1078 = ORIENTED_EDGE('', *, *, #1075, .T.);
#1079 = ORIENTED_EDGE('', *, *, #1076, .T.);
#1080 = ORIENTED_EDGE('', *, *, #1077, .T.);
#1081 = EDGE_LOOP('', (#1078, #1079, #1080));
#1082 = FACE_BOUND('', #1081, .T.);

/* ==== Hole 63 (row 6, col 2) CW ==== */
#1083 = CARTESIAN_POINT('', (26.000, 62.000, 0.0));
#1084 = CARTESIAN_POINT('', (26.000, 65.000, 0.0));
#1085 = CARTESIAN_POINT('', (29.000, 63.500, 0.0));
#1086 = VERTEX_POINT('', #1083);
#1087 = VERTEX_POINT('', #1084);
#1088 = VERTEX_POINT('', #1085);
#1089 = LINE('', #1083, #6);
#1090 = LINE('', #1084, #6);
#1091 = LINE('', #1085, #6);
#1092 = EDGE_CURVE('', #1086, #1087, #1089, .T.);
#1093 = EDGE_CURVE('', #1087, #1088, #1090, .T.);
#1094 = EDGE_CURVE('', #1088, #1086, #1091, .T.);
#1095 = ORIENTED_EDGE('', *, *, #1092, .T.);
#1096 = ORIENTED_EDGE('', *, *, #1093, .T.);
#1097 = ORIENTED_EDGE('', *, *, #1094, .T.);
#1098 = EDGE_LOOP('', (#1095, #1096, #1097));
#1099 = FACE_BOUND('', #1098, .T.);

/* ==== Hole 64 (row 6, col 3) CW ==== */
#1100 = CARTESIAN_POINT('', (35.000, 62.000, 0.0));
#1101 = CARTESIAN_POINT('', (35.000, 65.000, 0.0));
#1102 = CARTESIAN_POINT('', (38.000, 63.500, 0.0));
#1103 = VERTEX_POINT('', #1100);
#1104 = VERTEX_POINT('', #1101);
#1105 = VERTEX_POINT('', #1102);
#1106 = LINE('', #1100, #6);
#1107 = LINE('', #1101, #6);
#1108 = LINE('', #1102, #6);
#1109 = EDGE_CURVE('', #1103, #1104, #1106, .T.);
#1110 = EDGE_CURVE('', #1104, #1105, #1107, .T.);
#1111 = EDGE_CURVE('', #1105, #1103, #1108, .T.);
#1112 = ORIENTED_EDGE('', *, *, #1109, .T.);
#1113 = ORIENTED_EDGE('', *, *, #1110, .T.);
#1114 = ORIENTED_EDGE('', *, *, #1111, .T.);
#1115 = EDGE_LOOP('', (#1112, #1113, #1114));
#1116 = FACE_BOUND('', #1115, .T.);

/* ==== Hole 65 (row 6, col 4) CW ==== */
#1117 = CARTESIAN_POINT('', (44.000, 62.000, 0.0));
#1118 = CARTESIAN_POINT('', (44.000, 65.000, 0.0));
#1119 = CARTESIAN_POINT('', (47.000, 63.500, 0.0));
#1120 = VERTEX_POINT('', #1117);
#1121 = VERTEX_POINT('', #1118);
#1122 = VERTEX_POINT('', #1119);
#1123 = LINE('', #1117, #6);
#1124 = LINE('', #1118, #6);
#1125 = LINE('', #1119, #6);
#1126 = EDGE_CURVE('', #1120, #1121, #1123, .T.);
#1127 = EDGE_CURVE('', #1121, #1122, #1124, .T.);
#1128 = EDGE_CURVE('', #1122, #1120, #1125, .T.);
#1129 = ORIENTED_EDGE('', *, *, #1126, .T.);
#1130 = ORIENTED_EDGE('', *, *, #1127, .T.);
#1131 = ORIENTED_EDGE('', *, *, #1128, .T.);
#1132 = EDGE_LOOP('', (#1129, #1130, #1131));
#1133 = FACE_BOUND('', #1132, .T.);

/* ==== Hole 66 (row 6, col 5) CW ==== */
#1134 = CARTESIAN_POINT('', (53.000, 62.000, 0.0));
#1135 = CARTESIAN_POINT('', (53.000, 65.000, 0.0));
#1136 = CARTESIAN_POINT('', (56.000, 63.500, 0.0));
#1137 = VERTEX_POINT('', #1134);
#1138 = VERTEX_POINT('', #1135);
#1139 = VERTEX_POINT('', #1136);
#1140 = LINE('', #1134, #6);
#1141 = LINE('', #1135, #6);
#1142 = LINE('', #1136, #6);
#1143 = EDGE_CURVE('', #1137, #1138, #1140, .T.);
#1144 = EDGE_CURVE('', #1138, #1139, #1141, .T.);
#1145 = EDGE_CURVE('', #1139, #1137, #1142, .T.);
#1146 = ORIENTED_EDGE('', *, *, #1143, .T.);
#1147 = ORIENTED_EDGE('', *, *, #1144, .T.);
#1148 = ORIENTED_EDGE('', *, *, #1145, .T.);
#1149 = EDGE_LOOP('', (#1146, #1147, #1148));
#1150 = FACE_BOUND('', #1149, .T.);

/* ==== Hole 67 (row 6, col 6) CW ==== */
#1151 = CARTESIAN_POINT('', (62.000, 62.000, 0.0));
#1152 = CARTESIAN_POINT('', (62.000, 65.000, 0.0));
#1153 = CARTESIAN_POINT('', (65.000, 63.500, 0.0));
#1154 = VERTEX_POINT('', #1151);
#1155 = VERTEX_POINT('', #1152);
#1156 = VERTEX_POINT('', #1153);
#1157 = LINE('', #1151, #6);
#1158 = LINE('', #1152, #6);
#1159 = LINE('', #1153, #6);
#1160 = EDGE_CURVE('', #1154, #1155, #1157, .T.);
#1161 = EDGE_CURVE('', #1155, #1156, #1158, .T.);
#1162 = EDGE_CURVE('', #1156, #1154, #1159, .T.);
#1163 = ORIENTED_EDGE('', *, *, #1160, .T.);
#1164 = ORIENTED_EDGE('', *, *, #1161, .T.);
#1165 = ORIENTED_EDGE('', *, *, #1162, .T.);
#1166 = EDGE_LOOP('', (#1163, #1164, #1165));
#1167 = FACE_BOUND('', #1166, .T.);

/* ==== Hole 68 (row 6, col 7) CW ==== */
#1168 = CARTESIAN_POINT('', (71.000, 62.000, 0.0));
#1169 = CARTESIAN_POINT('', (71.000, 65.000, 0.0));
#1170 = CARTESIAN_POINT('', (74.000, 63.500, 0.0));
#1171 = VERTEX_POINT('', #1168);
#1172 = VERTEX_POINT('', #1169);
#1173 = VERTEX_POINT('', #1170);
#1174 = LINE('', #1168, #6);
#1175 = LINE('', #1169, #6);
#1176 = LINE('', #1170, #6);
#1177 = EDGE_CURVE('', #1171, #1172, #1174, .T.);
#1178 = EDGE_CURVE('', #1172, #1173, #1175, .T.);
#1179 = EDGE_CURVE('', #1173, #1171, #1176, .T.);
#1180 = ORIENTED_EDGE('', *, *, #1177, .T.);
#1181 = ORIENTED_EDGE('', *, *, #1178, .T.);
#1182 = ORIENTED_EDGE('', *, *, #1179, .T.);
#1183 = EDGE_LOOP('', (#1180, #1181, #1182));
#1184 = FACE_BOUND('', #1183, .T.);

/* ==== Hole 69 (row 6, col 8) CW ==== */
#1185 = CARTESIAN_POINT('', (80.000, 62.000, 0.0));
#1186 = CARTESIAN_POINT('', (80.000, 65.000, 0.0));
#1187 = CARTESIAN_POINT('', (83.000, 63.500, 0.0));
#1188 = VERTEX_POINT('', #1185);
#1189 = VERTEX_POINT('', #1186);
#1190 = VERTEX_POINT('', #1187);
#1191 = LINE('', #1185, #6);
#1192 = LINE('', #1186, #6);
#1193 = LINE('', #1187, #6);
#1194 = EDGE_CURVE('', #1188, #1189, #1191, .T.);
#1195 = EDGE_CURVE('', #1189, #1190, #1192, .T.);
#1196 = EDGE_CURVE('', #1190, #1188, #1193, .T.);
#1197 = ORIENTED_EDGE('', *, *, #1194, .T.);
#1198 = ORIENTED_EDGE('', *, *, #1195, .T.);
#1199 = ORIENTED_EDGE('', *, *, #1196, .T.);
#1200 = EDGE_LOOP('', (#1197, #1198, #1199));
#1201 = FACE_BOUND('', #1200, .T.);

/* ==== Hole 70 (row 6, col 9) CW ==== */
#1202 = CARTESIAN_POINT('', (89.000, 62.000, 0.0));
#1203 = CARTESIAN_POINT('', (89.000, 65.000, 0.0));
#1204 = CARTESIAN_POINT('', (92.000, 63.500, 0.0));
#1205 = VERTEX_POINT('', #1202);
#1206 = VERTEX_POINT('', #1203);
#1207 = VERTEX_POINT('', #1204);
#1208 = LINE('', #1202, #6);
#1209 = LINE('', #1203, #6);
#1210 = LINE('', #1204, #6);
#1211 = EDGE_CURVE('', #1205, #1206, #1208, .T.);
#1212 = EDGE_CURVE('', #1206, #1207, #1209, .T.);
#1213 = EDGE_CURVE('', #1207, #1205, #1210, .T.);
#1214 = ORIENTED_EDGE('', *, *, #1211, .T.);
#1215 = ORIENTED_EDGE('', *, *, #1212, .T.);
#1216 = ORIENTED_EDGE('', *, *, #1213, .T.);
#1217 = EDGE_LOOP('', (#1214, #1215, #1216));
#1218 = FACE_BOUND('', #1217, .T.);

/* ==== Hole 71 (row 7, col 0) CW ==== */
#1219 = CARTESIAN_POINT('', (8.000, 71.000, 0.0));
#1220 = CARTESIAN_POINT('', (8.000, 74.000, 0.0));
#1221 = CARTESIAN_POINT('', (11.000, 72.500, 0.0));
#1222 = VERTEX_POINT('', #1219);
#1223 = VERTEX_POINT('', #1220);
#1224 = VERTEX_POINT('', #1221);
#1225 = LINE('', #1219, #6);
#1226 = LINE('', #1220, #6);
#1227 = LINE('', #1221, #6);
#1228 = EDGE_CURVE('', #1222, #1223, #1225, .T.);
#1229 = EDGE_CURVE('', #1223, #1224, #1226, .T.);
#1230 = EDGE_CURVE('', #1224, #1222, #1227, .T.);
#1231 = ORIENTED_EDGE('', *, *, #1228, .T.);
#1232 = ORIENTED_EDGE('', *, *, #1229, .T.);
#1233 = ORIENTED_EDGE('', *, *, #1230, .T.);
#1234 = EDGE_LOOP('', (#1231, #1232, #1233));
#1235 = FACE_BOUND('', #1234, .T.);

/* ==== Hole 72 (row 7, col 1) CW ==== */
#1236 = CARTESIAN_POINT('', (17.000, 71.000, 0.0));
#1237 = CARTESIAN_POINT('', (17.000, 74.000, 0.0));
#1238 = CARTESIAN_POINT('', (20.000, 72.500, 0.0));
#1239 = VERTEX_POINT('', #1236);
#1240 = VERTEX_POINT('', #1237);
#1241 = VERTEX_POINT('', #1238);
#1242 = LINE('', #1236, #6);
#1243 = LINE('', #1237, #6);
#1244 = LINE('', #1238, #6);
#1245 = EDGE_CURVE('', #1239, #1240, #1242, .T.);
#1246 = EDGE_CURVE('', #1240, #1241, #1243, .T.);
#1247 = EDGE_CURVE('', #1241, #1239, #1244, .T.);
#1248 = ORIENTED_EDGE('', *, *, #1245, .T.);
#1249 = ORIENTED_EDGE('', *, *, #1246, .T.);
#1250 = ORIENTED_EDGE('', *, *, #1247, .T.);
#1251 = EDGE_LOOP('', (#1248, #1249, #1250));
#1252 = FACE_BOUND('', #1251, .T.);

/* ==== Hole 73 (row 7, col 2) CW ==== */
#1253 = CARTESIAN_POINT('', (26.000, 71.000, 0.0));
#1254 = CARTESIAN_POINT('', (26.000, 74.000, 0.0));
#1255 = CARTESIAN_POINT('', (29.000, 72.500, 0.0));
#1256 = VERTEX_POINT('', #1253);
#1257 = VERTEX_POINT('', #1254);
#1258 = VERTEX_POINT('', #1255);
#1259 = LINE('', #1253, #6);
#1260 = LINE('', #1254, #6);
#1261 = LINE('', #1255, #6);
#1262 = EDGE_CURVE('', #1256, #1257, #1259, .T.);
#1263 = EDGE_CURVE('', #1257, #1258, #1260, .T.);
#1264 = EDGE_CURVE('', #1258, #1256, #1261, .T.);
#1265 = ORIENTED_EDGE('', *, *, #1262, .T.);
#1266 = ORIENTED_EDGE('', *, *, #1263, .T.);
#1267 = ORIENTED_EDGE('', *, *, #1264, .T.);
#1268 = EDGE_LOOP('', (#1265, #1266, #1267));
#1269 = FACE_BOUND('', #1268, .T.);

/* ==== Hole 74 (row 7, col 3) CW ==== */
#1270 = CARTESIAN_POINT('', (35.000, 71.000, 0.0));
#1271 = CARTESIAN_POINT('', (35.000, 74.000, 0.0));
#1272 = CARTESIAN_POINT('', (38.000, 72.500, 0.0));
#1273 = VERTEX_POINT('', #1270);
#1274 = VERTEX_POINT('', #1271);
#1275 = VERTEX_POINT('', #1272);
#1276 = LINE('', #1270, #6);
#1277 = LINE('', #1271, #6);
#1278 = LINE('', #1272, #6);
#1279 = EDGE_CURVE('', #1273, #1274, #1276, .T.);
#1280 = EDGE_CURVE('', #1274, #1275, #1277, .T.);
#1281 = EDGE_CURVE('', #1275, #1273, #1278, .T.);
#1282 = ORIENTED_EDGE('', *, *, #1279, .T.);
#1283 = ORIENTED_EDGE('', *, *, #1280, .T.);
#1284 = ORIENTED_EDGE('', *, *, #1281, .T.);
#1285 = EDGE_LOOP('', (#1282, #1283, #1284));
#1286 = FACE_BOUND('', #1285, .T.);

/* ==== Hole 75 (row 7, col 4) CW ==== */
#1287 = CARTESIAN_POINT('', (44.000, 71.000, 0.0));
#1288 = CARTESIAN_POINT('', (44.000, 74.000, 0.0));
#1289 = CARTESIAN_POINT('', (47.000, 72.500, 0.0));
#1290 = VERTEX_POINT('', #1287);
#1291 = VERTEX_POINT('', #1288);
#1292 = VERTEX_POINT('', #1289);
#1293 = LINE('', #1287, #6);
#1294 = LINE('', #1288, #6);
#1295 = LINE('', #1289, #6);
#1296 = EDGE_CURVE('', #1290, #1291, #1293, .T.);
#1297 = EDGE_CURVE('', #1291, #1292, #1294, .T.);
#1298 = EDGE_CURVE('', #1292, #1290, #1295, .T.);
#1299 = ORIENTED_EDGE('', *, *, #1296, .T.);
#1300 = ORIENTED_EDGE('', *, *, #1297, .T.);
#1301 = ORIENTED_EDGE('', *, *, #1298, .T.);
#1302 = EDGE_LOOP('', (#1299, #1300, #1301));
#1303 = FACE_BOUND('', #1302, .T.);

/* ==== Hole 76 (row 7, col 5) CW ==== */
#1304 = CARTESIAN_POINT('', (53.000, 71.000, 0.0));
#1305 = CARTESIAN_POINT('', (53.000, 74.000, 0.0));
#1306 = CARTESIAN_POINT('', (56.000, 72.500, 0.0));
#1307 = VERTEX_POINT('', #1304);
#1308 = VERTEX_POINT('', #1305);
#1309 = VERTEX_POINT('', #1306);
#1310 = LINE('', #1304, #6);
#1311 = LINE('', #1305, #6);
#1312 = LINE('', #1306, #6);
#1313 = EDGE_CURVE('', #1307, #1308, #1310, .T.);
#1314 = EDGE_CURVE('', #1308, #1309, #1311, .T.);
#1315 = EDGE_CURVE('', #1309, #1307, #1312, .T.);
#1316 = ORIENTED_EDGE('', *, *, #1313, .T.);
#1317 = ORIENTED_EDGE('', *, *, #1314, .T.);
#1318 = ORIENTED_EDGE('', *, *, #1315, .T.);
#1319 = EDGE_LOOP('', (#1316, #1317, #1318));
#1320 = FACE_BOUND('', #1319, .T.);

/* ==== Hole 77 (row 7, col 6) CW ==== */
#1321 = CARTESIAN_POINT('', (62.000, 71.000, 0.0));
#1322 = CARTESIAN_POINT('', (62.000, 74.000, 0.0));
#1323 = CARTESIAN_POINT('', (65.000, 72.500, 0.0));
#1324 = VERTEX_POINT('', #1321);
#1325 = VERTEX_POINT('', #1322);
#1326 = VERTEX_POINT('', #1323);
#1327 = LINE('', #1321, #6);
#1328 = LINE('', #1322, #6);
#1329 = LINE('', #1323, #6);
#1330 = EDGE_CURVE('', #1324, #1325, #1327, .T.);
#1331 = EDGE_CURVE('', #1325, #1326, #1328, .T.);
#1332 = EDGE_CURVE('', #1326, #1324, #1329, .T.);
#1333 = ORIENTED_EDGE('', *, *, #1330, .T.);
#1334 = ORIENTED_EDGE('', *, *, #1331, .T.);
#1335 = ORIENTED_EDGE('', *, *, #1332, .T.);
#1336 = EDGE_LOOP('', (#1333, #1334, #1335));
#1337 = FACE_BOUND('', #1336, .T.);

/* ==== Hole 78 (row 7, col 7) CW ==== */
#1338 = CARTESIAN_POINT('', (71.000, 71.000, 0.0));
#1339 = CARTESIAN_POINT('', (71.000, 74.000, 0.0));
#1340 = CARTESIAN_POINT('', (74.000, 72.500, 0.0));
#1341 = VERTEX_POINT('', #1338);
#1342 = VERTEX_POINT('', #1339);
#1343 = VERTEX_POINT('', #1340);
#1344 = LINE('', #1338, #6);
#1345 = LINE('', #1339, #6);
#1346 = LINE('', #1340, #6);
#1347 = EDGE_CURVE('', #1341, #1342, #1344, .T.);
#1348 = EDGE_CURVE('', #1342, #1343, #1345, .T.);
#1349 = EDGE_CURVE('', #1343, #1341, #1346, .T.);
#1350 = ORIENTED_EDGE('', *, *, #1347, .T.);
#1351 = ORIENTED_EDGE('', *, *, #1348, .T.);
#1352 = ORIENTED_EDGE('', *, *, #1349, .T.);
#1353 = EDGE_LOOP('', (#1350, #1351, #1352));
#1354 = FACE_BOUND('', #1353, .T.);

/* ==== Hole 79 (row 7, col 8) CW ==== */
#1355 = CARTESIAN_POINT('', (80.000, 71.000, 0.0));
#1356 = CARTESIAN_POINT('', (80.000, 74.000, 0.0));
#1357 = CARTESIAN_POINT('', (83.000, 72.500, 0.0));
#1358 = VERTEX_POINT('', #1355);
#1359 = VERTEX_POINT('', #1356);
#1360 = VERTEX_POINT('', #1357);
#1361 = LINE('', #1355, #6);
#1362 = LINE('', #1356, #6);
#1363 = LINE('', #1357, #6);
#1364 = EDGE_CURVE('', #1358, #1359, #1361, .T.);
#1365 = EDGE_CURVE('', #1359, #1360, #1362, .T.);
#1366 = EDGE_CURVE('', #1360, #1358, #1363, .T.);
#1367 = ORIENTED_EDGE('', *, *, #1364, .T.);
#1368 = ORIENTED_EDGE('', *, *, #1365, .T.);
#1369 = ORIENTED_EDGE('', *, *, #1366, .T.);
#1370 = EDGE_LOOP('', (#1367, #1368, #1369));
#1371 = FACE_BOUND('', #1370, .T.);

/* ==== Hole 80 (row 7, col 9) CW ==== */
#1372 = CARTESIAN_POINT('', (89.000, 71.000, 0.0));
#1373 = CARTESIAN_POINT('', (89.000, 74.000, 0.0));
#1374 = CARTESIAN_POINT('', (92.000, 72.500, 0.0));
#1375 = VERTEX_POINT('', #1372);
#1376 = VERTEX_POINT('', #1373);
#1377 = VERTEX_POINT('', #1374);
#1378 = LINE('', #1372, #6);
#1379 = LINE('', #1373, #6);
#1380 = LINE('', #1374, #6);
#1381 = EDGE_CURVE('', #1375, #1376, #1378, .T.);
#1382 = EDGE_CURVE('', #1376, #1377, #1379, .T.);
#1383 = EDGE_CURVE('', #1377, #1375, #1380, .T.);
#1384 = ORIENTED_EDGE('', *, *, #1381, .T.);
#1385 = ORIENTED_EDGE('', *, *, #1382, .T.);
#1386 = ORIENTED_EDGE('', *, *, #1383, .T.);
#1387 = EDGE_LOOP('', (#1384, #1385, #1386));
#1388 = FACE_BOUND('', #1387, .T.);

/* ==== Hole 81 (row 8, col 0) CW ==== */
#1389 = CARTESIAN_POINT('', (8.000, 80.000, 0.0));
#1390 = CARTESIAN_POINT('', (8.000, 83.000, 0.0));
#1391 = CARTESIAN_POINT('', (11.000, 81.500, 0.0));
#1392 = VERTEX_POINT('', #1389);
#1393 = VERTEX_POINT('', #1390);
#1394 = VERTEX_POINT('', #1391);
#1395 = LINE('', #1389, #6);
#1396 = LINE('', #1390, #6);
#1397 = LINE('', #1391, #6);
#1398 = EDGE_CURVE('', #1392, #1393, #1395, .T.);
#1399 = EDGE_CURVE('', #1393, #1394, #1396, .T.);
#1400 = EDGE_CURVE('', #1394, #1392, #1397, .T.);
#1401 = ORIENTED_EDGE('', *, *, #1398, .T.);
#1402 = ORIENTED_EDGE('', *, *, #1399, .T.);
#1403 = ORIENTED_EDGE('', *, *, #1400, .T.);
#1404 = EDGE_LOOP('', (#1401, #1402, #1403));
#1405 = FACE_BOUND('', #1404, .T.);

/* ==== Hole 82 (row 8, col 1) CW ==== */
#1406 = CARTESIAN_POINT('', (17.000, 80.000, 0.0));
#1407 = CARTESIAN_POINT('', (17.000, 83.000, 0.0));
#1408 = CARTESIAN_POINT('', (20.000, 81.500, 0.0));
#1409 = VERTEX_POINT('', #1406);
#1410 = VERTEX_POINT('', #1407);
#1411 = VERTEX_POINT('', #1408);
#1412 = LINE('', #1406, #6);
#1413 = LINE('', #1407, #6);
#1414 = LINE('', #1408, #6);
#1415 = EDGE_CURVE('', #1409, #1410, #1412, .T.);
#1416 = EDGE_CURVE('', #1410, #1411, #1413, .T.);
#1417 = EDGE_CURVE('', #1411, #1409, #1414, .T.);
#1418 = ORIENTED_EDGE('', *, *, #1415, .T.);
#1419 = ORIENTED_EDGE('', *, *, #1416, .T.);
#1420 = ORIENTED_EDGE('', *, *, #1417, .T.);
#1421 = EDGE_LOOP('', (#1418, #1419, #1420));
#1422 = FACE_BOUND('', #1421, .T.);

/* ==== Hole 83 (row 8, col 2) CW ==== */
#1423 = CARTESIAN_POINT('', (26.000, 80.000, 0.0));
#1424 = CARTESIAN_POINT('', (26.000, 83.000, 0.0));
#1425 = CARTESIAN_POINT('', (29.000, 81.500, 0.0));
#1426 = VERTEX_POINT('', #1423);
#1427 = VERTEX_POINT('', #1424);
#1428 = VERTEX_POINT('', #1425);
#1429 = LINE('', #1423, #6);
#1430 = LINE('', #1424, #6);
#1431 = LINE('', #1425, #6);
#1432 = EDGE_CURVE('', #1426, #1427, #1429, .T.);
#1433 = EDGE_CURVE('', #1427, #1428, #1430, .T.);
#1434 = EDGE_CURVE('', #1428, #1426, #1431, .T.);
#1435 = ORIENTED_EDGE('', *, *, #1432, .T.);
#1436 = ORIENTED_EDGE('', *, *, #1433, .T.);
#1437 = ORIENTED_EDGE('', *, *, #1434, .T.);
#1438 = EDGE_LOOP('', (#1435, #1436, #1437));
#1439 = FACE_BOUND('', #1438, .T.);

/* ==== Hole 84 (row 8, col 3) CW ==== */
#1440 = CARTESIAN_POINT('', (35.000, 80.000, 0.0));
#1441 = CARTESIAN_POINT('', (35.000, 83.000, 0.0));
#1442 = CARTESIAN_POINT('', (38.000, 81.500, 0.0));
#1443 = VERTEX_POINT('', #1440);
#1444 = VERTEX_POINT('', #1441);
#1445 = VERTEX_POINT('', #1442);
#1446 = LINE('', #1440, #6);
#1447 = LINE('', #1441, #6);
#1448 = LINE('', #1442, #6);
#1449 = EDGE_CURVE('', #1443, #1444, #1446, .T.);
#1450 = EDGE_CURVE('', #1444, #1445, #1447, .T.);
#1451 = EDGE_CURVE('', #1445, #1443, #1448, .T.);
#1452 = ORIENTED_EDGE('', *, *, #1449, .T.);
#1453 = ORIENTED_EDGE('', *, *, #1450, .T.);
#1454 = ORIENTED_EDGE('', *, *, #1451, .T.);
#1455 = EDGE_LOOP('', (#1452, #1453, #1454));
#1456 = FACE_BOUND('', #1455, .T.);

/* ==== Hole 85 (row 8, col 4) CW ==== */
#1457 = CARTESIAN_POINT('', (44.000, 80.000, 0.0));
#1458 = CARTESIAN_POINT('', (44.000, 83.000, 0.0));
#1459 = CARTESIAN_POINT('', (47.000, 81.500, 0.0));
#1460 = VERTEX_POINT('', #1457);
#1461 = VERTEX_POINT('', #1458);
#1462 = VERTEX_POINT('', #1459);
#1463 = LINE('', #1457, #6);
#1464 = LINE('', #1458, #6);
#1465 = LINE('', #1459, #6);
#1466 = EDGE_CURVE('', #1460, #1461, #1463, .T.);
#1467 = EDGE_CURVE('', #1461, #1462, #1464, .T.);
#1468 = EDGE_CURVE('', #1462, #1460, #1465, .T.);
#1469 = ORIENTED_EDGE('', *, *, #1466, .T.);
#1470 = ORIENTED_EDGE('', *, *, #1467, .T.);
#1471 = ORIENTED_EDGE('', *, *, #1468, .T.);
#1472 = EDGE_LOOP('', (#1469, #1470, #1471));
#1473 = FACE_BOUND('', #1472, .T.);

/* ==== Hole 86 (row 8, col 5) CW ==== */
#1474 = CARTESIAN_POINT('', (53.000, 80.000, 0.0));
#1475 = CARTESIAN_POINT('', (53.000, 83.000, 0.0));
#1476 = CARTESIAN_POINT('', (56.000, 81.500, 0.0));
#1477 = VERTEX_POINT('', #1474);
#1478 = VERTEX_POINT('', #1475);
#1479 = VERTEX_POINT('', #1476);
#1480 = LINE('', #1474, #6);
#1481 = LINE('', #1475, #6);
#1482 = LINE('', #1476, #6);
#1483 = EDGE_CURVE('', #1477, #1478, #1480, .T.);
#1484 = EDGE_CURVE('', #1478, #1479, #1481, .T.);
#1485 = EDGE_CURVE('', #1479, #1477, #1482, .T.);
#1486 = ORIENTED_EDGE('', *, *, #1483, .T.);
#1487 = ORIENTED_EDGE('', *, *, #1484, .T.);
#1488 = ORIENTED_EDGE('', *, *, #1485, .T.);
#1489 = EDGE_LOOP('', (#1486, #1487, #1488));
#1490 = FACE_BOUND('', #1489, .T.);

/* ==== Hole 87 (row 8, col 6) CW ==== */
#1491 = CARTESIAN_POINT('', (62.000, 80.000, 0.0));
#1492 = CARTESIAN_POINT('', (62.000, 83.000, 0.0));
#1493 = CARTESIAN_POINT('', (65.000, 81.500, 0.0));
#1494 = VERTEX_POINT('', #1491);
#1495 = VERTEX_POINT('', #1492);
#1496 = VERTEX_POINT('', #1493);
#1497 = LINE('', #1491, #6);
#1498 = LINE('', #1492, #6);
#1499 = LINE('', #1493, #6);
#1500 = EDGE_CURVE('', #1494, #1495, #1497, .T.);
#1501 = EDGE_CURVE('', #1495, #1496, #1498, .T.);
#1502 = EDGE_CURVE('', #1496, #1494, #1499, .T.);
#1503 = ORIENTED_EDGE('', *, *, #1500, .T.);
#1504 = ORIENTED_EDGE('', *, *, #1501, .T.);
#1505 = ORIENTED_EDGE('', *, *, #1502, .T.);
#1506 = EDGE_LOOP('', (#1503, #1504, #1505));
#1507 = FACE_BOUND('', #1506, .T.);

/* ==== Hole 88 (row 8, col 7) CW ==== */
#1508 = CARTESIAN_POINT('', (71.000, 80.000, 0.0));
#1509 = CARTESIAN_POINT('', (71.000, 83.000, 0.0));
#1510 = CARTESIAN_POINT('', (74.000, 81.500, 0.0));
#1511 = VERTEX_POINT('', #1508);
#1512 = VERTEX_POINT('', #1509);
#1513 = VERTEX_POINT('', #1510);
#1514 = LINE('', #1508, #6);
#1515 = LINE('', #1509, #6);
#1516 = LINE('', #1510, #6);
#1517 = EDGE_CURVE('', #1511, #1512, #1514, .T.);
#1518 = EDGE_CURVE('', #1512, #1513, #1515, .T.);
#1519 = EDGE_CURVE('', #1513, #1511, #1516, .T.);
#1520 = ORIENTED_EDGE('', *, *, #1517, .T.);
#1521 = ORIENTED_EDGE('', *, *, #1518, .T.);
#1522 = ORIENTED_EDGE('', *, *, #1519, .T.);
#1523 = EDGE_LOOP('', (#1520, #1521, #1522));
#1524 = FACE_BOUND('', #1523, .T.);

/* ==== Hole 89 (row 8, col 8) CW ==== */
#1525 = CARTESIAN_POINT('', (80.000, 80.000, 0.0));
#1526 = CARTESIAN_POINT('', (80.000, 83.000, 0.0));
#1527 = CARTESIAN_POINT('', (83.000, 81.500, 0.0));
#1528 = VERTEX_POINT('', #1525);
#1529 = VERTEX_POINT('', #1526);
#1530 = VERTEX_POINT('', #1527);
#1531 = LINE('', #1525, #6);
#1532 = LINE('', #1526, #6);
#1533 = LINE('', #1527, #6);
#1534 = EDGE_CURVE('', #1528, #1529, #1531, .T.);
#1535 = EDGE_CURVE('', #1529, #1530, #1532, .T.);
#1536 = EDGE_CURVE('', #1530, #1528, #1533, .T.);
#1537 = ORIENTED_EDGE('', *, *, #1534, .T.);
#1538 = ORIENTED_EDGE('', *, *, #1535, .T.);
#1539 = ORIENTED_EDGE('', *, *, #1536, .T.);
#1540 = EDGE_LOOP('', (#1537, #1538, #1539));
#1541 = FACE_BOUND('', #1540, .T.);

/* ==== Hole 90 (row 8, col 9) CW ==== */
#1542 = CARTESIAN_POINT('', (89.000, 80.000, 0.0));
#1543 = CARTESIAN_POINT('', (89.000, 83.000, 0.0));
#1544 = CARTESIAN_POINT('', (92.000, 81.500, 0.0));
#1545 = VERTEX_POINT('', #1542);
#1546 = VERTEX_POINT('', #1543);
#1547 = VERTEX_POINT('', #1544);
#1548 = LINE('', #1542, #6);
#1549 = LINE('', #1543, #6);
#1550 = LINE('', #1544, #6);
#1551 = EDGE_CURVE('', #1545, #1546, #1548, .T.);
#1552 = EDGE_CURVE('', #1546, #1547, #1549, .T.);
#1553 = EDGE_CURVE('', #1547, #1545, #1550, .T.);
#1554 = ORIENTED_EDGE('', *, *, #1551, .T.);
#1555 = ORIENTED_EDGE('', *, *, #1552, .T.);
#1556 = ORIENTED_EDGE('', *, *, #1553, .T.);
#1557 = EDGE_LOOP('', (#1554, #1555, #1556));
#1558 = FACE_BOUND('', #1557, .T.);

/* ==== Hole 91 (row 9, col 0) CW ==== */
#1559 = CARTESIAN_POINT('', (8.000, 89.000, 0.0));
#1560 = CARTESIAN_POINT('', (8.000, 92.000, 0.0));
#1561 = CARTESIAN_POINT('', (11.000, 90.500, 0.0));
#1562 = VERTEX_POINT('', #1559);
#1563 = VERTEX_POINT('', #1560);
#1564 = VERTEX_POINT('', #1561);
#1565 = LINE('', #1559, #6);
#1566 = LINE('', #1560, #6);
#1567 = LINE('', #1561, #6);
#1568 = EDGE_CURVE('', #1562, #1563, #1565, .T.);
#1569 = EDGE_CURVE('', #1563, #1564, #1566, .T.);
#1570 = EDGE_CURVE('', #1564, #1562, #1567, .T.);
#1571 = ORIENTED_EDGE('', *, *, #1568, .T.);
#1572 = ORIENTED_EDGE('', *, *, #1569, .T.);
#1573 = ORIENTED_EDGE('', *, *, #1570, .T.);
#1574 = EDGE_LOOP('', (#1571, #1572, #1573));
#1575 = FACE_BOUND('', #1574, .T.);

/* ==== Hole 92 (row 9, col 1) CW ==== */
#1576 = CARTESIAN_POINT('', (17.000, 89.000, 0.0));
#1577 = CARTESIAN_POINT('', (17.000, 92.000, 0.0));
#1578 = CARTESIAN_POINT('', (20.000, 90.500, 0.0));
#1579 = VERTEX_POINT('', #1576);
#1580 = VERTEX_POINT('', #1577);
#1581 = VERTEX_POINT('', #1578);
#1582 = LINE('', #1576, #6);
#1583 = LINE('', #1577, #6);
#1584 = LINE('', #1578, #6);
#1585 = EDGE_CURVE('', #1579, #1580, #1582, .T.);
#1586 = EDGE_CURVE('', #1580, #1581, #1583, .T.);
#1587 = EDGE_CURVE('', #1581, #1579, #1584, .T.);
#1588 = ORIENTED_EDGE('', *, *, #1585, .T.);
#1589 = ORIENTED_EDGE('', *, *, #1586, .T.);
#1590 = ORIENTED_EDGE('', *, *, #1587, .T.);
#1591 = EDGE_LOOP('', (#1588, #1589, #1590));
#1592 = FACE_BOUND('', #1591, .T.);

/* ==== Hole 93 (row 9, col 2) CW ==== */
#1593 = CARTESIAN_POINT('', (26.000, 89.000, 0.0));
#1594 = CARTESIAN_POINT('', (26.000, 92.000, 0.0));
#1595 = CARTESIAN_POINT('', (29.000, 90.500, 0.0));
#1596 = VERTEX_POINT('', #1593);
#1597 = VERTEX_POINT('', #1594);
#1598 = VERTEX_POINT('', #1595);
#1599 = LINE('', #1593, #6);
#1600 = LINE('', #1594, #6);
#1601 = LINE('', #1595, #6);
#1602 = EDGE_CURVE('', #1596, #1597, #1599, .T.);
#1603 = EDGE_CURVE('', #1597, #1598, #1600, .T.);
#1604 = EDGE_CURVE('', #1598, #1596, #1601, .T.);
#1605 = ORIENTED_EDGE('', *, *, #1602, .T.);
#1606 = ORIENTED_EDGE('', *, *, #1603, .T.);
#1607 = ORIENTED_EDGE('', *, *, #1604, .T.);
#1608 = EDGE_LOOP('', (#1605, #1606, #1607));
#1609 = FACE_BOUND('', #1608, .T.);

/* ==== Hole 94 (row 9, col 3) CW ==== */
#1610 = CARTESIAN_POINT('', (35.000, 89.000, 0.0));
#1611 = CARTESIAN_POINT('', (35.000, 92.000, 0.0));
#1612 = CARTESIAN_POINT('', (38.000, 90.500, 0.0));
#1613 = VERTEX_POINT('', #1610);
#1614 = VERTEX_POINT('', #1611);
#1615 = VERTEX_POINT('', #1612);
#1616 = LINE('', #1610, #6);
#1617 = LINE('', #1611, #6);
#1618 = LINE('', #1612, #6);
#1619 = EDGE_CURVE('', #1613, #1614, #1616, .T.);
#1620 = EDGE_CURVE('', #1614, #1615, #1617, .T.);
#1621 = EDGE_CURVE('', #1615, #1613, #1618, .T.);
#1622 = ORIENTED_EDGE('', *, *, #1619, .T.);
#1623 = ORIENTED_EDGE('', *, *, #1620, .T.);
#1624 = ORIENTED_EDGE('', *, *, #1621, .T.);
#1625 = EDGE_LOOP('', (#1622, #1623, #1624));
#1626 = FACE_BOUND('', #1625, .T.);

/* ==== Hole 95 (row 9, col 4) CW ==== */
#1627 = CARTESIAN_POINT('', (44.000, 89.000, 0.0));
#1628 = CARTESIAN_POINT('', (44.000, 92.000, 0.0));
#1629 = CARTESIAN_POINT('', (47.000, 90.500, 0.0));
#1630 = VERTEX_POINT('', #1627);
#1631 = VERTEX_POINT('', #1628);
#1632 = VERTEX_POINT('', #1629);
#1633 = LINE('', #1627, #6);
#1634 = LINE('', #1628, #6);
#1635 = LINE('', #1629, #6);
#1636 = EDGE_CURVE('', #1630, #1631, #1633, .T.);
#1637 = EDGE_CURVE('', #1631, #1632, #1634, .T.);
#1638 = EDGE_CURVE('', #1632, #1630, #1635, .T.);
#1639 = ORIENTED_EDGE('', *, *, #1636, .T.);
#1640 = ORIENTED_EDGE('', *, *, #1637, .T.);
#1641 = ORIENTED_EDGE('', *, *, #1638, .T.);
#1642 = EDGE_LOOP('', (#1639, #1640, #1641));
#1643 = FACE_BOUND('', #1642, .T.);

/* ==== Hole 96 (row 9, col 5) CW ==== */
#1644 = CARTESIAN_POINT('', (53.000, 89.000, 0.0));
#1645 = CARTESIAN_POINT('', (53.000, 92.000, 0.0));
#1646 = CARTESIAN_POINT('', (56.000, 90.500, 0.0));
#1647 = VERTEX_POINT('', #1644);
#1648 = VERTEX_POINT('', #1645);
#1649 = VERTEX_POINT('', #1646);
#1650 = LINE('', #1644, #6);
#1651 = LINE('', #1645, #6);
#1652 = LINE('', #1646, #6);
#1653 = EDGE_CURVE('', #1647, #1648, #1650, .T.);
#1654 = EDGE_CURVE('', #1648, #1649, #1651, .T.);
#1655 = EDGE_CURVE('', #1649, #1647, #1652, .T.);
#1656 = ORIENTED_EDGE('', *, *, #1653, .T.);
#1657 = ORIENTED_EDGE('', *, *, #1654, .T.);
#1658 = ORIENTED_EDGE('', *, *, #1655, .T.);
#1659 = EDGE_LOOP('', (#1656, #1657, #1658));
#1660 = FACE_BOUND('', #1659, .T.);

/* ==== Hole 97 (row 9, col 6) CW ==== */
#1661 = CARTESIAN_POINT('', (62.000, 89.000, 0.0));
#1662 = CARTESIAN_POINT('', (62.000, 92.000, 0.0));
#1663 = CARTESIAN_POINT('', (65.000, 90.500, 0.0));
#1664 = VERTEX_POINT('', #1661);
#1665 = VERTEX_POINT('', #1662);
#1666 = VERTEX_POINT('', #1663);
#1667 = LINE('', #1661, #6);
#1668 = LINE('', #1662, #6);
#1669 = LINE('', #1663, #6);
#1670 = EDGE_CURVE('', #1664, #1665, #1667, .T.);
#1671 = EDGE_CURVE('', #1665, #1666, #1668, .T.);
#1672 = EDGE_CURVE('', #1666, #1664, #1669, .T.);
#1673 = ORIENTED_EDGE('', *, *, #1670, .T.);
#1674 = ORIENTED_EDGE('', *, *, #1671, .T.);
#1675 = ORIENTED_EDGE('', *, *, #1672, .T.);
#1676 = EDGE_LOOP('', (#1673, #1674, #1675));
#1677 = FACE_BOUND('', #1676, .T.);

/* ==== Hole 98 (row 9, col 7) CW ==== */
#1678 = CARTESIAN_POINT('', (71.000, 89.000, 0.0));
#1679 = CARTESIAN_POINT('', (71.000, 92.000, 0.0));
#1680 = CARTESIAN_POINT('', (74.000, 90.500, 0.0));
#1681 = VERTEX_POINT('', #1678);
#1682 = VERTEX_POINT('', #1679);
#1683 = VERTEX_POINT('', #1680);
#1684 = LINE('', #1678, #6);
#1685 = LINE('', #1679, #6);
#1686 = LINE('', #1680, #6);
#1687 = EDGE_CURVE('', #1681, #1682, #1684, .T.);
#1688 = EDGE_CURVE('', #1682, #1683, #1685, .T.);
#1689 = EDGE_CURVE('', #1683, #1681, #1686, .T.);
#1690 = ORIENTED_EDGE('', *, *, #1687, .T.);
#1691 = ORIENTED_EDGE('', *, *, #1688, .T.);
#1692 = ORIENTED_EDGE('', *, *, #1689, .T.);
#1693 = EDGE_LOOP('', (#1690, #1691, #1692));
#1694 = FACE_BOUND('', #1693, .T.);

/* ==== Hole 99 (row 9, col 8) CW ==== */
#1695 = CARTESIAN_POINT('', (80.000, 89.000, 0.0));
#1696 = CARTESIAN_POINT('', (80.000, 92.000, 0.0));
#1697 = CARTESIAN_POINT('', (83.000, 90.500, 0.0));
#1698 = VERTEX_POINT('', #1695);
#1699 = VERTEX_POINT('', #1696);
#1700 = VERTEX_POINT('', #1697);
#1701 = LINE('', #1695, #6);
#1702 = LINE('', #1696, #6);
#1703 = LINE('', #1697, #6);
#1704 = EDGE_CURVE('', #1698, #1699, #1701, .T.);
#1705 = EDGE_CURVE('', #1699, #1700, #1702, .T.);
#1706 = EDGE_CURVE('', #1700, #1698, #1703, .T.);
#1707 = ORIENTED_EDGE('', *, *, #1704, .T.);
#1708 = ORIENTED_EDGE('', *, *, #1705, .T.);
#1709 = ORIENTED_EDGE('', *, *, #1706, .T.);
#1710 = EDGE_LOOP('', (#1707, #1708, #1709));
#1711 = FACE_BOUND('', #1710, .T.);

/* ==== Hole 100 (row 9, col 9) CW ==== */
#1712 = CARTESIAN_POINT('', (89.000, 89.000, 0.0));
#1713 = CARTESIAN_POINT('', (89.000, 92.000, 0.0));
#1714 = CARTESIAN_POINT('', (92.000, 90.500, 0.0));
#1715 = VERTEX_POINT('', #1712);
#1716 = VERTEX_POINT('', #1713);
#1717 = VERTEX_POINT('', #1714);
#1718 = LINE('', #1712, #6);
#1719 = LINE('', #1713, #6);
#1720 = LINE('', #1714, #6);
#1721 = EDGE_CURVE('', #1715, #1716, #1718, .T.);
#1722 = EDGE_CURVE('', #1716, #1717, #1719, .T.);
#1723 = EDGE_CURVE('', #1717, #1715, #1720, .T.);
#1724 = ORIENTED_EDGE('', *, *, #1721, .T.);
#1725 = ORIENTED_EDGE('', *, *, #1722, .T.);
#1726 = ORIENTED_EDGE('', *, *, #1723, .T.);
#1727 = EDGE_LOOP('', (#1724, #1725, #1726));
#1728 = FACE_BOUND('', #1727, .T.);

/* ==== Advanced face with outer and all holes ==== */
#1729 = ADVANCED_FACE('', (#28, #45, #62, #79, #96, #113, #130, #147, #164, #181, #198, #215, #232, #249, #266, #283, #300, #317, #334, #351, #368, #385, #402, #419, #436, #453, #470, #487, #504, #521, #538, #555, #572, #589, #606, #623, #640, #657, #674, #691, #708, #725, #742, #759, #776, #793, #810, #827, #844, #861, #878, #895, #912, #929, #946, #963, #980, #997, #1014, #1031, #1048, #1065, #1082, #1099, #1116, #1133, #1150, #1167, #1184, #1201, #1218, #1235, #1252, #1269, #1286, #1303, #1320, #1337, #1354, #1371, #1388, #1405, #1422, #1439, #1456, #1473, #1490, #1507, #1524, #1541, #1558, #1575, #1592, #1609, #1626, #1643, #1660, #1677, #1694, #1711, #1728), #5, .T.);

/* ==== Product structure for OCCT compatibility ==== */
#1730 = CLOSED_SHELL('', (#1729));
#1731 = MANIFOLD_SOLID_BREP('', #1730);
#1732 = SHAPE_REPRESENTATION('', (#1731), #901);

/* ==== Geometric context ==== */
#900 = ( LENGTH_UNIT() NAMED_UNIT(*) SI_UNIT(.MILLI.,.METRE.) );
#901 = ( GEOMETRIC_REPRESENTATION_CONTEXT(3) GLOBAL_UNCERTAINTY_ASSIGNED_CONTEXT((#902)) GLOBAL_UNIT_ASSIGNED_CONTEXT((#900,#903,#904)) REPRESENTATION_CONTEXT('Context','3D Context') );
#902 = UNCERTAINTY_MEASURE_WITH_UNIT(LENGTH_MEASURE(1.E-07),#900,'');
#903 = ( NAMED_UNIT(*) PLANE_ANGLE_UNIT() SI_UNIT($,.RADIAN.) );
#904 = ( NAMED_UNIT(*) SI_UNIT($,.STERADIAN.) SOLID_ANGLE_UNIT() );

/* ==== Product definition ==== */
#910 = PRODUCT('benchmark_plate','benchmark_plate','',(#911));
#911 = PRODUCT_CONTEXT('',#912,'mechanical');
#912 = APPLICATION_CONTEXT('automotive_design');
#913 = PRODUCT_DEFINITION_FORMATION('','',#910);
#914 = PRODUCT_DEFINITION('design','',#913,#915);
#915 = PRODUCT_DEFINITION_CONTEXT('part definition',#912,'design');
#916 = PRODUCT_DEFINITION_SHAPE('','',#914);
#917 = SHAPE_DEFINITION_REPRESENTATION(#916,#1732);

ENDSEC;
END-ISO-10303-21;
