ISO-10303-21;
HEADER;
FILE_DESCRIPTION(('AP224 File'),'2;1');
FILE_NAME('ka571_995602415_1.224','1998-10-12T13:39:03-05:00',('Mr M Woods'),('LSC: RAMP Consultancy'),'RPTS MP 6.0','PTC Pro/ENGINEER Version 18.0','Mr M Woods');
FILE_SCHEMA(('FEATURE_BASED_PROCESS_PLANNING'));
ENDSEC;
DATA;
#5=DIMENSIONAL_EXPONENTS(1.0,0.0,0.0,0.0,0.0,0.0,0.0);
#6=DIMENSIONAL_EXPONENTS(0.0,0.0,0.0,0.0,0.0,0.0,0.0);
#10=(LENGTH_UNIT()NAMED_UNIT(*)SI_UNIT(.MILLI.,.METRE.));
#14=(NAMED_UNIT(*)PLANE_ANGLE_UNIT()SI_UNIT($,.RADIAN.));
#15=PLANE_ANGLE_MEASURE_WITH_UNIT(PLANE_ANGLE_MEASURE(0.017453292519943),#14);
#19=(CONVERSION_BASED_UNIT('DEGREE',#15)NAMED_UNIT(#6)PLANE_ANGLE_UNIT());
#23=(NAMED_UNIT(*)SI_UNIT($,.STERADIAN.)SOLID_ANGLE_UNIT());
#24=UNCERTAINTY_MEASURE_WITH_UNIT(LENGTH_MEASURE(0.000001000000000),#10,'closure','maximum model space distance between geometric entities at asserted connectivities');
#29=(GEOMETRIC_REPRESENTATION_CONTEXT(3)GLOBAL_UNCERTAINTY_ASSIGNED_CONTEXT((#24))GLOBAL_UNIT_ASSIGNED_CONTEXT((#10,#19,#23))REPRESENTATION_CONTEXT('ID1','3D'));
#30=CONTEXT_DEPENDENT_UNIT(#6,'COUNT');
#31=APPLICATION_CONTEXT('Mechanical Process Planning with Features');
#32=APPLICATION_PROTOCOL_DEFINITION('Draft International Standard','feature_based_process_planning',1996,#31);
#33=PRODUCT_CONTEXT('Feature Based Process Planning',#31,'Mechanical');
#34=PRODUCT('KA571_995602415','COVER, PROTECTION, BLADE BOLT','',(#33));
#35=PRODUCT_DEFINITION_FORMATION('1','ORIGINAL',#34);
#36=PRODUCT_DEFINITION_CONTEXT('feature definitions',#31,'manufacturing planning');
#37=PRODUCT_DEFINITION('KA571_995602415','product design',#35,#36);
#38=PRODUCT_DEFINITION_SHAPE('product shape','shape for product',#37);
#39=CARTESIAN_POINT('',(-17.462499999999999,0.0,0.0));
#40=CARTESIAN_POINT('',(17.462499999999999,0.0,0.0));
#41=VERTEX_POINT('',#39);
#42=VERTEX_POINT('',#40);
#43=CARTESIAN_POINT('',(0.0,0.0,8.881784E-16));
#44=DIRECTION('',(0.0,0.0,-1.0));
#45=DIRECTION('',(1.0,0.0,0.0));
#46=AXIS2_PLACEMENT_3D('',#43,#44,#45);
#47=CIRCLE('',#46,17.462499999999999);
#48=EDGE_CURVE('',#41,#42,#47,.F.);
#49=ORIENTED_EDGE('',*,*,#48,.T.);
#50=CARTESIAN_POINT('',(0.0,0.0,8.881784E-16));
#51=DIRECTION('',(0.0,0.0,-1.0));
#52=DIRECTION('',(-1.0,0.0,0.0));
#53=AXIS2_PLACEMENT_3D('',#50,#51,#52);
#54=CIRCLE('',#53,17.462499999999999);
#55=EDGE_CURVE('',#42,#41,#54,.F.);
#56=ORIENTED_EDGE('',*,*,#55,.T.);
#57=EDGE_LOOP('',(#49,#56));
#58=FACE_BOUND('',#57,.F.);
#59=CARTESIAN_POINT('',(-8.625000000000000,-1.870018E-15,0.0));
#60=CARTESIAN_POINT('',(8.625000000000000,0.0,0.0));
#61=VERTEX_POINT('',#59);
#62=VERTEX_POINT('',#60);
#63=CARTESIAN_POINT('',(0.0,0.0,0.0));
#64=DIRECTION('',(0.0,0.0,-1.0));
#65=DIRECTION('',(-1.0,-2.168137E-16,0.0));
#66=AXIS2_PLACEMENT_3D('',#63,#64,#65);
#67=CIRCLE('',#66,8.625000000000000);
#68=EDGE_CURVE('',#61,#62,#67,.T.);
#69=ORIENTED_EDGE('',*,*,#68,.T.);
#70=CARTESIAN_POINT('',(0.0,0.0,0.0));
#71=DIRECTION('',(0.0,0.0,-1.0));
#72=DIRECTION('',(1.0,0.0,0.0));
#73=AXIS2_PLACEMENT_3D('',#70,#71,#72);
#74=CIRCLE('',#73,8.625000000000000);
#75=EDGE_CURVE('',#62,#61,#74,.T.);
#76=ORIENTED_EDGE('',*,*,#75,.T.);
#77=EDGE_LOOP('',(#69,#76));
#78=FACE_BOUND('',#77,.F.);
#79=CARTESIAN_POINT('',(0.0,0.0,0.0));
#80=DIRECTION('',(0.0,0.0,1.0));
#81=DIRECTION('',(1.0,0.0,0.0));
#82=AXIS2_PLACEMENT_3D('',#79,#80,#81);
#83=PLANE('',#82);
#84=ADVANCED_FACE('',(#58,#78),#83,.F.);
#85=SHAPE_ASPECT('featured shape: face 1','',#38,.T.);
#86=PROPERTY_DEFINITION('','',#85);
#87=FACE_SHAPE_REPRESENTATION('',(#84),#29);
#88=SHAPE_DEFINITION_REPRESENTATION(#86,#87);
#89=CARTESIAN_POINT('',(-10.0,45.027942713386317,4.750000000000000));
#90=CARTESIAN_POINT('',(9.999999999999996,45.027942713386317,4.750000000000000));
#91=VERTEX_POINT('',#89);
#92=VERTEX_POINT('',#90);
#93=CARTESIAN_POINT('',(-10.0,45.027942713386317,4.750000000000000));
#94=CARTESIAN_POINT('',(-10.0,45.027942713386317,5.396018834391029));
#95=CARTESIAN_POINT('',(-9.878125924967566,45.055291994131771,6.668714191584968));
#96=CARTESIAN_POINT('',(-9.314345578444765,45.176825364066431,8.564542597738550));
#97=CARTESIAN_POINT('',(-8.388450073887222,45.360353850816594,10.312729602774123));
#98=CARTESIAN_POINT('',(-7.125558724792810,45.578732030840044,11.860275614324920));
#99=CARTESIAN_POINT('',(-5.582761272232829,45.796048998648132,13.125483225196543));
#100=CARTESIAN_POINT('',(-3.831287669516552,45.977820282130985,14.056888838506920));
#101=CARTESIAN_POINT('',(-1.947251639470358,46.097318124602033,14.623456418971877));
#102=CARTESIAN_POINT('',(0.000010498685692,46.138841163136348,14.813272829857269));
#103=CARTESIAN_POINT('',(1.947273038358534,46.097317222845305,14.623452261565554));
#104=CARTESIAN_POINT('',(3.831308616436877,45.977818529210239,14.056880290469325));
#105=CARTESIAN_POINT('',(5.582781804350616,45.796046494101283,13.125469781098884));
#106=CARTESIAN_POINT('',(7.125578365286709,45.578728933528581,11.860256107066055));
#107=CARTESIAN_POINT('',(8.388465595623625,45.360350943342894,10.312706205187466));
#108=CARTESIAN_POINT('',(9.314356838545958,45.176823012478366,8.564515568665421));
#109=CARTESIAN_POINT('',(9.878130558581908,45.055290956344848,6.668686514495534));
#110=CARTESIAN_POINT('',(9.999999999999996,45.027942713386317,5.396007622342765));
#111=CARTESIAN_POINT('',(9.999999999999996,45.027942713386317,4.750000000000000));
#112=B_SPLINE_CURVE_WITH_KNOTS('',3,(#93,#94,#95,#96,#97,#98,#99,#100,#101,#102,#103,#104,#105,#106,#107,#108,#109,#110,#111),.HYPERBOLIC_ARC.,.F.,.F.,(4,1,1,1,1,1,1,1,1,1,1,1,1,1,1,1,4),(0.0,0.062500000000000,0.125000000000000,0.187500000000000,0.250000000000000,0.312500000000000,0.375000000000000,0.437500000000000,0.500000000000000,0.562500000000000,0.625000000000000,0.687500000000000,0.750000000000000,0.812500000000000,0.875000000000000,0.937500000000000,1.0),.PIECEWISE_BEZIER_KNOTS.);
#113=EDGE_CURVE('',#91,#92,#112,.T.);
#114=ORIENTED_EDGE('',*,*,#113,.T.);
#115=CARTESIAN_POINT('',(46.125000000000000,-6.115314E-15,4.750000000000000));
#116=VERTEX_POINT('',#115);
#117=CARTESIAN_POINT('',(0.0,0.0,4.750000000000000));
#118=DIRECTION('',(0.0,0.0,1.0));
#119=DIRECTION('',(1.0,-1.325813E-16,0.0));
#120=AXIS2_PLACEMENT_3D('',#117,#118,#119);
#121=CIRCLE('',#120,46.125000000000000);
#122=EDGE_CURVE('',#92,#116,#121,.F.);
#123=ORIENTED_EDGE('',*,*,#122,.T.);
#124=CARTESIAN_POINT('',(46.125000000000000,0.0,57.500000000000000));
#125=VERTEX_POINT('',#124);
#126=DIRECTION('',(0.0,0.0,1.0));
#127=VECTOR('',#126,52.750000000000000);
#128=LINE('',#115,#127);
#129=EDGE_CURVE('',#116,#125,#128,.T.);
#130=ORIENTED_EDGE('',*,*,#129,.T.);
#131=CARTESIAN_POINT('',(-46.125000000000000,7.105427E-15,57.500000000000007));
#132=VERTEX_POINT('',#131);
#133=CARTESIAN_POINT('',(46.124999999999993,-7.105427E-15,57.500000000000000));
#134=CARTESIAN_POINT('',(46.124999999999993,2.326250282070067,58.886924287413052));
#135=CARTESIAN_POINT('',(45.778200116708746,6.902043233147949,61.615039325996065));
#136=CARTESIAN_POINT('',(44.244348914202945,13.623351197457971,65.622323207156512));
#137=CARTESIAN_POINT('',(41.772746528609289,19.939160962907639,69.387846644551971));
#138=CARTESIAN_POINT('',(38.476058973421104,25.720088606410691,72.834470171843776));
#139=CARTESIAN_POINT('',(34.487635864490684,30.851597670797254,75.893906470394043));
#140=CARTESIAN_POINT('',(29.945331968135335,35.267629055001478,78.526770710298976));
#141=CARTESIAN_POINT('',(24.978855913251394,38.935140313597877,80.713362788594964));
#142=CARTESIAN_POINT('',(19.701882867304946,41.847085921089835,82.449482120974949));
#143=CARTESIAN_POINT('',(14.209046951603410,44.011571430388877,83.739961286410718));
#144=CARTESIAN_POINT('',(8.576836411041137,45.442943915905552,84.593354096203868));
#145=CARTESIAN_POINT('',(2.867187917770051,46.154679216412717,85.017694925774521));
#146=CARTESIAN_POINT('',(-2.867203914561098,46.154677651548802,85.017693992793312));
#147=CARTESIAN_POINT('',(-8.576836337154205,45.442943640736743,84.593353932146556));
#148=CARTESIAN_POINT('',(-14.209050387778419,44.011570479849418,83.739960719693457));
#149=CARTESIAN_POINT('',(-19.701884289584008,41.847085120064499,82.449481643398897));
#150=CARTESIAN_POINT('',(-24.978856819274689,38.935139739978013,80.713362446599348));
#151=CARTESIAN_POINT('',(-29.945332584961790,35.267628513041061,78.526770387178942));
#152=CARTESIAN_POINT('',(-34.487636330120807,30.851597148794852,75.893906159173099));
#153=CARTESIAN_POINT('',(-38.476059332931669,25.720088059161377,72.834469845570453));
#154=CARTESIAN_POINT('',(-41.772746732779922,19.939160516834736,69.387846378600656));
#155=CARTESIAN_POINT('',(-44.244348999772598,13.623350882462514,65.622323019354354));
#156=CARTESIAN_POINT('',(-45.778200118840871,6.902043155026371,61.615039279419520));
#157=CARTESIAN_POINT('',(-46.125000000000000,2.326250263094605,58.886924276099769));
#158=CARTESIAN_POINT('',(-46.125000000000000,7.105427E-15,57.500000000000007));
#159=B_SPLINE_CURVE_WITH_KNOTS('',3,(#133,#134,#135,#136,#137,#138,#139,#140,#141,#142,#143,#144,#145,#146,#147,#148,#149,#150,#151,#152,#153,#154,#155,#156,#157,#158),.HYPERBOLIC_ARC.,.F.,.F.,(4,1,1,1,1,1,1,1,1,1,1,1,1,1,1,1,1,1,1,1,1,1,1,4),(0.0,0.043478260869565,0.086956521739130,0.130434782608696,0.173913043478261,0.217391304347826,0.260869565217391,0.304347826086957,0.347826086956522,0.391304347826087,0.434782608695652,0.478260869565217,0.521739130434783,0.565217391304348,0.608695652173913,0.652173913043478,0.695652173913043,0.739130434782609,0.782608695652174,0.826086956521739,0.869565217391304,0.913043478260870,0.956521739130435,1.0),.PIECEWISE_BEZIER_KNOTS.);
#160=EDGE_CURVE('',#125,#132,#159,.T.);
#161=ORIENTED_EDGE('',*,*,#160,.T.);
#162=CARTESIAN_POINT('',(-46.125000000000000,5.648683E-15,4.750000000000000));
#163=VERTEX_POINT('',#162);
#164=DIRECTION('',(0.0,0.0,1.0));
#165=VECTOR('',#164,52.750000000000000);
#166=LINE('',#162,#165);
#167=EDGE_CURVE('',#132,#163,#166,.F.);
#168=ORIENTED_EDGE('',*,*,#167,.T.);
#169=CARTESIAN_POINT('',(0.0,0.0,4.750000000000000));
#170=DIRECTION('',(0.0,0.0,1.0));
#171=DIRECTION('',(-0.216802168021680,0.976215560181817,0.0));
#172=AXIS2_PLACEMENT_3D('',#169,#170,#171);
#173=CIRCLE('',#172,46.125000000000000);
#174=EDGE_CURVE('',#163,#91,#173,.F.);
#175=ORIENTED_EDGE('',*,*,#174,.T.);
#176=EDGE_LOOP('',(#114,#123,#130,#161,#168,#175));
#177=FACE_BOUND('',#176,.F.);
#178=CARTESIAN_POINT('',(0.0,0.0,0.0));
#179=DIRECTION('',(0.0,0.0,1.0));
#180=DIRECTION('',(1.0,0.0,0.0));
#181=AXIS2_PLACEMENT_3D('',#178,#179,#180);
#182=CYLINDRICAL_SURFACE('',#181,46.125000000000000);
#183=ADVANCED_FACE('',(#177),#182,.T.);
#184=SHAPE_ASPECT('featured shape: face 2','',#38,.T.);
#185=PROPERTY_DEFINITION('','',#184);
#186=FACE_SHAPE_REPRESENTATION('',(#183),#29);
#187=SHAPE_DEFINITION_REPRESENTATION(#185,#186);
#188=CARTESIAN_POINT('',(0.0,0.0,4.750000000000000));
#189=DIRECTION('',(0.0,0.0,1.0));
#190=DIRECTION('',(-1.0,9.382352E-17,0.0));
#191=AXIS2_PLACEMENT_3D('',#188,#189,#190);
#192=CIRCLE('',#191,46.125000000000000);
#193=EDGE_CURVE('',#116,#163,#192,.F.);
#194=ORIENTED_EDGE('',*,*,#193,.T.);
#195=ORIENTED_EDGE('',*,*,#167,.F.);
#196=CARTESIAN_POINT('',(-46.125000000000000,7.105427E-15,57.500000000000007));
#197=CARTESIAN_POINT('',(-46.125000000000000,-2.326250282017641,56.113075712618212));
#198=CARTESIAN_POINT('',(-45.778200116728669,-6.902043232929142,53.384960674134383));
#199=CARTESIAN_POINT('',(-44.244348914388716,-13.623351196609036,49.377676793349622));
#200=CARTESIAN_POINT('',(-41.772746529348510,-19.939160961636656,45.612153356205781));
#201=CARTESIAN_POINT('',(-38.476058973833410,-25.720088604887273,42.165529829064475));
#202=CARTESIAN_POINT('',(-34.487635868249356,-30.851597668955009,39.106093530704342));
#203=CARTESIAN_POINT('',(-29.945331960996242,-35.267629054595943,36.473229289942786));
#204=CARTESIAN_POINT('',(-24.978855947098602,-38.935140309369558,34.286637213926014));
#205=CARTESIAN_POINT('',(-19.701882746117654,-41.847085933872485,32.550517871403954));
#206=CARTESIAN_POINT('',(-14.209047405437175,-44.011571382104691,31.260038742376597));
#207=CARTESIAN_POINT('',(-8.576834707299001,-45.442944099360744,30.406645794419056));
#208=CARTESIAN_POINT('',(-2.867194274805785,-46.154678531650596,29.982305482484744));
#209=CARTESIAN_POINT('',(2.867197557418204,-46.154678336315868,29.982305598944457));
#210=CARTESIAN_POINT('',(8.576838040923052,-45.442943457280563,30.406646177231103));
#211=CARTESIAN_POINT('',(14.209049933935926,-44.011570528134335,31.260039251518819));
#212=CARTESIAN_POINT('',(19.701884410773363,-41.847085107281842,32.550518364222214));
#213=CARTESIAN_POINT('',(24.978856785428306,-38.935139744205479,34.286637550880180));
#214=CARTESIAN_POINT('',(29.945332592102226,-35.267628513445622,36.473229612579857));
#215=CARTESIAN_POINT('',(34.487636326363450,-30.851597150635648,39.106093839729418));
#216=CARTESIAN_POINT('',(38.476059332520194,-25.720088060683452,42.165530153522063));
#217=CARTESIAN_POINT('',(41.772746732041149,-19.939160518104757,45.612153620642154));
#218=CARTESIAN_POINT('',(44.244348999586890,-13.623350883311016,49.377676980139753));
#219=CARTESIAN_POINT('',(45.778200118820990,-6.902043155245098,53.384960720450081));
#220=CARTESIAN_POINT('',(46.124999999999993,-2.326250263147033,56.113075723868981));
#221=CARTESIAN_POINT('',(46.124999999999993,-7.105427E-15,57.500000000000000));
#222=B_SPLINE_CURVE_WITH_KNOTS('',3,(#196,#197,#198,#199,#200,#201,#202,#203,#204,#205,#206,#207,#208,#209,#210,#211,#212,#213,#214,#215,#216,#217,#218,#219,#220,#221),.HYPERBOLIC_ARC.,.F.,.F.,(4,1,1,1,1,1,1,1,1,1,1,1,1,1,1,1,1,1,1,1,1,1,1,4),(0.0,0.043478260869565,0.086956521739130,0.130434782608696,0.173913043478261,0.217391304347826,0.260869565217391,0.304347826086957,0.347826086956522,0.391304347826087,0.434782608695652,0.478260869565217,0.521739130434783,0.565217391304348,0.608695652173913,0.652173913043478,0.695652173913043,0.739130434782609,0.782608695652174,0.826086956521739,0.869565217391304,0.913043478260870,0.956521739130435,1.0),.PIECEWISE_BEZIER_KNOTS.);
#223=EDGE_CURVE('',#132,#125,#222,.T.);
#224=ORIENTED_EDGE('',*,*,#223,.T.);
#225=ORIENTED_EDGE('',*,*,#129,.F.);
#226=EDGE_LOOP('',(#194,#195,#224,#225));
#227=FACE_BOUND('',#226,.F.);
#228=CARTESIAN_POINT('',(0.0,0.0,0.0));
#229=DIRECTION('',(0.0,0.0,1.0));
#230=DIRECTION('',(1.0,0.0,0.0));
#231=AXIS2_PLACEMENT_3D('',#228,#229,#230);
#232=CYLINDRICAL_SURFACE('',#231,46.125000000000000);
#233=ADVANCED_FACE('',(#227),#232,.T.);
#234=SHAPE_ASPECT('featured shape: face 3','',#38,.T.);
#235=PROPERTY_DEFINITION('','',#234);
#236=FACE_SHAPE_REPRESENTATION('',(#233),#29);
#237=SHAPE_DEFINITION_REPRESENTATION(#235,#236);
#238=ORIENTED_EDGE('',*,*,#160,.F.);
#239=ORIENTED_EDGE('',*,*,#223,.F.);
#240=EDGE_LOOP('',(#238,#239));
#241=FACE_BOUND('',#240,.F.);
#242=CARTESIAN_POINT('',(-13.375000000000000,7.105427E-15,57.500000000000007));
#243=CARTESIAN_POINT('',(13.375000000000000,7.105427E-15,57.500000000000007));
#244=VERTEX_POINT('',#242);
#245=VERTEX_POINT('',#243);
#246=CARTESIAN_POINT('',(-13.375000000000000,7.105427E-15,57.500000000000007));
#247=CARTESIAN_POINT('',(-13.375000000000000,-0.728803293265939,57.065483131386166));
#248=CARTESIAN_POINT('',(-13.257468304156788,-2.170226743495260,56.206097876506881));
#249=CARTESIAN_POINT('',(-12.727356144816515,-4.305183915809766,54.933223681631056));
#250=CARTESIAN_POINT('',(-11.843136746022784,-6.348849086957632,53.714778322139061));
#251=CARTESIAN_POINT('',(-10.607144982588023,-8.254338355145290,52.578714259804975));
#252=CARTESIAN_POINT('',(-9.027479544212108,-9.962027319078983,51.560579918164287));
#253=CARTESIAN_POINT('',(-7.123560733503392,-11.405952774019266,50.699702953159246));
#254=CARTESIAN_POINT('',(-4.934361930426647,-12.513672571967737,50.039273805330900));
#255=CARTESIAN_POINT('',(-2.527066526784874,-13.214677820263653,49.621330296861771));
#256=CARTESIAN_POINT('',(1.110223E-14,-13.455161089868161,49.477952737747984));
#257=CARTESIAN_POINT('',(2.527066526784828,-13.214677820263658,49.621330296861785));
#258=CARTESIAN_POINT('',(4.934361930426630,-12.513672571967735,50.039273805330893));
#259=CARTESIAN_POINT('',(7.123560733503354,-11.405952774019273,50.699702953159246));
#260=CARTESIAN_POINT('',(9.027479544212099,-9.962027319078995,51.560579918164287));
#261=CARTESIAN_POINT('',(10.607144982588002,-8.254338355145300,52.578714259804983));
#262=CARTESIAN_POINT('',(11.843136746022765,-6.348849086957649,53.714778322139075));
#263=CARTESIAN_POINT('',(12.727356144816500,-4.305183915809764,54.933223681631034));
#264=CARTESIAN_POINT('',(13.257468304156768,-2.170226743495293,56.206097876506902));
#265=CARTESIAN_POINT('',(13.375000000000000,-0.728803293265951,57.065483131386159));
#266=CARTESIAN_POINT('',(13.375000000000000,7.105427E-15,57.500000000000007));
#267=B_SPLINE_CURVE_WITH_KNOTS('',3,(#246,#247,#248,#249,#250,#251,#252,#253,#254,#255,#256,#257,#258,#259,#260,#261,#262,#263,#264,#265,#266),.HYPERBOLIC_ARC.,.F.,.F.,(4,1,1,1,1,1,1,1,1,1,1,1,1,1,1,1,1,1,4),(0.0,0.055555555555556,0.111111111111111,0.166666666666667,0.222222222222222,0.277777777777778,0.333333333333333,0.388888888888889,0.444444444444444,0.500000000000000,0.555555555555556,0.611111111111111,0.666666666666667,0.722222222222222,0.777777777777778,0.833333333333333,0.888888888888889,0.944444444444444,1.0),.PIECEWISE_BEZIER_KNOTS.);
#268=EDGE_CURVE('',#244,#245,#267,.T.);
#269=ORIENTED_EDGE('',*,*,#268,.T.);
#270=CARTESIAN_POINT('',(13.375000000000000,7.105427E-15,57.500000000000007));
#271=CARTESIAN_POINT('',(13.375000000000000,0.728803293265964,57.934516868613855));
#272=CARTESIAN_POINT('',(13.257468304156763,2.170226743495298,58.793902123493140));
#273=CARTESIAN_POINT('',(12.727356144816515,4.305183915809772,60.066776318368966));
#274=CARTESIAN_POINT('',(11.843136746022765,6.348849086957659,61.285221677860953));
#275=CARTESIAN_POINT('',(10.607144982588018,8.254338355145299,62.421285740195017));
#276=CARTESIAN_POINT('',(9.027479544212104,9.962027319079002,63.439420081835721));
#277=CARTESIAN_POINT('',(7.123560733503361,11.405952774019267,64.300297046840740));
#278=CARTESIAN_POINT('',(4.934361930426639,12.513672571967755,64.960726194669135));
#279=CARTESIAN_POINT('',(2.527066526784852,13.214677820263665,65.378669703138243));
#280=CARTESIAN_POINT('',(-1.554312E-15,13.455161089868177,65.522047262252016));
#281=CARTESIAN_POINT('',(-2.527066526784845,13.214677820263667,65.378669703138243));
#282=CARTESIAN_POINT('',(-4.934361930426657,12.513672571967751,64.960726194669135));
#283=CARTESIAN_POINT('',(-7.123560733503354,11.405952774019287,64.300297046840768));
#284=CARTESIAN_POINT('',(-9.027479544212115,9.962027319079001,63.439420081835721));
#285=CARTESIAN_POINT('',(-10.607144982588025,8.254338355145308,62.421285740195046));
#286=CARTESIAN_POINT('',(-11.843136746022786,6.348849086957668,61.285221677860960));
#287=CARTESIAN_POINT('',(-12.727356144816509,4.305183915809772,60.066776318368952));
#288=CARTESIAN_POINT('',(-13.257468304156790,2.170226743495287,58.793902123493140));
#289=CARTESIAN_POINT('',(-13.375000000000000,0.728803293265960,57.934516868613855));
#290=CARTESIAN_POINT('',(-13.375000000000000,7.105427E-15,57.500000000000007));
#291=B_SPLINE_CURVE_WITH_KNOTS('',3,(#270,#271,#272,#273,#274,#275,#276,#277,#278,#279,#280,#281,#282,#283,#284,#285,#286,#287,#288,#289,#290),.HYPERBOLIC_ARC.,.F.,.F.,(4,1,1,1,1,1,1,1,1,1,1,1,1,1,1,1,1,1,4),(0.0,0.055555555555556,0.111111111111111,0.166666666666667,0.222222222222222,0.277777777777778,0.333333333333333,0.388888888888889,0.444444444444444,0.500000000000000,0.555555555555556,0.611111111111111,0.666666666666667,0.722222222222222,0.777777777777778,0.833333333333333,0.888888888888889,0.944444444444444,1.0),.PIECEWISE_BEZIER_KNOTS.);
#292=EDGE_CURVE('',#245,#244,#291,.T.);
#293=ORIENTED_EDGE('',*,*,#292,.T.);
#294=EDGE_LOOP('',(#269,#293));
#295=FACE_BOUND('',#294,.F.);
#296=CARTESIAN_POINT('',(55.349999999999994,-46.125000000000000,30.0));
#297=DIRECTION('',(0.0,0.512097568198265,-0.858927284841635));
#298=DIRECTION('',(0.0,0.858927284841635,0.512097568198265));
#299=AXIS2_PLACEMENT_3D('',#296,#297,#298);
#300=PLANE('',#299);
#301=ADVANCED_FACE('',(#241,#295),#300,.F.);
#302=SHAPE_ASPECT('featured shape: face 4','',#38,.T.);
#303=PROPERTY_DEFINITION('','',#302);
#304=FACE_SHAPE_REPRESENTATION('',(#301),#29);
#305=SHAPE_DEFINITION_REPRESENTATION(#303,#304);
#309=(LENGTH_UNIT()NAMED_UNIT(*)SI_UNIT(.MICRO.,.METRE.));
#314=(LENGTH_MEASURE_WITH_UNIT()MEASURE_REPRESENTATION_ITEM()MEASURE_WITH_UNIT(LENGTH_MEASURE(6.300000000000000),#309)REPRESENTATION_ITEM('surface finish'));
#315=REPRESENTATION('surface finish value',(#314),#29);
#316=PROPERTY_DEFINITION('surface property','surface finish',#302);
#317=PROPERTY_DEFINITION('surface property','surface finish',#302);
#318=PROPERTY_DEFINITION_REPRESENTATION(#317,#315);
#319=PROPERTY_DEFINITION_RELATIONSHIP('','',#316,#317);
#320=ORIENTED_EDGE('',*,*,#48,.F.);
#321=CARTESIAN_POINT('',(-17.462499999999999,2.138539E-15,2.750000000000000));
#322=VERTEX_POINT('',#321);
#323=DIRECTION('',(0.0,0.0,1.0));
#324=VECTOR('',#323,2.750000000000000);
#325=LINE('',#39,#324);
#326=EDGE_CURVE('',#41,#322,#325,.T.);
#327=ORIENTED_EDGE('',*,*,#326,.T.);
#328=CARTESIAN_POINT('',(17.462499999999999,0.0,2.750000000000000));
#329=VERTEX_POINT('',#328);
#330=CARTESIAN_POINT('',(0.0,0.0,2.750000000000001));
#331=DIRECTION('',(0.0,0.0,-1.0));
#332=DIRECTION('',(1.0,0.0,0.0));
#333=AXIS2_PLACEMENT_3D('',#330,#331,#332);
#334=CIRCLE('',#333,17.462499999999999);
#335=EDGE_CURVE('',#322,#329,#334,.F.);
#336=ORIENTED_EDGE('',*,*,#335,.T.);
#337=DIRECTION('',(0.0,0.0,1.0));
#338=VECTOR('',#337,2.750000000000000);
#339=LINE('',#40,#338);
#340=EDGE_CURVE('',#329,#42,#339,.F.);
#341=ORIENTED_EDGE('',*,*,#340,.T.);
#342=EDGE_LOOP('',(#320,#327,#336,#341));
#343=FACE_BOUND('',#342,.F.);
#344=CARTESIAN_POINT('',(0.0,0.0,4.987500000000000));
#345=DIRECTION('',(0.0,0.0,-1.0));
#346=DIRECTION('',(1.0,0.0,0.0));
#347=AXIS2_PLACEMENT_3D('',#344,#345,#346);
#348=CYLINDRICAL_SURFACE('',#347,17.462499999999999);
#349=ADVANCED_FACE('',(#343),#348,.T.);
#350=SHAPE_ASPECT('featured shape: face 5','',#38,.T.);
#351=PROPERTY_DEFINITION('','',#350);
#352=FACE_SHAPE_REPRESENTATION('',(#349),#29);
#353=SHAPE_DEFINITION_REPRESENTATION(#351,#352);
#354=CARTESIAN_POINT('',(19.462499999999999,0.0,4.750000000000000));
#355=VERTEX_POINT('',#354);
#356=CARTESIAN_POINT('',(19.462499999999999,0.0,2.750000000000000));
#357=DIRECTION('',(0.0,1.0,0.0));
#358=DIRECTION('',(-1.0,0.0,-2.220446E-16));
#359=AXIS2_PLACEMENT_3D('',#356,#357,#358);
#360=CIRCLE('',#359,2.0);
#361=EDGE_CURVE('',#355,#329,#360,.F.);
#362=ORIENTED_EDGE('',*,*,#361,.T.);
#363=ORIENTED_EDGE('',*,*,#335,.F.);
#364=CARTESIAN_POINT('',(-19.462499999999999,2.383469E-15,4.750000000000000));
#365=VERTEX_POINT('',#364);
#366=CARTESIAN_POINT('',(-19.462499999999999,2.383469E-15,2.750000000000000));
#367=DIRECTION('',(-1.224647E-16,-1.0,5.473822E-48));
#368=DIRECTION('',(1.0,-1.224647E-16,-2.220446E-16));
#369=AXIS2_PLACEMENT_3D('',#366,#367,#368);
#370=CIRCLE('',#369,2.0);
#371=EDGE_CURVE('',#322,#365,#370,.T.);
#372=ORIENTED_EDGE('',*,*,#371,.T.);
#373=CARTESIAN_POINT('',(0.0,0.0,4.750000000000000));
#374=DIRECTION('',(0.0,0.0,-1.0));
#375=DIRECTION('',(1.0,0.0,0.0));
#376=AXIS2_PLACEMENT_3D('',#373,#374,#375);
#377=CIRCLE('',#376,19.462499999999995);
#378=EDGE_CURVE('',#365,#355,#377,.F.);
#379=ORIENTED_EDGE('',*,*,#378,.T.);
#380=EDGE_LOOP('',(#362,#363,#372,#379));
#381=FACE_BOUND('',#380,.F.);
#382=CARTESIAN_POINT('',(0.0,0.0,2.750000000000000));
#383=DIRECTION('',(0.0,0.0,-1.0));
#384=DIRECTION('',(1.0,0.0,0.0));
#385=AXIS2_PLACEMENT_3D('',#382,#383,#384);
#386=TOROIDAL_SURFACE('',#385,19.462499999999999,2.0);
#387=ADVANCED_FACE('',(#381),#386,.F.);
#388=SHAPE_ASPECT('featured shape: face 6','',#38,.T.);
#389=PROPERTY_DEFINITION('','',#388);
#390=FACE_SHAPE_REPRESENTATION('',(#387),#29);
#391=SHAPE_DEFINITION_REPRESENTATION(#389,#390);
#392=CARTESIAN_POINT('',(-4.745869914989240,18.875000000000000,4.750000000000000));
#393=CARTESIAN_POINT('',(-10.0,18.875000000000000,4.750000000000000));
#394=VERTEX_POINT('',#392);
#395=VERTEX_POINT('',#393);
#396=DIRECTION('',(1.0,0.0,0.0));
#397=VECTOR('',#396,5.254130085010760);
#398=LINE('',#393,#397);
#399=EDGE_CURVE('',#394,#395,#398,.F.);
#400=ORIENTED_EDGE('',*,*,#399,.T.);
#401=DIRECTION('',(0.0,-1.0,0.0));
#402=VECTOR('',#401,26.152942713386317);
#403=LINE('',#89,#402);
#404=EDGE_CURVE('',#395,#91,#403,.F.);
#405=ORIENTED_EDGE('',*,*,#404,.T.);
#406=ORIENTED_EDGE('',*,*,#174,.F.);
#407=ORIENTED_EDGE('',*,*,#193,.F.);
#408=ORIENTED_EDGE('',*,*,#122,.F.);
#409=CARTESIAN_POINT('',(10.0,18.875000000000000,4.750000000000002));
#410=VERTEX_POINT('',#409);
#411=DIRECTION('',(0.0,1.0,0.0));
#412=VECTOR('',#411,26.152942713386324);
#413=LINE('',#409,#412);
#414=EDGE_CURVE('',#92,#410,#413,.F.);
#415=ORIENTED_EDGE('',*,*,#414,.T.);
#416=CARTESIAN_POINT('',(4.745869914989242,18.875000000000000,4.750000000000000));
#417=VERTEX_POINT('',#416);
#418=DIRECTION('',(1.0,0.0,0.0));
#419=VECTOR('',#418,5.254130085010758);
#420=LINE('',#416,#419);
#421=EDGE_CURVE('',#410,#417,#420,.F.);
#422=ORIENTED_EDGE('',*,*,#421,.T.);
#423=CARTESIAN_POINT('',(0.0,0.0,4.750000000000000));
#424=DIRECTION('',(0.0,0.0,1.0));
#425=DIRECTION('',(1.0,0.0,0.0));
#426=AXIS2_PLACEMENT_3D('',#423,#424,#425);
#427=CIRCLE('',#426,19.462499999999995);
#428=EDGE_CURVE('',#417,#355,#427,.F.);
#429=ORIENTED_EDGE('',*,*,#428,.T.);
#430=ORIENTED_EDGE('',*,*,#378,.F.);
#431=CARTESIAN_POINT('',(0.0,0.0,4.750000000000000));
#432=DIRECTION('',(0.0,0.0,1.000000000000000));
#433=DIRECTION('',(-0.243846880667398,0.969813744380218,0.0));
#434=AXIS2_PLACEMENT_3D('',#431,#432,#433);
#435=CIRCLE('',#434,19.462499999999995);
#436=EDGE_CURVE('',#365,#394,#435,.F.);
#437=ORIENTED_EDGE('',*,*,#436,.T.);
#438=EDGE_LOOP('',(#400,#405,#406,#407,#408,#415,#422,#429,#430,#437));
#439=FACE_BOUND('',#438,.F.);
#440=CARTESIAN_POINT('',(0.0,0.0,4.750000000000000));
#441=DIRECTION('',(0.0,0.0,-1.0));
#442=DIRECTION('',(1.0,0.0,0.0));
#443=AXIS2_PLACEMENT_3D('',#440,#441,#442);
#444=PLANE('',#443);
#445=ADVANCED_FACE('',(#439),#444,.T.);
#446=SHAPE_ASPECT('featured shape: face 7','',#38,.T.);
#447=PROPERTY_DEFINITION('','',#446);
#448=FACE_SHAPE_REPRESENTATION('',(#445),#29);
#449=SHAPE_DEFINITION_REPRESENTATION(#447,#448);
#450=ORIENTED_EDGE('',*,*,#55,.F.);
#451=ORIENTED_EDGE('',*,*,#340,.F.);
#452=CARTESIAN_POINT('',(0.0,0.0,2.750000000000001));
#453=DIRECTION('',(0.0,0.0,1.0));
#454=DIRECTION('',(1.0,0.0,0.0));
#455=AXIS2_PLACEMENT_3D('',#452,#453,#454);
#456=CIRCLE('',#455,17.462499999999999);
#457=EDGE_CURVE('',#329,#322,#456,.T.);
#458=ORIENTED_EDGE('',*,*,#457,.T.);
#459=ORIENTED_EDGE('',*,*,#326,.F.);
#460=EDGE_LOOP('',(#450,#451,#458,#459));
#461=FACE_BOUND('',#460,.F.);
#462=CARTESIAN_POINT('',(0.0,0.0,4.987500000000000));
#463=DIRECTION('',(0.0,0.0,-1.0));
#464=DIRECTION('',(1.0,0.0,0.0));
#465=AXIS2_PLACEMENT_3D('',#462,#463,#464);
#466=CYLINDRICAL_SURFACE('',#465,17.462499999999999);
#467=ADVANCED_FACE('',(#461),#466,.T.);
#468=SHAPE_ASPECT('featured shape: face 8','',#38,.T.);
#469=PROPERTY_DEFINITION('','',#468);
#470=FACE_SHAPE_REPRESENTATION('',(#467),#29);
#471=SHAPE_DEFINITION_REPRESENTATION(#469,#470);
#472=CARTESIAN_POINT('',(-4.745869914989243,18.875000000000000,4.750000000000000));
#473=CARTESIAN_POINT('',(-3.678320981662414,18.875000000000000,4.750000000000000));
#474=CARTESIAN_POINT('',(-1.554147153100680,18.874999999999996,4.657370337270700));
#475=CARTESIAN_POINT('',(1.554147153100676,18.875000000000007,4.657370337270702));
#476=CARTESIAN_POINT('',(3.678320981662413,18.875000000000000,4.750000000000000));
#477=CARTESIAN_POINT('',(4.745869914989245,18.875000000000000,4.750000000000000));
#478=B_SPLINE_CURVE_WITH_KNOTS('',3,(#472,#473,#474,#475,#476,#477),.HYPERBOLIC_ARC.,.F.,.F.,(4,1,1,4),(0.0,0.333333333333333,0.666666666666667,1.0),.PIECEWISE_BEZIER_KNOTS.);
#479=EDGE_CURVE('',#417,#394,#478,.F.);
#480=ORIENTED_EDGE('',*,*,#479,.T.);
#481=ORIENTED_EDGE('',*,*,#436,.F.);
#482=ORIENTED_EDGE('',*,*,#371,.F.);
#483=ORIENTED_EDGE('',*,*,#457,.F.);
#484=ORIENTED_EDGE('',*,*,#361,.F.);
#485=ORIENTED_EDGE('',*,*,#428,.F.);
#486=EDGE_LOOP('',(#480,#481,#482,#483,#484,#485));
#487=FACE_BOUND('',#486,.F.);
#488=CARTESIAN_POINT('',(0.0,0.0,2.750000000000000));
#489=DIRECTION('',(0.0,0.0,-1.0));
#490=DIRECTION('',(1.0,0.0,0.0));
#491=AXIS2_PLACEMENT_3D('',#488,#489,#490);
#492=TOROIDAL_SURFACE('',#491,19.462499999999999,2.0);
#493=ADVANCED_FACE('',(#487),#492,.F.);
#494=SHAPE_ASPECT('featured shape: face 9','',#38,.T.);
#495=PROPERTY_DEFINITION('','',#494);
#496=FACE_SHAPE_REPRESENTATION('',(#493),#29);
#497=SHAPE_DEFINITION_REPRESENTATION(#495,#496);
#498=ORIENTED_EDGE('',*,*,#399,.F.);
#499=ORIENTED_EDGE('',*,*,#479,.F.);
#500=ORIENTED_EDGE('',*,*,#421,.F.);
#501=CARTESIAN_POINT('',(0.0,18.875000000000000,4.750000000000000));
#502=DIRECTION('',(0.0,1.0,0.0));
#503=DIRECTION('',(-1.0,0.0,0.0));
#504=AXIS2_PLACEMENT_3D('',#501,#502,#503);
#505=CIRCLE('',#504,10.0);
#506=EDGE_CURVE('',#410,#395,#505,.F.);
#507=ORIENTED_EDGE('',*,*,#506,.T.);
#508=EDGE_LOOP('',(#498,#499,#500,#507));
#509=FACE_BOUND('',#508,.F.);
#510=CARTESIAN_POINT('',(2.824342E-15,18.875000000000000,44.883026959981379));
#511=DIRECTION('',(0.0,1.0,0.0));
#512=DIRECTION('',(1.0,0.0,0.0));
#513=AXIS2_PLACEMENT_3D('',#510,#511,#512);
#514=PLANE('',#513);
#515=ADVANCED_FACE('',(#509),#514,.T.);
#516=SHAPE_ASPECT('featured shape: face 10','',#38,.T.);
#517=PROPERTY_DEFINITION('','',#516);
#518=FACE_SHAPE_REPRESENTATION('',(#515),#29);
#519=SHAPE_DEFINITION_REPRESENTATION(#517,#518);
#520=ORIENTED_EDGE('',*,*,#113,.F.);
#521=ORIENTED_EDGE('',*,*,#404,.F.);
#522=ORIENTED_EDGE('',*,*,#506,.F.);
#523=ORIENTED_EDGE('',*,*,#414,.F.);
#524=EDGE_LOOP('',(#520,#521,#522,#523));
#525=FACE_BOUND('',#524,.F.);
#526=CARTESIAN_POINT('',(0.0,18.875000000000000,4.750000000000000));
#527=DIRECTION('',(0.0,1.0,0.0));
#528=DIRECTION('',(1.0,0.0,0.0));
#529=AXIS2_PLACEMENT_3D('',#526,#527,#528);
#530=CYLINDRICAL_SURFACE('',#529,10.0);
#531=ADVANCED_FACE('',(#525),#530,.F.);
#532=SHAPE_ASPECT('featured shape: face 11','',#38,.T.);
#533=PROPERTY_DEFINITION('','',#532);
#534=FACE_SHAPE_REPRESENTATION('',(#531),#29);
#535=SHAPE_DEFINITION_REPRESENTATION(#533,#534);
#536=CARTESIAN_POINT('',(-13.125000000000000,7.417466E-15,7.0));
#537=CARTESIAN_POINT('',(13.125000000000000,7.417466E-15,7.0));
#538=VERTEX_POINT('',#536);
#539=VERTEX_POINT('',#537);
#540=CARTESIAN_POINT('',(0.0,7.417466E-15,7.0));
#541=DIRECTION('',(0.0,0.0,-1.0));
#542=DIRECTION('',(-1.0,0.0,0.0));
#543=AXIS2_PLACEMENT_3D('',#540,#541,#542);
#544=CIRCLE('',#543,13.125000000000000);
#545=EDGE_CURVE('',#538,#539,#544,.T.);
#546=ORIENTED_EDGE('',*,*,#545,.T.);
#547=CARTESIAN_POINT('',(0.0,7.417466E-15,7.0));
#548=DIRECTION('',(0.0,0.0,1.0));
#549=DIRECTION('',(-1.0,0.0,0.0));
#550=AXIS2_PLACEMENT_3D('',#547,#548,#549);
#551=CIRCLE('',#550,13.125000000000000);
#552=EDGE_CURVE('',#539,#538,#551,.F.);
#553=ORIENTED_EDGE('',*,*,#552,.T.);
#554=EDGE_LOOP('',(#546,#553));
#555=FACE_BOUND('',#554,.F.);
#556=CARTESIAN_POINT('',(8.625000000000000,6.034369E-16,7.0));
#557=CARTESIAN_POINT('',(-8.625000000000000,-1.870018E-15,7.0));
#558=VERTEX_POINT('',#556);
#559=VERTEX_POINT('',#557);
#560=CARTESIAN_POINT('',(0.0,0.0,7.0));
#561=DIRECTION('',(0.0,0.0,-1.0));
#562=DIRECTION('',(-1.0,-2.168137E-16,0.0));
#563=AXIS2_PLACEMENT_3D('',#560,#561,#562);
#564=CIRCLE('',#563,8.625000000000000);
#565=EDGE_CURVE('',#558,#559,#564,.F.);
#566=ORIENTED_EDGE('',*,*,#565,.T.);
#567=CARTESIAN_POINT('',(0.0,0.0,7.0));
#568=DIRECTION('',(0.0,0.0,-1.0));
#569=DIRECTION('',(1.0,6.996370E-17,0.0));
#570=AXIS2_PLACEMENT_3D('',#567,#568,#569);
#571=CIRCLE('',#570,8.625000000000000);
#572=EDGE_CURVE('',#559,#558,#571,.F.);
#573=ORIENTED_EDGE('',*,*,#572,.T.);
#574=EDGE_LOOP('',(#566,#573));
#575=FACE_BOUND('',#574,.F.);
#576=CARTESIAN_POINT('',(0.0,7.417466E-15,7.0));
#577=DIRECTION('',(0.0,0.0,1.0));
#578=DIRECTION('',(-1.0,0.0,0.0));
#579=AXIS2_PLACEMENT_3D('',#576,#577,#578);
#580=PLANE('',#579);
#581=ADVANCED_FACE('',(#555,#575),#580,.T.);
#582=SHAPE_ASPECT('featured shape: face 12','',#38,.T.);
#583=PROPERTY_DEFINITION('','',#582);
#584=FACE_SHAPE_REPRESENTATION('',(#581),#29);
#585=SHAPE_DEFINITION_REPRESENTATION(#583,#584);
#586=CARTESIAN_POINT('',(-13.375000000000000,7.417466E-15,7.249999999999999));
#587=VERTEX_POINT('',#586);
#588=CARTESIAN_POINT('',(-13.125000000000000,7.417466E-15,7.250000000000000));
#589=DIRECTION('',(0.0,1.0,0.0));
#590=DIRECTION('',(0.0,0.0,-1.0));
#591=AXIS2_PLACEMENT_3D('',#588,#589,#590);
#592=CIRCLE('',#591,0.250000000000000);
#593=EDGE_CURVE('',#587,#538,#592,.F.);
#594=ORIENTED_EDGE('',*,*,#593,.T.);
#595=ORIENTED_EDGE('',*,*,#552,.F.);
#596=CARTESIAN_POINT('',(13.375000000000000,9.055431E-15,7.250000000000000));
#597=VERTEX_POINT('',#596);
#598=CARTESIAN_POINT('',(13.125000000000000,9.024815E-15,7.250000000000000));
#599=DIRECTION('',(1.224647E-16,-1.0,0.0));
#600=DIRECTION('',(0.0,0.0,-1.0));
#601=AXIS2_PLACEMENT_3D('',#598,#599,#600);
#602=CIRCLE('',#601,0.250000000000000);
#603=EDGE_CURVE('',#539,#597,#602,.T.);
#604=ORIENTED_EDGE('',*,*,#603,.T.);
#605=CARTESIAN_POINT('',(0.0,7.417466E-15,7.249999999999999));
#606=DIRECTION('',(0.0,0.0,1.0));
#607=DIRECTION('',(-1.0,0.0,0.0));
#608=AXIS2_PLACEMENT_3D('',#605,#606,#607);
#609=CIRCLE('',#608,13.375000000000000);
#610=EDGE_CURVE('',#597,#587,#609,.F.);
#611=ORIENTED_EDGE('',*,*,#610,.T.);
#612=EDGE_LOOP('',(#594,#595,#604,#611));
#613=FACE_BOUND('',#612,.F.);
#614=CARTESIAN_POINT('',(0.0,7.417466E-15,7.250000000000000));
#615=DIRECTION('',(0.0,0.0,1.0));
#616=DIRECTION('',(-1.0,0.0,0.0));
#617=AXIS2_PLACEMENT_3D('',#614,#615,#616);
#618=TOROIDAL_SURFACE('',#617,13.125000000000000,0.250000000000000);
#619=ADVANCED_FACE('',(#613),#618,.F.);
#620=SHAPE_ASPECT('featured shape: face 13','',#38,.T.);
#621=PROPERTY_DEFINITION('','',#620);
#622=FACE_SHAPE_REPRESENTATION('',(#619),#29);
#623=SHAPE_DEFINITION_REPRESENTATION(#621,#622);
#624=DIRECTION('',(0.0,0.0,1.0));
#625=VECTOR('',#624,50.250000000000000);
#626=LINE('',#586,#625);
#627=EDGE_CURVE('',#244,#587,#626,.F.);
#628=ORIENTED_EDGE('',*,*,#627,.T.);
#629=ORIENTED_EDGE('',*,*,#610,.F.);
#630=DIRECTION('',(0.0,0.0,1.0));
#631=VECTOR('',#630,50.250000000000000);
#632=LINE('',#596,#631);
#633=EDGE_CURVE('',#597,#245,#632,.T.);
#634=ORIENTED_EDGE('',*,*,#633,.T.);
#635=ORIENTED_EDGE('',*,*,#268,.F.);
#636=EDGE_LOOP('',(#628,#629,#634,#635));
#637=FACE_BOUND('',#636,.F.);
#638=CARTESIAN_POINT('',(0.0,7.417466E-15,3.100000000000000));
#639=DIRECTION('',(0.0,0.0,1.0));
#640=DIRECTION('',(-1.0,0.0,0.0));
#641=AXIS2_PLACEMENT_3D('',#638,#639,#640);
#642=CYLINDRICAL_SURFACE('',#641,13.375000000000000);
#643=ADVANCED_FACE('',(#637),#642,.F.);
#644=SHAPE_ASPECT('featured shape: face 14','',#38,.T.);
#645=PROPERTY_DEFINITION('','',#644);
#646=FACE_SHAPE_REPRESENTATION('',(#643),#29);
#647=SHAPE_DEFINITION_REPRESENTATION(#645,#646);
#648=ORIENTED_EDGE('',*,*,#593,.F.);
#649=CARTESIAN_POINT('',(0.0,7.417466E-15,7.249999999999999));
#650=DIRECTION('',(0.0,0.0,-1.0));
#651=DIRECTION('',(-1.0,0.0,0.0));
#652=AXIS2_PLACEMENT_3D('',#649,#650,#651);
#653=CIRCLE('',#652,13.375000000000000);
#654=EDGE_CURVE('',#587,#597,#653,.T.);
#655=ORIENTED_EDGE('',*,*,#654,.T.);
#656=ORIENTED_EDGE('',*,*,#603,.F.);
#657=ORIENTED_EDGE('',*,*,#545,.F.);
#658=EDGE_LOOP('',(#648,#655,#656,#657));
#659=FACE_BOUND('',#658,.F.);
#660=CARTESIAN_POINT('',(0.0,7.417466E-15,7.250000000000000));
#661=DIRECTION('',(0.0,0.0,1.0));
#662=DIRECTION('',(-1.0,0.0,0.0));
#663=AXIS2_PLACEMENT_3D('',#660,#661,#662);
#664=TOROIDAL_SURFACE('',#663,13.125000000000000,0.250000000000000);
#665=ADVANCED_FACE('',(#659),#664,.F.);
#666=SHAPE_ASPECT('featured shape: face 15','',#38,.T.);
#667=PROPERTY_DEFINITION('','',#666);
#668=FACE_SHAPE_REPRESENTATION('',(#665),#29);
#669=SHAPE_DEFINITION_REPRESENTATION(#667,#668);
#670=ORIENTED_EDGE('',*,*,#627,.F.);
#671=ORIENTED_EDGE('',*,*,#292,.F.);
#672=ORIENTED_EDGE('',*,*,#633,.F.);
#673=ORIENTED_EDGE('',*,*,#654,.F.);
#674=EDGE_LOOP('',(#670,#671,#672,#673));
#675=FACE_BOUND('',#674,.F.);
#676=CARTESIAN_POINT('',(0.0,7.417466E-15,3.100000000000000));
#677=DIRECTION('',(0.0,0.0,1.0));
#678=DIRECTION('',(-1.0,0.0,0.0));
#679=AXIS2_PLACEMENT_3D('',#676,#677,#678);
#680=CYLINDRICAL_SURFACE('',#679,13.375000000000000);
#681=ADVANCED_FACE('',(#675),#680,.F.);
#682=SHAPE_ASPECT('featured shape: face 16','',#38,.T.);
#683=PROPERTY_DEFINITION('','',#682);
#684=FACE_SHAPE_REPRESENTATION('',(#681),#29);
#685=SHAPE_DEFINITION_REPRESENTATION(#683,#684);
#686=ORIENTED_EDGE('',*,*,#68,.F.);
#687=DIRECTION('',(0.0,0.0,-1.0));
#688=VECTOR('',#687,7.0);
#689=LINE('',#557,#688);
#690=EDGE_CURVE('',#61,#559,#689,.F.);
#691=ORIENTED_EDGE('',*,*,#690,.T.);
#692=ORIENTED_EDGE('',*,*,#565,.F.);
#693=DIRECTION('',(0.0,0.0,-1.0));
#694=VECTOR('',#693,7.0);
#695=LINE('',#556,#694);
#696=EDGE_CURVE('',#558,#62,#695,.T.);
#697=ORIENTED_EDGE('',*,*,#696,.T.);
#698=EDGE_LOOP('',(#686,#691,#692,#697));
#699=FACE_BOUND('',#698,.F.);
#700=CARTESIAN_POINT('',(0.0,0.0,7.0));
#701=DIRECTION('',(0.0,0.0,-1.0));
#702=DIRECTION('',(-1.0,0.0,0.0));
#703=AXIS2_PLACEMENT_3D('',#700,#701,#702);
#704=CYLINDRICAL_SURFACE('',#703,8.625000000000000);
#705=ADVANCED_FACE('',(#699),#704,.F.);
#706=SHAPE_ASPECT('featured shape: face 17','',#38,.T.);
#707=PROPERTY_DEFINITION('','',#706);
#708=FACE_SHAPE_REPRESENTATION('',(#705),#29);
#709=SHAPE_DEFINITION_REPRESENTATION(#707,#708);
#710=ORIENTED_EDGE('',*,*,#75,.F.);
#711=ORIENTED_EDGE('',*,*,#696,.F.);
#712=ORIENTED_EDGE('',*,*,#572,.F.);
#713=ORIENTED_EDGE('',*,*,#690,.F.);
#714=EDGE_LOOP('',(#710,#711,#712,#713));
#715=FACE_BOUND('',#714,.F.);
#716=CARTESIAN_POINT('',(0.0,0.0,7.0));
#717=DIRECTION('',(0.0,0.0,-1.0));
#718=DIRECTION('',(-1.0,0.0,0.0));
#719=AXIS2_PLACEMENT_3D('',#716,#717,#718);
#720=CYLINDRICAL_SURFACE('',#719,8.625000000000000);
#721=ADVANCED_FACE('',(#715),#720,.F.);
#722=SHAPE_ASPECT('featured shape: face 18','',#38,.T.);
#723=PROPERTY_DEFINITION('','',#722);
#724=FACE_SHAPE_REPRESENTATION('',(#721),#29);
#725=SHAPE_DEFINITION_REPRESENTATION(#723,#724);
#726=CLOSED_SHELL('',(#84,#183,#233,#301,#349,#387,#445,#467,#493,#515,#531,#581,#619,#643,#665,#681,#705,#721));
#727=MANIFOLD_SOLID_BREP('',#726);
#728=ADVANCED_BREP_SHAPE_REPRESENTATION('',(#727),#29);
#729=SHAPE_DEFINITION_REPRESENTATION(#38,#728);
#730=CARTESIAN_POINT('',(0.0,0.0,85.0));
#731=DIRECTION('',(0.0,1.0,0.0));
#732=DIRECTION('',(0.0,0.0,1.0));
#733=AXIS2_PLACEMENT_3D('DTM1',#730,#731,#732);
#734=DATUM_FEATURE('','',#38,.F.);
#735=PROPERTY_DEFINITION('','',#734);
#736=SHAPE_REPRESENTATION('',(#733),#29);
#737=SHAPE_DEFINITION_REPRESENTATION(#735,#736);
#738=DATUM('DTM1','',#38,.F.,'DTM1');
#739=SHAPE_ASPECT_RELATIONSHIP('','',#734,#738);
#740=DATUM_REFERENCE(1,#738);
#741=CARTESIAN_POINT('',(0.0,0.0,85.0));
#742=DIRECTION('',(-1.0,0.0,0.0));
#743=DIRECTION('',(0.0,0.0,1.0));
#744=AXIS2_PLACEMENT_3D('DTM2',#741,#742,#743);
#745=DATUM_FEATURE('','',#38,.F.);
#746=PROPERTY_DEFINITION('','',#745);
#747=SHAPE_REPRESENTATION('',(#744),#29);
#748=SHAPE_DEFINITION_REPRESENTATION(#746,#747);
#749=DATUM('DTM2','',#38,.F.,'DTM2');
#750=SHAPE_ASPECT_RELATIONSHIP('','',#745,#749);
#751=DATUM_REFERENCE(1,#749);
#752=CARTESIAN_POINT('',(0.0,0.0,0.0));
#753=DIRECTION('',(0.0,0.0,1.0));
#754=DIRECTION('',(1.0,0.0,0.0));
#755=AXIS2_PLACEMENT_3D('orientation',#752,#753,#754);
#756=STANDARD_UNCERTAINTY('upper limit','plus',0.125000000000000);
#757=STANDARD_UNCERTAINTY('lower limit','minus',-0.125000000000000);
#758=PRECISION_QUALIFIER(4);
#764=(LENGTH_MEASURE_WITH_UNIT()MEASURE_REPRESENTATION_ITEM()MEASURE_WITH_UNIT(LENGTH_MEASURE(85.0),#10)QUALIFIED_REPRESENTATION_ITEM((#756,#757,#758))REPRESENTATION_ITEM('length'));
#765=STANDARD_UNCERTAINTY('upper limit','plus',0.250000000000000);
#766=STANDARD_UNCERTAINTY('lower limit','minus',-0.250000000000000);
#767=PRECISION_QUALIFIER(4);
#773=(LENGTH_MEASURE_WITH_UNIT()MEASURE_REPRESENTATION_ITEM()MEASURE_WITH_UNIT(LENGTH_MEASURE(92.250000000000000),#10)QUALIFIED_REPRESENTATION_ITEM((#765,#766,#767))REPRESENTATION_ITEM('diameter'));
#774=CYLINDRICAL_SHAPE_REPRESENTATION('base shape',(#755,#764,#773),#29);
#781=(CHARACTERIZED_OBJECT('CUT','')FEATURE_DEFINITION()INSTANCED_FEATURE()MACHINING_FEATURE()REMOVAL_VOLUME()SHAPE_ASPECT('CUT','',#38,.T.));
#782=PROPERTY_DEFINITION('','',#781);
#783=PRODUCT_DEFINITION_SHAPE('','',#781);
#784=CARTESIAN_POINT('',(0.0,0.0,0.0));
#785=DIRECTION('',(0.0,0.0,1.0));
#786=DIRECTION('',(1.0,0.0,0.0));
#787=AXIS2_PLACEMENT_3D('orientation',#784,#785,#786);
#788=SHAPE_REPRESENTATION('',(#301),#29);
#789=SHAPE_DEFINITION_REPRESENTATION(#782,#788);
#790=SHAPE_REPRESENTATION_WITH_PARAMETERS('',(#787),#29);
#791=SHAPE_DEFINITION_REPRESENTATION(#782,#790);
#792=SHAPE_ASPECT('','volume shape',#38,.T.);
#793=PROPERTY_DEFINITION('','',#792);
#794=SHAPE_DEFINITION_REPRESENTATION(#793,#788);
#795=SHAPE_ASPECT('','volume shape occurrence',#783,.T.);
#796=SHAPE_DEFINING_RELATIONSHIP('','volume shape usage',#792,#795);
#803=(CHARACTERIZED_OBJECT('','outer diameter to shoulder')FEATURE_DEFINITION()INSTANCED_FEATURE()MACHINING_FEATURE()OUTER_ROUND()SHAPE_ASPECT('','outer diameter to shoulder',#38,.T.));
#804=PROPERTY_DEFINITION('','',#803);
#805=PRODUCT_DEFINITION_SHAPE('','',#803);
#806=CARTESIAN_POINT('',(0.0,0.0,4.750000000000000));
#807=DIRECTION('',(0.0,0.0,-1.0));
#808=DIRECTION('',(1.0,0.0,0.0));
#809=AXIS2_PLACEMENT_3D('orientation',#806,#807,#808);
#810=STANDARD_UNCERTAINTY('upper limit','plus',0.025000000000006);
#811=STANDARD_UNCERTAINTY('lower limit','minus',-0.024999999999999);
#812=PRECISION_QUALIFIER(4);
#818=(LENGTH_MEASURE_WITH_UNIT()MEASURE_REPRESENTATION_ITEM()MEASURE_WITH_UNIT(LENGTH_MEASURE(34.924999999999997),#10)QUALIFIED_REPRESENTATION_ITEM((#810,#811,#812))REPRESENTATION_ITEM('diameter'));
#819=SHAPE_REPRESENTATION('',(#349,#387,#445,#467,#493),#29);
#820=SHAPE_DEFINITION_REPRESENTATION(#804,#819);
#821=SHAPE_REPRESENTATION_WITH_PARAMETERS('',(#809,#818),#29);
#822=SHAPE_DEFINITION_REPRESENTATION(#804,#821);
#823=CARTESIAN_POINT('',(17.462499999999999,0.0,4.750000000000000));
#824=DIRECTION('',(0.0,-1.0,0.0));
#825=DIRECTION('',(0.0,0.0,-1.0));
#826=AXIS2_PLACEMENT_3D('orientation',#823,#824,#825);
#827=FEATURE_COMPONENT_DEFINITION('','');
#828=PRODUCT_DEFINITION_SHAPE('','',#827);
#829=VEE_PROFILE('vee profile','v-shape',#828,.F.);
#834=(MEASURE_REPRESENTATION_ITEM()MEASURE_WITH_UNIT(PLANE_ANGLE_MEASURE(90.0),#19)PLANE_ANGLE_MEASURE_WITH_UNIT()REPRESENTATION_ITEM('profile angle'));
#839=(MEASURE_REPRESENTATION_ITEM()MEASURE_WITH_UNIT(PLANE_ANGLE_MEASURE(0.0),#19)PLANE_ANGLE_MEASURE_WITH_UNIT()REPRESENTATION_ITEM('tilt angle'));
#840=STANDARD_UNCERTAINTY('upper limit','plus',0.0);
#841=STANDARD_UNCERTAINTY('lower limit','minus',-1.0);
#842=PRECISION_QUALIFIER(4);
#848=(LENGTH_MEASURE_WITH_UNIT()MEASURE_REPRESENTATION_ITEM()MEASURE_WITH_UNIT(LENGTH_MEASURE(2.0),#10)QUALIFIED_REPRESENTATION_ITEM((#840,#841,#842))REPRESENTATION_ITEM('profile radius'));
#849=SHAPE_REPRESENTATION_WITH_PARAMETERS('',(#826,#834,#839,#848),#29);
#850=PROPERTY_DEFINITION('','',#829);
#851=SHAPE_DEFINITION_REPRESENTATION(#850,#849);
#852=SHAPE_ASPECT('','v-shape boundary occurrence',#805,.T.);
#853=SHAPE_DEFINING_RELATIONSHIP('vee boundary','profile usage',#829,#852);
#854=DIMENSIONAL_LOCATION('','',#388,#85);
#855=PRECISION_QUALIFIER(4);
#861=(LENGTH_MEASURE_WITH_UNIT()MEASURE_REPRESENTATION_ITEM()MEASURE_WITH_UNIT(LENGTH_MEASURE(4.750000000000000),#10)QUALIFIED_REPRESENTATION_ITEM((#855))REPRESENTATION_ITEM(''));
#862=SHAPE_DIMENSION_REPRESENTATION('',(#861),#29);
#863=PRECISION_QUALIFIER(4);
#864=MEASURE_WITH_UNIT(LENGTH_MEASURE(0.250000000000000),#10);
#865=MEASURE_WITH_UNIT(LENGTH_MEASURE(-0.250000000000000),#10);
#866=MEASURE_QUALIFICATION('','',#864,(#863));
#867=MEASURE_QUALIFICATION('','',#865,(#863));
#868=TOLERANCE_VALUE(#865,#864);
#869=PLUS_MINUS_TOLERANCE(#868,#854);
#870=DIMENSIONAL_CHARACTERISTIC_REPRESENTATION(#854,#862);
#877=(CHARACTERIZED_OBJECT('RDU_OPEN_FLT_CYL','')FEATURE_DEFINITION()INSTANCED_FEATURE()MACHINING_FEATURE()REMOVAL_VOLUME()SHAPE_ASPECT('RDU_OPEN_FLT_CYL','',#38,.T.));
#878=PROPERTY_DEFINITION('','',#877);
#879=PRODUCT_DEFINITION_SHAPE('','',#877);
#880=CARTESIAN_POINT('',(0.0,0.0,0.0));
#881=DIRECTION('',(0.0,0.0,1.0));
#882=DIRECTION('',(1.0,0.0,0.0));
#883=AXIS2_PLACEMENT_3D('orientation',#880,#881,#882);
#884=SHAPE_REPRESENTATION('',(#515,#531),#29);
#885=SHAPE_DEFINITION_REPRESENTATION(#878,#884);
#886=SHAPE_REPRESENTATION_WITH_PARAMETERS('',(#883),#29);
#887=SHAPE_DEFINITION_REPRESENTATION(#878,#886);
#888=SHAPE_ASPECT('','volume shape',#38,.T.);
#889=PROPERTY_DEFINITION('','',#888);
#890=SHAPE_DEFINITION_REPRESENTATION(#889,#884);
#891=SHAPE_ASPECT('','volume shape occurrence',#879,.T.);
#892=SHAPE_DEFINING_RELATIONSHIP('','volume shape usage',#888,#891);
#899=(CHARACTERIZED_OBJECT('','')FEATURE_DEFINITION()INSTANCED_FEATURE()MACHINING_FEATURE()ROUND_HOLE()SHAPE_ASPECT('','',#38,.T.));
#900=PROPERTY_DEFINITION('','',#899);
#901=PRODUCT_DEFINITION_SHAPE('','',#899);
#902=CARTESIAN_POINT('',(0.0,7.417466E-15,7.250000000000000));
#903=DIRECTION('',(0.0,0.0,1.0));
#904=DIRECTION('',(-1.0,0.0,0.0));
#905=AXIS2_PLACEMENT_3D('orientation',#902,#903,#904);
#906=SHAPE_REPRESENTATION('',(#581,#619,#643,#665,#681),#29);
#907=SHAPE_DEFINITION_REPRESENTATION(#900,#906);
#908=SHAPE_REPRESENTATION_WITH_PARAMETERS('',(#905),#29);
#909=SHAPE_DEFINITION_REPRESENTATION(#900,#908);
#910=FEATURE_COMPONENT_DEFINITION('','');
#911=PRODUCT_DEFINITION_SHAPE('','',#910);
#912=CIRCULAR_CLOSED_PROFILE('circular profile','',#911,.F.);
#913=STANDARD_UNCERTAINTY('upper limit','plus',0.250000000000000);
#914=STANDARD_UNCERTAINTY('lower limit','minus',-0.250000000000000);
#915=PRECISION_QUALIFIER(4);
#921=(LENGTH_MEASURE_WITH_UNIT()MEASURE_REPRESENTATION_ITEM()MEASURE_WITH_UNIT(LENGTH_MEASURE(26.750000000000000),#10)QUALIFIED_REPRESENTATION_ITEM((#913,#914,#915))REPRESENTATION_ITEM('diameter'));
#922=SHAPE_REPRESENTATION_WITH_PARAMETERS('',(#905,#921),#29);
#923=PROPERTY_DEFINITION('','',#912);
#924=SHAPE_DEFINITION_REPRESENTATION(#923,#922);
#925=FEATURE_COMPONENT_DEFINITION('','');
#926=PRODUCT_DEFINITION_SHAPE('','',#925);
#927=PATH_FEATURE_COMPONENT('linear path','linear',#926,.F.);
#928=STANDARD_UNCERTAINTY('upper limit','plus',0.125000000000000);
#929=STANDARD_UNCERTAINTY('lower limit','minus',-0.125000000000000);
#930=PRECISION_QUALIFIER(4);
#936=(LENGTH_MEASURE_WITH_UNIT()MEASURE_REPRESENTATION_ITEM()MEASURE_WITH_UNIT(LENGTH_MEASURE(78.0),#10)QUALIFIED_REPRESENTATION_ITEM((#928,#929,#930))REPRESENTATION_ITEM('distance'));
#937=SHAPE_REPRESENTATION_WITH_PARAMETERS('',(#905,#936),#29);
#938=PROPERTY_DEFINITION('','',#927);
#939=SHAPE_DEFINITION_REPRESENTATION(#938,#937);
#940=DIRECTION_SHAPE_REPRESENTATION('',(#903),#29);
#941=PROPERTY_DEFINITION_REPRESENTATION(#938,#940);
#942=SHAPE_ASPECT('','diameter occurrence',#901,.T.);
#943=SHAPE_DEFINING_RELATIONSHIP('diameter','profile usage',#912,#942);
#944=SHAPE_ASPECT('','hole depth occurrence',#901,.T.);
#945=SHAPE_DEFINING_RELATIONSHIP('hole depth','path feature component usage',#927,#944);
#946=FEATURE_COMPONENT_DEFINITION('','');
#947=PRODUCT_DEFINITION_SHAPE('','',#946);
#948=HOLE_BOTTOM('bottom condition','flat with radius',#947,.F.);
#949=DESCRIPTIVE_REPRESENTATION_ITEM('blind bottom orientation','hole start');
#954=(LENGTH_MEASURE_WITH_UNIT()MEASURE_REPRESENTATION_ITEM()MEASURE_WITH_UNIT(LENGTH_MEASURE(0.250000000000000),#10)REPRESENTATION_ITEM('corner radius'));
#955=SHAPE_REPRESENTATION_WITH_PARAMETERS('',(#949,#954),#29);
#956=PROPERTY_DEFINITION('','',#948);
#957=SHAPE_DEFINITION_REPRESENTATION(#956,#955);
#958=SHAPE_ASPECT('','bottom condition occurrence',#901,.T.);
#959=FEATURE_COMPONENT_RELATIONSHIP('','hole bottom usage',#948,#958);
#966=(CHARACTERIZED_OBJECT('','')FEATURE_DEFINITION()INSTANCED_FEATURE()MACHINING_FEATURE()ROUND_HOLE()SHAPE_ASPECT('','',#38,.T.));
#967=PROPERTY_DEFINITION('','',#966);
#968=PRODUCT_DEFINITION_SHAPE('','',#966);
#969=CARTESIAN_POINT('',(0.0,0.0,7.0));
#970=DIRECTION('',(0.0,0.0,-1.0));
#971=DIRECTION('',(-1.0,0.0,0.0));
#972=AXIS2_PLACEMENT_3D('orientation',#969,#970,#971);
#973=SHAPE_REPRESENTATION('',(#705,#721),#29);
#974=SHAPE_DEFINITION_REPRESENTATION(#967,#973);
#975=SHAPE_REPRESENTATION_WITH_PARAMETERS('',(#972),#29);
#976=SHAPE_DEFINITION_REPRESENTATION(#967,#975);
#977=FEATURE_COMPONENT_DEFINITION('','');
#978=PRODUCT_DEFINITION_SHAPE('','',#977);
#979=CIRCULAR_CLOSED_PROFILE('circular profile','',#978,.F.);
#980=STANDARD_UNCERTAINTY('upper limit','plus',0.250000000000000);
#981=STANDARD_UNCERTAINTY('lower limit','minus',-0.250000000000000);
#982=PRECISION_QUALIFIER(4);
#988=(LENGTH_MEASURE_WITH_UNIT()MEASURE_REPRESENTATION_ITEM()MEASURE_WITH_UNIT(LENGTH_MEASURE(17.250000000000000),#10)QUALIFIED_REPRESENTATION_ITEM((#980,#981,#982))REPRESENTATION_ITEM('diameter'));
#989=SHAPE_REPRESENTATION_WITH_PARAMETERS('',(#972,#988),#29);
#990=PROPERTY_DEFINITION('','',#979);
#991=SHAPE_DEFINITION_REPRESENTATION(#990,#989);
#992=FEATURE_COMPONENT_DEFINITION('','');
#993=PRODUCT_DEFINITION_SHAPE('','',#992);
#994=PATH_FEATURE_COMPONENT('linear path','linear',#993,.F.);
#999=(LENGTH_MEASURE_WITH_UNIT()MEASURE_REPRESENTATION_ITEM()MEASURE_WITH_UNIT(LENGTH_MEASURE(7.0),#10)REPRESENTATION_ITEM('distance'));
#1000=SHAPE_REPRESENTATION_WITH_PARAMETERS('',(#972,#999),#29);
#1001=PROPERTY_DEFINITION('','',#994);
#1002=SHAPE_DEFINITION_REPRESENTATION(#1001,#1000);
#1003=DIRECTION_SHAPE_REPRESENTATION('',(#970),#29);
#1004=PROPERTY_DEFINITION_REPRESENTATION(#1001,#1003);
#1005=SHAPE_ASPECT('','diameter occurrence',#968,.T.);
#1006=SHAPE_DEFINING_RELATIONSHIP('diameter','profile usage',#979,#1005);
#1007=SHAPE_ASPECT('','hole depth occurrence',#968,.T.);
#1008=SHAPE_DEFINING_RELATIONSHIP('hole depth','path feature component usage',#994,#1007);
#1009=FEATURE_COMPONENT_DEFINITION('','');
#1010=PRODUCT_DEFINITION_SHAPE('','',#1009);
#1011=HOLE_BOTTOM('bottom condition','through',#1010,.F.);
#1012=SHAPE_ASPECT('','bottom condition occurrence',#968,.T.);
#1013=FEATURE_COMPONENT_RELATIONSHIP('','hole bottom usage',#1011,#1012);
#1020=(CHARACTERIZED_OBJECT('','marking')FEATURE_DEFINITION()INSTANCED_FEATURE()MACHINING_FEATURE()MARKING()SHAPE_ASPECT('','marking',#38,.T.));
#1021=PROPERTY_DEFINITION('','',#1020);
#1022=CARTESIAN_POINT('',(55.850000000000001,-45.695536357579179,30.256048784099132));
#1023=DIRECTION('',(0.0,0.512097568198265,-0.858927284841635));
#1024=DIRECTION('',(0.0,0.858927284841635,0.512097568198265));
#1025=AXIS2_PLACEMENT_3D('orientation',#1022,#1023,#1024);
#1026=DESCRIPTIVE_REPRESENTATION_ITEM('marking text','A');
#1027=DESCRIPTIVE_REPRESENTATION_ITEM('font name','');
#1032=(LENGTH_MEASURE_WITH_UNIT()MEASURE_REPRESENTATION_ITEM()MEASURE_WITH_UNIT(LENGTH_MEASURE(6.0),#10)REPRESENTATION_ITEM('character height'));
#1037=(LENGTH_MEASURE_WITH_UNIT()MEASURE_REPRESENTATION_ITEM()MEASURE_WITH_UNIT(LENGTH_MEASURE(0.0),#10)REPRESENTATION_ITEM('character spacing'));
#1038=DESCRIPTIVE_REPRESENTATION_ITEM('special instructions','');
#1039=SHAPE_REPRESENTATION_WITH_PARAMETERS('',(#1025,#1026,#1038,#1027,#1032,#1037),#29);
#1040=SHAPE_DEFINITION_REPRESENTATION(#1021,#1039);
#1041=SHAPE_DEFINING_RELATIONSHIP('applied shape','',#1020,#302);
#1042=DESCRIPTIVE_REPRESENTATION_ITEM('note text','SURFACE ROUGHNESS to BS 1134');
#1043=REPRESENTATION('note text',(#1042),#29);
#1044=PROPERTY_DEFINITION('part property','part note',#37);
#1045=PROPERTY_DEFINITION('part property','part note',#37);
#1046=PROPERTY_DEFINITION_REPRESENTATION(#1045,#1043);
#1047=PROPERTY_DEFINITION_RELATIONSHIP('','',#1044,#1045);
#1048=DESCRIPTIVE_REPRESENTATION_ITEM('note text','SURFACE ROUGHNESS 3.2 microns except where stated');
#1049=REPRESENTATION('note text',(#1048),#29);
#1050=PROPERTY_DEFINITION('part property','part note',#37);
#1051=PROPERTY_DEFINITION('part property','part note',#37);
#1052=PROPERTY_DEFINITION_REPRESENTATION(#1051,#1049);
#1053=PROPERTY_DEFINITION_RELATIONSHIP('','',#1050,#1051);
#1054=DESCRIPTIVE_REPRESENTATION_ITEM('note text','INSPECTION INSTRUCTION inspection Class 2B');
#1055=REPRESENTATION('note text',(#1054),#29);
#1056=PROPERTY_DEFINITION('part property','part note',#37);
#1057=PROPERTY_DEFINITION('part property','part note',#37);
#1058=PROPERTY_DEFINITION_REPRESENTATION(#1057,#1055);
#1059=PROPERTY_DEFINITION_RELATIONSHIP('','',#1056,#1057);
#1060=DESCRIPTIVE_REPRESENTATION_ITEM('note text','ITEM DESCRIPTION blade bolt protection cover, type A');
#1061=REPRESENTATION('note text',(#1060),#29);
#1062=PROPERTY_DEFINITION('part property','part note',#37);
#1063=PROPERTY_DEFINITION('part property','part note',#37);
#1064=PROPERTY_DEFINITION_REPRESENTATION(#1063,#1061);
#1065=PROPERTY_DEFINITION_RELATIONSHIP('','',#1062,#1063);
#1066=MEASURE_WITH_UNIT(COUNT_MEASURE(1.0),#30);
#1067=PRODUCT_DEFINITION('','copper alloy to DGS 8452',#35,#36);
#1068=MATERIAL_DESIGNATION('copper alloy to DGS 8452',(#1067));
#1069=MAKE_FROM_USAGE_OPTION('1','','product material',#37,#1067,1,'primary material',#1066);
#1070=PRODUCT_DEFINITION_SHAPE('base shape','base shape for part',#1067);
#1071=SHAPE_DEFINITION_REPRESENTATION(#1070,#774);
#1072=VERSIONED_ACTION_REQUEST('','','','');
#1073=ACTION_DIRECTIVE('','','','',(#1072));
#1074=ACTION_METHOD('','','','');
#1075=DIRECTED_ACTION('project order','order for project',#1074,#1073);
#1076=FEATURE_BASED_PP_ACTION_ASSIGNMENT(#1075,(#35));
#1077=APPROVAL_STATUS('approved');
#1078=APPROVAL(#1077,'product version approval');
#1079=FEATURE_BASED_PP_APPROVAL_ASSIGNMENT(#1078,(#35));
#1080=APPROVAL(#1077,'project order approval');
#1081=FEATURE_BASED_PP_APPROVAL_ASSIGNMENT(#1080,(#1075));
#1082=CALENDAR_DATE(1998,12,10);
#1083=APPROVAL_DATE_TIME(#1082,#1078);
#1084=APPROVAL_DATE_TIME(#1082,#1080);
#1085=PERSON('1','Woods','Mr',$,$,$);
#1086=ORGANIZATION($,'LSC: RAMP Consultancy','Producer');
#1087=PERSON_AND_ORGANIZATION(#1085,#1086);
#1088=APPROVAL_ROLE('approval product version');
#1089=APPROVAL_PERSON_ORGANIZATION(#1087,#1078,#1088);
#1090=APPROVAL_PERSON_ORGANIZATION(#1087,#1080,#1088);
#1091=SECURITY_CLASSIFICATION_LEVEL('unclassified');
#1092=SECURITY_CLASSIFICATION('classification','classify product version',#1091);
#1093=FEATURE_BASED_PP_SECURITY_CLASSIFICATION_ASSIGNMENT(#1092,(#35));
#1094=ORDERED_PART(#1075,'quantity','quantity ordered',(#35));
#1095=MEASURE_REPRESENTATION_ITEM('quantity',COUNT_MEASURE(1.0),#30);
#1096=REPRESENTATION('quantity',(#1095),#29);
#1097=PROPERTY_DEFINITION('ordered part property','quantity definition',#1094);
#1098=PROPERTY_DEFINITION_REPRESENTATION(#1097,#1096);
#1099=ORGANIZATION_ROLE('manufacturer');
#1100=FEATURE_BASED_PP_ORGANIZATION_ASSIGNMENT(#1086,#1099,(#35));
#1101=ORGANIZATION_ROLE('owner');
#1102=FEATURE_BASED_PP_ORGANIZATION_ASSIGNMENT(#1086,#1101,(#35));
#1103=PERSON_AND_ORGANIZATION_ROLE('manufacturer');
#1104=FEATURE_BASED_PP_PERSON_AND_ORGANIZATION_ASSIGNMENT(#1087,#1103,(#35));
#1105=PERSON_AND_ORGANIZATION_ROLE('owner');
#1106=FEATURE_BASED_PP_PERSON_AND_ORGANIZATION_ASSIGNMENT(#1087,#1105,(#35));
ENDSEC;
END-ISO-10303-21;
