ISO-10303-21;
HEADER;
FILE_DESCRIPTION(('AP224 File'),'2;1');
FILE_NAME('ka571_995288709_1.224','1998-10-09T14:27:19-05:00',('Mr M Woods'),('LSC: RAMP Consultancy'),'RPTS MP 6.0','PTC Pro/ENGINEER Version 18.0','Mr M Woods');
FILE_SCHEMA(('FEATURE_BASED_PROCESS_PLANNING'));
ENDSEC;
DATA;
#5=DIMENSIONAL_EXPONENTS(1.0,0.0,0.0,0.0,0.0,0.0,0.0);
#6=DIMENSIONAL_EXPONENTS(0.0,0.0,0.0,0.0,0.0,0.0,0.0);
#10=(LENGTH_UNIT()NAMED_UNIT(*)SI_UNIT(.MILLI.,.METRE.));
#14=(NAMED_UNIT(*)PLANE_ANGLE_UNIT()SI_UNIT($,.RADIAN.));
#15=PLANE_ANGLE_MEASURE_WITH_UNIT(PLANE_ANGLE_MEASURE(0.017453292519943),#14);
#19=(CONVERSION_BASED_UNIT('DEGREE',#15)NAMED_UNIT(#6)PLANE_ANGLE_UNIT());
#23=(NAMED_UNIT(*)SI_UNIT($,.STERADIAN.)SOLID_ANGLE_UNIT());
#24=UNCERTAINTY_MEASURE_WITH_UNIT(LENGTH_MEASURE(0.000001000000000),#10,'closure','maximum model space distance between geometric entities at asserted connectivities');
#29=(GEOMETRIC_REPRESENTATION_CONTEXT(3)GLOBAL_UNCERTAINTY_ASSIGNED_CONTEXT((#24))GLOBAL_UNIT_ASSIGNED_CONTEXT((#10,#19,#23))REPRESENTATION_CONTEXT('ID1','3D'));
#30=CONTEXT_DEPENDENT_UNIT(#6,'COUNT');
#31=APPLICATION_CONTEXT('Mechanical Process Planning with Features');
#32=APPLICATION_PROTOCOL_DEFINITION('Draft International Standard','feature_based_process_planning',1996,#31);
#33=PRODUCT_CONTEXT('Feature Based Process Planning',#31,'Mechanical');
#34=PRODUCT('KA571_995288709','SCREW, EXTERNALLY RELIEVED BODY','',(#33));
#35=PRODUCT_DEFINITION_FORMATION('1','ORIGINAL',#34);
#36=PRODUCT_DEFINITION_CONTEXT('feature definitions',#31,'manufacturing planning');
#37=PRODUCT_DEFINITION('KA571_995288709','product design',#35,#36);
#38=PRODUCT_DEFINITION_SHAPE('product shape','shape for product',#37);
#39=CARTESIAN_POINT('',(-38.474999999999994,0.0,0.0));
#40=CARTESIAN_POINT('',(38.474999999999994,0.0,0.0));
#41=VERTEX_POINT('',#39);
#42=VERTEX_POINT('',#40);
#43=CARTESIAN_POINT('',(0.0,0.0,0.0));
#44=DIRECTION('',(0.0,0.0,-1.0));
#45=DIRECTION('',(1.0,0.0,0.0));
#46=AXIS2_PLACEMENT_3D('',#43,#44,#45);
#47=CIRCLE('',#46,38.474999999999994);
#48=EDGE_CURVE('',#41,#42,#47,.F.);
#49=ORIENTED_EDGE('',*,*,#48,.T.);
#50=CARTESIAN_POINT('',(0.0,0.0,0.0));
#51=DIRECTION('',(0.0,0.0,-1.0));
#52=DIRECTION('',(-1.0,0.0,0.0));
#53=AXIS2_PLACEMENT_3D('',#50,#51,#52);
#54=CIRCLE('',#53,38.474999999999994);
#55=EDGE_CURVE('',#42,#41,#54,.F.);
#56=ORIENTED_EDGE('',*,*,#55,.T.);
#57=EDGE_LOOP('',(#49,#56));
#58=FACE_BOUND('',#57,.F.);
#59=CARTESIAN_POINT('',(-18.924999999999997,7.075740E-15,0.0));
#60=CARTESIAN_POINT('',(-37.074999999999996,7.219765E-15,0.0));
#61=VERTEX_POINT('',#59);
#62=VERTEX_POINT('',#60);
#63=CARTESIAN_POINT('',(-28.0,7.075740E-15,7.105427E-15));
#64=DIRECTION('',(0.0,0.0,-1.0));
#65=DIRECTION('',(1.0,0.0,0.0));
#66=AXIS2_PLACEMENT_3D('',#63,#64,#65);
#67=CIRCLE('',#66,9.074999999999999);
#68=EDGE_CURVE('',#61,#62,#67,.T.);
#69=ORIENTED_EDGE('',*,*,#68,.T.);
#70=CARTESIAN_POINT('',(-28.0,7.075740E-15,7.105427E-15));
#71=DIRECTION('',(0.0,0.0,-1.0));
#72=DIRECTION('',(-1.0,1.587061E-17,0.0));
#73=AXIS2_PLACEMENT_3D('',#70,#71,#72);
#74=CIRCLE('',#73,9.074999999999999);
#75=EDGE_CURVE('',#62,#61,#74,.T.);
#76=ORIENTED_EDGE('',*,*,#75,.T.);
#77=EDGE_LOOP('',(#69,#76));
#78=FACE_BOUND('',#77,.F.);
#79=CARTESIAN_POINT('',(23.074999999999999,-24.248711305964271,0.0));
#80=CARTESIAN_POINT('',(4.925000000000000,-24.248711305964271,0.0));
#81=VERTEX_POINT('',#79);
#82=VERTEX_POINT('',#80);
#83=CARTESIAN_POINT('',(14.0,-24.248711305964271,7.105427E-15));
#84=DIRECTION('',(0.0,0.0,-1.0));
#85=DIRECTION('',(1.0,0.0,0.0));
#86=AXIS2_PLACEMENT_3D('',#83,#84,#85);
#87=CIRCLE('',#86,9.074999999999999);
#88=EDGE_CURVE('',#81,#82,#87,.T.);
#89=ORIENTED_EDGE('',*,*,#88,.T.);
#90=CARTESIAN_POINT('',(14.0,-24.248711305964271,7.105427E-15));
#91=DIRECTION('',(0.0,0.0,-1.0));
#92=DIRECTION('',(-1.0,0.0,0.0));
#93=AXIS2_PLACEMENT_3D('',#90,#91,#92);
#94=CIRCLE('',#93,9.074999999999999);
#95=EDGE_CURVE('',#82,#81,#94,.T.);
#96=ORIENTED_EDGE('',*,*,#95,.T.);
#97=EDGE_LOOP('',(#89,#96));
#98=FACE_BOUND('',#97,.F.);
#99=CARTESIAN_POINT('',(23.074999999999999,24.248711305964289,0.0));
#100=CARTESIAN_POINT('',(4.924999999999995,24.248711305964289,0.0));
#101=VERTEX_POINT('',#99);
#102=VERTEX_POINT('',#100);
#103=CARTESIAN_POINT('',(14.0,24.248711305964289,7.105427E-15));
#104=DIRECTION('',(0.0,0.0,-1.0));
#105=DIRECTION('',(1.0,0.0,0.0));
#106=AXIS2_PLACEMENT_3D('',#103,#104,#105);
#107=CIRCLE('',#106,9.074999999999999);
#108=EDGE_CURVE('',#101,#102,#107,.T.);
#109=ORIENTED_EDGE('',*,*,#108,.T.);
#110=CARTESIAN_POINT('',(14.0,24.248711305964289,7.105427E-15));
#111=DIRECTION('',(0.0,0.0,-1.0));
#112=DIRECTION('',(-1.0,0.0,0.0));
#113=AXIS2_PLACEMENT_3D('',#110,#111,#112);
#114=CIRCLE('',#113,9.074999999999999);
#115=EDGE_CURVE('',#102,#101,#114,.T.);
#116=ORIENTED_EDGE('',*,*,#115,.T.);
#117=EDGE_LOOP('',(#109,#116));
#118=FACE_BOUND('',#117,.F.);
#119=CARTESIAN_POINT('',(7.0,7.075740E-15,0.0));
#120=CARTESIAN_POINT('',(-7.0,7.216542E-15,0.0));
#121=VERTEX_POINT('',#119);
#122=VERTEX_POINT('',#120);
#123=CARTESIAN_POINT('',(0.0,7.075740E-15,1.065814E-14));
#124=DIRECTION('',(0.0,0.0,-1.0));
#125=DIRECTION('',(1.0,0.0,0.0));
#126=AXIS2_PLACEMENT_3D('',#123,#124,#125);
#127=CIRCLE('',#126,7.0);
#128=EDGE_CURVE('',#121,#122,#127,.T.);
#129=ORIENTED_EDGE('',*,*,#128,.T.);
#130=CARTESIAN_POINT('',(0.0,7.075740E-15,1.065814E-14));
#131=DIRECTION('',(0.0,0.0,-1.0));
#132=DIRECTION('',(-1.0,2.011468E-17,0.0));
#133=AXIS2_PLACEMENT_3D('',#130,#131,#132);
#134=CIRCLE('',#133,7.0);
#135=EDGE_CURVE('',#122,#121,#134,.T.);
#136=ORIENTED_EDGE('',*,*,#135,.T.);
#137=EDGE_LOOP('',(#129,#136));
#138=FACE_BOUND('',#137,.F.);
#139=CARTESIAN_POINT('',(0.0,0.0,0.0));
#140=DIRECTION('',(0.0,0.0,1.0));
#141=DIRECTION('',(1.0,0.0,0.0));
#142=AXIS2_PLACEMENT_3D('',#139,#140,#141);
#143=PLANE('',#142);
#144=ADVANCED_FACE('',(#58,#78,#98,#118,#138),#143,.F.);
#145=SHAPE_ASPECT('featured shape: face 1','',#38,.T.);
#146=PROPERTY_DEFINITION('','',#145);
#147=FACE_SHAPE_REPRESENTATION('',(#144),#29);
#148=SHAPE_DEFINITION_REPRESENTATION(#146,#147);
#152=(LENGTH_UNIT()NAMED_UNIT(*)SI_UNIT(.MICRO.,.METRE.));
#157=(LENGTH_MEASURE_WITH_UNIT()MEASURE_REPRESENTATION_ITEM()MEASURE_WITH_UNIT(LENGTH_MEASURE(125.0),#152)REPRESENTATION_ITEM('surface finish'));
#158=REPRESENTATION('surface finish value',(#157),#29);
#159=PROPERTY_DEFINITION('surface property','surface finish',#145);
#160=PROPERTY_DEFINITION('surface property','surface finish',#145);
#161=PROPERTY_DEFINITION_REPRESENTATION(#160,#158);
#162=PROPERTY_DEFINITION_RELATIONSHIP('','',#159,#160);
#163=CARTESIAN_POINT('',(1.951772E-14,29.300000000000018,142.0));
#164=CARTESIAN_POINT('',(-1.382505E-14,-29.299999999999997,142.0));
#165=VERTEX_POINT('',#163);
#166=VERTEX_POINT('',#164);
#167=CARTESIAN_POINT('',(0.0,7.075740E-15,142.0));
#168=DIRECTION('',(0.0,0.0,1.0));
#169=DIRECTION('',(-4.718448E-16,-1.0,0.0));
#170=AXIS2_PLACEMENT_3D('',#167,#168,#169);
#171=CIRCLE('',#170,29.299999999999994);
#172=EDGE_CURVE('',#165,#166,#171,.F.);
#173=ORIENTED_EDGE('',*,*,#172,.T.);
#174=CARTESIAN_POINT('',(0.0,7.075740E-15,142.0));
#175=DIRECTION('',(0.0,0.0,1.0));
#176=DIRECTION('',(6.661338E-16,1.0,0.0));
#177=AXIS2_PLACEMENT_3D('',#174,#175,#176);
#178=CIRCLE('',#177,29.299999999999994);
#179=EDGE_CURVE('',#166,#165,#178,.F.);
#180=ORIENTED_EDGE('',*,*,#179,.T.);
#181=EDGE_LOOP('',(#173,#180));
#182=FACE_BOUND('',#181,.F.);
#183=CARTESIAN_POINT('',(0.0,0.0,142.0));
#184=DIRECTION('',(0.0,0.0,1.0));
#185=DIRECTION('',(1.0,0.0,0.0));
#186=AXIS2_PLACEMENT_3D('',#183,#184,#185);
#187=PLANE('',#186);
#188=ADVANCED_FACE('',(#182),#187,.T.);
#189=SHAPE_ASPECT('featured shape: face 2','',#38,.T.);
#190=PROPERTY_DEFINITION('','',#189);
#191=FACE_SHAPE_REPRESENTATION('',(#188),#29);
#192=SHAPE_DEFINITION_REPRESENTATION(#190,#191);
#197=(LENGTH_MEASURE_WITH_UNIT()MEASURE_REPRESENTATION_ITEM()MEASURE_WITH_UNIT(LENGTH_MEASURE(125.0),#152)REPRESENTATION_ITEM('surface finish'));
#198=REPRESENTATION('surface finish value',(#197),#29);
#199=PROPERTY_DEFINITION('surface property','surface finish',#189);
#200=PROPERTY_DEFINITION('surface property','surface finish',#189);
#201=PROPERTY_DEFINITION_REPRESENTATION(#200,#198);
#202=PROPERTY_DEFINITION_RELATIONSHIP('','',#199,#200);
#203=CARTESIAN_POINT('',(44.0,0.0,35.0));
#204=CARTESIAN_POINT('',(-44.0,4.805899E-15,35.0));
#205=VERTEX_POINT('',#203);
#206=VERTEX_POINT('',#204);
#207=CARTESIAN_POINT('',(0.0,0.0,35.0));
#208=DIRECTION('',(0.0,0.0,1.0));
#209=DIRECTION('',(1.0,-2.315208E-16,0.0));
#210=AXIS2_PLACEMENT_3D('',#207,#208,#209);
#211=CIRCLE('',#210,44.0);
#212=EDGE_CURVE('',#205,#206,#211,.T.);
#213=ORIENTED_EDGE('',*,*,#212,.T.);
#214=CARTESIAN_POINT('',(-44.0,5.388446E-15,5.0));
#215=VERTEX_POINT('',#214);
#216=DIRECTION('',(0.0,0.0,1.0));
#217=VECTOR('',#216,30.0);
#218=LINE('',#214,#217);
#219=EDGE_CURVE('',#206,#215,#218,.F.);
#220=ORIENTED_EDGE('',*,*,#219,.T.);
#221=CARTESIAN_POINT('',(44.0,-5.388446E-15,5.0));
#222=VERTEX_POINT('',#221);
#223=CARTESIAN_POINT('',(0.0,0.0,5.0));
#224=DIRECTION('',(0.0,0.0,1.0));
#225=DIRECTION('',(1.0,-1.224647E-16,0.0));
#226=AXIS2_PLACEMENT_3D('',#223,#224,#225);
#227=CIRCLE('',#226,44.0);
#228=EDGE_CURVE('',#215,#222,#227,.F.);
#229=ORIENTED_EDGE('',*,*,#228,.T.);
#230=DIRECTION('',(0.0,0.0,1.0));
#231=VECTOR('',#230,30.0);
#232=LINE('',#221,#231);
#233=EDGE_CURVE('',#222,#205,#232,.T.);
#234=ORIENTED_EDGE('',*,*,#233,.T.);
#235=EDGE_LOOP('',(#213,#220,#229,#234));
#236=FACE_BOUND('',#235,.F.);
#237=CARTESIAN_POINT('',(0.0,0.0,0.0));
#238=DIRECTION('',(0.0,0.0,1.0));
#239=DIRECTION('',(1.0,0.0,0.0));
#240=AXIS2_PLACEMENT_3D('',#237,#238,#239);
#241=CYLINDRICAL_SURFACE('',#240,44.0);
#242=ADVANCED_FACE('',(#236),#241,.T.);
#243=SHAPE_ASPECT('featured shape: face 3','',#38,.T.);
#244=PROPERTY_DEFINITION('','',#243);
#245=FACE_SHAPE_REPRESENTATION('',(#242),#29);
#246=SHAPE_DEFINITION_REPRESENTATION(#244,#245);
#251=(LENGTH_MEASURE_WITH_UNIT()MEASURE_REPRESENTATION_ITEM()MEASURE_WITH_UNIT(LENGTH_MEASURE(125.0),#152)REPRESENTATION_ITEM('surface finish'));
#252=REPRESENTATION('surface finish value',(#251),#29);
#253=PROPERTY_DEFINITION('surface property','surface finish',#243);
#254=PROPERTY_DEFINITION('surface property','surface finish',#243);
#255=PROPERTY_DEFINITION_REPRESENTATION(#254,#252);
#256=PROPERTY_DEFINITION_RELATIONSHIP('','',#253,#254);
#257=CARTESIAN_POINT('',(0.0,0.0,35.0));
#258=DIRECTION('',(0.0,0.0,1.0));
#259=DIRECTION('',(-1.0,1.092250E-16,0.0));
#260=AXIS2_PLACEMENT_3D('',#257,#258,#259);
#261=CIRCLE('',#260,44.0);
#262=EDGE_CURVE('',#206,#205,#261,.T.);
#263=ORIENTED_EDGE('',*,*,#262,.T.);
#264=ORIENTED_EDGE('',*,*,#233,.F.);
#265=CARTESIAN_POINT('',(0.0,0.0,5.0));
#266=DIRECTION('',(0.0,0.0,1.0));
#267=DIRECTION('',(-1.0,9.184851E-17,0.0));
#268=AXIS2_PLACEMENT_3D('',#265,#266,#267);
#269=CIRCLE('',#268,44.0);
#270=EDGE_CURVE('',#222,#215,#269,.F.);
#271=ORIENTED_EDGE('',*,*,#270,.T.);
#272=ORIENTED_EDGE('',*,*,#219,.F.);
#273=EDGE_LOOP('',(#263,#264,#271,#272));
#274=FACE_BOUND('',#273,.F.);
#275=CARTESIAN_POINT('',(0.0,0.0,0.0));
#276=DIRECTION('',(0.0,0.0,1.0));
#277=DIRECTION('',(1.0,0.0,0.0));
#278=AXIS2_PLACEMENT_3D('',#275,#276,#277);
#279=CYLINDRICAL_SURFACE('',#278,44.0);
#280=ADVANCED_FACE('',(#274),#279,.T.);
#281=SHAPE_ASPECT('featured shape: face 4','',#38,.T.);
#282=PROPERTY_DEFINITION('','',#281);
#283=FACE_SHAPE_REPRESENTATION('',(#280),#29);
#284=SHAPE_DEFINITION_REPRESENTATION(#282,#283);
#289=(LENGTH_MEASURE_WITH_UNIT()MEASURE_REPRESENTATION_ITEM()MEASURE_WITH_UNIT(LENGTH_MEASURE(125.0),#152)REPRESENTATION_ITEM('surface finish'));
#290=REPRESENTATION('surface finish value',(#289),#29);
#291=PROPERTY_DEFINITION('surface property','surface finish',#281);
#292=PROPERTY_DEFINITION('surface property','surface finish',#281);
#293=PROPERTY_DEFINITION_REPRESENTATION(#292,#290);
#294=PROPERTY_DEFINITION_RELATIONSHIP('','',#291,#292);
#295=ORIENTED_EDGE('',*,*,#48,.F.);
#296=CARTESIAN_POINT('',(-38.474999999999994,4.711829E-15,5.0));
#297=VERTEX_POINT('',#296);
#298=DIRECTION('',(0.0,0.0,1.0));
#299=VECTOR('',#298,5.0);
#300=LINE('',#39,#299);
#301=EDGE_CURVE('',#41,#297,#300,.T.);
#302=ORIENTED_EDGE('',*,*,#301,.T.);
#303=CARTESIAN_POINT('',(38.474999999999994,0.0,5.0));
#304=VERTEX_POINT('',#303);
#305=CARTESIAN_POINT('',(0.0,0.0,5.0));
#306=DIRECTION('',(0.0,0.0,-1.0));
#307=DIRECTION('',(1.0,0.0,0.0));
#308=AXIS2_PLACEMENT_3D('',#305,#306,#307);
#309=CIRCLE('',#308,38.474999999999994);
#310=EDGE_CURVE('',#297,#304,#309,.F.);
#311=ORIENTED_EDGE('',*,*,#310,.T.);
#312=DIRECTION('',(0.0,0.0,1.0));
#313=VECTOR('',#312,5.0);
#314=LINE('',#40,#313);
#315=EDGE_CURVE('',#304,#42,#314,.F.);
#316=ORIENTED_EDGE('',*,*,#315,.T.);
#317=EDGE_LOOP('',(#295,#302,#311,#316));
#318=FACE_BOUND('',#317,.F.);
#319=CARTESIAN_POINT('',(0.0,0.0,5.250000000000000));
#320=DIRECTION('',(0.0,0.0,-1.0));
#321=DIRECTION('',(1.0,0.0,0.0));
#322=AXIS2_PLACEMENT_3D('',#319,#320,#321);
#323=CYLINDRICAL_SURFACE('',#322,38.474999999999994);
#324=ADVANCED_FACE('',(#318),#323,.T.);
#325=SHAPE_ASPECT('featured shape: face 5','',#38,.T.);
#326=PROPERTY_DEFINITION('','',#325);
#327=FACE_SHAPE_REPRESENTATION('',(#324),#29);
#328=SHAPE_DEFINITION_REPRESENTATION(#326,#327);
#333=(LENGTH_MEASURE_WITH_UNIT()MEASURE_REPRESENTATION_ITEM()MEASURE_WITH_UNIT(LENGTH_MEASURE(125.0),#152)REPRESENTATION_ITEM('surface finish'));
#334=REPRESENTATION('surface finish value',(#333),#29);
#335=PROPERTY_DEFINITION('surface property','surface finish',#325);
#336=PROPERTY_DEFINITION('surface property','surface finish',#325);
#337=PROPERTY_DEFINITION_REPRESENTATION(#336,#334);
#338=PROPERTY_DEFINITION_RELATIONSHIP('','',#335,#336);
#339=ORIENTED_EDGE('',*,*,#228,.F.);
#340=ORIENTED_EDGE('',*,*,#270,.F.);
#341=EDGE_LOOP('',(#339,#340));
#342=FACE_BOUND('',#341,.F.);
#343=ORIENTED_EDGE('',*,*,#310,.F.);
#344=CARTESIAN_POINT('',(0.0,0.0,5.0));
#345=DIRECTION('',(0.0,0.0,1.0));
#346=DIRECTION('',(1.0,0.0,0.0));
#347=AXIS2_PLACEMENT_3D('',#344,#345,#346);
#348=CIRCLE('',#347,38.474999999999994);
#349=EDGE_CURVE('',#297,#304,#348,.F.);
#350=ORIENTED_EDGE('',*,*,#349,.T.);
#351=EDGE_LOOP('',(#343,#350));
#352=FACE_BOUND('',#351,.F.);
#353=CARTESIAN_POINT('',(0.0,0.0,5.0));
#354=DIRECTION('',(0.0,0.0,-1.0));
#355=DIRECTION('',(1.0,0.0,0.0));
#356=AXIS2_PLACEMENT_3D('',#353,#354,#355);
#357=PLANE('',#356);
#358=ADVANCED_FACE('',(#342,#352),#357,.T.);
#359=SHAPE_ASPECT('featured shape: face 6','',#38,.T.);
#360=PROPERTY_DEFINITION('','',#359);
#361=FACE_SHAPE_REPRESENTATION('',(#358),#29);
#362=SHAPE_DEFINITION_REPRESENTATION(#360,#361);
#363=ORIENTED_EDGE('',*,*,#55,.F.);
#364=ORIENTED_EDGE('',*,*,#315,.F.);
#365=ORIENTED_EDGE('',*,*,#349,.F.);
#366=ORIENTED_EDGE('',*,*,#301,.F.);
#367=EDGE_LOOP('',(#363,#364,#365,#366));
#368=FACE_BOUND('',#367,.F.);
#369=CARTESIAN_POINT('',(0.0,0.0,5.250000000000000));
#370=DIRECTION('',(0.0,0.0,-1.0));
#371=DIRECTION('',(1.0,0.0,0.0));
#372=AXIS2_PLACEMENT_3D('',#369,#370,#371);
#373=CYLINDRICAL_SURFACE('',#372,38.474999999999994);
#374=ADVANCED_FACE('',(#368),#373,.T.);
#375=SHAPE_ASPECT('featured shape: face 7','',#38,.T.);
#376=PROPERTY_DEFINITION('','',#375);
#377=FACE_SHAPE_REPRESENTATION('',(#374),#29);
#378=SHAPE_DEFINITION_REPRESENTATION(#376,#377);
#383=(LENGTH_MEASURE_WITH_UNIT()MEASURE_REPRESENTATION_ITEM()MEASURE_WITH_UNIT(LENGTH_MEASURE(125.0),#152)REPRESENTATION_ITEM('surface finish'));
#384=REPRESENTATION('surface finish value',(#383),#29);
#385=PROPERTY_DEFINITION('surface property','surface finish',#375);
#386=PROPERTY_DEFINITION('surface property','surface finish',#375);
#387=PROPERTY_DEFINITION_REPRESENTATION(#386,#384);
#388=PROPERTY_DEFINITION_RELATIONSHIP('','',#385,#386);
#389=CARTESIAN_POINT('',(-18.924999999999997,7.075740E-15,15.000000000000002));
#390=CARTESIAN_POINT('',(-28.0,7.075740E-15,20.452810117675110));
#391=VERTEX_POINT('',#389);
#392=VERTEX_POINT('',#390);
#393=DIRECTION('',(0.857167300702112,0.0,-0.515038074910054));
#394=VECTOR('',#393,10.587198079729124);
#395=LINE('',#390,#394);
#396=EDGE_CURVE('',#391,#392,#395,.F.);
#397=ORIENTED_EDGE('',*,*,#396,.T.);
#398=CARTESIAN_POINT('',(-37.075000000000003,8.187107E-15,15.0));
#399=VERTEX_POINT('',#398);
#400=DIRECTION('',(-0.857167300702112,1.049727E-16,-0.515038074910054));
#401=VECTOR('',#400,10.587198079729125);
#402=LINE('',#390,#401);
#403=EDGE_CURVE('',#392,#399,#402,.T.);
#404=ORIENTED_EDGE('',*,*,#403,.T.);
#405=CARTESIAN_POINT('',(-28.0,7.075740E-15,14.999999999999996));
#406=DIRECTION('',(0.0,0.0,-1.0));
#407=DIRECTION('',(1.0,0.0,0.0));
#408=AXIS2_PLACEMENT_3D('',#405,#406,#407);
#409=CIRCLE('',#408,9.074999999999999);
#410=EDGE_CURVE('',#399,#391,#409,.F.);
#411=ORIENTED_EDGE('',*,*,#410,.T.);
#412=EDGE_LOOP('',(#397,#404,#411));
#413=FACE_BOUND('',#412,.F.);
#414=CARTESIAN_POINT('',(-28.0,7.075740E-15,15.0));
#415=DIRECTION('',(0.0,0.0,-1.0));
#416=DIRECTION('',(1.0,0.0,0.0));
#417=AXIS2_PLACEMENT_3D('',#414,#415,#416);
#418=CONICAL_SURFACE('',#417,9.074999999999999,59.000000000000007);
#419=ADVANCED_FACE('',(#413),#418,.F.);
#420=SHAPE_ASPECT('featured shape: face 8','',#38,.T.);
#421=PROPERTY_DEFINITION('','',#420);
#422=FACE_SHAPE_REPRESENTATION('',(#419),#29);
#423=SHAPE_DEFINITION_REPRESENTATION(#421,#422);
#424=ORIENTED_EDGE('',*,*,#68,.F.);
#425=DIRECTION('',(0.0,0.0,-1.0));
#426=VECTOR('',#425,15.0);
#427=LINE('',#389,#426);
#428=EDGE_CURVE('',#61,#391,#427,.F.);
#429=ORIENTED_EDGE('',*,*,#428,.T.);
#430=ORIENTED_EDGE('',*,*,#410,.F.);
#431=DIRECTION('',(0.0,0.0,-1.0));
#432=VECTOR('',#431,15.0);
#433=LINE('',#398,#432);
#434=EDGE_CURVE('',#399,#62,#433,.T.);
#435=ORIENTED_EDGE('',*,*,#434,.T.);
#436=EDGE_LOOP('',(#424,#429,#430,#435));
#437=FACE_BOUND('',#436,.F.);
#438=CARTESIAN_POINT('',(-28.0,7.075740E-15,21.475450623558867));
#439=DIRECTION('',(0.0,0.0,-1.0));
#440=DIRECTION('',(1.0,0.0,0.0));
#441=AXIS2_PLACEMENT_3D('',#438,#439,#440);
#442=CYLINDRICAL_SURFACE('',#441,9.074999999999999);
#443=ADVANCED_FACE('',(#437),#442,.F.);
#444=SHAPE_ASPECT('featured shape: face 9','',#38,.T.);
#445=PROPERTY_DEFINITION('','',#444);
#446=FACE_SHAPE_REPRESENTATION('',(#443),#29);
#447=SHAPE_DEFINITION_REPRESENTATION(#445,#446);
#448=ORIENTED_EDGE('',*,*,#396,.F.);
#449=CARTESIAN_POINT('',(-28.0,7.075740E-15,14.999999999999996));
#450=DIRECTION('',(0.0,0.0,1.0));
#451=DIRECTION('',(1.0,0.0,0.0));
#452=AXIS2_PLACEMENT_3D('',#449,#450,#451);
#453=CIRCLE('',#452,9.074999999999999);
#454=EDGE_CURVE('',#391,#399,#453,.T.);
#455=ORIENTED_EDGE('',*,*,#454,.T.);
#456=ORIENTED_EDGE('',*,*,#403,.F.);
#457=EDGE_LOOP('',(#448,#455,#456));
#458=FACE_BOUND('',#457,.F.);
#459=CARTESIAN_POINT('',(-28.0,7.075740E-15,15.0));
#460=DIRECTION('',(0.0,0.0,-1.0));
#461=DIRECTION('',(1.0,0.0,0.0));
#462=AXIS2_PLACEMENT_3D('',#459,#460,#461);
#463=CONICAL_SURFACE('',#462,9.074999999999999,59.000000000000007);
#464=ADVANCED_FACE('',(#458),#463,.F.);
#465=SHAPE_ASPECT('featured shape: face 10','',#38,.T.);
#466=PROPERTY_DEFINITION('','',#465);
#467=FACE_SHAPE_REPRESENTATION('',(#464),#29);
#468=SHAPE_DEFINITION_REPRESENTATION(#466,#467);
#469=ORIENTED_EDGE('',*,*,#75,.F.);
#470=ORIENTED_EDGE('',*,*,#434,.F.);
#471=ORIENTED_EDGE('',*,*,#454,.F.);
#472=ORIENTED_EDGE('',*,*,#428,.F.);
#473=EDGE_LOOP('',(#469,#470,#471,#472));
#474=FACE_BOUND('',#473,.F.);
#475=CARTESIAN_POINT('',(-28.0,7.075740E-15,21.475450623558867));
#476=DIRECTION('',(0.0,0.0,-1.0));
#477=DIRECTION('',(1.0,0.0,0.0));
#478=AXIS2_PLACEMENT_3D('',#475,#476,#477);
#479=CYLINDRICAL_SURFACE('',#478,9.074999999999999);
#480=ADVANCED_FACE('',(#474),#479,.F.);
#481=SHAPE_ASPECT('featured shape: face 11','',#38,.T.);
#482=PROPERTY_DEFINITION('','',#481);
#483=FACE_SHAPE_REPRESENTATION('',(#480),#29);
#484=SHAPE_DEFINITION_REPRESENTATION(#482,#483);
#485=CARTESIAN_POINT('',(23.075000000000003,-24.248711305964271,15.000000000000002));
#486=CARTESIAN_POINT('',(14.0,-24.248711305964271,20.452810117675110));
#487=VERTEX_POINT('',#485);
#488=VERTEX_POINT('',#486);
#489=DIRECTION('',(0.857167300702112,0.0,-0.515038074910054));
#490=VECTOR('',#489,10.587198079729124);
#491=LINE('',#486,#490);
#492=EDGE_CURVE('',#487,#488,#491,.F.);
#493=ORIENTED_EDGE('',*,*,#492,.T.);
#494=CARTESIAN_POINT('',(4.925000000000001,-24.248711305964271,15.0));
#495=VERTEX_POINT('',#494);
#496=DIRECTION('',(-0.857167300702112,0.0,-0.515038074910054));
#497=VECTOR('',#496,10.587198079729124);
#498=LINE('',#486,#497);
#499=EDGE_CURVE('',#488,#495,#498,.T.);
#500=ORIENTED_EDGE('',*,*,#499,.T.);
#501=CARTESIAN_POINT('',(14.0,-24.248711305964271,14.999999999999996));
#502=DIRECTION('',(0.0,0.0,-1.0));
#503=DIRECTION('',(1.0,0.0,0.0));
#504=AXIS2_PLACEMENT_3D('',#501,#502,#503);
#505=CIRCLE('',#504,9.074999999999999);
#506=EDGE_CURVE('',#495,#487,#505,.F.);
#507=ORIENTED_EDGE('',*,*,#506,.T.);
#508=EDGE_LOOP('',(#493,#500,#507));
#509=FACE_BOUND('',#508,.F.);
#510=CARTESIAN_POINT('',(14.0,-24.248711305964271,15.0));
#511=DIRECTION('',(0.0,0.0,-1.0));
#512=DIRECTION('',(1.0,0.0,0.0));
#513=AXIS2_PLACEMENT_3D('',#510,#511,#512);
#514=CONICAL_SURFACE('',#513,9.074999999999999,59.000000000000007);
#515=ADVANCED_FACE('',(#509),#514,.F.);
#516=SHAPE_ASPECT('featured shape: face 12','',#38,.T.);
#517=PROPERTY_DEFINITION('','',#516);
#518=FACE_SHAPE_REPRESENTATION('',(#515),#29);
#519=SHAPE_DEFINITION_REPRESENTATION(#517,#518);
#520=ORIENTED_EDGE('',*,*,#88,.F.);
#521=DIRECTION('',(0.0,0.0,-1.0));
#522=VECTOR('',#521,15.0);
#523=LINE('',#485,#522);
#524=EDGE_CURVE('',#81,#487,#523,.F.);
#525=ORIENTED_EDGE('',*,*,#524,.T.);
#526=ORIENTED_EDGE('',*,*,#506,.F.);
#527=DIRECTION('',(0.0,0.0,-1.0));
#528=VECTOR('',#527,15.0);
#529=LINE('',#494,#528);
#530=EDGE_CURVE('',#495,#82,#529,.T.);
#531=ORIENTED_EDGE('',*,*,#530,.T.);
#532=EDGE_LOOP('',(#520,#525,#526,#531));
#533=FACE_BOUND('',#532,.F.);
#534=CARTESIAN_POINT('',(14.0,-24.248711305964271,21.475450623558867));
#535=DIRECTION('',(0.0,0.0,-1.0));
#536=DIRECTION('',(1.0,0.0,0.0));
#537=AXIS2_PLACEMENT_3D('',#534,#535,#536);
#538=CYLINDRICAL_SURFACE('',#537,9.074999999999999);
#539=ADVANCED_FACE('',(#533),#538,.F.);
#540=SHAPE_ASPECT('featured shape: face 13','',#38,.T.);
#541=PROPERTY_DEFINITION('','',#540);
#542=FACE_SHAPE_REPRESENTATION('',(#539),#29);
#543=SHAPE_DEFINITION_REPRESENTATION(#541,#542);
#544=ORIENTED_EDGE('',*,*,#492,.F.);
#545=CARTESIAN_POINT('',(14.0,-24.248711305964271,14.999999999999996));
#546=DIRECTION('',(0.0,0.0,1.0));
#547=DIRECTION('',(1.0,0.0,0.0));
#548=AXIS2_PLACEMENT_3D('',#545,#546,#547);
#549=CIRCLE('',#548,9.074999999999999);
#550=EDGE_CURVE('',#487,#495,#549,.T.);
#551=ORIENTED_EDGE('',*,*,#550,.T.);
#552=ORIENTED_EDGE('',*,*,#499,.F.);
#553=EDGE_LOOP('',(#544,#551,#552));
#554=FACE_BOUND('',#553,.F.);
#555=CARTESIAN_POINT('',(14.0,-24.248711305964271,15.0));
#556=DIRECTION('',(0.0,0.0,-1.0));
#557=DIRECTION('',(1.0,0.0,0.0));
#558=AXIS2_PLACEMENT_3D('',#555,#556,#557);
#559=CONICAL_SURFACE('',#558,9.074999999999999,59.000000000000007);
#560=ADVANCED_FACE('',(#554),#559,.F.);
#561=SHAPE_ASPECT('featured shape: face 14','',#38,.T.);
#562=PROPERTY_DEFINITION('','',#561);
#563=FACE_SHAPE_REPRESENTATION('',(#560),#29);
#564=SHAPE_DEFINITION_REPRESENTATION(#562,#563);
#565=ORIENTED_EDGE('',*,*,#95,.F.);
#566=ORIENTED_EDGE('',*,*,#530,.F.);
#567=ORIENTED_EDGE('',*,*,#550,.F.);
#568=ORIENTED_EDGE('',*,*,#524,.F.);
#569=EDGE_LOOP('',(#565,#566,#567,#568));
#570=FACE_BOUND('',#569,.F.);
#571=CARTESIAN_POINT('',(14.0,-24.248711305964271,21.475450623558867));
#572=DIRECTION('',(0.0,0.0,-1.0));
#573=DIRECTION('',(1.0,0.0,0.0));
#574=AXIS2_PLACEMENT_3D('',#571,#572,#573);
#575=CYLINDRICAL_SURFACE('',#574,9.074999999999999);
#576=ADVANCED_FACE('',(#570),#575,.F.);
#577=SHAPE_ASPECT('featured shape: face 15','',#38,.T.);
#578=PROPERTY_DEFINITION('','',#577);
#579=FACE_SHAPE_REPRESENTATION('',(#576),#29);
#580=SHAPE_DEFINITION_REPRESENTATION(#578,#579);
#581=CARTESIAN_POINT('',(23.075000000000003,24.248711305964289,15.000000000000002));
#582=CARTESIAN_POINT('',(14.0,24.248711305964289,20.452810117675110));
#583=VERTEX_POINT('',#581);
#584=VERTEX_POINT('',#582);
#585=DIRECTION('',(0.857167300702112,0.0,-0.515038074910054));
#586=VECTOR('',#585,10.587198079729124);
#587=LINE('',#582,#586);
#588=EDGE_CURVE('',#583,#584,#587,.F.);
#589=ORIENTED_EDGE('',*,*,#588,.T.);
#590=CARTESIAN_POINT('',(4.925000000000001,24.248711305964289,15.0));
#591=VERTEX_POINT('',#590);
#592=DIRECTION('',(-0.857167300702112,0.0,-0.515038074910054));
#593=VECTOR('',#592,10.587198079729124);
#594=LINE('',#582,#593);
#595=EDGE_CURVE('',#584,#591,#594,.T.);
#596=ORIENTED_EDGE('',*,*,#595,.T.);
#597=CARTESIAN_POINT('',(14.0,24.248711305964289,14.999999999999996));
#598=DIRECTION('',(0.0,0.0,-1.0));
#599=DIRECTION('',(1.0,0.0,0.0));
#600=AXIS2_PLACEMENT_3D('',#597,#598,#599);
#601=CIRCLE('',#600,9.074999999999999);
#602=EDGE_CURVE('',#591,#583,#601,.F.);
#603=ORIENTED_EDGE('',*,*,#602,.T.);
#604=EDGE_LOOP('',(#589,#596,#603));
#605=FACE_BOUND('',#604,.F.);
#606=CARTESIAN_POINT('',(14.0,24.248711305964289,15.0));
#607=DIRECTION('',(0.0,0.0,-1.0));
#608=DIRECTION('',(1.0,0.0,0.0));
#609=AXIS2_PLACEMENT_3D('',#606,#607,#608);
#610=CONICAL_SURFACE('',#609,9.074999999999999,59.000000000000007);
#611=ADVANCED_FACE('',(#605),#610,.F.);
#612=SHAPE_ASPECT('featured shape: face 16','',#38,.T.);
#613=PROPERTY_DEFINITION('','',#612);
#614=FACE_SHAPE_REPRESENTATION('',(#611),#29);
#615=SHAPE_DEFINITION_REPRESENTATION(#613,#614);
#616=ORIENTED_EDGE('',*,*,#108,.F.);
#617=DIRECTION('',(0.0,0.0,-1.0));
#618=VECTOR('',#617,15.0);
#619=LINE('',#581,#618);
#620=EDGE_CURVE('',#101,#583,#619,.F.);
#621=ORIENTED_EDGE('',*,*,#620,.T.);
#622=ORIENTED_EDGE('',*,*,#602,.F.);
#623=DIRECTION('',(0.0,0.0,-1.0));
#624=VECTOR('',#623,15.0);
#625=LINE('',#590,#624);
#626=EDGE_CURVE('',#591,#102,#625,.T.);
#627=ORIENTED_EDGE('',*,*,#626,.T.);
#628=EDGE_LOOP('',(#616,#621,#622,#627));
#629=FACE_BOUND('',#628,.F.);
#630=CARTESIAN_POINT('',(14.0,24.248711305964289,21.475450623558867));
#631=DIRECTION('',(0.0,0.0,-1.0));
#632=DIRECTION('',(1.0,0.0,0.0));
#633=AXIS2_PLACEMENT_3D('',#630,#631,#632);
#634=CYLINDRICAL_SURFACE('',#633,9.074999999999999);
#635=ADVANCED_FACE('',(#629),#634,.F.);
#636=SHAPE_ASPECT('featured shape: face 17','',#38,.T.);
#637=PROPERTY_DEFINITION('','',#636);
#638=FACE_SHAPE_REPRESENTATION('',(#635),#29);
#639=SHAPE_DEFINITION_REPRESENTATION(#637,#638);
#640=ORIENTED_EDGE('',*,*,#588,.F.);
#641=CARTESIAN_POINT('',(14.0,24.248711305964289,14.999999999999996));
#642=DIRECTION('',(0.0,0.0,1.0));
#643=DIRECTION('',(1.0,0.0,0.0));
#644=AXIS2_PLACEMENT_3D('',#641,#642,#643);
#645=CIRCLE('',#644,9.074999999999999);
#646=EDGE_CURVE('',#583,#591,#645,.T.);
#647=ORIENTED_EDGE('',*,*,#646,.T.);
#648=ORIENTED_EDGE('',*,*,#595,.F.);
#649=EDGE_LOOP('',(#640,#647,#648));
#650=FACE_BOUND('',#649,.F.);
#651=CARTESIAN_POINT('',(14.0,24.248711305964289,15.0));
#652=DIRECTION('',(0.0,0.0,-1.0));
#653=DIRECTION('',(1.0,0.0,0.0));
#654=AXIS2_PLACEMENT_3D('',#651,#652,#653);
#655=CONICAL_SURFACE('',#654,9.074999999999999,59.000000000000007);
#656=ADVANCED_FACE('',(#650),#655,.F.);
#657=SHAPE_ASPECT('featured shape: face 18','',#38,.T.);
#658=PROPERTY_DEFINITION('','',#657);
#659=FACE_SHAPE_REPRESENTATION('',(#656),#29);
#660=SHAPE_DEFINITION_REPRESENTATION(#658,#659);
#661=ORIENTED_EDGE('',*,*,#115,.F.);
#662=ORIENTED_EDGE('',*,*,#626,.F.);
#663=ORIENTED_EDGE('',*,*,#646,.F.);
#664=ORIENTED_EDGE('',*,*,#620,.F.);
#665=EDGE_LOOP('',(#661,#662,#663,#664));
#666=FACE_BOUND('',#665,.F.);
#667=CARTESIAN_POINT('',(14.0,24.248711305964289,21.475450623558867));
#668=DIRECTION('',(0.0,0.0,-1.0));
#669=DIRECTION('',(1.0,0.0,0.0));
#670=AXIS2_PLACEMENT_3D('',#667,#668,#669);
#671=CYLINDRICAL_SURFACE('',#670,9.074999999999999);
#672=ADVANCED_FACE('',(#666),#671,.F.);
#673=SHAPE_ASPECT('featured shape: face 19','',#38,.T.);
#674=PROPERTY_DEFINITION('','',#673);
#675=FACE_SHAPE_REPRESENTATION('',(#672),#29);
#676=SHAPE_DEFINITION_REPRESENTATION(#674,#675);
#677=CARTESIAN_POINT('',(7.0,7.075740E-15,24.0));
#678=CARTESIAN_POINT('',(0.0,7.075740E-15,28.041451884327380));
#679=VERTEX_POINT('',#677);
#680=VERTEX_POINT('',#678);
#681=DIRECTION('',(0.866025403784439,0.0,-0.500000000000000));
#682=VECTOR('',#681,8.082903768654761);
#683=LINE('',#678,#682);
#684=EDGE_CURVE('',#679,#680,#683,.F.);
#685=ORIENTED_EDGE('',*,*,#684,.T.);
#686=CARTESIAN_POINT('',(-7.0,7.932992E-15,24.0));
#687=VERTEX_POINT('',#686);
#688=DIRECTION('',(-0.866025403784439,1.060575E-16,-0.500000000000000));
#689=VECTOR('',#688,8.082903768654761);
#690=LINE('',#678,#689);
#691=EDGE_CURVE('',#680,#687,#690,.T.);
#692=ORIENTED_EDGE('',*,*,#691,.T.);
#693=CARTESIAN_POINT('',(0.0,7.075740E-15,24.0));
#694=DIRECTION('',(0.0,0.0,-1.0));
#695=DIRECTION('',(1.0,0.0,0.0));
#696=AXIS2_PLACEMENT_3D('',#693,#694,#695);
#697=CIRCLE('',#696,7.0);
#698=EDGE_CURVE('',#687,#679,#697,.F.);
#699=ORIENTED_EDGE('',*,*,#698,.T.);
#700=EDGE_LOOP('',(#685,#692,#699));
#701=FACE_BOUND('',#700,.F.);
#702=CARTESIAN_POINT('',(0.0,7.075740E-15,24.0));
#703=DIRECTION('',(0.0,0.0,-1.0));
#704=DIRECTION('',(1.0,0.0,0.0));
#705=AXIS2_PLACEMENT_3D('',#702,#703,#704);
#706=CONICAL_SURFACE('',#705,7.0,60.000000000000007);
#707=ADVANCED_FACE('',(#701),#706,.F.);
#708=SHAPE_ASPECT('featured shape: face 20','',#38,.T.);
#709=PROPERTY_DEFINITION('','',#708);
#710=FACE_SHAPE_REPRESENTATION('',(#707),#29);
#711=SHAPE_DEFINITION_REPRESENTATION(#709,#710);
#712=ORIENTED_EDGE('',*,*,#128,.F.);
#713=DIRECTION('',(0.0,0.0,-1.0));
#714=VECTOR('',#713,24.0);
#715=LINE('',#677,#714);
#716=EDGE_CURVE('',#121,#679,#715,.F.);
#717=ORIENTED_EDGE('',*,*,#716,.T.);
#718=ORIENTED_EDGE('',*,*,#698,.F.);
#719=DIRECTION('',(0.0,0.0,-1.0));
#720=VECTOR('',#719,24.0);
#721=LINE('',#686,#720);
#722=EDGE_CURVE('',#687,#122,#721,.T.);
#723=ORIENTED_EDGE('',*,*,#722,.T.);
#724=EDGE_LOOP('',(#712,#717,#718,#723));
#725=FACE_BOUND('',#724,.F.);
#726=CARTESIAN_POINT('',(0.0,7.075740E-15,29.443524478543750));
#727=DIRECTION('',(0.0,0.0,-1.0));
#728=DIRECTION('',(1.0,0.0,0.0));
#729=AXIS2_PLACEMENT_3D('',#726,#727,#728);
#730=CYLINDRICAL_SURFACE('',#729,7.0);
#731=ADVANCED_FACE('',(#725),#730,.F.);
#732=SHAPE_ASPECT('featured shape: face 21','',#38,.T.);
#733=PROPERTY_DEFINITION('','',#732);
#734=FACE_SHAPE_REPRESENTATION('',(#731),#29);
#735=SHAPE_DEFINITION_REPRESENTATION(#733,#734);
#736=ORIENTED_EDGE('',*,*,#684,.F.);
#737=CARTESIAN_POINT('',(0.0,7.075740E-15,24.0));
#738=DIRECTION('',(0.0,0.0,1.0));
#739=DIRECTION('',(1.0,0.0,0.0));
#740=AXIS2_PLACEMENT_3D('',#737,#738,#739);
#741=CIRCLE('',#740,7.0);
#742=EDGE_CURVE('',#679,#687,#741,.T.);
#743=ORIENTED_EDGE('',*,*,#742,.T.);
#744=ORIENTED_EDGE('',*,*,#691,.F.);
#745=EDGE_LOOP('',(#736,#743,#744));
#746=FACE_BOUND('',#745,.F.);
#747=CARTESIAN_POINT('',(0.0,7.075740E-15,24.0));
#748=DIRECTION('',(0.0,0.0,-1.0));
#749=DIRECTION('',(1.0,0.0,0.0));
#750=AXIS2_PLACEMENT_3D('',#747,#748,#749);
#751=CONICAL_SURFACE('',#750,7.0,60.000000000000007);
#752=ADVANCED_FACE('',(#746),#751,.F.);
#753=SHAPE_ASPECT('featured shape: face 22','',#38,.T.);
#754=PROPERTY_DEFINITION('','',#753);
#755=FACE_SHAPE_REPRESENTATION('',(#752),#29);
#756=SHAPE_DEFINITION_REPRESENTATION(#754,#755);
#757=ORIENTED_EDGE('',*,*,#135,.F.);
#758=ORIENTED_EDGE('',*,*,#722,.F.);
#759=ORIENTED_EDGE('',*,*,#742,.F.);
#760=ORIENTED_EDGE('',*,*,#716,.F.);
#761=EDGE_LOOP('',(#757,#758,#759,#760));
#762=FACE_BOUND('',#761,.F.);
#763=CARTESIAN_POINT('',(0.0,7.075740E-15,29.443524478543750));
#764=DIRECTION('',(0.0,0.0,-1.0));
#765=DIRECTION('',(1.0,0.0,0.0));
#766=AXIS2_PLACEMENT_3D('',#763,#764,#765);
#767=CYLINDRICAL_SURFACE('',#766,7.0);
#768=ADVANCED_FACE('',(#762),#767,.F.);
#769=SHAPE_ASPECT('featured shape: face 23','',#38,.T.);
#770=PROPERTY_DEFINITION('','',#769);
#771=FACE_SHAPE_REPRESENTATION('',(#768),#29);
#772=SHAPE_DEFINITION_REPRESENTATION(#770,#771);
#773=CARTESIAN_POINT('',(-3.918870E-15,32.000000000000007,102.000000000000085));
#774=CARTESIAN_POINT('',(32.0,5.116305E-15,102.000000000000028));
#775=VERTEX_POINT('',#773);
#776=VERTEX_POINT('',#774);
#777=CARTESIAN_POINT('',(0.0,0.0,102.000000000000057));
#778=DIRECTION('',(0.0,0.0,1.0));
#779=DIRECTION('',(1.0,1.598845E-16,0.0));
#780=AXIS2_PLACEMENT_3D('',#777,#778,#779);
#781=CIRCLE('',#780,32.000000000000007);
#782=EDGE_CURVE('',#775,#776,#781,.F.);
#783=ORIENTED_EDGE('',*,*,#782,.T.);
#784=CARTESIAN_POINT('',(0.0,-31.999999999999993,101.999999999999986));
#785=VERTEX_POINT('',#784);
#786=CARTESIAN_POINT('',(0.0,0.0,102.0));
#787=DIRECTION('',(0.0,0.0,1.0));
#788=DIRECTION('',(0.0,-1.0,0.0));
#789=AXIS2_PLACEMENT_3D('',#786,#787,#788);
#790=CIRCLE('',#789,31.999999999999993);
#791=EDGE_CURVE('',#776,#785,#790,.F.);
#792=ORIENTED_EDGE('',*,*,#791,.T.);
#793=CARTESIAN_POINT('',(0.0,-31.999999999999996,139.299999999999983));
#794=VERTEX_POINT('',#793);
#795=DIRECTION('',(0.0,0.0,-1.0));
#796=VECTOR('',#795,37.300000000000011);
#797=LINE('',#793,#796);
#798=EDGE_CURVE('',#785,#794,#797,.F.);
#799=ORIENTED_EDGE('',*,*,#798,.T.);
#800=CARTESIAN_POINT('',(2.131628E-14,32.000000000000007,139.300000000000011));
#801=VERTEX_POINT('',#800);
#802=CARTESIAN_POINT('',(0.0,7.075740E-15,139.299999999999983));
#803=DIRECTION('',(0.0,0.0,1.0));
#804=DIRECTION('',(0.0,-1.0,0.0));
#805=AXIS2_PLACEMENT_3D('',#802,#803,#804);
#806=CIRCLE('',#805,32.000000000000007);
#807=EDGE_CURVE('',#794,#801,#806,.T.);
#808=ORIENTED_EDGE('',*,*,#807,.T.);
#809=DIRECTION('',(0.0,0.0,-1.0));
#810=VECTOR('',#809,37.299999999999926);
#811=LINE('',#800,#810);
#812=EDGE_CURVE('',#801,#775,#811,.T.);
#813=ORIENTED_EDGE('',*,*,#812,.T.);
#814=EDGE_LOOP('',(#783,#792,#799,#808,#813));
#815=FACE_BOUND('',#814,.F.);
#816=CARTESIAN_POINT('',(0.0,7.075740E-15,100.0));
#817=DIRECTION('',(0.0,0.0,1.0));
#818=DIRECTION('',(0.0,-1.0,0.0));
#819=AXIS2_PLACEMENT_3D('',#816,#817,#818);
#820=CYLINDRICAL_SURFACE('',#819,32.0);
#821=ADVANCED_FACE('',(#815),#820,.T.);
#822=SHAPE_ASPECT('featured shape: face 24','',#38,.T.);
#823=PROPERTY_DEFINITION('','',#822);
#824=FACE_SHAPE_REPRESENTATION('',(#821),#29);
#825=SHAPE_DEFINITION_REPRESENTATION(#823,#824);
#826=CARTESIAN_POINT('',(-32.0,5.116305E-15,102.000000000000043));
#827=VERTEX_POINT('',#826);
#828=CARTESIAN_POINT('',(0.0,7.075740E-15,102.000000000000071));
#829=DIRECTION('',(0.0,0.0,-1.0));
#830=DIRECTION('',(-1.0,-6.123234E-17,0.0));
#831=AXIS2_PLACEMENT_3D('',#828,#829,#830);
#832=CIRCLE('',#831,32.0);
#833=EDGE_CURVE('',#827,#775,#832,.T.);
#834=ORIENTED_EDGE('',*,*,#833,.T.);
#835=ORIENTED_EDGE('',*,*,#812,.F.);
#836=CARTESIAN_POINT('',(0.0,7.075740E-15,139.299999999999983));
#837=DIRECTION('',(0.0,0.0,1.0));
#838=DIRECTION('',(-1.224647E-16,1.0,0.0));
#839=AXIS2_PLACEMENT_3D('',#836,#837,#838);
#840=CIRCLE('',#839,32.000000000000007);
#841=EDGE_CURVE('',#801,#794,#840,.T.);
#842=ORIENTED_EDGE('',*,*,#841,.T.);
#843=ORIENTED_EDGE('',*,*,#798,.F.);
#844=CARTESIAN_POINT('',(0.0,7.075740E-15,102.000000000000014));
#845=DIRECTION('',(0.0,0.0,-1.0));
#846=DIRECTION('',(0.0,-1.0,0.0));
#847=AXIS2_PLACEMENT_3D('',#844,#845,#846);
#848=CIRCLE('',#847,32.0);
#849=EDGE_CURVE('',#785,#827,#848,.T.);
#850=ORIENTED_EDGE('',*,*,#849,.T.);
#851=EDGE_LOOP('',(#834,#835,#842,#843,#850));
#852=FACE_BOUND('',#851,.F.);
#853=CARTESIAN_POINT('',(0.0,7.075740E-15,100.0));
#854=DIRECTION('',(0.0,0.0,1.0));
#855=DIRECTION('',(0.0,-1.0,0.0));
#856=AXIS2_PLACEMENT_3D('',#853,#854,#855);
#857=CYLINDRICAL_SURFACE('',#856,32.0);
#858=ADVANCED_FACE('',(#852),#857,.T.);
#859=SHAPE_ASPECT('featured shape: face 25','',#38,.T.);
#860=PROPERTY_DEFINITION('','',#859);
#861=FACE_SHAPE_REPRESENTATION('',(#858),#29);
#862=SHAPE_DEFINITION_REPRESENTATION(#860,#861);
#863=ORIENTED_EDGE('',*,*,#212,.F.);
#864=ORIENTED_EDGE('',*,*,#262,.F.);
#865=EDGE_LOOP('',(#863,#864));
#866=FACE_BOUND('',#865,.F.);
#867=CARTESIAN_POINT('',(-33.500000000000000,0.0,35.0));
#868=CARTESIAN_POINT('',(33.500000000000000,0.0,35.0));
#869=VERTEX_POINT('',#867);
#870=VERTEX_POINT('',#868);
#871=CARTESIAN_POINT('',(0.0,0.0,35.0));
#872=DIRECTION('',(0.0,0.0,1.0));
#873=DIRECTION('',(-1.0,0.0,0.0));
#874=AXIS2_PLACEMENT_3D('',#871,#872,#873);
#875=CIRCLE('',#874,33.499999999999993);
#876=EDGE_CURVE('',#869,#870,#875,.T.);
#877=ORIENTED_EDGE('',*,*,#876,.T.);
#878=CARTESIAN_POINT('',(0.0,0.0,35.0));
#879=DIRECTION('',(0.0,0.0,-1.0));
#880=DIRECTION('',(-1.0,0.0,0.0));
#881=AXIS2_PLACEMENT_3D('',#878,#879,#880);
#882=CIRCLE('',#881,33.499999999999993);
#883=EDGE_CURVE('',#870,#869,#882,.F.);
#884=ORIENTED_EDGE('',*,*,#883,.T.);
#885=EDGE_LOOP('',(#877,#884));
#886=FACE_BOUND('',#885,.F.);
#887=CARTESIAN_POINT('',(0.0,0.0,35.0));
#888=DIRECTION('',(0.0,0.0,-1.0));
#889=DIRECTION('',(-1.0,0.0,0.0));
#890=AXIS2_PLACEMENT_3D('',#887,#888,#889);
#891=PLANE('',#890);
#892=ADVANCED_FACE('',(#866,#886),#891,.F.);
#893=SHAPE_ASPECT('featured shape: face 26','',#38,.T.);
#894=PROPERTY_DEFINITION('','',#893);
#895=FACE_SHAPE_REPRESENTATION('',(#892),#29);
#896=SHAPE_DEFINITION_REPRESENTATION(#894,#895);
#901=(LENGTH_MEASURE_WITH_UNIT()MEASURE_REPRESENTATION_ITEM()MEASURE_WITH_UNIT(LENGTH_MEASURE(125.0),#152)REPRESENTATION_ITEM('surface finish'));
#902=REPRESENTATION('surface finish value',(#901),#29);
#903=PROPERTY_DEFINITION('surface property','surface finish',#893);
#904=PROPERTY_DEFINITION('surface property','surface finish',#893);
#905=PROPERTY_DEFINITION_REPRESENTATION(#904,#902);
#906=PROPERTY_DEFINITION_RELATIONSHIP('','',#903,#904);
#907=CARTESIAN_POINT('',(-26.0,0.0,42.500000000000000));
#908=VERTEX_POINT('',#907);
#909=CARTESIAN_POINT('',(-33.500000000000000,0.0,42.500000000000000));
#910=DIRECTION('',(0.0,-1.0,0.0));
#911=DIRECTION('',(0.0,0.0,-1.0));
#912=AXIS2_PLACEMENT_3D('',#909,#910,#911);
#913=CIRCLE('',#912,7.500000000000000);
#914=EDGE_CURVE('',#908,#869,#913,.F.);
#915=ORIENTED_EDGE('',*,*,#914,.T.);
#916=ORIENTED_EDGE('',*,*,#883,.F.);
#917=CARTESIAN_POINT('',(26.0,-3.184082E-15,42.500000000000000));
#918=VERTEX_POINT('',#917);
#919=CARTESIAN_POINT('',(33.500000000000000,-4.102567E-15,42.500000000000000));
#920=DIRECTION('',(1.224647E-16,1.0,0.0));
#921=DIRECTION('',(0.0,0.0,-1.0));
#922=AXIS2_PLACEMENT_3D('',#919,#920,#921);
#923=CIRCLE('',#922,7.500000000000000);
#924=EDGE_CURVE('',#870,#918,#923,.T.);
#925=ORIENTED_EDGE('',*,*,#924,.T.);
#926=CARTESIAN_POINT('',(0.0,0.0,42.500000000000000));
#927=DIRECTION('',(0.0,0.0,-1.0));
#928=DIRECTION('',(-1.0,0.0,0.0));
#929=AXIS2_PLACEMENT_3D('',#926,#927,#928);
#930=CIRCLE('',#929,26.0);
#931=EDGE_CURVE('',#918,#908,#930,.F.);
#932=ORIENTED_EDGE('',*,*,#931,.T.);
#933=EDGE_LOOP('',(#915,#916,#925,#932));
#934=FACE_BOUND('',#933,.F.);
#935=CARTESIAN_POINT('',(0.0,0.0,42.500000000000000));
#936=DIRECTION('',(0.0,0.0,-1.0));
#937=DIRECTION('',(-1.0,0.0,0.0));
#938=AXIS2_PLACEMENT_3D('',#935,#936,#937);
#939=TOROIDAL_SURFACE('',#938,33.500000000000000,7.500000000000000);
#940=ADVANCED_FACE('',(#934),#939,.F.);
#941=SHAPE_ASPECT('featured shape: face 27','',#38,.T.);
#942=PROPERTY_DEFINITION('','',#941);
#943=FACE_SHAPE_REPRESENTATION('',(#940),#29);
#944=SHAPE_DEFINITION_REPRESENTATION(#942,#943);
#949=(LENGTH_MEASURE_WITH_UNIT()MEASURE_REPRESENTATION_ITEM()MEASURE_WITH_UNIT(LENGTH_MEASURE(32.0),#152)REPRESENTATION_ITEM('surface finish'));
#950=REPRESENTATION('surface finish value',(#949),#29);
#951=PROPERTY_DEFINITION('surface property','surface finish',#941);
#952=PROPERTY_DEFINITION('surface property','surface finish',#941);
#953=PROPERTY_DEFINITION_REPRESENTATION(#952,#950);
#954=PROPERTY_DEFINITION_RELATIONSHIP('','',#951,#952);
#955=CARTESIAN_POINT('',(-26.0,0.0,67.316144105849318));
#956=VERTEX_POINT('',#955);
#957=DIRECTION('',(0.0,0.0,1.0));
#958=VECTOR('',#957,24.816144105849318);
#959=LINE('',#907,#958);
#960=EDGE_CURVE('',#956,#908,#959,.F.);
#961=ORIENTED_EDGE('',*,*,#960,.T.);
#962=ORIENTED_EDGE('',*,*,#931,.F.);
#963=CARTESIAN_POINT('',(26.0,-3.184082E-15,67.316144105849318));
#964=VERTEX_POINT('',#963);
#965=DIRECTION('',(0.0,0.0,1.0));
#966=VECTOR('',#965,24.816144105849318);
#967=LINE('',#917,#966);
#968=EDGE_CURVE('',#918,#964,#967,.T.);
#969=ORIENTED_EDGE('',*,*,#968,.T.);
#970=CARTESIAN_POINT('',(0.0,0.0,67.316144105849318));
#971=DIRECTION('',(0.0,0.0,-1.0));
#972=DIRECTION('',(-1.0,0.0,0.0));
#973=AXIS2_PLACEMENT_3D('',#970,#971,#972);
#974=CIRCLE('',#973,26.0);
#975=EDGE_CURVE('',#964,#956,#974,.F.);
#976=ORIENTED_EDGE('',*,*,#975,.T.);
#977=EDGE_LOOP('',(#961,#962,#969,#976));
#978=FACE_BOUND('',#977,.F.);
#979=CARTESIAN_POINT('',(0.0,0.0,176.808150927183277));
#980=DIRECTION('',(0.0,0.0,-1.0));
#981=DIRECTION('',(-1.0,0.0,0.0));
#982=AXIS2_PLACEMENT_3D('',#979,#980,#981);
#983=CYLINDRICAL_SURFACE('',#982,26.0);
#984=ADVANCED_FACE('',(#978),#983,.T.);
#985=SHAPE_ASPECT('featured shape: face 28','',#38,.T.);
#986=PROPERTY_DEFINITION('','',#985);
#987=FACE_SHAPE_REPRESENTATION('',(#984),#29);
#988=SHAPE_DEFINITION_REPRESENTATION(#986,#987);
#993=(LENGTH_MEASURE_WITH_UNIT()MEASURE_REPRESENTATION_ITEM()MEASURE_WITH_UNIT(LENGTH_MEASURE(32.0),#152)REPRESENTATION_ITEM('surface finish'));
#994=REPRESENTATION('surface finish value',(#993),#29);
#995=PROPERTY_DEFINITION('surface property','surface finish',#985);
#996=PROPERTY_DEFINITION('surface property','surface finish',#985);
#997=PROPERTY_DEFINITION_REPRESENTATION(#996,#994);
#998=PROPERTY_DEFINITION_RELATIONSHIP('','',#995,#996);
#999=CARTESIAN_POINT('',(-26.113941852408441,0.0,68.618505438351292));
#1000=VERTEX_POINT('',#999);
#1001=CARTESIAN_POINT('',(-33.500000000000000,0.0,67.316144105849318));
#1002=DIRECTION('',(0.0,-1.0,0.0));
#1003=DIRECTION('',(1.0,0.0,0.0));
#1004=AXIS2_PLACEMENT_3D('',#1001,#1002,#1003);
#1005=CIRCLE('',#1004,7.500000000000000);
#1006=EDGE_CURVE('',#1000,#956,#1005,.F.);
#1007=ORIENTED_EDGE('',*,*,#1006,.T.);
#1008=ORIENTED_EDGE('',*,*,#975,.F.);
#1009=CARTESIAN_POINT('',(26.113941852408438,-3.198036E-15,68.618505438351292));
#1010=VERTEX_POINT('',#1009);
#1011=CARTESIAN_POINT('',(33.500000000000000,-4.102567E-15,67.316144105849318));
#1012=DIRECTION('',(1.224647E-16,1.0,0.0));
#1013=DIRECTION('',(-1.0,1.224647E-16,0.0));
#1014=AXIS2_PLACEMENT_3D('',#1011,#1012,#1013);
#1015=CIRCLE('',#1014,7.500000000000000);
#1016=EDGE_CURVE('',#964,#1010,#1015,.T.);
#1017=ORIENTED_EDGE('',*,*,#1016,.T.);
#1018=CARTESIAN_POINT('',(0.0,0.0,68.618505438351292));
#1019=DIRECTION('',(0.0,0.0,-1.0));
#1020=DIRECTION('',(-1.0,0.0,0.0));
#1021=AXIS2_PLACEMENT_3D('',#1018,#1019,#1020);
#1022=CIRCLE('',#1021,26.113941852408441);
#1023=EDGE_CURVE('',#1010,#1000,#1022,.F.);
#1024=ORIENTED_EDGE('',*,*,#1023,.T.);
#1025=EDGE_LOOP('',(#1007,#1008,#1017,#1024));
#1026=FACE_BOUND('',#1025,.F.);
#1027=CARTESIAN_POINT('',(0.0,0.0,67.316144105849318));
#1028=DIRECTION('',(0.0,0.0,-1.0));
#1029=DIRECTION('',(-1.0,0.0,0.0));
#1030=AXIS2_PLACEMENT_3D('',#1027,#1028,#1029);
#1031=TOROIDAL_SURFACE('',#1030,33.500000000000000,7.500000000000000);
#1032=ADVANCED_FACE('',(#1026),#1031,.F.);
#1033=SHAPE_ASPECT('featured shape: face 29','',#38,.T.);
#1034=PROPERTY_DEFINITION('','',#1033);
#1035=FACE_SHAPE_REPRESENTATION('',(#1032),#29);
#1036=SHAPE_DEFINITION_REPRESENTATION(#1034,#1035);
#1037=DIRECTION('',(-0.173648177666930,0.0,0.984807753012208));
#1038=VECTOR('',#1037,33.896457922417397);
#1039=LINE('',#999,#1038);
#1040=EDGE_CURVE('',#827,#1000,#1039,.F.);
#1041=ORIENTED_EDGE('',*,*,#1040,.T.);
#1042=ORIENTED_EDGE('',*,*,#1023,.F.);
#1043=DIRECTION('',(0.173648177666930,-2.126577E-17,0.984807753012208));
#1044=VECTOR('',#1043,33.896457922417397);
#1045=LINE('',#1009,#1044);
#1046=EDGE_CURVE('',#1010,#776,#1045,.T.);
#1047=ORIENTED_EDGE('',*,*,#1046,.T.);
#1048=ORIENTED_EDGE('',*,*,#782,.F.);
#1049=ORIENTED_EDGE('',*,*,#833,.F.);
#1050=EDGE_LOOP('',(#1041,#1042,#1047,#1048,#1049));
#1051=FACE_BOUND('',#1050,.F.);
#1052=CARTESIAN_POINT('',(0.0,0.0,102.000000000000085));
#1053=DIRECTION('',(0.0,0.0,1.0));
#1054=DIRECTION('',(1.0,0.0,0.0));
#1055=AXIS2_PLACEMENT_3D('',#1052,#1053,#1054);
#1056=CONICAL_SURFACE('',#1055,32.000000000000007,9.999999999999989);
#1057=ADVANCED_FACE('',(#1051),#1056,.T.);
#1058=SHAPE_ASPECT('featured shape: face 30','',#38,.T.);
#1059=PROPERTY_DEFINITION('','',#1058);
#1060=FACE_SHAPE_REPRESENTATION('',(#1057),#29);
#1061=SHAPE_DEFINITION_REPRESENTATION(#1059,#1060);
#1066=(LENGTH_MEASURE_WITH_UNIT()MEASURE_REPRESENTATION_ITEM()MEASURE_WITH_UNIT(LENGTH_MEASURE(125.0),#152)REPRESENTATION_ITEM('surface finish'));
#1067=REPRESENTATION('surface finish value',(#1066),#29);
#1068=PROPERTY_DEFINITION('surface property','surface finish',#1058);
#1069=PROPERTY_DEFINITION('surface property','surface finish',#1058);
#1070=PROPERTY_DEFINITION_REPRESENTATION(#1069,#1067);
#1071=PROPERTY_DEFINITION_RELATIONSHIP('','',#1068,#1069);
#1072=ORIENTED_EDGE('',*,*,#914,.F.);
#1073=CARTESIAN_POINT('',(0.0,0.0,42.500000000000000));
#1074=DIRECTION('',(0.0,0.0,1.0));
#1075=DIRECTION('',(-1.0,0.0,0.0));
#1076=AXIS2_PLACEMENT_3D('',#1073,#1074,#1075);
#1077=CIRCLE('',#1076,26.0);
#1078=EDGE_CURVE('',#908,#918,#1077,.T.);
#1079=ORIENTED_EDGE('',*,*,#1078,.T.);
#1080=ORIENTED_EDGE('',*,*,#924,.F.);
#1081=ORIENTED_EDGE('',*,*,#876,.F.);
#1082=EDGE_LOOP('',(#1072,#1079,#1080,#1081));
#1083=FACE_BOUND('',#1082,.F.);
#1084=CARTESIAN_POINT('',(0.0,0.0,42.500000000000000));
#1085=DIRECTION('',(0.0,0.0,-1.0));
#1086=DIRECTION('',(-1.0,0.0,0.0));
#1087=AXIS2_PLACEMENT_3D('',#1084,#1085,#1086);
#1088=TOROIDAL_SURFACE('',#1087,33.500000000000000,7.500000000000000);
#1089=ADVANCED_FACE('',(#1083),#1088,.F.);
#1090=SHAPE_ASPECT('featured shape: face 31','',#38,.T.);
#1091=PROPERTY_DEFINITION('','',#1090);
#1092=FACE_SHAPE_REPRESENTATION('',(#1089),#29);
#1093=SHAPE_DEFINITION_REPRESENTATION(#1091,#1092);
#1098=(LENGTH_MEASURE_WITH_UNIT()MEASURE_REPRESENTATION_ITEM()MEASURE_WITH_UNIT(LENGTH_MEASURE(32.0),#152)REPRESENTATION_ITEM('surface finish'));
#1099=REPRESENTATION('surface finish value',(#1098),#29);
#1100=PROPERTY_DEFINITION('surface property','surface finish',#1090);
#1101=PROPERTY_DEFINITION('surface property','surface finish',#1090);
#1102=PROPERTY_DEFINITION_REPRESENTATION(#1101,#1099);
#1103=PROPERTY_DEFINITION_RELATIONSHIP('','',#1100,#1101);
#1104=ORIENTED_EDGE('',*,*,#960,.F.);
#1105=CARTESIAN_POINT('',(0.0,0.0,67.316144105849318));
#1106=DIRECTION('',(0.0,0.0,1.0));
#1107=DIRECTION('',(-1.0,0.0,0.0));
#1108=AXIS2_PLACEMENT_3D('',#1105,#1106,#1107);
#1109=CIRCLE('',#1108,26.0);
#1110=EDGE_CURVE('',#956,#964,#1109,.T.);
#1111=ORIENTED_EDGE('',*,*,#1110,.T.);
#1112=ORIENTED_EDGE('',*,*,#968,.F.);
#1113=ORIENTED_EDGE('',*,*,#1078,.F.);
#1114=EDGE_LOOP('',(#1104,#1111,#1112,#1113));
#1115=FACE_BOUND('',#1114,.F.);
#1116=CARTESIAN_POINT('',(0.0,0.0,176.808150927183277));
#1117=DIRECTION('',(0.0,0.0,-1.0));
#1118=DIRECTION('',(-1.0,0.0,0.0));
#1119=AXIS2_PLACEMENT_3D('',#1116,#1117,#1118);
#1120=CYLINDRICAL_SURFACE('',#1119,26.0);
#1121=ADVANCED_FACE('',(#1115),#1120,.T.);
#1122=SHAPE_ASPECT('featured shape: face 32','',#38,.T.);
#1123=PROPERTY_DEFINITION('','',#1122);
#1124=FACE_SHAPE_REPRESENTATION('',(#1121),#29);
#1125=SHAPE_DEFINITION_REPRESENTATION(#1123,#1124);
#1130=(LENGTH_MEASURE_WITH_UNIT()MEASURE_REPRESENTATION_ITEM()MEASURE_WITH_UNIT(LENGTH_MEASURE(32.0),#152)REPRESENTATION_ITEM('surface finish'));
#1131=REPRESENTATION('surface finish value',(#1130),#29);
#1132=PROPERTY_DEFINITION('surface property','surface finish',#1122);
#1133=PROPERTY_DEFINITION('surface property','surface finish',#1122);
#1134=PROPERTY_DEFINITION_REPRESENTATION(#1133,#1131);
#1135=PROPERTY_DEFINITION_RELATIONSHIP('','',#1132,#1133);
#1136=ORIENTED_EDGE('',*,*,#1006,.F.);
#1137=CARTESIAN_POINT('',(0.0,0.0,68.618505438351292));
#1138=DIRECTION('',(0.0,0.0,1.0));
#1139=DIRECTION('',(-1.0,0.0,0.0));
#1140=AXIS2_PLACEMENT_3D('',#1137,#1138,#1139);
#1141=CIRCLE('',#1140,26.113941852408441);
#1142=EDGE_CURVE('',#1000,#1010,#1141,.T.);
#1143=ORIENTED_EDGE('',*,*,#1142,.T.);
#1144=ORIENTED_EDGE('',*,*,#1016,.F.);
#1145=ORIENTED_EDGE('',*,*,#1110,.F.);
#1146=EDGE_LOOP('',(#1136,#1143,#1144,#1145));
#1147=FACE_BOUND('',#1146,.F.);
#1148=CARTESIAN_POINT('',(0.0,0.0,67.316144105849318));
#1149=DIRECTION('',(0.0,0.0,-1.0));
#1150=DIRECTION('',(-1.0,0.0,0.0));
#1151=AXIS2_PLACEMENT_3D('',#1148,#1149,#1150);
#1152=TOROIDAL_SURFACE('',#1151,33.500000000000000,7.500000000000000);
#1153=ADVANCED_FACE('',(#1147),#1152,.F.);
#1154=SHAPE_ASPECT('featured shape: face 33','',#38,.T.);
#1155=PROPERTY_DEFINITION('','',#1154);
#1156=FACE_SHAPE_REPRESENTATION('',(#1153),#29);
#1157=SHAPE_DEFINITION_REPRESENTATION(#1155,#1156);
#1158=ORIENTED_EDGE('',*,*,#1040,.F.);
#1159=ORIENTED_EDGE('',*,*,#849,.F.);
#1160=ORIENTED_EDGE('',*,*,#791,.F.);
#1161=ORIENTED_EDGE('',*,*,#1046,.F.);
#1162=ORIENTED_EDGE('',*,*,#1142,.F.);
#1163=EDGE_LOOP('',(#1158,#1159,#1160,#1161,#1162));
#1164=FACE_BOUND('',#1163,.F.);
#1165=CARTESIAN_POINT('',(0.0,0.0,102.000000000000028));
#1166=DIRECTION('',(0.0,0.0,1.0));
#1167=DIRECTION('',(1.0,0.0,0.0));
#1168=AXIS2_PLACEMENT_3D('',#1165,#1166,#1167);
#1169=CONICAL_SURFACE('',#1168,32.0,9.999999999999989);
#1170=ADVANCED_FACE('',(#1164),#1169,.T.);
#1171=SHAPE_ASPECT('featured shape: face 34','',#38,.T.);
#1172=PROPERTY_DEFINITION('','',#1171);
#1173=FACE_SHAPE_REPRESENTATION('',(#1170),#29);
#1174=SHAPE_DEFINITION_REPRESENTATION(#1172,#1173);
#1179=(LENGTH_MEASURE_WITH_UNIT()MEASURE_REPRESENTATION_ITEM()MEASURE_WITH_UNIT(LENGTH_MEASURE(125.0),#152)REPRESENTATION_ITEM('surface finish'));
#1180=REPRESENTATION('surface finish value',(#1179),#29);
#1181=PROPERTY_DEFINITION('surface property','surface finish',#1171);
#1182=PROPERTY_DEFINITION('surface property','surface finish',#1171);
#1183=PROPERTY_DEFINITION_REPRESENTATION(#1182,#1180);
#1184=PROPERTY_DEFINITION_RELATIONSHIP('','',#1181,#1182);
#1185=ORIENTED_EDGE('',*,*,#179,.F.);
#1186=DIRECTION('',(0.0,-0.707106781186545,-0.707106781186550));
#1187=VECTOR('',#1186,3.818376618407368);
#1188=LINE('',#164,#1187);
#1189=EDGE_CURVE('',#166,#794,#1188,.T.);
#1190=ORIENTED_EDGE('',*,*,#1189,.T.);
#1191=ORIENTED_EDGE('',*,*,#841,.F.);
#1192=DIRECTION('',(1.028651E-15,0.707106781186545,-0.707106781186550));
#1193=VECTOR('',#1192,3.818376618407368);
#1194=LINE('',#163,#1193);
#1195=EDGE_CURVE('',#801,#165,#1194,.F.);
#1196=ORIENTED_EDGE('',*,*,#1195,.T.);
#1197=EDGE_LOOP('',(#1185,#1190,#1191,#1196));
#1198=FACE_BOUND('',#1197,.F.);
#1199=CARTESIAN_POINT('',(0.0,7.075740E-15,139.299999999999983));
#1200=DIRECTION('',(0.0,0.0,-1.0));
#1201=DIRECTION('',(0.0,1.0,0.0));
#1202=AXIS2_PLACEMENT_3D('',#1199,#1200,#1201);
#1203=CONICAL_SURFACE('',#1202,32.000000000000007,44.999999999999794);
#1204=ADVANCED_FACE('',(#1198),#1203,.T.);
#1205=SHAPE_ASPECT('featured shape: face 35','',#38,.T.);
#1206=PROPERTY_DEFINITION('','',#1205);
#1207=FACE_SHAPE_REPRESENTATION('',(#1204),#29);
#1208=SHAPE_DEFINITION_REPRESENTATION(#1206,#1207);
#1209=ORIENTED_EDGE('',*,*,#172,.F.);
#1210=ORIENTED_EDGE('',*,*,#1195,.F.);
#1211=ORIENTED_EDGE('',*,*,#807,.F.);
#1212=ORIENTED_EDGE('',*,*,#1189,.F.);
#1213=EDGE_LOOP('',(#1209,#1210,#1211,#1212));
#1214=FACE_BOUND('',#1213,.F.);
#1215=CARTESIAN_POINT('',(0.0,7.075740E-15,139.299999999999983));
#1216=DIRECTION('',(0.0,0.0,-1.0));
#1217=DIRECTION('',(0.0,1.0,0.0));
#1218=AXIS2_PLACEMENT_3D('',#1215,#1216,#1217);
#1219=CONICAL_SURFACE('',#1218,32.000000000000007,44.999999999999794);
#1220=ADVANCED_FACE('',(#1214),#1219,.T.);
#1221=SHAPE_ASPECT('featured shape: face 36','',#38,.T.);
#1222=PROPERTY_DEFINITION('','',#1221);
#1223=FACE_SHAPE_REPRESENTATION('',(#1220),#29);
#1224=SHAPE_DEFINITION_REPRESENTATION(#1222,#1223);
#1225=CLOSED_SHELL('',(#144,#188,#242,#280,#324,#358,#374,#419,#443,#464,#480,#515,#539,#560,#576,#611,#635,#656,#672,#707,#731,#752,#768,#821,#858,#892,#940,#984,#1032,#1057,#1089,#1121,#1153,#1170,#1204,#1220));
#1226=MANIFOLD_SOLID_BREP('',#1225);
#1227=ADVANCED_BREP_SHAPE_REPRESENTATION('',(#1226),#29);
#1228=SHAPE_DEFINITION_REPRESENTATION(#38,#1227);
#1229=CARTESIAN_POINT('',(0.0,0.0,142.0));
#1230=DIRECTION('',(0.0,1.0,0.0));
#1231=DIRECTION('',(0.0,0.0,1.0));
#1232=AXIS2_PLACEMENT_3D('DTM1',#1229,#1230,#1231);
#1233=DATUM_FEATURE('','',#38,.F.);
#1234=PROPERTY_DEFINITION('','',#1233);
#1235=SHAPE_REPRESENTATION('',(#1232),#29);
#1236=SHAPE_DEFINITION_REPRESENTATION(#1234,#1235);
#1237=DATUM('DTM1','',#38,.F.,'DTM1');
#1238=SHAPE_ASPECT_RELATIONSHIP('','',#1233,#1237);
#1239=DATUM_REFERENCE(1,#1237);
#1240=CARTESIAN_POINT('',(0.0,0.0,142.0));
#1241=DIRECTION('',(-1.0,0.0,0.0));
#1242=DIRECTION('',(0.0,0.0,1.0));
#1243=AXIS2_PLACEMENT_3D('DTM2',#1240,#1241,#1242);
#1244=DATUM_FEATURE('','',#38,.F.);
#1245=PROPERTY_DEFINITION('','',#1244);
#1246=SHAPE_REPRESENTATION('',(#1243),#29);
#1247=SHAPE_DEFINITION_REPRESENTATION(#1245,#1246);
#1248=DATUM('DTM2','',#38,.F.,'DTM2');
#1249=SHAPE_ASPECT_RELATIONSHIP('','',#1244,#1248);
#1250=DATUM_REFERENCE(1,#1248);
#1251=CARTESIAN_POINT('',(0.0,0.0,0.0));
#1252=DIRECTION('',(0.0,0.0,1.0));
#1253=DIRECTION('',(1.0,0.0,0.0));
#1254=AXIS2_PLACEMENT_3D('orientation',#1251,#1252,#1253);
#1255=STANDARD_UNCERTAINTY('upper limit','plus',0.500000000000000);
#1256=STANDARD_UNCERTAINTY('lower limit','minus',-0.500000000000000);
#1257=PRECISION_QUALIFIER(4);
#1263=(LENGTH_MEASURE_WITH_UNIT()MEASURE_REPRESENTATION_ITEM()MEASURE_WITH_UNIT(LENGTH_MEASURE(142.0),#10)QUALIFIED_REPRESENTATION_ITEM((#1255,#1256,#1257))REPRESENTATION_ITEM('length'));
#1264=STANDARD_UNCERTAINTY('upper limit','plus',0.500000000000000);
#1265=STANDARD_UNCERTAINTY('lower limit','minus',-0.500000000000000);
#1266=PRECISION_QUALIFIER(4);
#1272=(LENGTH_MEASURE_WITH_UNIT()MEASURE_REPRESENTATION_ITEM()MEASURE_WITH_UNIT(LENGTH_MEASURE(88.0),#10)QUALIFIED_REPRESENTATION_ITEM((#1264,#1265,#1266))REPRESENTATION_ITEM('diameter'));
#1273=CYLINDRICAL_SHAPE_REPRESENTATION('base shape',(#1254,#1263,#1272),#29);
#1280=(CHARACTERIZED_OBJECT('','outer diameter to shoulder')FEATURE_DEFINITION()INSTANCED_FEATURE()MACHINING_FEATURE()OUTER_ROUND()SHAPE_ASPECT('','outer diameter to shoulder',#38,.T.));
#1281=PROPERTY_DEFINITION('','',#1280);
#1282=PRODUCT_DEFINITION_SHAPE('','',#1280);
#1283=CARTESIAN_POINT('',(0.0,0.0,5.0));
#1284=DIRECTION('',(0.0,0.0,-1.0));
#1285=DIRECTION('',(1.0,0.0,0.0));
#1286=AXIS2_PLACEMENT_3D('orientation',#1283,#1284,#1285);
#1287=STANDARD_UNCERTAINTY('upper limit','plus',0.050000000000000);
#1288=STANDARD_UNCERTAINTY('lower limit','minus',-0.050000000000000);
#1289=PRECISION_QUALIFIER(4);
#1295=(LENGTH_MEASURE_WITH_UNIT()MEASURE_REPRESENTATION_ITEM()MEASURE_WITH_UNIT(LENGTH_MEASURE(76.949999999999989),#10)QUALIFIED_REPRESENTATION_ITEM((#1287,#1288,#1289))REPRESENTATION_ITEM('diameter'));
#1296=SHAPE_REPRESENTATION('',(#324,#358,#374),#29);
#1297=SHAPE_DEFINITION_REPRESENTATION(#1281,#1296);
#1298=SHAPE_REPRESENTATION_WITH_PARAMETERS('',(#1286,#1295),#29);
#1299=SHAPE_DEFINITION_REPRESENTATION(#1281,#1298);
#1300=CARTESIAN_POINT('',(38.474999999999994,0.0,5.0));
#1301=DIRECTION('',(0.0,-1.0,0.0));
#1302=DIRECTION('',(0.0,0.0,-1.0));
#1303=AXIS2_PLACEMENT_3D('orientation',#1300,#1301,#1302);
#1304=FEATURE_COMPONENT_DEFINITION('','');
#1305=PRODUCT_DEFINITION_SHAPE('','',#1304);
#1306=VEE_PROFILE('vee profile','v-shape',#1305,.F.);
#1311=(MEASURE_REPRESENTATION_ITEM()MEASURE_WITH_UNIT(PLANE_ANGLE_MEASURE(90.0),#19)PLANE_ANGLE_MEASURE_WITH_UNIT()REPRESENTATION_ITEM('profile angle'));
#1316=(MEASURE_REPRESENTATION_ITEM()MEASURE_WITH_UNIT(PLANE_ANGLE_MEASURE(0.0),#19)PLANE_ANGLE_MEASURE_WITH_UNIT()REPRESENTATION_ITEM('tilt angle'));
#1321=(LENGTH_MEASURE_WITH_UNIT()MEASURE_REPRESENTATION_ITEM()MEASURE_WITH_UNIT(LENGTH_MEASURE(0.0),#10)REPRESENTATION_ITEM('profile radius'));
#1322=SHAPE_REPRESENTATION_WITH_PARAMETERS('',(#1303,#1311,#1316,#1321),#29);
#1323=PROPERTY_DEFINITION('','',#1306);
#1324=SHAPE_DEFINITION_REPRESENTATION(#1323,#1322);
#1325=SHAPE_ASPECT('','v-shape boundary occurrence',#1282,.T.);
#1326=SHAPE_DEFINING_RELATIONSHIP('vee boundary','profile usage',#1306,#1325);
#1327=DIMENSIONAL_LOCATION('','',#359,#145);
#1328=PRECISION_QUALIFIER(4);
#1334=(LENGTH_MEASURE_WITH_UNIT()MEASURE_REPRESENTATION_ITEM()MEASURE_WITH_UNIT(LENGTH_MEASURE(5.0),#10)QUALIFIED_REPRESENTATION_ITEM((#1328))REPRESENTATION_ITEM(''));
#1335=SHAPE_DIMENSION_REPRESENTATION('',(#1334),#29);
#1336=PRECISION_QUALIFIER(4);
#1337=MEASURE_WITH_UNIT(LENGTH_MEASURE(0.250000000000000),#10);
#1338=MEASURE_WITH_UNIT(LENGTH_MEASURE(-0.250000000000000),#10);
#1339=MEASURE_QUALIFICATION('','',#1337,(#1336));
#1340=MEASURE_QUALIFICATION('','',#1338,(#1336));
#1341=TOLERANCE_VALUE(#1338,#1337);
#1342=PLUS_MINUS_TOLERANCE(#1341,#1327);
#1343=DIMENSIONAL_CHARACTERISTIC_REPRESENTATION(#1327,#1335);
#1350=(CHARACTERIZED_OBJECT('','')FEATURE_DEFINITION()INSTANCED_FEATURE()MACHINING_FEATURE()ROUND_HOLE()SHAPE_ASPECT('','',#38,.T.));
#1351=PROPERTY_DEFINITION('','',#1350);
#1352=PRODUCT_DEFINITION_SHAPE('','',#1350);
#1353=CARTESIAN_POINT('',(-28.0,7.075740E-15,15.0));
#1354=DIRECTION('',(0.0,0.0,-1.0));
#1355=DIRECTION('',(1.0,0.0,0.0));
#1356=AXIS2_PLACEMENT_3D('orientation',#1353,#1354,#1355);
#1357=SHAPE_REPRESENTATION('',(#419,#443,#464,#480),#29);
#1358=SHAPE_DEFINITION_REPRESENTATION(#1351,#1357);
#1359=SHAPE_REPRESENTATION_WITH_PARAMETERS('',(#1356),#29);
#1360=SHAPE_DEFINITION_REPRESENTATION(#1351,#1359);
#1361=FEATURE_COMPONENT_DEFINITION('','');
#1362=PRODUCT_DEFINITION_SHAPE('','',#1361);
#1363=CIRCULAR_CLOSED_PROFILE('circular profile','',#1362,.F.);
#1364=STANDARD_UNCERTAINTY('upper limit','plus',0.050000000000000);
#1365=STANDARD_UNCERTAINTY('lower limit','minus',-0.050000000000000);
#1366=PRECISION_QUALIFIER(4);
#1372=(LENGTH_MEASURE_WITH_UNIT()MEASURE_REPRESENTATION_ITEM()MEASURE_WITH_UNIT(LENGTH_MEASURE(18.149999999999999),#10)QUALIFIED_REPRESENTATION_ITEM((#1364,#1365,#1366))REPRESENTATION_ITEM('diameter'));
#1373=SHAPE_REPRESENTATION_WITH_PARAMETERS('',(#1356,#1372),#29);
#1374=PROPERTY_DEFINITION('','',#1363);
#1375=SHAPE_DEFINITION_REPRESENTATION(#1374,#1373);
#1376=FEATURE_COMPONENT_DEFINITION('','');
#1377=PRODUCT_DEFINITION_SHAPE('','',#1376);
#1378=PATH_FEATURE_COMPONENT('linear path','linear',#1377,.F.);
#1383=(LENGTH_MEASURE_WITH_UNIT()MEASURE_REPRESENTATION_ITEM()MEASURE_WITH_UNIT(LENGTH_MEASURE(15.0),#10)REPRESENTATION_ITEM('distance'));
#1384=SHAPE_REPRESENTATION_WITH_PARAMETERS('',(#1356,#1383),#29);
#1385=PROPERTY_DEFINITION('','',#1378);
#1386=SHAPE_DEFINITION_REPRESENTATION(#1385,#1384);
#1387=DIRECTION_SHAPE_REPRESENTATION('',(#1354),#29);
#1388=PROPERTY_DEFINITION_REPRESENTATION(#1385,#1387);
#1389=SHAPE_ASPECT('','diameter occurrence',#1352,.T.);
#1390=SHAPE_DEFINING_RELATIONSHIP('diameter','profile usage',#1363,#1389);
#1391=SHAPE_ASPECT('','hole depth occurrence',#1352,.T.);
#1392=SHAPE_DEFINING_RELATIONSHIP('hole depth','path feature component usage',#1378,#1391);
#1393=FEATURE_COMPONENT_DEFINITION('','');
#1394=PRODUCT_DEFINITION_SHAPE('','',#1393);
#1395=HOLE_BOTTOM('bottom condition','conical',#1394,.F.);
#1396=DESCRIPTIVE_REPRESENTATION_ITEM('blind bottom orientation','hole start');
#1401=(MEASURE_REPRESENTATION_ITEM()MEASURE_WITH_UNIT(PLANE_ANGLE_MEASURE(118.0),#19)PLANE_ANGLE_MEASURE_WITH_UNIT()REPRESENTATION_ITEM('tip angle'));
#1406=(LENGTH_MEASURE_WITH_UNIT()MEASURE_REPRESENTATION_ITEM()MEASURE_WITH_UNIT(LENGTH_MEASURE(0.0),#10)REPRESENTATION_ITEM('tip radius'));
#1407=SHAPE_REPRESENTATION_WITH_PARAMETERS('',(#1396,#1401,#1406),#29);
#1408=PROPERTY_DEFINITION('','',#1395);
#1409=SHAPE_DEFINITION_REPRESENTATION(#1408,#1407);
#1410=SHAPE_ASPECT('','bottom condition occurrence',#1352,.T.);
#1411=FEATURE_COMPONENT_RELATIONSHIP('','hole bottom usage',#1395,#1410);
#1412=CARTESIAN_POINT('',(0.0,7.075740E-15,4.999999999999999));
#1413=DIRECTION('',(0.0,0.0,1.0));
#1414=AXIS1_PLACEMENT('',#1412,#1413);
#1415=SHAPE_ASPECT('','',#38,.F.);
#1416=PROPERTY_DEFINITION('','',#1415);
#1417=SHAPE_REPRESENTATION('',(#1414),#29);
#1418=SHAPE_DEFINITION_REPRESENTATION(#1416,#1417);
#1419=CARTESIAN_POINT('',(-28.0,7.075740E-15,20.452810117675110));
#1420=DIRECTION('',(0.0,0.0,-1.0));
#1421=AXIS1_PLACEMENT('',#1419,#1420);
#1422=SHAPE_ASPECT('','',#38,.F.);
#1423=PROPERTY_DEFINITION('','',#1422);
#1424=SHAPE_REPRESENTATION('',(#1421),#29);
#1425=SHAPE_DEFINITION_REPRESENTATION(#1423,#1424);
#1426=DIMENSIONAL_LOCATION('','',#1415,#1422);
#1427=PRECISION_QUALIFIER(4);
#1433=(LENGTH_MEASURE_WITH_UNIT()MEASURE_REPRESENTATION_ITEM()MEASURE_WITH_UNIT(LENGTH_MEASURE(28.0),#10)QUALIFIED_REPRESENTATION_ITEM((#1427))REPRESENTATION_ITEM(''));
#1434=SHAPE_DIMENSION_REPRESENTATION('',(#1433),#29);
#1435=PRECISION_QUALIFIER(4);
#1436=MEASURE_WITH_UNIT(LENGTH_MEASURE(0.250000000000000),#10);
#1437=MEASURE_WITH_UNIT(LENGTH_MEASURE(-0.250000000000000),#10);
#1438=MEASURE_QUALIFICATION('','',#1436,(#1435));
#1439=MEASURE_QUALIFICATION('','',#1437,(#1435));
#1440=TOLERANCE_VALUE(#1437,#1436);
#1441=PLUS_MINUS_TOLERANCE(#1440,#1426);
#1442=DIMENSIONAL_CHARACTERISTIC_REPRESENTATION(#1426,#1434);
#1449=(CHARACTERIZED_OBJECT('','')FEATURE_DEFINITION()INSTANCED_FEATURE()MACHINING_FEATURE()ROUND_HOLE()SHAPE_ASPECT('','',#38,.T.));
#1450=PROPERTY_DEFINITION('','',#1449);
#1451=PRODUCT_DEFINITION_SHAPE('','',#1449);
#1452=CARTESIAN_POINT('',(14.000000000000002,-24.248711305964271,15.0));
#1453=DIRECTION('',(0.0,0.0,-1.0));
#1454=DIRECTION('',(1.0,0.0,0.0));
#1455=AXIS2_PLACEMENT_3D('orientation',#1452,#1453,#1454);
#1456=SHAPE_REPRESENTATION('',(#515,#539,#560,#576),#29);
#1457=SHAPE_DEFINITION_REPRESENTATION(#1450,#1456);
#1458=SHAPE_REPRESENTATION_WITH_PARAMETERS('',(#1455),#29);
#1459=SHAPE_DEFINITION_REPRESENTATION(#1450,#1458);
#1460=FEATURE_COMPONENT_DEFINITION('','');
#1461=PRODUCT_DEFINITION_SHAPE('','',#1460);
#1462=CIRCULAR_CLOSED_PROFILE('circular profile','',#1461,.F.);
#1463=STANDARD_UNCERTAINTY('upper limit','plus',0.050000000000000);
#1464=STANDARD_UNCERTAINTY('lower limit','minus',-0.050000000000000);
#1465=PRECISION_QUALIFIER(4);
#1471=(LENGTH_MEASURE_WITH_UNIT()MEASURE_REPRESENTATION_ITEM()MEASURE_WITH_UNIT(LENGTH_MEASURE(18.149999999999999),#10)QUALIFIED_REPRESENTATION_ITEM((#1463,#1464,#1465))REPRESENTATION_ITEM('diameter'));
#1472=SHAPE_REPRESENTATION_WITH_PARAMETERS('',(#1455,#1471),#29);
#1473=PROPERTY_DEFINITION('','',#1462);
#1474=SHAPE_DEFINITION_REPRESENTATION(#1473,#1472);
#1475=FEATURE_COMPONENT_DEFINITION('','');
#1476=PRODUCT_DEFINITION_SHAPE('','',#1475);
#1477=PATH_FEATURE_COMPONENT('linear path','linear',#1476,.F.);
#1482=(LENGTH_MEASURE_WITH_UNIT()MEASURE_REPRESENTATION_ITEM()MEASURE_WITH_UNIT(LENGTH_MEASURE(15.0),#10)REPRESENTATION_ITEM('distance'));
#1483=SHAPE_REPRESENTATION_WITH_PARAMETERS('',(#1455,#1482),#29);
#1484=PROPERTY_DEFINITION('','',#1477);
#1485=SHAPE_DEFINITION_REPRESENTATION(#1484,#1483);
#1486=DIRECTION_SHAPE_REPRESENTATION('',(#1453),#29);
#1487=PROPERTY_DEFINITION_REPRESENTATION(#1484,#1486);
#1488=SHAPE_ASPECT('','diameter occurrence',#1451,.T.);
#1489=SHAPE_DEFINING_RELATIONSHIP('diameter','profile usage',#1462,#1488);
#1490=SHAPE_ASPECT('','hole depth occurrence',#1451,.T.);
#1491=SHAPE_DEFINING_RELATIONSHIP('hole depth','path feature component usage',#1477,#1490);
#1492=FEATURE_COMPONENT_DEFINITION('','');
#1493=PRODUCT_DEFINITION_SHAPE('','',#1492);
#1494=HOLE_BOTTOM('bottom condition','conical',#1493,.F.);
#1495=DESCRIPTIVE_REPRESENTATION_ITEM('blind bottom orientation','hole start');
#1500=(MEASURE_REPRESENTATION_ITEM()MEASURE_WITH_UNIT(PLANE_ANGLE_MEASURE(118.0),#19)PLANE_ANGLE_MEASURE_WITH_UNIT()REPRESENTATION_ITEM('tip angle'));
#1505=(LENGTH_MEASURE_WITH_UNIT()MEASURE_REPRESENTATION_ITEM()MEASURE_WITH_UNIT(LENGTH_MEASURE(0.0),#10)REPRESENTATION_ITEM('tip radius'));
#1506=SHAPE_REPRESENTATION_WITH_PARAMETERS('',(#1495,#1500,#1505),#29);
#1507=PROPERTY_DEFINITION('','',#1494);
#1508=SHAPE_DEFINITION_REPRESENTATION(#1507,#1506);
#1509=SHAPE_ASPECT('','bottom condition occurrence',#1451,.T.);
#1510=FEATURE_COMPONENT_RELATIONSHIP('','hole bottom usage',#1494,#1509);
#1511=CARTESIAN_POINT('',(0.0,7.075740E-15,4.999999999999999));
#1512=DIRECTION('',(0.0,0.0,1.0));
#1513=AXIS1_PLACEMENT('',#1511,#1512);
#1514=SHAPE_ASPECT('','',#38,.F.);
#1515=PROPERTY_DEFINITION('','',#1514);
#1516=SHAPE_REPRESENTATION('',(#1513),#29);
#1517=SHAPE_DEFINITION_REPRESENTATION(#1515,#1516);
#1518=CARTESIAN_POINT('',(14.000000000000002,-24.248711305964271,20.452810117675110));
#1519=DIRECTION('',(0.0,0.0,-1.0));
#1520=AXIS1_PLACEMENT('',#1518,#1519);
#1521=SHAPE_ASPECT('','',#38,.F.);
#1522=PROPERTY_DEFINITION('','',#1521);
#1523=SHAPE_REPRESENTATION('',(#1520),#29);
#1524=SHAPE_DEFINITION_REPRESENTATION(#1522,#1523);
#1525=DIMENSIONAL_LOCATION('','',#1514,#1521);
#1526=PRECISION_QUALIFIER(4);
#1532=(LENGTH_MEASURE_WITH_UNIT()MEASURE_REPRESENTATION_ITEM()MEASURE_WITH_UNIT(LENGTH_MEASURE(28.0),#10)QUALIFIED_REPRESENTATION_ITEM((#1526))REPRESENTATION_ITEM(''));
#1533=SHAPE_DIMENSION_REPRESENTATION('',(#1532),#29);
#1534=PRECISION_QUALIFIER(4);
#1535=MEASURE_WITH_UNIT(LENGTH_MEASURE(0.250000000000000),#10);
#1536=MEASURE_WITH_UNIT(LENGTH_MEASURE(-0.250000000000000),#10);
#1537=MEASURE_QUALIFICATION('','',#1535,(#1534));
#1538=MEASURE_QUALIFICATION('','',#1536,(#1534));
#1539=TOLERANCE_VALUE(#1536,#1535);
#1540=PLUS_MINUS_TOLERANCE(#1539,#1525);
#1541=DIMENSIONAL_CHARACTERISTIC_REPRESENTATION(#1525,#1533);
#1542=CARTESIAN_POINT('',(14.000000000000002,-24.248711305964271,15.0));
#1543=DIRECTION('',(0.866025403784439,0.500000000000000,0.0));
#1544=DIRECTION('',(0.500000000000000,-0.866025403784439,0.0));
#1545=AXIS2_PLACEMENT_3D('',#1542,#1543,#1544);
#1546=SHAPE_ASPECT('','',#38,.F.);
#1547=PROPERTY_DEFINITION('','',#1546);
#1548=SHAPE_REPRESENTATION('',(#1545),#29);
#1549=SHAPE_DEFINITION_REPRESENTATION(#1547,#1548);
#1550=ANGULAR_LOCATION('','',#1237,#1546,.SMALL.);
#1551=PRECISION_QUALIFIER(4);
#1557=(MEASURE_REPRESENTATION_ITEM()MEASURE_WITH_UNIT(PLANE_ANGLE_MEASURE(60.0),#19)PLANE_ANGLE_MEASURE_WITH_UNIT()QUALIFIED_REPRESENTATION_ITEM((#1551))REPRESENTATION_ITEM(''));
#1558=SHAPE_DIMENSION_REPRESENTATION('',(#1557),#29);
#1559=DIMENSIONAL_CHARACTERISTIC_REPRESENTATION(#1550,#1558);
#1566=(CHARACTERIZED_OBJECT('','')FEATURE_DEFINITION()INSTANCED_FEATURE()MACHINING_FEATURE()ROUND_HOLE()SHAPE_ASPECT('','',#38,.T.));
#1567=PROPERTY_DEFINITION('','',#1566);
#1568=PRODUCT_DEFINITION_SHAPE('','',#1566);
#1569=CARTESIAN_POINT('',(13.999999999999995,24.248711305964289,15.0));
#1570=DIRECTION('',(0.0,0.0,-1.0));
#1571=DIRECTION('',(1.0,0.0,0.0));
#1572=AXIS2_PLACEMENT_3D('orientation',#1569,#1570,#1571);
#1573=SHAPE_REPRESENTATION('',(#611,#635,#656,#672),#29);
#1574=SHAPE_DEFINITION_REPRESENTATION(#1567,#1573);
#1575=SHAPE_REPRESENTATION_WITH_PARAMETERS('',(#1572),#29);
#1576=SHAPE_DEFINITION_REPRESENTATION(#1567,#1575);
#1577=FEATURE_COMPONENT_DEFINITION('','');
#1578=PRODUCT_DEFINITION_SHAPE('','',#1577);
#1579=CIRCULAR_CLOSED_PROFILE('circular profile','',#1578,.F.);
#1580=STANDARD_UNCERTAINTY('upper limit','plus',0.050000000000000);
#1581=STANDARD_UNCERTAINTY('lower limit','minus',-0.050000000000000);
#1582=PRECISION_QUALIFIER(4);
#1588=(LENGTH_MEASURE_WITH_UNIT()MEASURE_REPRESENTATION_ITEM()MEASURE_WITH_UNIT(LENGTH_MEASURE(18.149999999999999),#10)QUALIFIED_REPRESENTATION_ITEM((#1580,#1581,#1582))REPRESENTATION_ITEM('diameter'));
#1589=SHAPE_REPRESENTATION_WITH_PARAMETERS('',(#1572,#1588),#29);
#1590=PROPERTY_DEFINITION('','',#1579);
#1591=SHAPE_DEFINITION_REPRESENTATION(#1590,#1589);
#1592=FEATURE_COMPONENT_DEFINITION('','');
#1593=PRODUCT_DEFINITION_SHAPE('','',#1592);
#1594=PATH_FEATURE_COMPONENT('linear path','linear',#1593,.F.);
#1599=(LENGTH_MEASURE_WITH_UNIT()MEASURE_REPRESENTATION_ITEM()MEASURE_WITH_UNIT(LENGTH_MEASURE(15.0),#10)REPRESENTATION_ITEM('distance'));
#1600=SHAPE_REPRESENTATION_WITH_PARAMETERS('',(#1572,#1599),#29);
#1601=PROPERTY_DEFINITION('','',#1594);
#1602=SHAPE_DEFINITION_REPRESENTATION(#1601,#1600);
#1603=DIRECTION_SHAPE_REPRESENTATION('',(#1570),#29);
#1604=PROPERTY_DEFINITION_REPRESENTATION(#1601,#1603);
#1605=SHAPE_ASPECT('','diameter occurrence',#1568,.T.);
#1606=SHAPE_DEFINING_RELATIONSHIP('diameter','profile usage',#1579,#1605);
#1607=SHAPE_ASPECT('','hole depth occurrence',#1568,.T.);
#1608=SHAPE_DEFINING_RELATIONSHIP('hole depth','path feature component usage',#1594,#1607);
#1609=FEATURE_COMPONENT_DEFINITION('','');
#1610=PRODUCT_DEFINITION_SHAPE('','',#1609);
#1611=HOLE_BOTTOM('bottom condition','conical',#1610,.F.);
#1612=DESCRIPTIVE_REPRESENTATION_ITEM('blind bottom orientation','hole start');
#1617=(MEASURE_REPRESENTATION_ITEM()MEASURE_WITH_UNIT(PLANE_ANGLE_MEASURE(118.0),#19)PLANE_ANGLE_MEASURE_WITH_UNIT()REPRESENTATION_ITEM('tip angle'));
#1622=(LENGTH_MEASURE_WITH_UNIT()MEASURE_REPRESENTATION_ITEM()MEASURE_WITH_UNIT(LENGTH_MEASURE(0.0),#10)REPRESENTATION_ITEM('tip radius'));
#1623=SHAPE_REPRESENTATION_WITH_PARAMETERS('',(#1612,#1617,#1622),#29);
#1624=PROPERTY_DEFINITION('','',#1611);
#1625=SHAPE_DEFINITION_REPRESENTATION(#1624,#1623);
#1626=SHAPE_ASPECT('','bottom condition occurrence',#1568,.T.);
#1627=FEATURE_COMPONENT_RELATIONSHIP('','hole bottom usage',#1611,#1626);
#1628=CARTESIAN_POINT('',(0.0,7.075740E-15,4.999999999999999));
#1629=DIRECTION('',(0.0,0.0,1.0));
#1630=AXIS1_PLACEMENT('',#1628,#1629);
#1631=SHAPE_ASPECT('','',#38,.F.);
#1632=PROPERTY_DEFINITION('','',#1631);
#1633=SHAPE_REPRESENTATION('',(#1630),#29);
#1634=SHAPE_DEFINITION_REPRESENTATION(#1632,#1633);
#1635=CARTESIAN_POINT('',(13.999999999999995,24.248711305964289,20.452810117675110));
#1636=DIRECTION('',(0.0,0.0,-1.0));
#1637=AXIS1_PLACEMENT('',#1635,#1636);
#1638=SHAPE_ASPECT('','',#38,.F.);
#1639=PROPERTY_DEFINITION('','',#1638);
#1640=SHAPE_REPRESENTATION('',(#1637),#29);
#1641=SHAPE_DEFINITION_REPRESENTATION(#1639,#1640);
#1642=DIMENSIONAL_LOCATION('','',#1631,#1638);
#1643=PRECISION_QUALIFIER(4);
#1649=(LENGTH_MEASURE_WITH_UNIT()MEASURE_REPRESENTATION_ITEM()MEASURE_WITH_UNIT(LENGTH_MEASURE(28.0),#10)QUALIFIED_REPRESENTATION_ITEM((#1643))REPRESENTATION_ITEM(''));
#1650=SHAPE_DIMENSION_REPRESENTATION('',(#1649),#29);
#1651=PRECISION_QUALIFIER(4);
#1652=MEASURE_WITH_UNIT(LENGTH_MEASURE(0.250000000000000),#10);
#1653=MEASURE_WITH_UNIT(LENGTH_MEASURE(-0.250000000000000),#10);
#1654=MEASURE_QUALIFICATION('','',#1652,(#1651));
#1655=MEASURE_QUALIFICATION('','',#1653,(#1651));
#1656=TOLERANCE_VALUE(#1653,#1652);
#1657=PLUS_MINUS_TOLERANCE(#1656,#1642);
#1658=DIMENSIONAL_CHARACTERISTIC_REPRESENTATION(#1642,#1650);
#1659=CARTESIAN_POINT('',(13.999999999999995,24.248711305964289,15.0));
#1660=DIRECTION('',(-0.866025403784439,0.500000000000000,0.0));
#1661=DIRECTION('',(0.500000000000000,0.866025403784439,0.0));
#1662=AXIS2_PLACEMENT_3D('',#1659,#1660,#1661);
#1663=SHAPE_ASPECT('','',#38,.F.);
#1664=PROPERTY_DEFINITION('','',#1663);
#1665=SHAPE_REPRESENTATION('',(#1662),#29);
#1666=SHAPE_DEFINITION_REPRESENTATION(#1664,#1665);
#1667=ANGULAR_LOCATION('','',#1237,#1663,.SMALL.);
#1668=PRECISION_QUALIFIER(4);
#1674=(MEASURE_REPRESENTATION_ITEM()MEASURE_WITH_UNIT(PLANE_ANGLE_MEASURE(120.0),#19)PLANE_ANGLE_MEASURE_WITH_UNIT()QUALIFIED_REPRESENTATION_ITEM((#1668))REPRESENTATION_ITEM(''));
#1675=SHAPE_DIMENSION_REPRESENTATION('',(#1674),#29);
#1676=DIMENSIONAL_CHARACTERISTIC_REPRESENTATION(#1667,#1675);
#1683=(CHARACTERIZED_OBJECT('','')FEATURE_DEFINITION()INSTANCED_FEATURE()MACHINING_FEATURE()ROUND_HOLE()SHAPE_ASPECT('','',#38,.T.));
#1684=PROPERTY_DEFINITION('','',#1683);
#1685=PRODUCT_DEFINITION_SHAPE('','',#1683);
#1686=CARTESIAN_POINT('',(0.0,7.075740E-15,24.0));
#1687=DIRECTION('',(0.0,0.0,-1.0));
#1688=DIRECTION('',(1.0,0.0,0.0));
#1689=AXIS2_PLACEMENT_3D('orientation',#1686,#1687,#1688);
#1690=SHAPE_REPRESENTATION('',(#707,#731,#752,#768),#29);
#1691=SHAPE_DEFINITION_REPRESENTATION(#1684,#1690);
#1692=SHAPE_REPRESENTATION_WITH_PARAMETERS('',(#1689),#29);
#1693=SHAPE_DEFINITION_REPRESENTATION(#1684,#1692);
#1694=FEATURE_COMPONENT_DEFINITION('','');
#1695=PRODUCT_DEFINITION_SHAPE('','',#1694);
#1696=CIRCULAR_CLOSED_PROFILE('circular profile','',#1695,.F.);
#1697=STANDARD_UNCERTAINTY('upper limit','plus',0.010000000000000);
#1698=STANDARD_UNCERTAINTY('lower limit','minus',-0.010000000000000);
#1699=PRECISION_QUALIFIER(4);
#1705=(LENGTH_MEASURE_WITH_UNIT()MEASURE_REPRESENTATION_ITEM()MEASURE_WITH_UNIT(LENGTH_MEASURE(14.0),#10)QUALIFIED_REPRESENTATION_ITEM((#1697,#1698,#1699))REPRESENTATION_ITEM('diameter'));
#1706=SHAPE_REPRESENTATION_WITH_PARAMETERS('',(#1689,#1705),#29);
#1707=PROPERTY_DEFINITION('','',#1696);
#1708=SHAPE_DEFINITION_REPRESENTATION(#1707,#1706);
#1709=FEATURE_COMPONENT_DEFINITION('','');
#1710=PRODUCT_DEFINITION_SHAPE('','',#1709);
#1711=PATH_FEATURE_COMPONENT('linear path','linear',#1710,.F.);
#1712=STANDARD_UNCERTAINTY('upper limit','plus',0.010000000000000);
#1713=STANDARD_UNCERTAINTY('lower limit','minus',-0.010000000000000);
#1714=PRECISION_QUALIFIER(4);
#1720=(LENGTH_MEASURE_WITH_UNIT()MEASURE_REPRESENTATION_ITEM()MEASURE_WITH_UNIT(LENGTH_MEASURE(24.0),#10)QUALIFIED_REPRESENTATION_ITEM((#1712,#1713,#1714))REPRESENTATION_ITEM('distance'));
#1721=SHAPE_REPRESENTATION_WITH_PARAMETERS('',(#1689,#1720),#29);
#1722=PROPERTY_DEFINITION('','',#1711);
#1723=SHAPE_DEFINITION_REPRESENTATION(#1722,#1721);
#1724=DIRECTION_SHAPE_REPRESENTATION('',(#1687),#29);
#1725=PROPERTY_DEFINITION_REPRESENTATION(#1722,#1724);
#1726=SHAPE_ASPECT('','diameter occurrence',#1685,.T.);
#1727=SHAPE_DEFINING_RELATIONSHIP('diameter','profile usage',#1696,#1726);
#1728=SHAPE_ASPECT('','hole depth occurrence',#1685,.T.);
#1729=SHAPE_DEFINING_RELATIONSHIP('hole depth','path feature component usage',#1711,#1728);
#1730=FEATURE_COMPONENT_DEFINITION('','');
#1731=PRODUCT_DEFINITION_SHAPE('','',#1730);
#1732=HOLE_BOTTOM('bottom condition','conical',#1731,.F.);
#1733=DESCRIPTIVE_REPRESENTATION_ITEM('blind bottom orientation','hole start');
#1734=STANDARD_UNCERTAINTY('upper limit','plus',1.0);
#1735=STANDARD_UNCERTAINTY('lower limit','minus',-1.0);
#1736=PRECISION_QUALIFIER(4);
#1742=(MEASURE_REPRESENTATION_ITEM()MEASURE_WITH_UNIT(PLANE_ANGLE_MEASURE(120.0),#19)PLANE_ANGLE_MEASURE_WITH_UNIT()QUALIFIED_REPRESENTATION_ITEM((#1734,#1735,#1736))REPRESENTATION_ITEM('tip angle'));
#1747=(LENGTH_MEASURE_WITH_UNIT()MEASURE_REPRESENTATION_ITEM()MEASURE_WITH_UNIT(LENGTH_MEASURE(0.0),#10)REPRESENTATION_ITEM('tip radius'));
#1748=SHAPE_REPRESENTATION_WITH_PARAMETERS('',(#1733,#1742,#1747),#29);
#1749=PROPERTY_DEFINITION('','',#1732);
#1750=SHAPE_DEFINITION_REPRESENTATION(#1749,#1748);
#1751=SHAPE_ASPECT('','bottom condition occurrence',#1685,.T.);
#1752=FEATURE_COMPONENT_RELATIONSHIP('','hole bottom usage',#1732,#1751);
#1759=(CHARACTERIZED_OBJECT('','outer diameter to shoulder')FEATURE_DEFINITION()INSTANCED_FEATURE()MACHINING_FEATURE()OUTER_ROUND()SHAPE_ASPECT('','outer diameter to shoulder',#38,.T.));
#1760=PROPERTY_DEFINITION('','',#1759);
#1761=PRODUCT_DEFINITION_SHAPE('','',#1759);
#1762=CARTESIAN_POINT('',(0.0,7.075740E-15,102.0));
#1763=DIRECTION('',(0.0,0.0,1.0));
#1764=DIRECTION('',(0.0,-1.0,0.0));
#1765=AXIS2_PLACEMENT_3D('orientation',#1762,#1763,#1764);
#1770=(LENGTH_MEASURE_WITH_UNIT()MEASURE_REPRESENTATION_ITEM()MEASURE_WITH_UNIT(LENGTH_MEASURE(64.0),#10)REPRESENTATION_ITEM('diameter'));
#1771=SHAPE_REPRESENTATION('',(#821,#858),#29);
#1772=SHAPE_DEFINITION_REPRESENTATION(#1760,#1771);
#1773=SHAPE_REPRESENTATION_WITH_PARAMETERS('',(#1765,#1770),#29);
#1774=SHAPE_DEFINITION_REPRESENTATION(#1760,#1773);
#1775=CARTESIAN_POINT('',(0.0,-31.999999999999993,102.0));
#1776=DIRECTION('',(1.0,0.0,0.0));
#1777=DIRECTION('',(0.0,0.0,1.0));
#1778=AXIS2_PLACEMENT_3D('orientation',#1775,#1776,#1777);
#1779=FEATURE_COMPONENT_DEFINITION('','');
#1780=PRODUCT_DEFINITION_SHAPE('','',#1779);
#1781=VEE_PROFILE('vee profile','v-shape',#1780,.F.);
#1786=(MEASURE_REPRESENTATION_ITEM()MEASURE_WITH_UNIT(PLANE_ANGLE_MEASURE(90.0),#19)PLANE_ANGLE_MEASURE_WITH_UNIT()REPRESENTATION_ITEM('profile angle'));
#1791=(MEASURE_REPRESENTATION_ITEM()MEASURE_WITH_UNIT(PLANE_ANGLE_MEASURE(0.0),#19)PLANE_ANGLE_MEASURE_WITH_UNIT()REPRESENTATION_ITEM('tilt angle'));
#1796=(LENGTH_MEASURE_WITH_UNIT()MEASURE_REPRESENTATION_ITEM()MEASURE_WITH_UNIT(LENGTH_MEASURE(0.0),#10)REPRESENTATION_ITEM('profile radius'));
#1797=SHAPE_REPRESENTATION_WITH_PARAMETERS('',(#1778,#1786,#1791,#1796),#29);
#1798=PROPERTY_DEFINITION('','',#1781);
#1799=SHAPE_DEFINITION_REPRESENTATION(#1798,#1797);
#1800=SHAPE_ASPECT('','v-shape boundary occurrence',#1761,.T.);
#1801=SHAPE_DEFINING_RELATIONSHIP('vee boundary','profile usage',#1781,#1800);
#1802=CARTESIAN_POINT('',(0.0,7.075740E-15,102.0));
#1803=DIRECTION('',(0.0,0.0,1.0));
#1804=DIRECTION('',(0.0,-1.0,0.0));
#1805=AXIS2_PLACEMENT_3D('',#1802,#1803,#1804);
#1806=SHAPE_ASPECT('','',#38,.F.);
#1807=PROPERTY_DEFINITION('','',#1806);
#1808=SHAPE_REPRESENTATION('',(#1805),#29);
#1809=SHAPE_DEFINITION_REPRESENTATION(#1807,#1808);
#1810=DIMENSIONAL_LOCATION('','',#1806,#189);
#1811=PRECISION_QUALIFIER(4);
#1817=(LENGTH_MEASURE_WITH_UNIT()MEASURE_REPRESENTATION_ITEM()MEASURE_WITH_UNIT(LENGTH_MEASURE(40.0),#10)QUALIFIED_REPRESENTATION_ITEM((#1811))REPRESENTATION_ITEM(''));
#1818=SHAPE_DIMENSION_REPRESENTATION('',(#1817),#29);
#1819=PRECISION_QUALIFIER(4);
#1820=MEASURE_WITH_UNIT(LENGTH_MEASURE(0.500000000000000),#10);
#1821=MEASURE_WITH_UNIT(LENGTH_MEASURE(-0.500000000000000),#10);
#1822=MEASURE_QUALIFICATION('','',#1820,(#1819));
#1823=MEASURE_QUALIFICATION('','',#1821,(#1819));
#1824=TOLERANCE_VALUE(#1821,#1820);
#1825=PLUS_MINUS_TOLERANCE(#1824,#1810);
#1826=DIMENSIONAL_CHARACTERISTIC_REPRESENTATION(#1810,#1818);
#1833=(CHARACTERIZED_OBJECT('','groove')FEATURE_DEFINITION()INSTANCED_FEATURE()MACHINING_FEATURE()REVOLVED_PROFILE()SHAPE_ASPECT('','groove',#38,.T.));
#1834=PROPERTY_DEFINITION('','',#1833);
#1835=PRODUCT_DEFINITION_SHAPE('','',#1833);
#1836=CARTESIAN_POINT('',(0.0,0.0,51.486154541146874));
#1837=DIRECTION('',(0.0,0.0,-1.0));
#1838=DIRECTION('',(-1.0,0.0,0.0));
#1839=AXIS2_PLACEMENT_3D('orientation',#1836,#1837,#1838);
#1840=STANDARD_UNCERTAINTY('upper limit','plus',0.250000000000000);
#1841=STANDARD_UNCERTAINTY('lower limit','minus',-0.250000000000000);
#1842=PRECISION_QUALIFIER(4);
#1848=(LENGTH_MEASURE_WITH_UNIT()MEASURE_REPRESENTATION_ITEM()MEASURE_WITH_UNIT(LENGTH_MEASURE(26.0),#10)QUALIFIED_REPRESENTATION_ITEM((#1840,#1841,#1842))REPRESENTATION_ITEM('radius'));
#1849=SHAPE_REPRESENTATION('',(#892,#940,#984,#1032,#1057,#1089,#1121,#1153,#1170),#29);
#1850=SHAPE_DEFINITION_REPRESENTATION(#1834,#1849);
#1851=SHAPE_REPRESENTATION_WITH_PARAMETERS('',(#1839,#1848),#29);
#1852=SHAPE_DEFINITION_REPRESENTATION(#1834,#1851);
#1853=DIRECTION('',(1.0,0.0,0.0));
#1854=DIRECTION_SHAPE_REPRESENTATION('material side',(#1853),#29);
#1855=PROPERTY_DEFINITION_REPRESENTATION(#1834,#1854);
#1856=CARTESIAN_POINT('',(-26.0,0.0,51.486154541146874));
#1857=DIRECTION('',(0.0,1.0,0.0));
#1858=DIRECTION('',(0.0,0.0,-1.0));
#1859=AXIS2_PLACEMENT_3D('orientation',#1856,#1857,#1858);
#1860=FEATURE_COMPONENT_DEFINITION('','');
#1861=PRODUCT_DEFINITION_SHAPE('','',#1860);
#1862=SQUARE_U_PROFILE('','sweep',#1861,.F.);
#1863=STANDARD_UNCERTAINTY('upper limit','plus',0.500000000000000);
#1864=STANDARD_UNCERTAINTY('lower limit','minus',-0.500000000000000);
#1865=PRECISION_QUALIFIER(4);
#1871=(LENGTH_MEASURE_WITH_UNIT()MEASURE_REPRESENTATION_ITEM()MEASURE_WITH_UNIT(LENGTH_MEASURE(32.972309082293748),#10)QUALIFIED_REPRESENTATION_ITEM((#1863,#1864,#1865))REPRESENTATION_ITEM('width'));
#1876=(MEASURE_REPRESENTATION_ITEM()MEASURE_WITH_UNIT(PLANE_ANGLE_MEASURE(90.0),#19)PLANE_ANGLE_MEASURE_WITH_UNIT()REPRESENTATION_ITEM('first angle'));
#1881=(MEASURE_REPRESENTATION_ITEM()MEASURE_WITH_UNIT(PLANE_ANGLE_MEASURE(170.0),#19)PLANE_ANGLE_MEASURE_WITH_UNIT()REPRESENTATION_ITEM('second angle'));
#1886=(LENGTH_MEASURE_WITH_UNIT()MEASURE_REPRESENTATION_ITEM()MEASURE_WITH_UNIT(LENGTH_MEASURE(7.500000000000000),#10)REPRESENTATION_ITEM('first radius'));
#1891=(LENGTH_MEASURE_WITH_UNIT()MEASURE_REPRESENTATION_ITEM()MEASURE_WITH_UNIT(LENGTH_MEASURE(7.500000000000000),#10)REPRESENTATION_ITEM('second radius'));
#1892=SHAPE_REPRESENTATION_WITH_PARAMETERS('',(#1859,#1871,#1876,#1881,#1886,#1891),#29);
#1893=PROPERTY_DEFINITION('','',#1862);
#1894=SHAPE_DEFINITION_REPRESENTATION(#1893,#1892);
#1895=SHAPE_ASPECT('','sweep occurrence',#1835,.T.);
#1896=SHAPE_DEFINING_RELATIONSHIP('','profile usage',#1862,#1895);
#1897=CHAMFER('','',#38,.T.);
#1898=PROPERTY_DEFINITION('','',#1897);
#1899=FACE_SHAPE_REPRESENTATION('chamfer face',(#1204),#29);
#1900=PROPERTY_DEFINITION_REPRESENTATION(#1898,#1899);
#1901=CHAMFER_OFFSET('','first offset',#38,.F.);
#1902=CHAMFER_OFFSET('','second offset',#38,.F.);
#1903=FEATURE_COMPONENT_RELATIONSHIP('','',#1897,#1901);
#1904=FEATURE_COMPONENT_RELATIONSHIP('','',#1897,#1902);
#1905=PROPERTY_DEFINITION('','',#1901);
#1906=PROPERTY_DEFINITION('','',#1902);
#1907=STANDARD_UNCERTAINTY('upper limit','plus',0.010000000000000);
#1908=STANDARD_UNCERTAINTY('lower limit','minus',-0.010000000000000);
#1909=PRECISION_QUALIFIER(4);
#1915=(LENGTH_MEASURE_WITH_UNIT()MEASURE_REPRESENTATION_ITEM()MEASURE_WITH_UNIT(LENGTH_MEASURE(2.700000000000000),#10)QUALIFIED_REPRESENTATION_ITEM((#1907,#1908,#1909))REPRESENTATION_ITEM('offset amount'));
#1916=SHAPE_REPRESENTATION_WITH_PARAMETERS('',(#1915),#29);
#1917=SHAPE_DEFINITION_REPRESENTATION(#1905,#1916);
#1918=FACE_SHAPE_REPRESENTATION('first chamfer face',(#858),#29);
#1919=PROPERTY_DEFINITION_REPRESENTATION(#1905,#1918);
#1920=STANDARD_UNCERTAINTY('upper limit','plus',0.500000000000000);
#1921=STANDARD_UNCERTAINTY('lower limit','minus',-0.500000000000000);
#1922=PRECISION_QUALIFIER(1);
#1928=(MEASURE_REPRESENTATION_ITEM()MEASURE_WITH_UNIT(PLANE_ANGLE_MEASURE(45.0),#19)PLANE_ANGLE_MEASURE_WITH_UNIT()QUALIFIED_REPRESENTATION_ITEM((#1920,#1921,#1922))REPRESENTATION_ITEM('chamfer angle'));
#1929=SHAPE_REPRESENTATION_WITH_PARAMETERS('',(#1928),#29);
#1930=SHAPE_DEFINITION_REPRESENTATION(#1906,#1929);
#1931=FACE_SHAPE_REPRESENTATION('second chamfer face',(#188),#29);
#1932=PROPERTY_DEFINITION_REPRESENTATION(#1906,#1931);
#1933=CHAMFER('','',#38,.T.);
#1934=PROPERTY_DEFINITION('','',#1933);
#1935=FACE_SHAPE_REPRESENTATION('chamfer face',(#1220),#29);
#1936=PROPERTY_DEFINITION_REPRESENTATION(#1934,#1935);
#1937=CHAMFER_OFFSET('','first offset',#38,.F.);
#1938=CHAMFER_OFFSET('','second offset',#38,.F.);
#1939=FEATURE_COMPONENT_RELATIONSHIP('','',#1933,#1937);
#1940=FEATURE_COMPONENT_RELATIONSHIP('','',#1933,#1938);
#1941=PROPERTY_DEFINITION('','',#1937);
#1942=PROPERTY_DEFINITION('','',#1938);
#1943=STANDARD_UNCERTAINTY('upper limit','plus',0.010000000000000);
#1944=STANDARD_UNCERTAINTY('lower limit','minus',-0.010000000000000);
#1945=PRECISION_QUALIFIER(4);
#1951=(LENGTH_MEASURE_WITH_UNIT()MEASURE_REPRESENTATION_ITEM()MEASURE_WITH_UNIT(LENGTH_MEASURE(2.700000000000000),#10)QUALIFIED_REPRESENTATION_ITEM((#1943,#1944,#1945))REPRESENTATION_ITEM('offset amount'));
#1952=SHAPE_REPRESENTATION_WITH_PARAMETERS('',(#1951),#29);
#1953=SHAPE_DEFINITION_REPRESENTATION(#1941,#1952);
#1954=FACE_SHAPE_REPRESENTATION('first chamfer face',(#821),#29);
#1955=PROPERTY_DEFINITION_REPRESENTATION(#1941,#1954);
#1956=STANDARD_UNCERTAINTY('upper limit','plus',0.500000000000000);
#1957=STANDARD_UNCERTAINTY('lower limit','minus',-0.500000000000000);
#1958=PRECISION_QUALIFIER(1);
#1964=(MEASURE_REPRESENTATION_ITEM()MEASURE_WITH_UNIT(PLANE_ANGLE_MEASURE(45.0),#19)PLANE_ANGLE_MEASURE_WITH_UNIT()QUALIFIED_REPRESENTATION_ITEM((#1956,#1957,#1958))REPRESENTATION_ITEM('chamfer angle'));
#1965=SHAPE_REPRESENTATION_WITH_PARAMETERS('',(#1964),#29);
#1966=SHAPE_DEFINITION_REPRESENTATION(#1942,#1965);
#1967=FACE_SHAPE_REPRESENTATION('second chamfer face',(#188),#29);
#1968=PROPERTY_DEFINITION_REPRESENTATION(#1942,#1967);
#1969=SHAPE_ASPECT_RELATIONSHIP('','',#1933,#1897);
#1976=(CHARACTERIZED_OBJECT('','thread')FEATURE_DEFINITION()INSTANCED_FEATURE()MACHINING_FEATURE()SHAPE_ASPECT('','thread',#38,.T.)THREAD());
#1977=PROPERTY_DEFINITION('','',#1976);
#1978=CARTESIAN_POINT('',(0.0,1.000000E-14,142.0));
#1979=DIRECTION('',(0.0,0.0,-1.0));
#1980=DIRECTION('',(0.0,-1.0,0.0));
#1981=AXIS2_PLACEMENT_3D('orientation',#1978,#1979,#1980);
#1982=DESCRIPTIVE_REPRESENTATION_ITEM('material side','inner');
#1983=DESCRIPTIVE_REPRESENTATION_ITEM('thread system','metric');
#1984=DESCRIPTIVE_REPRESENTATION_ITEM('form','M');
#1985=DESCRIPTIVE_REPRESENTATION_ITEM('fit class','6g');
#1986=DESCRIPTIVE_REPRESENTATION_ITEM('hand','right');
#1987=MEASURE_REPRESENTATION_ITEM('number of threads',COUNT_MEASURE(4.0),#30);
#1992=(LENGTH_MEASURE_WITH_UNIT()MEASURE_REPRESENTATION_ITEM()MEASURE_WITH_UNIT(LENGTH_MEASURE(64.0),#10)REPRESENTATION_ITEM('major diameter'));
#1993=SHAPE_REPRESENTATION_WITH_PARAMETERS('',(#1981,#1982,#1983,#1984,#1985,#1986,#1987,#1992),#29);
#1994=SHAPE_DEFINITION_REPRESENTATION(#1977,#1993);
#1995=SHAPE_DEFINING_RELATIONSHIP('applied shape','',#1976,#822);
#1996=APPLIED_AREA('','',#38,.T.);
#1997=PROPERTY_DEFINITION('','',#1996);
#1998=STANDARD_UNCERTAINTY('upper limit','plus',15.0);
#1999=STANDARD_UNCERTAINTY('lower limit','minus',0.0);
#2000=PRECISION_QUALIFIER(4);
#2006=(LENGTH_MEASURE_WITH_UNIT()MEASURE_REPRESENTATION_ITEM()MEASURE_WITH_UNIT(LENGTH_MEASURE(40.0),#10)QUALIFIED_REPRESENTATION_ITEM((#1998,#1999,#2000))REPRESENTATION_ITEM('area length'));
#2007=SHAPE_REPRESENTATION_WITH_PARAMETERS('',(#1981,#2006),#29);
#2008=SHAPE_DEFINITION_REPRESENTATION(#1997,#2007);
#2009=PRODUCT_DEFINITION_SHAPE('','',#1976);
#2010=SHAPE_ASPECT('','partial area occurrence',#2009,.T.);
#2011=SHAPE_DEFINING_RELATIONSHIP('','applied area usage',#1996,#2010);
#2018=(CHARACTERIZED_OBJECT('','thread')FEATURE_DEFINITION()INSTANCED_FEATURE()MACHINING_FEATURE()SHAPE_ASPECT('','thread',#38,.T.)THREAD());
#2019=PROPERTY_DEFINITION('','',#2018);
#2020=CARTESIAN_POINT('',(0.0,1.000000E-14,0.0));
#2021=DIRECTION('',(0.0,0.0,1.0));
#2022=DIRECTION('',(1.0,0.0,0.0));
#2023=AXIS2_PLACEMENT_3D('orientation',#2020,#2021,#2022);
#2024=DESCRIPTIVE_REPRESENTATION_ITEM('material side','outer');
#2025=DESCRIPTIVE_REPRESENTATION_ITEM('thread system','metric');
#2026=DESCRIPTIVE_REPRESENTATION_ITEM('form','M');
#2027=DESCRIPTIVE_REPRESENTATION_ITEM('fit class','6H');
#2028=DESCRIPTIVE_REPRESENTATION_ITEM('hand','right');
#2029=MEASURE_REPRESENTATION_ITEM('number of threads',COUNT_MEASURE(2.0),#30);
#2034=(LENGTH_MEASURE_WITH_UNIT()MEASURE_REPRESENTATION_ITEM()MEASURE_WITH_UNIT(LENGTH_MEASURE(16.0),#10)REPRESENTATION_ITEM('major diameter'));
#2035=SHAPE_REPRESENTATION_WITH_PARAMETERS('',(#2023,#2024,#2025,#2026,#2027,#2028,#2029,#2034),#29);
#2036=SHAPE_DEFINITION_REPRESENTATION(#2019,#2035);
#2037=SHAPE_DEFINING_RELATIONSHIP('applied shape','',#2018,#769);
#2038=APPLIED_AREA('','',#38,.T.);
#2039=PROPERTY_DEFINITION('','',#2038);
#2040=STANDARD_UNCERTAINTY('upper limit','plus',4.0);
#2041=STANDARD_UNCERTAINTY('lower limit','minus',0.0);
#2042=PRECISION_QUALIFIER(4);
#2048=(LENGTH_MEASURE_WITH_UNIT()MEASURE_REPRESENTATION_ITEM()MEASURE_WITH_UNIT(LENGTH_MEASURE(20.0),#10)QUALIFIED_REPRESENTATION_ITEM((#2040,#2041,#2042))REPRESENTATION_ITEM('area length'));
#2049=SHAPE_REPRESENTATION_WITH_PARAMETERS('',(#2023,#2048),#29);
#2050=SHAPE_DEFINITION_REPRESENTATION(#2039,#2049);
#2051=PRODUCT_DEFINITION_SHAPE('','',#2018);
#2052=SHAPE_ASPECT('','partial area occurrence',#2051,.T.);
#2053=SHAPE_DEFINING_RELATIONSHIP('','applied area usage',#2038,#2052);
#2054=DESCRIPTIVE_REPRESENTATION_ITEM('note text','FEATURE DESCRIPTION holes reamed 18.1 - 18.2 dia x 15 deep equi-spaced on 56 pcd. Drill to jig.');
#2055=REPRESENTATION('note text',(#2054),#29);
#2056=PROPERTY_DEFINITION('part property','surface note',#481);
#2057=PROPERTY_DEFINITION('part property','surface note',#481);
#2058=PROPERTY_DEFINITION_REPRESENTATION(#2057,#2055);
#2059=PROPERTY_DEFINITION_RELATIONSHIP('','',#2056,#2057);
#2060=PROPERTY_DEFINITION('part property','surface note',#673);
#2061=PROPERTY_DEFINITION('part property','surface note',#673);
#2062=PROPERTY_DEFINITION_REPRESENTATION(#2061,#2055);
#2063=PROPERTY_DEFINITION_RELATIONSHIP('','',#2060,#2061);
#2064=PROPERTY_DEFINITION('part property','surface note',#577);
#2065=PROPERTY_DEFINITION('part property','surface note',#577);
#2066=PROPERTY_DEFINITION_REPRESENTATION(#2065,#2055);
#2067=PROPERTY_DEFINITION_RELATIONSHIP('','',#2064,#2065);
#2068=DESCRIPTIVE_REPRESENTATION_ITEM('note text','INSPECTION INSTRUCTION inspection: Class 1C');
#2069=REPRESENTATION('note text',(#2068),#29);
#2070=PROPERTY_DEFINITION('part property','part note',#37);
#2071=PROPERTY_DEFINITION('part property','part note',#37);
#2072=PROPERTY_DEFINITION_REPRESENTATION(#2071,#2069);
#2073=PROPERTY_DEFINITION_RELATIONSHIP('','',#2070,#2071);
#2074=DESCRIPTIVE_REPRESENTATION_ITEM('note text','FEATURE DIMENSION blend');
#2075=REPRESENTATION('note text',(#2074),#29);
#2076=PROPERTY_DEFINITION('part property','surface note',#1154);
#2077=PROPERTY_DEFINITION('part property','surface note',#1154);
#2078=PROPERTY_DEFINITION_REPRESENTATION(#2077,#2075);
#2079=PROPERTY_DEFINITION_RELATIONSHIP('','',#2076,#2077);
#2080=MEASURE_WITH_UNIT(COUNT_MEASURE(1.0),#30);
#2081=PRODUCT_DEFINITION('','steel to BS 970 Grade EN24 condition S (use STG583)',#35,#36);
#2082=MATERIAL_DESIGNATION('steel to BS 970 Grade EN24 condition S (use STG583)',(#2081));
#2083=MAKE_FROM_USAGE_OPTION('1','','product material',#37,#2081,1,'primary material',#2080);
#2084=PRODUCT_DEFINITION_SHAPE('base shape','base shape for part',#2081);
#2085=SHAPE_DEFINITION_REPRESENTATION(#2084,#1273);
#2086=VERSIONED_ACTION_REQUEST('','','','');
#2087=ACTION_DIRECTIVE('','','','',(#2086));
#2088=ACTION_METHOD('','','','');
#2089=DIRECTED_ACTION('project order','order for project',#2088,#2087);
#2090=FEATURE_BASED_PP_ACTION_ASSIGNMENT(#2089,(#35));
#2091=APPROVAL_STATUS('approved');
#2092=APPROVAL(#2091,'product version approval');
#2093=FEATURE_BASED_PP_APPROVAL_ASSIGNMENT(#2092,(#35));
#2094=APPROVAL(#2091,'project order approval');
#2095=FEATURE_BASED_PP_APPROVAL_ASSIGNMENT(#2094,(#2089));
#2096=CALENDAR_DATE(1998,9,10);
#2097=APPROVAL_DATE_TIME(#2096,#2092);
#2098=APPROVAL_DATE_TIME(#2096,#2094);
#2099=PERSON('1','Woods','Mr',$,$,$);
#2100=ORGANIZATION($,'LSC: RAMP Consultancy','Producer');
#2101=PERSON_AND_ORGANIZATION(#2099,#2100);
#2102=APPROVAL_ROLE('approval product version');
#2103=APPROVAL_PERSON_ORGANIZATION(#2101,#2092,#2102);
#2104=APPROVAL_PERSON_ORGANIZATION(#2101,#2094,#2102);
#2105=SECURITY_CLASSIFICATION_LEVEL('unclassified');
#2106=SECURITY_CLASSIFICATION('classification','classify product version',#2105);
#2107=FEATURE_BASED_PP_SECURITY_CLASSIFICATION_ASSIGNMENT(#2106,(#35));
#2108=ORDERED_PART(#2089,'quantity','quantity ordered',(#35));
#2109=MEASURE_REPRESENTATION_ITEM('quantity',COUNT_MEASURE(1.0),#30);
#2110=REPRESENTATION('quantity',(#2109),#29);
#2111=PROPERTY_DEFINITION('ordered part property','quantity definition',#2108);
#2112=PROPERTY_DEFINITION_REPRESENTATION(#2111,#2110);
#2113=ORGANIZATION_ROLE('manufacturer');
#2114=FEATURE_BASED_PP_ORGANIZATION_ASSIGNMENT(#2100,#2113,(#35));
#2115=ORGANIZATION_ROLE('owner');
#2116=FEATURE_BASED_PP_ORGANIZATION_ASSIGNMENT(#2100,#2115,(#35));
#2117=PERSON_AND_ORGANIZATION_ROLE('manufacturer');
#2118=FEATURE_BASED_PP_PERSON_AND_ORGANIZATION_ASSIGNMENT(#2101,#2117,(#35));
#2119=PERSON_AND_ORGANIZATION_ROLE('owner');
#2120=FEATURE_BASED_PP_PERSON_AND_ORGANIZATION_ASSIGNMENT(#2101,#2119,(#35));
ENDSEC;
END-ISO-10303-21;

