ISO-10303-21;
HEADER;
FILE_DESCRIPTION (( 'STEP AP214' ), '1' );
FILE_NAME ('tetrahedron.step', '2024-01-04T00:00:00', ( '' ), ( '' ), 'STEP Test', 'Test Generator', '' );
FILE_SCHEMA (( 'AUTOMOTIVE_DESIGN' ));
ENDSEC;

DATA;
/* ============================================ */
/* AP214 Required Product Structure             */
/* ============================================ */
#1 = APPLICATION_CONTEXT ( 'automotive_design' );
#2 = APPLICATION_PROTOCOL_DEFINITION ( 'draft international standard', 'automotive_design', 1998, #1 );
#3 = PRODUCT_CONTEXT ( 'NONE', #1, 'mechanical' );
#4 = PRODUCT ( 'tetrahedron', 'tetrahedron', '', ( #3 ) );
#5 = PRODUCT_DEFINITION_FORMATION_WITH_SPECIFIED_SOURCE ( 'ANY', '', #4, .NOT_KNOWN. );
#6 = PRODUCT_DEFINITION_CONTEXT ( 'detailed design', #1, 'design' );
#7 = PRODUCT_DEFINITION ( 'UNKNOWN', '', #5, #6 );
#8 = PRODUCT_DEFINITION_SHAPE ( 'NONE', 'NONE', #7 );
#9 = PRODUCT_RELATED_PRODUCT_CATEGORY ( 'part', '', ( #4 ) );

/* Units and context */
#10 = ( GEOMETRIC_REPRESENTATION_CONTEXT ( 3 ) GLOBAL_UNCERTAINTY_ASSIGNED_CONTEXT ( ( #13 ) ) GLOBAL_UNIT_ASSIGNED_CONTEXT ( ( #14, #15, #16 ) ) REPRESENTATION_CONTEXT ( 'NONE', 'WORKASPACE' ) );
#13 = UNCERTAINTY_MEASURE_WITH_UNIT ( LENGTH_MEASURE( 1.0E-05 ), #14, 'distance_accuracy_value', 'NONE' );
#14 = ( LENGTH_UNIT ( ) NAMED_UNIT ( * ) SI_UNIT ( .MILLI., .METRE. ) );
#15 = ( NAMED_UNIT ( * ) PLANE_ANGLE_UNIT ( ) SI_UNIT ( $, .RADIAN. ) );
#16 = ( NAMED_UNIT ( * ) SOLID_ANGLE_UNIT ( ) SI_UNIT ( $, .STERADIAN. ) );

/* Origin placement */
#20 = CARTESIAN_POINT ( 'NONE', ( 0.0, 0.0, 0.0 ) );
#21 = DIRECTION ( 'NONE', ( 0.0, 0.0, 1.0 ) );
#22 = DIRECTION ( 'NONE', ( 1.0, 0.0, 0.0 ) );
#23 = AXIS2_PLACEMENT_3D ( 'NONE', #20, #21, #22 );

/* ============================================ */
/* Geometry (remapped from original file)       */
/* ============================================ */
#25 = CARTESIAN_POINT('v0',(0.,0.,0.));
#26 = CARTESIAN_POINT('v1',(10.,10.,0.));
#27 = CARTESIAN_POINT('v2',(10.,0.,10.));
#28 = CARTESIAN_POINT('v3',(0.,10.,10.));
#35 = VERTEX_POINT('',#25);
#36 = VERTEX_POINT('',#26);
#37 = VERTEX_POINT('',#27);
#38 = VERTEX_POINT('',#28);
#44 = DIRECTION('',(0.707107,0.707107,0.));
#45 = DIRECTION('',(0.707107,-0.707107,0.707107));
#46 = DIRECTION('',(-0.707107,0.707107,0.707107));
#47 = DIRECTION('',(0.,-0.707107,0.707107));
#48 = DIRECTION('',(-0.707107,0.,0.707107));
#49 = DIRECTION('',(0.,0.707107,-0.707107));
#54 = CARTESIAN_POINT('',(0.,0.,0.));
#55 = DIRECTION('',(0.707107,0.707107,0.));
#56 = VECTOR('',#55,14.142136);
#57 = LINE('',#54,#56);
#58 = EDGE_CURVE('',#35,#36,#57,.T.);
#59 = CARTESIAN_POINT('',(0.,0.,0.));
#60 = DIRECTION('',(0.707107,0.,0.707107));
#61 = VECTOR('',#60,14.142136);
#62 = LINE('',#59,#61);
#63 = EDGE_CURVE('',#35,#37,#62,.T.);
#64 = CARTESIAN_POINT('',(0.,0.,0.));
#65 = DIRECTION('',(0.,0.707107,0.707107));
#66 = VECTOR('',#65,14.142136);
#67 = LINE('',#64,#66);
#68 = EDGE_CURVE('',#35,#38,#67,.T.);
#69 = CARTESIAN_POINT('',(10.,10.,0.));
#70 = DIRECTION('',(0.,-0.707107,0.707107));
#71 = VECTOR('',#70,14.142136);
#72 = LINE('',#69,#71);
#73 = EDGE_CURVE('',#36,#37,#72,.T.);
#74 = CARTESIAN_POINT('',(10.,10.,0.));
#75 = DIRECTION('',(-0.707107,0.,0.707107));
#76 = VECTOR('',#75,14.142136);
#77 = LINE('',#74,#76);
#78 = EDGE_CURVE('',#36,#38,#77,.T.);
#79 = CARTESIAN_POINT('',(10.,0.,10.));
#80 = DIRECTION('',(-0.707107,0.707107,0.));
#81 = VECTOR('',#80,14.142136);
#82 = LINE('',#79,#81);
#83 = EDGE_CURVE('',#37,#38,#82,.T.);
#124 = CARTESIAN_POINT('',(6.666667,3.333333,3.333333));
#125 = DIRECTION('',(0.577350,-0.577350,-0.577350));
#126 = DIRECTION('',(0.707107,0.707107,0.));
#127 = AXIS2_PLACEMENT_3D('',#124,#125,#126);
#128 = PLANE('',#127);
#129 = CARTESIAN_POINT('',(3.333333,3.333333,6.666667));
#130 = DIRECTION('',(-0.577350,-0.577350,0.577350));
#131 = DIRECTION('',(0.707107,0.,0.707107));
#132 = AXIS2_PLACEMENT_3D('',#129,#130,#131);
#133 = PLANE('',#132);
#134 = CARTESIAN_POINT('',(3.333333,6.666667,3.333333));
#135 = DIRECTION('',(-0.577350,0.577350,-0.577350));
#136 = DIRECTION('',(0.,0.707107,0.707107));
#137 = AXIS2_PLACEMENT_3D('',#134,#135,#136);
#138 = PLANE('',#137);
#139 = CARTESIAN_POINT('',(6.666667,6.666667,6.666667));
#140 = DIRECTION('',(0.577350,0.577350,0.577350));
#141 = DIRECTION('',(-0.707107,0.,0.707107));
#142 = AXIS2_PLACEMENT_3D('',#139,#140,#141);
#143 = PLANE('',#142);
#224 = ORIENTED_EDGE('',*,*,#58,.T.);
#225 = ORIENTED_EDGE('',*,*,#73,.T.);
#226 = ORIENTED_EDGE('',*,*,#63,.F.);
#227 = EDGE_LOOP('',(#224,#225,#226));
#228 = FACE_OUTER_BOUND('',#227,.T.);
#229 = ADVANCED_FACE('',(#228),#128,.T.);
#234 = ORIENTED_EDGE('',*,*,#63,.T.);
#235 = ORIENTED_EDGE('',*,*,#83,.T.);
#236 = ORIENTED_EDGE('',*,*,#68,.F.);
#237 = EDGE_LOOP('',(#234,#235,#236));
#238 = FACE_OUTER_BOUND('',#237,.T.);
#239 = ADVANCED_FACE('',(#238),#133,.T.);
#244 = ORIENTED_EDGE('',*,*,#68,.T.);
#245 = ORIENTED_EDGE('',*,*,#78,.F.);
#246 = ORIENTED_EDGE('',*,*,#58,.F.);
#247 = EDGE_LOOP('',(#244,#245,#246));
#248 = FACE_OUTER_BOUND('',#247,.T.);
#249 = ADVANCED_FACE('',(#248),#138,.T.);
#254 = ORIENTED_EDGE('',*,*,#78,.T.);
#255 = ORIENTED_EDGE('',*,*,#83,.F.);
#256 = ORIENTED_EDGE('',*,*,#73,.F.);
#257 = EDGE_LOOP('',(#254,#255,#256));
#258 = FACE_OUTER_BOUND('',#257,.T.);
#259 = ADVANCED_FACE('',(#258),#143,.T.);
#324 = CLOSED_SHELL('tetrahedron_shell',(#229,#239,#249,#259));
#325 = MANIFOLD_SOLID_BREP('Tetrahedron',#324);
#424 = (GEOMETRIC_REPRESENTATION_CONTEXT(3) GLOBAL_UNIT_ASSIGNED_CONTEXT((#425,#426)) REPRESENTATION_CONTEXT('','3D'));
#425 = (LENGTH_UNIT() NAMED_UNIT(*) SI_UNIT(.MILLI.,.METRE.));
#426 = (NAMED_UNIT(*) PLANE_ANGLE_UNIT() SI_UNIT($,.RADIAN.));
#434 = CARTESIAN_POINT('',(0.,0.,0.));
#435 = DIRECTION('',(0.,0.,1.));
#436 = DIRECTION('',(1.,0.,0.));
#437 = AXIS2_PLACEMENT_3D('',#434,#435,#436);
#438 = ADVANCED_BREP_SHAPE_REPRESENTATION('Tetrahedron',(#325,#437),#424);
#524 = COLOUR_RGB('Green',0.2,0.8,0.3);
#525 = FILL_AREA_STYLE_COLOUR('',#524);
#526 = FILL_AREA_STYLE('',(#525));
#527 = SURFACE_STYLE_FILL_AREA(#526);
#528 = SURFACE_SIDE_STYLE('',(#527));
#529 = SURFACE_STYLE_USAGE(.BOTH.,#528);
#530 = PRESENTATION_STYLE_ASSIGNMENT((#529));
#531 = STYLED_ITEM('GreenStyle',(#530),#325);

/* ============================================ */
/* Shape Representation                         */
/* ============================================ */
#532 = ADVANCED_BREP_SHAPE_REPRESENTATION ( 'tetrahedron', ( #325, #23 ), #10 );
#533 = SHAPE_DEFINITION_REPRESENTATION ( #8, #532 );

ENDSEC;
END-ISO-10303-21;
