ISO-10303-21;
HEADER;
FILE_DESCRIPTION(('Extracted component: Table'), '2;1');
FILE_NAME('Table', '2026-01-13T08:35:26.921Z', (''), (''), '', '', '');
FILE_SCHEMA(('AUTOMOTIVE_DESIGN'));
ENDSEC;
DATA;
#2102=CYLINDRICAL_SURFACE('',#197887,2.);
#2103=CYLINDRICAL_SURFACE('',#197890,2.);
#2104=CYLINDRICAL_SURFACE('',#197893,2.);
#2105=CYLINDRICAL_SURFACE('',#197896,2.);
#14332=LINE('',#294786,#28171);
#14333=LINE('',#294789,#28172);
#14334=LINE('',#294791,#28173);
#14335=LINE('',#294793,#28174);
#14336=LINE('',#294795,#28175);
#14337=LINE('',#294797,#28176);
#14338=LINE('',#294799,#28177);
#14339=LINE('',#294801,#28178);
#14340=LINE('',#294803,#28179);
#14341=LINE('',#294805,#28180);
#14342=LINE('',#294807,#28181);
#14343=LINE('',#294808,#28182);
#28171=VECTOR('',#228254,1000.);
#28172=VECTOR('',#228255,1000.);
#28173=VECTOR('',#228256,1000.);
#28174=VECTOR('',#228257,1000.);
#28175=VECTOR('',#228260,1000.);
#28176=VECTOR('',#228261,1000.);
#28177=VECTOR('',#228262,1000.);
#28178=VECTOR('',#228265,1000.);
#28179=VECTOR('',#228266,1000.);
#28180=VECTOR('',#228267,1000.);
#28181=VECTOR('',#228270,1000.);
#28182=VECTOR('',#228271,1000.);
#34524=PLANE('',#197877);
#34525=PLANE('',#197878);
#34526=PLANE('',#197879);
#34527=PLANE('',#197880);
#34528=PLANE('',#197881);
#34529=PLANE('',#197886);
#34530=PLANE('',#197889);
#34531=PLANE('',#197892);
#34532=PLANE('',#197895);
#34533=PLANE('',#197898);
#37361=CIRCLE('',#197882,2.);
#37362=CIRCLE('',#197883,2.);
#37363=CIRCLE('',#197884,2.);
#37364=CIRCLE('',#197885,2.);
#37365=CIRCLE('',#197888,2.);
#37366=CIRCLE('',#197891,2.);
#37367=CIRCLE('',#197894,2.);
#37368=CIRCLE('',#197897,2.);
#38250=ADVANCED_BREP_SHAPE_REPRESENTATION('',(#189253),#319189);
#72506=ORIENTED_EDGE('',*,*,#94826,.F.);
#72507=ORIENTED_EDGE('',*,*,#94827,.F.);
#72508=ORIENTED_EDGE('',*,*,#94828,.T.);
#72509=ORIENTED_EDGE('',*,*,#94829,.T.);
#72510=ORIENTED_EDGE('',*,*,#94830,.F.);
#72511=ORIENTED_EDGE('',*,*,#94829,.F.);
#72512=ORIENTED_EDGE('',*,*,#94831,.T.);
#72513=ORIENTED_EDGE('',*,*,#94832,.T.);
#72514=ORIENTED_EDGE('',*,*,#94833,.F.);
#72515=ORIENTED_EDGE('',*,*,#94832,.F.);
#72516=ORIENTED_EDGE('',*,*,#94834,.T.);
#72517=ORIENTED_EDGE('',*,*,#94835,.T.);
#72518=ORIENTED_EDGE('',*,*,#94836,.F.);
#72519=ORIENTED_EDGE('',*,*,#94835,.F.);
#72520=ORIENTED_EDGE('',*,*,#94837,.T.);
#72521=ORIENTED_EDGE('',*,*,#94827,.T.);
#72522=ORIENTED_EDGE('',*,*,#94838,.T.);
#72523=ORIENTED_EDGE('',*,*,#94839,.T.);
#72524=ORIENTED_EDGE('',*,*,#94840,.T.);
#72525=ORIENTED_EDGE('',*,*,#94841,.T.);
#72526=ORIENTED_EDGE('',*,*,#94828,.F.);
#72527=ORIENTED_EDGE('',*,*,#94837,.F.);
#72528=ORIENTED_EDGE('',*,*,#94834,.F.);
#72529=ORIENTED_EDGE('',*,*,#94831,.F.);
#72530=ORIENTED_EDGE('',*,*,#94826,.T.);
#72531=ORIENTED_EDGE('',*,*,#94830,.T.);
#72532=ORIENTED_EDGE('',*,*,#94833,.T.);
#72533=ORIENTED_EDGE('',*,*,#94836,.T.);
#72534=ORIENTED_EDGE('',*,*,#94842,.T.);
#72535=ORIENTED_EDGE('',*,*,#94841,.F.);
#72536=ORIENTED_EDGE('',*,*,#94842,.F.);
#72537=ORIENTED_EDGE('',*,*,#94843,.T.);
#72538=ORIENTED_EDGE('',*,*,#94840,.F.);
#72539=ORIENTED_EDGE('',*,*,#94843,.F.);
#72540=ORIENTED_EDGE('',*,*,#94844,.T.);
#72541=ORIENTED_EDGE('',*,*,#94839,.F.);
#72542=ORIENTED_EDGE('',*,*,#94844,.F.);
#72543=ORIENTED_EDGE('',*,*,#94845,.T.);
#72544=ORIENTED_EDGE('',*,*,#94838,.F.);
#72545=ORIENTED_EDGE('',*,*,#94845,.F.);
#94826=EDGE_CURVE('',#108738,#108739,#14332,.T.);
#94827=EDGE_CURVE('',#108740,#108738,#14333,.T.);
#94828=EDGE_CURVE('',#108740,#108741,#14334,.T.);
#94829=EDGE_CURVE('',#108741,#108739,#14335,.T.);
#94830=EDGE_CURVE('',#108739,#108742,#14336,.T.);
#94831=EDGE_CURVE('',#108741,#108743,#14337,.T.);
#94832=EDGE_CURVE('',#108743,#108742,#14338,.T.);
#94833=EDGE_CURVE('',#108742,#108744,#14339,.T.);
#94834=EDGE_CURVE('',#108743,#108745,#14340,.T.);
#94835=EDGE_CURVE('',#108745,#108744,#14341,.T.);
#94836=EDGE_CURVE('',#108744,#108738,#14342,.T.);
#94837=EDGE_CURVE('',#108745,#108740,#14343,.T.);
#94838=EDGE_CURVE('',#108746,#108746,#37361,.T.);
#94839=EDGE_CURVE('',#108747,#108747,#37362,.T.);
#94840=EDGE_CURVE('',#108748,#108748,#37363,.T.);
#94841=EDGE_CURVE('',#108749,#108749,#37364,.T.);
#94842=EDGE_CURVE('',#108750,#108750,#37365,.T.);
#94843=EDGE_CURVE('',#108751,#108751,#37366,.T.);
#94844=EDGE_CURVE('',#108752,#108752,#37367,.T.);
#94845=EDGE_CURVE('',#108753,#108753,#37368,.T.);
#108738=VERTEX_POINT('',#294787);
#108739=VERTEX_POINT('',#294788);
#108740=VERTEX_POINT('',#294790);
#108741=VERTEX_POINT('',#294792);
#108742=VERTEX_POINT('',#294796);
#108743=VERTEX_POINT('',#294798);
#108744=VERTEX_POINT('',#294802);
#108745=VERTEX_POINT('',#294804);
#108746=VERTEX_POINT('',#294811);
#108747=VERTEX_POINT('',#294813);
#108748=VERTEX_POINT('',#294815);
#108749=VERTEX_POINT('',#294817);
#108750=VERTEX_POINT('',#294821);
#108751=VERTEX_POINT('',#294825);
#108752=VERTEX_POINT('',#294829);
#108753=VERTEX_POINT('',#294833);
#121123=EDGE_LOOP('',(#72506,#72507,#72508,#72509));
#121124=EDGE_LOOP('',(#72510,#72511,#72512,#72513));
#121125=EDGE_LOOP('',(#72514,#72515,#72516,#72517));
#121126=EDGE_LOOP('',(#72518,#72519,#72520,#72521));
#121127=EDGE_LOOP('',(#72522));
#121128=EDGE_LOOP('',(#72523));
#121129=EDGE_LOOP('',(#72524));
#121130=EDGE_LOOP('',(#72525));
#121131=EDGE_LOOP('',(#72526,#72527,#72528,#72529));
#121132=EDGE_LOOP('',(#72530,#72531,#72532,#72533));
#121133=EDGE_LOOP('',(#72534));
#121134=EDGE_LOOP('',(#72535));
#121135=EDGE_LOOP('',(#72536));
#121136=EDGE_LOOP('',(#72537));
#121137=EDGE_LOOP('',(#72538));
#121138=EDGE_LOOP('',(#72539));
#121139=EDGE_LOOP('',(#72540));
#121140=EDGE_LOOP('',(#72541));
#121141=EDGE_LOOP('',(#72542));
#121142=EDGE_LOOP('',(#72543));
#121143=EDGE_LOOP('',(#72544));
#121144=EDGE_LOOP('',(#72545));
#130011=FACE_BOUND('',#121123,.T.);
#130012=FACE_BOUND('',#121124,.T.);
#130013=FACE_BOUND('',#121125,.T.);
#130014=FACE_BOUND('',#121126,.T.);
#130015=FACE_BOUND('',#121127,.T.);
#130016=FACE_BOUND('',#121128,.T.);
#130017=FACE_BOUND('',#121129,.T.);
#130018=FACE_BOUND('',#121130,.T.);
#130019=FACE_BOUND('',#121131,.T.);
#130020=FACE_BOUND('',#121132,.T.);
#130021=FACE_BOUND('',#121133,.T.);
#130022=FACE_BOUND('',#121134,.T.);
#130023=FACE_BOUND('',#121135,.T.);
#130024=FACE_BOUND('',#121136,.T.);
#130025=FACE_BOUND('',#121137,.T.);
#130026=FACE_BOUND('',#121138,.T.);
#130027=FACE_BOUND('',#121139,.T.);
#130028=FACE_BOUND('',#121140,.T.);
#130029=FACE_BOUND('',#121141,.T.);
#130030=FACE_BOUND('',#121142,.T.);
#130031=FACE_BOUND('',#121143,.T.);
#130032=FACE_BOUND('',#121144,.T.);
#138216=ADVANCED_FACE('',(#130011),#34524,.T.);
#138217=ADVANCED_FACE('',(#130012),#34525,.T.);
#138218=ADVANCED_FACE('',(#130013),#34526,.T.);
#138219=ADVANCED_FACE('',(#130014),#34527,.T.);
#138220=ADVANCED_FACE('',(#130015,#130016,#130017,#130018,#130019),#34528,  .F.);
#138221=ADVANCED_FACE('',(#130020),#34529,.T.);
#138222=ADVANCED_FACE('',(#130021,#130022),#2102,.T.);
#138223=ADVANCED_FACE('',(#130023),#34530,.F.);
#138224=ADVANCED_FACE('',(#130024,#130025),#2103,.T.);
#138225=ADVANCED_FACE('',(#130026),#34531,.F.);
#138226=ADVANCED_FACE('',(#130027,#130028),#2104,.T.);
#138227=ADVANCED_FACE('',(#130029),#34532,.F.);
#138228=ADVANCED_FACE('',(#130030,#130031),#2105,.T.);
#138229=ADVANCED_FACE('',(#130032),#34533,.F.);
#139418=CLOSED_SHELL('',(#138216,#138217,#138218,#138219,#138220,#138221, #138222,#138223,#138224,#138225,#138226,#138227,#138228,#138229));
#189253=MANIFOLD_SOLID_BREP('',#139418);
#189321=SHAPE_DEFINITION_REPRESENTATION(#319322,#189369);
#189369=SHAPE_REPRESENTATION('Table',(#189384),#319189);
#189384=AXIS2_PLACEMENT_3D('',#232641,#199190,#199191);
#197877=AXIS2_PLACEMENT_3D('',#294785,#228252,#228253);
#197878=AXIS2_PLACEMENT_3D('',#294794,#228258,#228259);
#197879=AXIS2_PLACEMENT_3D('',#294800,#228263,#228264);
#197880=AXIS2_PLACEMENT_3D('',#294806,#228268,#228269);
#197881=AXIS2_PLACEMENT_3D('',#294809,#228272,#228273);
#197882=AXIS2_PLACEMENT_3D('',#294810,#228274,#228275);
#197883=AXIS2_PLACEMENT_3D('',#294812,#228276,#228277);
#197884=AXIS2_PLACEMENT_3D('',#294814,#228278,#228279);
#197885=AXIS2_PLACEMENT_3D('',#294816,#228280,#228281);
#197886=AXIS2_PLACEMENT_3D('',#294818,#228282,#228283);
#197887=AXIS2_PLACEMENT_3D('',#294819,#228284,#228285);
#197888=AXIS2_PLACEMENT_3D('',#294820,#228286,#228287);
#197889=AXIS2_PLACEMENT_3D('',#294822,#228288,#228289);
#197890=AXIS2_PLACEMENT_3D('',#294823,#228290,#228291);
#197891=AXIS2_PLACEMENT_3D('',#294824,#228292,#228293);
#197892=AXIS2_PLACEMENT_3D('',#294826,#228294,#228295);
#197893=AXIS2_PLACEMENT_3D('',#294827,#228296,#228297);
#197894=AXIS2_PLACEMENT_3D('',#294828,#228298,#228299);
#197895=AXIS2_PLACEMENT_3D('',#294830,#228300,#228301);
#197896=AXIS2_PLACEMENT_3D('',#294831,#228302,#228303);
#197897=AXIS2_PLACEMENT_3D('',#294832,#228304,#228305);
#197898=AXIS2_PLACEMENT_3D('',#294834,#228306,#228307);
#199190=DIRECTION('',(0.,0.,1.));
#199191=DIRECTION('',(1.,0.,0.));
#228252=DIRECTION('',(-1.,0.,0.));
#228253=DIRECTION('',(0.,0.,1.));
#228254=DIRECTION('',(0.,-1.,0.));
#228255=DIRECTION('',(0.,0.,1.));
#228256=DIRECTION('',(0.,-1.,0.));
#228257=DIRECTION('',(0.,0.,1.));
#228258=DIRECTION('',(1.20676415720126E-16,-1.,0.));
#228259=DIRECTION('',(1.,1.20676415720126E-16,0.));
#228260=DIRECTION('',(1.,1.20676415720126E-16,0.));
#228261=DIRECTION('',(1.,1.20676415720126E-16,0.));
#228262=DIRECTION('',(0.,0.,1.));
#228263=DIRECTION('',(1.,0.,0.));
#228264=DIRECTION('',(0.,0.,-1.));
#228265=DIRECTION('',(0.,1.,0.));
#228266=DIRECTION('',(0.,1.,0.));
#228267=DIRECTION('',(0.,0.,1.));
#228268=DIRECTION('',(-1.20676415720126E-16,1.,0.));
#228269=DIRECTION('',(-1.,-1.20676415720126E-16,0.));
#228270=DIRECTION('',(-1.,-1.20676415720126E-16,0.));
#228271=DIRECTION('',(-1.,-1.20676415720126E-16,0.));
#228272=DIRECTION('',(0.,0.,1.));
#228273=DIRECTION('',(1.,0.,0.));
#228274=DIRECTION('',(0.,0.,1.));
#228275=DIRECTION('',(-1.,0.,0.));
#228276=DIRECTION('',(0.,0.,1.));
#228277=DIRECTION('',(-1.,0.,0.));
#228278=DIRECTION('',(0.,0.,1.));
#228279=DIRECTION('',(1.,0.,0.));
#228280=DIRECTION('',(0.,0.,1.));
#228281=DIRECTION('',(1.,0.,0.));
#228282=DIRECTION('',(0.,0.,1.));
#228283=DIRECTION('',(1.,0.,0.));
#228284=DIRECTION('',(0.,0.,1.));
#228285=DIRECTION('',(1.,0.,0.));
#228286=DIRECTION('',(0.,0.,1.));
#228287=DIRECTION('',(1.,0.,0.));
#228288=DIRECTION('',(0.,0.,1.));
#228289=DIRECTION('',(1.,0.,0.));
#228290=DIRECTION('',(0.,0.,1.));
#228291=DIRECTION('',(1.,0.,0.));
#228292=DIRECTION('',(0.,0.,1.));
#228293=DIRECTION('',(1.,0.,0.));
#228294=DIRECTION('',(0.,0.,1.));
#228295=DIRECTION('',(1.,0.,0.));
#228296=DIRECTION('',(0.,0.,1.));
#228297=DIRECTION('',(1.,0.,0.));
#228298=DIRECTION('',(0.,0.,1.));
#228299=DIRECTION('',(-1.,0.,0.));
#228300=DIRECTION('',(0.,0.,1.));
#228301=DIRECTION('',(1.,0.,0.));
#228302=DIRECTION('',(0.,0.,1.));
#228303=DIRECTION('',(1.,0.,0.));
#228304=DIRECTION('',(0.,0.,1.));
#228305=DIRECTION('',(-1.,0.,0.));
#228306=DIRECTION('',(0.,0.,1.));
#228307=DIRECTION('',(1.,0.,0.));
#232641=CARTESIAN_POINT('',(0.,0.,0.));
#294785=CARTESIAN_POINT('',(-115.,39.9999999999999,71.));
#294786=CARTESIAN_POINT('',(-115.,39.9999999999999,74.));
#294787=CARTESIAN_POINT('',(-115.,39.9999999999999,74.));
#294788=CARTESIAN_POINT('',(-115.,-40.,74.));
#294789=CARTESIAN_POINT('',(-115.,39.9999999999999,71.));
#294790=CARTESIAN_POINT('',(-115.,39.9999999999999,71.));
#294791=CARTESIAN_POINT('',(-115.,39.9999999999999,71.));
#294792=CARTESIAN_POINT('',(-115.,-40.,71.));
#294793=CARTESIAN_POINT('',(-115.,-40.,71.));
#294794=CARTESIAN_POINT('',(-115.,-40.,71.));
#294795=CARTESIAN_POINT('',(-115.,-40.,74.));
#294796=CARTESIAN_POINT('',(115.,-40.,74.));
#294797=CARTESIAN_POINT('',(-115.,-40.,71.));
#294798=CARTESIAN_POINT('',(115.,-40.,71.));
#294799=CARTESIAN_POINT('',(115.,-40.,71.));
#294800=CARTESIAN_POINT('',(115.,-40.,71.));
#294801=CARTESIAN_POINT('',(115.,-40.,74.));
#294802=CARTESIAN_POINT('',(115.,40.,74.));
#294803=CARTESIAN_POINT('',(115.,-40.,71.));
#294804=CARTESIAN_POINT('',(115.,40.,71.));
#294805=CARTESIAN_POINT('',(115.,40.,71.));
#294806=CARTESIAN_POINT('',(115.,40.,71.));
#294807=CARTESIAN_POINT('',(115.,40.,74.));
#294808=CARTESIAN_POINT('',(115.,40.,71.));
#294809=CARTESIAN_POINT('',(0.,0.,71.));
#294810=CARTESIAN_POINT('',(100.,32.,71.));
#294811=CARTESIAN_POINT('',(98.,32.,71.));
#294812=CARTESIAN_POINT('',(100.,-32.,71.));
#294813=CARTESIAN_POINT('',(98.,-32.,71.));
#294814=CARTESIAN_POINT('',(-100.,32.,71.));
#294815=CARTESIAN_POINT('',(-98.,32.,71.));
#294816=CARTESIAN_POINT('',(-100.,-32.,71.));
#294817=CARTESIAN_POINT('',(-98.,-32.,71.));
#294818=CARTESIAN_POINT('',(0.,0.,74.));
#294819=CARTESIAN_POINT('',(-100.,-32.,0.));
#294820=CARTESIAN_POINT('',(-100.,-32.,0.));
#294821=CARTESIAN_POINT('',(-98.,-32.,0.));
#294822=CARTESIAN_POINT('',(-100.,-32.,0.));
#294823=CARTESIAN_POINT('',(-100.,32.,0.));
#294824=CARTESIAN_POINT('',(-100.,32.,0.));
#294825=CARTESIAN_POINT('',(-98.,32.,0.));
#294826=CARTESIAN_POINT('',(-100.,32.,0.));
#294827=CARTESIAN_POINT('',(100.,-32.,0.));
#294828=CARTESIAN_POINT('',(100.,-32.,0.));
#294829=CARTESIAN_POINT('',(98.,-32.,0.));
#294830=CARTESIAN_POINT('',(100.,-32.,0.));
#294831=CARTESIAN_POINT('',(100.,32.,0.));
#294832=CARTESIAN_POINT('',(100.,32.,0.));
#294833=CARTESIAN_POINT('',(98.,32.,0.));
#294834=CARTESIAN_POINT('',(100.,32.,0.));
#319203=UNCERTAINTY_MEASURE_WITH_UNIT(LENGTH_MEASURE(0.005),#319253, 'DISTANCE_ACCURACY_VALUE','Maximum Tolerance applied to model');
#319204=UNCERTAINTY_MEASURE_WITH_UNIT(LENGTH_MEASURE(0.005),#319253, 'DISTANCE_ACCURACY_VALUE','Maximum Tolerance applied to model');
#319205=UNCERTAINTY_MEASURE_WITH_UNIT(LENGTH_MEASURE(0.005),#319253, 'DISTANCE_ACCURACY_VALUE','Maximum Tolerance applied to model');
#319206=UNCERTAINTY_MEASURE_WITH_UNIT(LENGTH_MEASURE(0.005),#319253, 'DISTANCE_ACCURACY_VALUE','Maximum Tolerance applied to model');
#319207=UNCERTAINTY_MEASURE_WITH_UNIT(LENGTH_MEASURE(0.005),#319253, 'DISTANCE_ACCURACY_VALUE','Maximum Tolerance applied to model');
#319208=UNCERTAINTY_MEASURE_WITH_UNIT(LENGTH_MEASURE(0.005),#319253, 'DISTANCE_ACCURACY_VALUE','Maximum Tolerance applied to model');
#319209=UNCERTAINTY_MEASURE_WITH_UNIT(LENGTH_MEASURE(0.005),#319253, 'DISTANCE_ACCURACY_VALUE','Maximum Tolerance applied to model');
#319210=UNCERTAINTY_MEASURE_WITH_UNIT(LENGTH_MEASURE(0.005),#319253, 'DISTANCE_ACCURACY_VALUE','Maximum Tolerance applied to model');
#319211=UNCERTAINTY_MEASURE_WITH_UNIT(LENGTH_MEASURE(0.005),#319253, 'DISTANCE_ACCURACY_VALUE','Maximum Tolerance applied to model');
#319212=UNCERTAINTY_MEASURE_WITH_UNIT(LENGTH_MEASURE(0.005),#319253, 'DISTANCE_ACCURACY_VALUE','Maximum Tolerance applied to model');
#319213=UNCERTAINTY_MEASURE_WITH_UNIT(LENGTH_MEASURE(0.005),#319253, 'DISTANCE_ACCURACY_VALUE','Maximum Tolerance applied to model');
#319214=UNCERTAINTY_MEASURE_WITH_UNIT(LENGTH_MEASURE(0.005),#319253, 'DISTANCE_ACCURACY_VALUE','Maximum Tolerance applied to model');
#319215=UNCERTAINTY_MEASURE_WITH_UNIT(LENGTH_MEASURE(0.005),#319253, 'DISTANCE_ACCURACY_VALUE','Maximum Tolerance applied to model');
#319216=UNCERTAINTY_MEASURE_WITH_UNIT(LENGTH_MEASURE(0.005),#319253, 'DISTANCE_ACCURACY_VALUE','Maximum Tolerance applied to model');
#319217=UNCERTAINTY_MEASURE_WITH_UNIT(LENGTH_MEASURE(0.005),#319253, 'DISTANCE_ACCURACY_VALUE','Maximum Tolerance applied to model');
#319218=UNCERTAINTY_MEASURE_WITH_UNIT(LENGTH_MEASURE(0.005),#319253, 'DISTANCE_ACCURACY_VALUE','Maximum Tolerance applied to model');
#319219=UNCERTAINTY_MEASURE_WITH_UNIT(LENGTH_MEASURE(0.005),#319253, 'DISTANCE_ACCURACY_VALUE','Maximum Tolerance applied to model');
#319220=UNCERTAINTY_MEASURE_WITH_UNIT(LENGTH_MEASURE(0.005),#319253, 'DISTANCE_ACCURACY_VALUE','Maximum Tolerance applied to model');
#319221=UNCERTAINTY_MEASURE_WITH_UNIT(LENGTH_MEASURE(0.005),#319253, 'DISTANCE_ACCURACY_VALUE','Maximum Tolerance applied to model');
#319222=UNCERTAINTY_MEASURE_WITH_UNIT(LENGTH_MEASURE(0.005),#319253, 'DISTANCE_ACCURACY_VALUE','Maximum Tolerance applied to model');
#319223=UNCERTAINTY_MEASURE_WITH_UNIT(LENGTH_MEASURE(0.005),#319253, 'DISTANCE_ACCURACY_VALUE','Maximum Tolerance applied to model');
#319224=UNCERTAINTY_MEASURE_WITH_UNIT(LENGTH_MEASURE(0.005),#319253, 'DISTANCE_ACCURACY_VALUE','Maximum Tolerance applied to model');
#319225=UNCERTAINTY_MEASURE_WITH_UNIT(LENGTH_MEASURE(0.005),#319253, 'DISTANCE_ACCURACY_VALUE','Maximum Tolerance applied to model');
#319226=UNCERTAINTY_MEASURE_WITH_UNIT(LENGTH_MEASURE(0.005),#319253, 'DISTANCE_ACCURACY_VALUE','Maximum Tolerance applied to model');
#319227=UNCERTAINTY_MEASURE_WITH_UNIT(LENGTH_MEASURE(0.005),#319253, 'DISTANCE_ACCURACY_VALUE','Maximum Tolerance applied to model');
#319228=UNCERTAINTY_MEASURE_WITH_UNIT(LENGTH_MEASURE(0.005),#319253, 'DISTANCE_ACCURACY_VALUE','Maximum Tolerance applied to model');
#319229=UNCERTAINTY_MEASURE_WITH_UNIT(LENGTH_MEASURE(0.005),#319253, 'DISTANCE_ACCURACY_VALUE','Maximum Tolerance applied to model');
#319230=UNCERTAINTY_MEASURE_WITH_UNIT(LENGTH_MEASURE(0.005),#319253, 'DISTANCE_ACCURACY_VALUE','Maximum Tolerance applied to model');
#319231=UNCERTAINTY_MEASURE_WITH_UNIT(LENGTH_MEASURE(0.005),#319253, 'DISTANCE_ACCURACY_VALUE','Maximum Tolerance applied to model');
#319232=UNCERTAINTY_MEASURE_WITH_UNIT(LENGTH_MEASURE(0.005),#319253, 'DISTANCE_ACCURACY_VALUE','Maximum Tolerance applied to model');
#319233=UNCERTAINTY_MEASURE_WITH_UNIT(LENGTH_MEASURE(0.005),#319253, 'DISTANCE_ACCURACY_VALUE','Maximum Tolerance applied to model');
#319234=UNCERTAINTY_MEASURE_WITH_UNIT(LENGTH_MEASURE(0.005),#319253, 'DISTANCE_ACCURACY_VALUE','Maximum Tolerance applied to model');
#319235=UNCERTAINTY_MEASURE_WITH_UNIT(LENGTH_MEASURE(0.005),#319253, 'DISTANCE_ACCURACY_VALUE','Maximum Tolerance applied to model');
#319236=UNCERTAINTY_MEASURE_WITH_UNIT(LENGTH_MEASURE(0.005),#319253, 'DISTANCE_ACCURACY_VALUE','Maximum Tolerance applied to model');
#319237=UNCERTAINTY_MEASURE_WITH_UNIT(LENGTH_MEASURE(0.005),#319253, 'DISTANCE_ACCURACY_VALUE','Maximum Tolerance applied to model');
#319238=UNCERTAINTY_MEASURE_WITH_UNIT(LENGTH_MEASURE(0.005),#319253, 'DISTANCE_ACCURACY_VALUE','Maximum Tolerance applied to model');
#319239=UNCERTAINTY_MEASURE_WITH_UNIT(LENGTH_MEASURE(0.005),#319253, 'DISTANCE_ACCURACY_VALUE','Maximum Tolerance applied to model');
#319240=UNCERTAINTY_MEASURE_WITH_UNIT(LENGTH_MEASURE(0.005),#319253, 'DISTANCE_ACCURACY_VALUE','Maximum Tolerance applied to model');
#319241=UNCERTAINTY_MEASURE_WITH_UNIT(LENGTH_MEASURE(0.005),#319253, 'DISTANCE_ACCURACY_VALUE','Maximum Tolerance applied to model');
#319242=UNCERTAINTY_MEASURE_WITH_UNIT(LENGTH_MEASURE(0.005),#319253, 'DISTANCE_ACCURACY_VALUE','Maximum Tolerance applied to model');
#319243=UNCERTAINTY_MEASURE_WITH_UNIT(LENGTH_MEASURE(0.005),#319253, 'DISTANCE_ACCURACY_VALUE','Maximum Tolerance applied to model');
#319244=UNCERTAINTY_MEASURE_WITH_UNIT(LENGTH_MEASURE(0.005),#319253, 'DISTANCE_ACCURACY_VALUE','Maximum Tolerance applied to model');
#319245=UNCERTAINTY_MEASURE_WITH_UNIT(LENGTH_MEASURE(0.005),#319253, 'DISTANCE_ACCURACY_VALUE','Maximum Tolerance applied to model');
#319246=UNCERTAINTY_MEASURE_WITH_UNIT(LENGTH_MEASURE(0.005),#319253, 'DISTANCE_ACCURACY_VALUE','Maximum Tolerance applied to model');
#319247=UNCERTAINTY_MEASURE_WITH_UNIT(LENGTH_MEASURE(0.005),#319253, 'DISTANCE_ACCURACY_VALUE','Maximum Tolerance applied to model');
#319248=UNCERTAINTY_MEASURE_WITH_UNIT(LENGTH_MEASURE(0.005),#319253, 'DISTANCE_ACCURACY_VALUE','Maximum Tolerance applied to model');
#319249=UNCERTAINTY_MEASURE_WITH_UNIT(LENGTH_MEASURE(0.005),#319253, 'DISTANCE_ACCURACY_VALUE','Maximum Tolerance applied to model');
#319250=UNCERTAINTY_MEASURE_WITH_UNIT(LENGTH_MEASURE(0.005),#319253, 'DISTANCE_ACCURACY_VALUE','Maximum Tolerance applied to model');
#319322=PRODUCT_DEFINITION_SHAPE('','',#319394);
#319394=PRODUCT_DEFINITION('','',#319490,#319442);
#319408=PRODUCT_DEFINITION_CONTEXT('',#319697,'design');
#319409=PRODUCT_DEFINITION_CONTEXT('',#319697,'design');
#319410=PRODUCT_DEFINITION_CONTEXT('',#319697,'design');
#319411=PRODUCT_DEFINITION_CONTEXT('',#319697,'design');
#319412=PRODUCT_DEFINITION_CONTEXT('',#319697,'design');
#319413=PRODUCT_DEFINITION_CONTEXT('',#319697,'design');
#319414=PRODUCT_DEFINITION_CONTEXT('',#319697,'design');
#319415=PRODUCT_DEFINITION_CONTEXT('',#319697,'design');
#319416=PRODUCT_DEFINITION_CONTEXT('',#319697,'design');
#319417=PRODUCT_DEFINITION_CONTEXT('',#319697,'design');
#319418=PRODUCT_DEFINITION_CONTEXT('',#319697,'design');
#319419=PRODUCT_DEFINITION_CONTEXT('',#319697,'design');
#319420=PRODUCT_DEFINITION_CONTEXT('',#319697,'design');
#319421=PRODUCT_DEFINITION_CONTEXT('',#319697,'design');
#319422=PRODUCT_DEFINITION_CONTEXT('',#319697,'design');
#319423=PRODUCT_DEFINITION_CONTEXT('',#319697,'design');
#319424=PRODUCT_DEFINITION_CONTEXT('',#319697,'design');
#319425=PRODUCT_DEFINITION_CONTEXT('',#319697,'design');
#319426=PRODUCT_DEFINITION_CONTEXT('',#319697,'design');
#319427=PRODUCT_DEFINITION_CONTEXT('',#319697,'design');
#319428=PRODUCT_DEFINITION_CONTEXT('',#319697,'design');
#319429=PRODUCT_DEFINITION_CONTEXT('',#319697,'design');
#319430=PRODUCT_DEFINITION_CONTEXT('',#319697,'design');
#319431=PRODUCT_DEFINITION_CONTEXT('',#319697,'design');
#319432=PRODUCT_DEFINITION_CONTEXT('',#319697,'design');
#319433=PRODUCT_DEFINITION_CONTEXT('',#319697,'design');
#319434=PRODUCT_DEFINITION_CONTEXT('',#319697,'design');
#319435=PRODUCT_DEFINITION_CONTEXT('',#319697,'design');
#319436=PRODUCT_DEFINITION_CONTEXT('',#319697,'design');
#319437=PRODUCT_DEFINITION_CONTEXT('',#319697,'design');
#319438=PRODUCT_DEFINITION_CONTEXT('',#319697,'design');
#319439=PRODUCT_DEFINITION_CONTEXT('',#319697,'design');
#319440=PRODUCT_DEFINITION_CONTEXT('',#319697,'design');
#319441=PRODUCT_DEFINITION_CONTEXT('',#319697,'design');
#319442=PRODUCT_DEFINITION_CONTEXT('',#319697,'design');
#319443=PRODUCT_DEFINITION_CONTEXT('',#319697,'design');
#319444=PRODUCT_DEFINITION_CONTEXT('',#319697,'design');
#319445=PRODUCT_DEFINITION_CONTEXT('',#319697,'design');
#319446=PRODUCT_DEFINITION_CONTEXT('',#319697,'design');
#319447=PRODUCT_DEFINITION_CONTEXT('',#319697,'design');
#319448=PRODUCT_DEFINITION_CONTEXT('',#319697,'design');
#319449=PRODUCT_DEFINITION_CONTEXT('',#319697,'design');
#319450=PRODUCT_DEFINITION_CONTEXT('',#319697,'design');
#319451=PRODUCT_DEFINITION_CONTEXT('',#319697,'design');
#319452=PRODUCT_DEFINITION_CONTEXT('',#319697,'design');
#319453=PRODUCT_DEFINITION_CONTEXT('',#319697,'design');
#319454=PRODUCT_DEFINITION_CONTEXT('',#319697,'design');
#319455=PRODUCT_DEFINITION_CONTEXT('',#319697,'design');
#319490=PRODUCT_DEFINITION_FORMATION_WITH_SPECIFIED_SOURCE('','',#319586,  .NOT_KNOWN.);
#319586=PRODUCT('Table','Table','Table',(#319682));
#319648=PRODUCT_CONTEXT('',#319697,'mechanical');
#319649=PRODUCT_CONTEXT('',#319697,'mechanical');
#319650=PRODUCT_CONTEXT('',#319697,'mechanical');
#319651=PRODUCT_CONTEXT('',#319697,'mechanical');
#319652=PRODUCT_CONTEXT('',#319697,'mechanical');
#319653=PRODUCT_CONTEXT('',#319697,'mechanical');
#319654=PRODUCT_CONTEXT('',#319697,'mechanical');
#319655=PRODUCT_CONTEXT('',#319697,'mechanical');
#319656=PRODUCT_CONTEXT('',#319697,'mechanical');
#319657=PRODUCT_CONTEXT('',#319697,'mechanical');
#319658=PRODUCT_CONTEXT('',#319697,'mechanical');
#319659=PRODUCT_CONTEXT('',#319697,'mechanical');
#319660=PRODUCT_CONTEXT('',#319697,'mechanical');
#319661=PRODUCT_CONTEXT('',#319697,'mechanical');
#319662=PRODUCT_CONTEXT('',#319697,'mechanical');
#319663=PRODUCT_CONTEXT('',#319697,'mechanical');
#319664=PRODUCT_CONTEXT('',#319697,'mechanical');
#319665=PRODUCT_CONTEXT('',#319697,'mechanical');
#319666=PRODUCT_CONTEXT('',#319697,'mechanical');
#319667=PRODUCT_CONTEXT('',#319697,'mechanical');
#319668=PRODUCT_CONTEXT('',#319697,'mechanical');
#319669=PRODUCT_CONTEXT('',#319697,'mechanical');
#319670=PRODUCT_CONTEXT('',#319697,'mechanical');
#319671=PRODUCT_CONTEXT('',#319697,'mechanical');
#319672=PRODUCT_CONTEXT('',#319697,'mechanical');
#319673=PRODUCT_CONTEXT('',#319697,'mechanical');
#319674=PRODUCT_CONTEXT('',#319697,'mechanical');
#319675=PRODUCT_CONTEXT('',#319697,'mechanical');
#319676=PRODUCT_CONTEXT('',#319697,'mechanical');
#319677=PRODUCT_CONTEXT('',#319697,'mechanical');
#319678=PRODUCT_CONTEXT('',#319697,'mechanical');
#319679=PRODUCT_CONTEXT('',#319697,'mechanical');
#319680=PRODUCT_CONTEXT('',#319697,'mechanical');
#319681=PRODUCT_CONTEXT('',#319697,'mechanical');
#319682=PRODUCT_CONTEXT('',#319697,'mechanical');
#319683=PRODUCT_CONTEXT('',#319697,'mechanical');
#319684=PRODUCT_CONTEXT('',#319697,'mechanical');
#319685=PRODUCT_CONTEXT('',#319697,'mechanical');
#319686=PRODUCT_CONTEXT('',#319697,'mechanical');
#319687=PRODUCT_CONTEXT('',#319697,'mechanical');
#319688=PRODUCT_CONTEXT('',#319697,'mechanical');
#319689=PRODUCT_CONTEXT('',#319697,'mechanical');
#319690=PRODUCT_CONTEXT('',#319697,'mechanical');
#319691=PRODUCT_CONTEXT('',#319697,'mechanical');
#319692=PRODUCT_CONTEXT('',#319697,'mechanical');
#319693=PRODUCT_CONTEXT('',#319697,'mechanical');
#319694=PRODUCT_CONTEXT('',#319697,'mechanical');
#319695=PRODUCT_CONTEXT('',#319697,'mechanical');
#319696=APPLICATION_PROTOCOL_DEFINITION('international standard', 'automotive_design',2010,#319697);
#319697=APPLICATION_CONTEXT( 'core data for automotive mechanical design processes');
ENDSEC;
END-ISO-10303-21;
