ISO-10303-21;
HEADER;
  FILE_DESCRIPTION(('Regular hexagon with 3 triangular holes'),'2;1');
  FILE_NAME('hexagon_3_holes.stp','20250104',(''),(''),'','','');
  FILE_SCHEMA(('CONFIG_CONTROL_DESIGN'));
ENDSEC;
DATA;

  /* ==== Geometric context ==== */
  #1 = CARTESIAN_POINT('', (0.0, 0.0, 0.0));
  #2 = DIRECTION('', (0.0, 0.0, 1.0));
  #3 = DIRECTION('', (1.0, 0.0, 0.0));
  #4 = AXIS2_PLACEMENT_3D('', #1, #2, #3);
  #5 = PLANE('', #4);

  /* ==== OUTER BOUNDARY: Hexagon centered at (5,5) radius 5 ==== */
  #10 = CARTESIAN_POINT('', (10.0, 5.0, 0.0));
  #11 = CARTESIAN_POINT('', (7.5, 9.33, 0.0));
  #12 = CARTESIAN_POINT('', (2.5, 9.33, 0.0));
  #13 = CARTESIAN_POINT('', (0.0, 5.0, 0.0));
  #14 = CARTESIAN_POINT('', (2.5, 0.67, 0.0));
  #15 = CARTESIAN_POINT('', (7.5, 0.67, 0.0));

  #20 = VERTEX_POINT('', #10);
  #21 = VERTEX_POINT('', #11);
  #22 = VERTEX_POINT('', #12);
  #23 = VERTEX_POINT('', #13);
  #24 = VERTEX_POINT('', #14);
  #25 = VERTEX_POINT('', #15);

  #100 = VECTOR('', #3, 1.0);

  #30 = EDGE_CURVE('', #20, #21, #40, .T.);
  #31 = EDGE_CURVE('', #21, #22, #41, .T.);
  #32 = EDGE_CURVE('', #22, #23, #42, .T.);
  #33 = EDGE_CURVE('', #23, #24, #43, .T.);
  #34 = EDGE_CURVE('', #24, #25, #44, .T.);
  #35 = EDGE_CURVE('', #25, #20, #45, .T.);

  #40 = LINE('', #10, #100);
  #41 = LINE('', #11, #100);
  #42 = LINE('', #12, #100);
  #43 = LINE('', #13, #100);
  #44 = LINE('', #14, #100);
  #45 = LINE('', #15, #100);

  #50 = ORIENTED_EDGE('', *, *, #30, .T.);
  #51 = ORIENTED_EDGE('', *, *, #31, .T.);
  #52 = ORIENTED_EDGE('', *, *, #32, .T.);
  #53 = ORIENTED_EDGE('', *, *, #33, .T.);
  #54 = ORIENTED_EDGE('', *, *, #34, .T.);
  #55 = ORIENTED_EDGE('', *, *, #35, .T.);

  #60 = EDGE_LOOP('', (#50, #51, #52, #53, #54, #55));
  #70 = FACE_OUTER_BOUND('', #60, .T.);

  /* ==== HOLE 1: Center triangle ==== */
  #110 = CARTESIAN_POINT('', (4.0, 4.5, 0.0));
  #111 = CARTESIAN_POINT('', (6.0, 4.5, 0.0));
  #112 = CARTESIAN_POINT('', (5.0, 6.5, 0.0));

  #120 = VERTEX_POINT('', #110);
  #121 = VERTEX_POINT('', #111);
  #122 = VERTEX_POINT('', #112);

  #130 = EDGE_CURVE('', #120, #121, #140, .T.);
  #131 = EDGE_CURVE('', #121, #122, #141, .T.);
  #132 = EDGE_CURVE('', #122, #120, #142, .T.);

  #140 = LINE('', #110, #100);
  #141 = LINE('', #111, #100);
  #142 = LINE('', #112, #100);

  #150 = ORIENTED_EDGE('', *, *, #130, .T.);
  #151 = ORIENTED_EDGE('', *, *, #131, .T.);
  #152 = ORIENTED_EDGE('', *, *, #132, .T.);

  #160 = EDGE_LOOP('', (#150, #151, #152));
  #170 = FACE_BOUND('', #160, .T.);

  /* ==== HOLE 2: Bottom-left triangle ==== */
  #210 = CARTESIAN_POINT('', (2.5, 2.5, 0.0));
  #211 = CARTESIAN_POINT('', (4.5, 2.5, 0.0));
  #212 = CARTESIAN_POINT('', (3.5, 4.0, 0.0));

  #220 = VERTEX_POINT('', #210);
  #221 = VERTEX_POINT('', #211);
  #222 = VERTEX_POINT('', #212);

  #230 = EDGE_CURVE('', #220, #221, #240, .T.);
  #231 = EDGE_CURVE('', #221, #222, #241, .T.);
  #232 = EDGE_CURVE('', #222, #220, #242, .T.);

  #240 = LINE('', #210, #100);
  #241 = LINE('', #211, #100);
  #242 = LINE('', #212, #100);

  #250 = ORIENTED_EDGE('', *, *, #230, .T.);
  #251 = ORIENTED_EDGE('', *, *, #231, .T.);
  #252 = ORIENTED_EDGE('', *, *, #232, .T.);

  #260 = EDGE_LOOP('', (#250, #251, #252));
  #270 = FACE_BOUND('', #260, .T.);

  /* ==== HOLE 3: Bottom-right triangle ==== */
  #310 = CARTESIAN_POINT('', (5.5, 2.5, 0.0));
  #311 = CARTESIAN_POINT('', (7.5, 2.5, 0.0));
  #312 = CARTESIAN_POINT('', (6.5, 4.0, 0.0));

  #320 = VERTEX_POINT('', #310);
  #321 = VERTEX_POINT('', #311);
  #322 = VERTEX_POINT('', #312);

  #330 = EDGE_CURVE('', #320, #321, #340, .T.);
  #331 = EDGE_CURVE('', #321, #322, #341, .T.);
  #332 = EDGE_CURVE('', #322, #320, #342, .T.);

  #340 = LINE('', #310, #100);
  #341 = LINE('', #311, #100);
  #342 = LINE('', #312, #100);

  #350 = ORIENTED_EDGE('', *, *, #330, .T.);
  #351 = ORIENTED_EDGE('', *, *, #331, .T.);
  #352 = ORIENTED_EDGE('', *, *, #332, .T.);

  #360 = EDGE_LOOP('', (#350, #351, #352));
  #370 = FACE_BOUND('', #360, .T.);

  /* ==== FACE with outer bound and 3 holes ==== */
  #80 = ADVANCED_FACE('', (#70, #170, #270, #370), #5, .T.);

ENDSEC;
END-ISO-10303-21;
