ISO-10303-21;
HEADER;
FILE_DESCRIPTION (( 'STEP AP214' ), '1' );
FILE_NAME ('octagon-with-square-hole.step', '2024-01-04T00:00:00', ( '' ), ( '' ), 'STEP Test', 'Test Generator', '' );
FILE_SCHEMA (( 'AUTOMOTIVE_DESIGN' ));
ENDSEC;

DATA;
#1 = APPLICATION_CONTEXT ( 'automotive_design' );
#2 = APPLICATION_PROTOCOL_DEFINITION ( 'draft international standard', 'automotive_design', 1998, #1 );
#3 = PRODUCT_CONTEXT ( 'NONE', #1, 'mechanical' );
#4 = PRODUCT ( 'octagon_with_square_hole', 'octagon_with_square_hole', '', ( #3 ) );
#5 = PRODUCT_DEFINITION_FORMATION_WITH_SPECIFIED_SOURCE ( 'ANY', '', #4, .NOT_KNOWN. );
#6 = PRODUCT_DEFINITION_CONTEXT ( 'detailed design', #1, 'design' );
#7 = PRODUCT_DEFINITION ( 'UNKNOWN', '', #5, #6 );
#8 = PRODUCT_DEFINITION_SHAPE ( 'NONE', 'NONE', #7 );
#9 = PRODUCT_RELATED_PRODUCT_CATEGORY ( 'part', '', ( #4 ) );

#10 = ( GEOMETRIC_REPRESENTATION_CONTEXT ( 3 ) GLOBAL_UNCERTAINTY_ASSIGNED_CONTEXT ( ( #11 ) ) GLOBAL_UNIT_ASSIGNED_CONTEXT ( ( #12, #13, #14 ) ) REPRESENTATION_CONTEXT ( 'NONE', 'WORKSPACE' ) );
#11 = UNCERTAINTY_MEASURE_WITH_UNIT ( LENGTH_MEASURE( 1.0E-05 ), #12, 'distance_accuracy_value', 'NONE' );
#12 = ( LENGTH_UNIT ( ) NAMED_UNIT ( * ) SI_UNIT ( .MILLI., .METRE. ) );
#13 = ( NAMED_UNIT ( * ) PLANE_ANGLE_UNIT ( ) SI_UNIT ( $, .RADIAN. ) );
#14 = ( NAMED_UNIT ( * ) SOLID_ANGLE_UNIT ( ) SI_UNIT ( $, .STERADIAN. ) );

#15 = CARTESIAN_POINT ( 'NONE', ( 0.0, 0.0, 0.0 ) );
#16 = DIRECTION ( 'NONE', ( 0.0, 0.0, 1.0 ) );
#17 = DIRECTION ( 'NONE', ( 1.0, 0.0, 0.0 ) );
#18 = AXIS2_PLACEMENT_3D ( 'NONE', #15, #16, #17 );

#19 = CARTESIAN_POINT('', (0.0, 0.0, 0.0));
#20 = DIRECTION('', (0.0, 0.0, 1.0));
#21 = DIRECTION('', (1.0, 0.0, 0.0));
#22 = AXIS2_PLACEMENT_3D('', #19, #20, #21);
#23 = PLANE('', #22);

/* Outer boundary vertices */
#24 = CARTESIAN_POINT('', (9.2400, 7.0700, 0.0000));
#25 = CARTESIAN_POINT('', (7.0700, 9.2400, 0.0000));
#26 = CARTESIAN_POINT('', (2.9300, 9.2400, 0.0000));
#27 = CARTESIAN_POINT('', (0.7600, 7.0700, 0.0000));
#28 = CARTESIAN_POINT('', (0.7600, 2.9300, 0.0000));
#29 = CARTESIAN_POINT('', (2.9300, 0.7600, 0.0000));
#30 = CARTESIAN_POINT('', (7.0700, 0.7600, 0.0000));
#31 = CARTESIAN_POINT('', (9.2400, 2.9300, 0.0000));
#32 = VERTEX_POINT('', #24);
#33 = VERTEX_POINT('', #25);
#34 = VERTEX_POINT('', #26);
#35 = VERTEX_POINT('', #27);
#36 = VERTEX_POINT('', #28);
#37 = VERTEX_POINT('', #29);
#38 = VERTEX_POINT('', #30);
#39 = VERTEX_POINT('', #31);

/* Outer boundary edges */
#40 = DIRECTION('', (-0.7071, 0.7071, 0.0000));
#41 = DIRECTION('', (-1.0000, 0.0000, 0.0000));
#42 = DIRECTION('', (-0.7071, -0.7071, 0.0000));
#43 = DIRECTION('', (0.0000, -1.0000, 0.0000));
#44 = DIRECTION('', (0.7071, -0.7071, 0.0000));
#45 = DIRECTION('', (1.0000, 0.0000, 0.0000));
#46 = DIRECTION('', (0.7071, 0.7071, 0.0000));
#47 = DIRECTION('', (0.0000, 1.0000, 0.0000));
#48 = VECTOR('', #40, 1.0);
#49 = VECTOR('', #41, 1.0);
#50 = VECTOR('', #42, 1.0);
#51 = VECTOR('', #43, 1.0);
#52 = VECTOR('', #44, 1.0);
#53 = VECTOR('', #45, 1.0);
#54 = VECTOR('', #46, 1.0);
#55 = VECTOR('', #47, 1.0);
#56 = LINE('', #24, #48);
#57 = LINE('', #25, #49);
#58 = LINE('', #26, #50);
#59 = LINE('', #27, #51);
#60 = LINE('', #28, #52);
#61 = LINE('', #29, #53);
#62 = LINE('', #30, #54);
#63 = LINE('', #31, #55);
#64 = EDGE_CURVE('', #32, #33, #56, .T.);
#65 = EDGE_CURVE('', #33, #34, #57, .T.);
#66 = EDGE_CURVE('', #34, #35, #58, .T.);
#67 = EDGE_CURVE('', #35, #36, #59, .T.);
#68 = EDGE_CURVE('', #36, #37, #60, .T.);
#69 = EDGE_CURVE('', #37, #38, #61, .T.);
#70 = EDGE_CURVE('', #38, #39, #62, .T.);
#71 = EDGE_CURVE('', #39, #32, #63, .T.);
#72 = ORIENTED_EDGE('', *, *, #64, .T.);
#73 = ORIENTED_EDGE('', *, *, #65, .T.);
#74 = ORIENTED_EDGE('', *, *, #66, .T.);
#75 = ORIENTED_EDGE('', *, *, #67, .T.);
#76 = ORIENTED_EDGE('', *, *, #68, .T.);
#77 = ORIENTED_EDGE('', *, *, #69, .T.);
#78 = ORIENTED_EDGE('', *, *, #70, .T.);
#79 = ORIENTED_EDGE('', *, *, #71, .T.);
#80 = EDGE_LOOP('', (#72, #73, #74, #75, #76, #77, #78, #79));

#81 = FACE_OUTER_BOUND('', #80, .T.);

/* Hole 1 vertices */
#82 = CARTESIAN_POINT('', (3.0000, 3.0000, 0.0000));
#83 = CARTESIAN_POINT('', (7.0000, 3.0000, 0.0000));
#84 = CARTESIAN_POINT('', (7.0000, 7.0000, 0.0000));
#85 = CARTESIAN_POINT('', (3.0000, 7.0000, 0.0000));
#86 = VERTEX_POINT('', #82);
#87 = VERTEX_POINT('', #83);
#88 = VERTEX_POINT('', #84);
#89 = VERTEX_POINT('', #85);

/* Hole 1 edges */
#90 = DIRECTION('', (1.0000, 0.0000, 0.0000));
#91 = DIRECTION('', (0.0000, 1.0000, 0.0000));
#92 = DIRECTION('', (-1.0000, 0.0000, 0.0000));
#93 = DIRECTION('', (0.0000, -1.0000, 0.0000));
#94 = VECTOR('', #90, 1.0);
#95 = VECTOR('', #91, 1.0);
#96 = VECTOR('', #92, 1.0);
#97 = VECTOR('', #93, 1.0);
#98 = LINE('', #82, #94);
#99 = LINE('', #83, #95);
#100 = LINE('', #84, #96);
#101 = LINE('', #85, #97);
#102 = EDGE_CURVE('', #86, #87, #98, .T.);
#103 = EDGE_CURVE('', #87, #88, #99, .T.);
#104 = EDGE_CURVE('', #88, #89, #100, .T.);
#105 = EDGE_CURVE('', #89, #86, #101, .T.);
#106 = ORIENTED_EDGE('', *, *, #102, .T.);
#107 = ORIENTED_EDGE('', *, *, #103, .T.);
#108 = ORIENTED_EDGE('', *, *, #104, .T.);
#109 = ORIENTED_EDGE('', *, *, #105, .T.);
#110 = EDGE_LOOP('', (#106, #107, #108, #109));

#111 = FACE_BOUND('', #110, .T.);

#112 = ADVANCED_FACE('', (#81, #111), #23, .T.);

#113 = ADVANCED_BREP_SHAPE_REPRESENTATION ( 'octagon_with_square_hole', ( #112, #18 ), #10 );
#114 = SHAPE_DEFINITION_REPRESENTATION ( #8, #113 );

ENDSEC;
END-ISO-10303-21;