ISO-10303-21;
HEADER;
  FILE_DESCRIPTION(('5-pointed star with pentagon hole in center'),'2;1');
  FILE_NAME('star_center_hole.stp','20250104',(''),(''),'','','');
  FILE_SCHEMA(('CONFIG_CONTROL_DESIGN'));
ENDSEC;
DATA;

  /* ==== Geometric context ==== */
  #1 = CARTESIAN_POINT('', (0.0, 0.0, 0.0));
  #2 = DIRECTION('', (0.0, 0.0, 1.0));
  #3 = DIRECTION('', (1.0, 0.0, 0.0));
  #4 = AXIS2_PLACEMENT_3D('', #1, #2, #3);
  #5 = PLANE('', #4);

  /* ==== OUTER BOUNDARY: 5-pointed star centered at (5,5) ====
     Outer points at radius 5, inner points at radius 2
     Angles: 90, 162, 234, 306, 378 (outer) and 126, 198, 270, 342, 414 (inner)
  */
  /* Outer point 1 (top): (5, 10) */
  #10 = CARTESIAN_POINT('', (5.0, 10.0, 0.0));
  /* Inner point 1: (5 + 2*cos(126), 5 + 2*sin(126)) = (3.82, 6.62) */
  #11 = CARTESIAN_POINT('', (3.82, 6.62, 0.0));
  /* Outer point 2: (5 + 5*cos(162), 5 + 5*sin(162)) = (0.24, 6.55) */
  #12 = CARTESIAN_POINT('', (0.24, 6.55, 0.0));
  /* Inner point 2: (5 + 2*cos(198), 5 + 2*sin(198)) = (3.10, 4.38) */
  #13 = CARTESIAN_POINT('', (3.10, 4.38, 0.0));
  /* Outer point 3: (5 + 5*cos(234), 5 + 5*sin(234)) = (2.06, 0.96) */
  #14 = CARTESIAN_POINT('', (2.06, 0.96, 0.0));
  /* Inner point 3: (5 + 2*cos(270), 5 + 2*sin(270)) = (5.0, 3.0) */
  #15 = CARTESIAN_POINT('', (5.0, 3.0, 0.0));
  /* Outer point 4: (5 + 5*cos(306), 5 + 5*sin(306)) = (7.94, 0.96) */
  #16 = CARTESIAN_POINT('', (7.94, 0.96, 0.0));
  /* Inner point 4: (5 + 2*cos(342), 5 + 2*sin(342)) = (6.90, 4.38) */
  #17 = CARTESIAN_POINT('', (6.90, 4.38, 0.0));
  /* Outer point 5: (5 + 5*cos(378), 5 + 5*sin(378)) = (9.76, 6.55) */
  #18 = CARTESIAN_POINT('', (9.76, 6.55, 0.0));
  /* Inner point 5: (5 + 2*cos(414), 5 + 2*sin(414)) = (6.18, 6.62) */
  #19 = CARTESIAN_POINT('', (6.18, 6.62, 0.0));

  #20 = VERTEX_POINT('', #10);
  #21 = VERTEX_POINT('', #11);
  #22 = VERTEX_POINT('', #12);
  #23 = VERTEX_POINT('', #13);
  #24 = VERTEX_POINT('', #14);
  #25 = VERTEX_POINT('', #15);
  #26 = VERTEX_POINT('', #16);
  #27 = VERTEX_POINT('', #17);
  #28 = VERTEX_POINT('', #18);
  #29 = VERTEX_POINT('', #19);

  #100 = VECTOR('', #3, 1.0);

  #30 = EDGE_CURVE('', #20, #21, #40, .T.);
  #31 = EDGE_CURVE('', #21, #22, #41, .T.);
  #32 = EDGE_CURVE('', #22, #23, #42, .T.);
  #33 = EDGE_CURVE('', #23, #24, #43, .T.);
  #34 = EDGE_CURVE('', #24, #25, #44, .T.);
  #35 = EDGE_CURVE('', #25, #26, #45, .T.);
  #36 = EDGE_CURVE('', #26, #27, #46, .T.);
  #37 = EDGE_CURVE('', #27, #28, #47, .T.);
  #38 = EDGE_CURVE('', #28, #29, #48, .T.);
  #39 = EDGE_CURVE('', #29, #20, #49, .T.);

  #40 = LINE('', #10, #100);
  #41 = LINE('', #11, #100);
  #42 = LINE('', #12, #100);
  #43 = LINE('', #13, #100);
  #44 = LINE('', #14, #100);
  #45 = LINE('', #15, #100);
  #46 = LINE('', #16, #100);
  #47 = LINE('', #17, #100);
  #48 = LINE('', #18, #100);
  #49 = LINE('', #19, #100);

  #50 = ORIENTED_EDGE('', *, *, #30, .T.);
  #51 = ORIENTED_EDGE('', *, *, #31, .T.);
  #52 = ORIENTED_EDGE('', *, *, #32, .T.);
  #53 = ORIENTED_EDGE('', *, *, #33, .T.);
  #54 = ORIENTED_EDGE('', *, *, #34, .T.);
  #55 = ORIENTED_EDGE('', *, *, #35, .T.);
  #56 = ORIENTED_EDGE('', *, *, #36, .T.);
  #57 = ORIENTED_EDGE('', *, *, #37, .T.);
  #58 = ORIENTED_EDGE('', *, *, #38, .T.);
  #59 = ORIENTED_EDGE('', *, *, #39, .T.);

  #60 = EDGE_LOOP('', (#50, #51, #52, #53, #54, #55, #56, #57, #58, #59));
  #70 = FACE_OUTER_BOUND('', #60, .T.);

  /* ==== HOLE: Small pentagon in center at (5,5) radius 1 ==== */
  /* Pentagon vertices at angles 90, 162, 234, 306, 378 degrees */
  #110 = CARTESIAN_POINT('', (5.0, 6.0, 0.0));
  #111 = CARTESIAN_POINT('', (4.05, 5.31, 0.0));
  #112 = CARTESIAN_POINT('', (4.41, 4.19, 0.0));
  #113 = CARTESIAN_POINT('', (5.59, 4.19, 0.0));
  #114 = CARTESIAN_POINT('', (5.95, 5.31, 0.0));

  #120 = VERTEX_POINT('', #110);
  #121 = VERTEX_POINT('', #111);
  #122 = VERTEX_POINT('', #112);
  #123 = VERTEX_POINT('', #113);
  #124 = VERTEX_POINT('', #114);

  #130 = EDGE_CURVE('', #120, #121, #140, .T.);
  #131 = EDGE_CURVE('', #121, #122, #141, .T.);
  #132 = EDGE_CURVE('', #122, #123, #142, .T.);
  #133 = EDGE_CURVE('', #123, #124, #143, .T.);
  #134 = EDGE_CURVE('', #124, #120, #144, .T.);

  #140 = LINE('', #110, #100);
  #141 = LINE('', #111, #100);
  #142 = LINE('', #112, #100);
  #143 = LINE('', #113, #100);
  #144 = LINE('', #114, #100);

  #150 = ORIENTED_EDGE('', *, *, #130, .T.);
  #151 = ORIENTED_EDGE('', *, *, #131, .T.);
  #152 = ORIENTED_EDGE('', *, *, #132, .T.);
  #153 = ORIENTED_EDGE('', *, *, #133, .T.);
  #154 = ORIENTED_EDGE('', *, *, #134, .T.);

  #160 = EDGE_LOOP('', (#150, #151, #152, #153, #154));
  #170 = FACE_BOUND('', #160, .T.);

  /* ==== FACE with star outer bound and pentagon hole ==== */
  #80 = ADVANCED_FACE('', (#70, #170), #5, .T.);

ENDSEC;
END-ISO-10303-21;
